<svg width="70" height="70" viewBox="0 0 70 70" fill="none" xmlns="http://www.w3.org/2000/svg">
<g clip-path="url(#clip0_1_98)">
<path d="M67.179 26.0628H33.4562V5.25859C33.4562 3.7325 32.2146 2.49077 30.6885 2.49077H21.8377C20.4935 1.2489 18.6984 0.488342 16.7282 0.488342C14.7579 0.488342 12.9629 1.2489 11.6186 2.49077H2.76782C1.24158 2.49077 0 3.7325 0 5.25859V43.2116C0 44.7377 1.24158 45.9795 2.76782 45.9795H19.937V66.6907C19.937 68.2462 21.2026 69.5117 22.7582 69.5117H67.179C68.7345 69.5117 70.0001 68.2462 70.0001 66.6907V28.8835C70 27.3281 68.7345 26.0628 67.179 26.0628ZM38.8069 29.4307H51.1306V50.912L45.5509 48.8565C45.1753 48.7181 44.7623 48.7181 44.3867 48.8565L38.807 50.912V29.4307H38.8069ZM16.7282 3.85623C18.9507 3.85623 20.7723 5.60431 20.8913 7.79769H12.565C12.6839 5.60417 14.5056 3.85623 16.7282 3.85623ZM3.36789 5.85866H9.5096C9.32393 6.47557 9.2166 7.12572 9.19639 7.79754H5.91753C4.98755 7.79754 4.23358 8.55151 4.23358 9.48149C4.23358 10.4115 4.98755 11.1654 5.91753 11.1654H27.5388C28.4688 11.1654 29.2227 10.4115 29.2227 9.48149C29.2227 8.55151 28.4688 7.79754 27.5388 7.79754H24.2598C24.2396 7.12572 24.1321 6.47557 23.9466 5.85866H30.0883V42.6116H3.36789V5.85866ZM66.6321 66.1438H23.3049V45.9795H30.6884C32.2145 45.9795 33.456 44.7379 33.456 43.2116V29.4305H35.4388V53.3269C35.4388 53.8775 35.708 54.3932 36.1596 54.7082C36.446 54.9079 36.7829 55.0108 37.1229 55.0108C37.3189 55.0108 37.516 54.9767 37.7048 54.907L44.9685 52.2313L52.2322 54.907C52.7488 55.0974 53.3259 55.0231 53.7774 54.7082C54.229 54.3932 54.4982 53.8775 54.4982 53.3269V29.4307H66.6319V66.1438H66.6321Z" fill="white"/>
<path d="M22.3615 22.105L14.1579 30.3086L11.0946 27.2453C10.437 26.5877 9.37079 26.5877 8.71303 27.2453C8.05541 27.9029 8.05541 28.9692 8.71303 29.6268L12.9671 33.8809C13.283 34.1968 13.7113 34.3741 14.1579 34.3741C14.6045 34.3741 15.0328 34.1968 15.3487 33.8809L24.743 24.4866C25.4006 23.8289 25.4006 22.7626 24.743 22.105C24.0854 21.4474 23.0192 21.4474 22.3615 22.105Z" fill="white"/>
</g>
<defs>
<clipPath id="clip0_1_98">
<rect width="70" height="70" fill="white"/>
</clipPath>
</defs>
</svg>
