<svg width="105" height="98" viewBox="0 0 105 98" fill="none" xmlns="http://www.w3.org/2000/svg">
<path d="M15.3763 90.122C35.8796 99.8454 69.1204 99.8484 89.6237 90.122C110.127 80.3956 110.124 64.632 89.6237 54.9086C69.1234 45.1851 35.8796 45.1851 15.3763 54.9086C-5.12693 64.632 -5.12396 80.3985 15.3763 90.122Z" fill="#F5F5F5"/>
<path d="M89.5522 82.9359C93.3284 82.9359 96.3896 81.4844 96.3896 79.6938C96.3896 77.9032 93.3284 76.4517 89.5522 76.4517C85.7761 76.4517 82.7148 77.9032 82.7148 79.6938C82.7148 81.4844 85.7761 82.9359 89.5522 82.9359Z" fill="#EBEBEB"/>
<path d="M13.8203 80.1587L16.2393 78.7701C17.5899 77.6733 18.6178 76.234 19.2147 74.6041C19.9615 72.5552 19.8573 70.9978 19.3218 70.2162C18.6642 69.2539 16.9593 69.4226 16.8909 71.4479C16.7481 75.4391 15.5788 78.2075 13.8203 80.1587Z" fill="#0082F4"/>
<path opacity="0.2" d="M13.8203 80.1587L16.2393 78.7701C17.5899 77.6733 18.6178 76.234 19.2147 74.6041C19.9615 72.5552 19.8573 70.9978 19.3218 70.2162C18.6642 69.2539 16.9593 69.4226 16.8909 71.4479C16.7481 75.4391 15.5788 78.2075 13.8203 80.1587Z" fill="black"/>
<path d="M13.8203 80.3067C13.7888 80.3063 13.7582 80.296 13.733 80.2772C13.7078 80.2584 13.6892 80.2322 13.6799 80.2022C13.6707 80.1722 13.6712 80.1401 13.6814 80.1105C13.6917 80.0808 13.7111 80.0552 13.737 80.0373C19.3307 76.1882 18.2476 70.8201 18.2357 70.7668C18.2316 70.7474 18.2314 70.7273 18.2351 70.7078C18.2388 70.6883 18.2463 70.6697 18.2572 70.653C18.2681 70.6364 18.2822 70.6221 18.2987 70.6109C18.3152 70.5997 18.3337 70.5918 18.3533 70.5877C18.3728 70.5836 18.393 70.5834 18.4126 70.5871C18.4322 70.5907 18.4509 70.5982 18.4676 70.6091C18.4843 70.6199 18.4987 70.634 18.51 70.6504C18.5213 70.6668 18.5292 70.6852 18.5333 70.7047C18.5333 70.7609 19.6758 76.3125 13.9155 80.2801C13.8875 80.2991 13.8541 80.3084 13.8203 80.3067Z" fill="white"/>
<path d="M8.97339 82.9449C8.97339 82.9449 8.13136 82.2639 8.33368 81.3401C8.53601 80.4163 9.0805 79.7531 8.14921 78.5628C7.21792 77.3726 6.95907 75.7855 8.07185 74.9269C8.91983 74.2607 10.2439 75.2023 10.7199 73.4465C11.071 72.1615 10.952 69.3161 12.5974 68.3686C14.2428 67.4211 15.2752 68.8483 15.0164 70.7787C14.7902 72.5049 14.4689 74.166 14.7188 74.6278C15.2008 75.5161 16.025 75.3947 15.9863 77.0173C15.9536 78.5273 14.5165 79.7768 14.5165 79.7768L8.97339 82.9449Z" fill="#0082F4"/>
<path d="M11.7375 81.4968C11.7012 81.4965 11.6661 81.4831 11.6388 81.4592C11.6115 81.4353 11.5938 81.4024 11.5888 81.3666C11.1633 77.8579 12.1838 71.8 13.0169 69.9998C13.024 69.9799 13.0352 69.9616 13.0499 69.9463C13.0646 69.9311 13.0824 69.9191 13.1021 69.9112C13.1219 69.9034 13.1431 69.8998 13.1643 69.9008C13.1855 69.9018 13.2063 69.9073 13.2252 69.9169C13.243 69.9249 13.259 69.9363 13.2722 69.9505C13.2855 69.9647 13.2957 69.9814 13.3024 69.9996C13.309 70.0178 13.312 70.0372 13.311 70.0566C13.31 70.0759 13.3051 70.0949 13.2966 70.1123C12.4725 71.8889 11.4876 77.9645 11.8952 81.3192C11.8994 81.358 11.888 81.3969 11.8635 81.4274C11.839 81.4579 11.8033 81.4776 11.7643 81.482L11.7375 81.4968Z" fill="white"/>
<path d="M11.6572 78.764C11.6344 78.7651 11.6118 78.76 11.5917 78.7492C10.5593 78.2488 9.90469 76.4634 9.87791 76.3805C9.87062 76.3621 9.86711 76.3424 9.8676 76.3226C9.86808 76.3029 9.87255 76.2834 9.88074 76.2653C9.88893 76.2473 9.90067 76.2311 9.91526 76.2176C9.92986 76.2042 9.94702 76.1938 9.96572 76.187C9.98442 76.1803 10.0043 76.1774 10.0242 76.1784C10.044 76.1795 10.0635 76.1845 10.0814 76.1931C10.0993 76.2018 10.1152 76.2139 10.1283 76.2288C10.1414 76.2437 10.1514 76.2611 10.1576 76.2799C10.1576 76.2976 10.7973 78.0268 11.7226 78.4739C11.753 78.4885 11.7775 78.5129 11.792 78.5432C11.8066 78.5735 11.8103 78.6078 11.8027 78.6405C11.7951 78.6732 11.7766 78.7024 11.7501 78.7232C11.7237 78.744 11.6909 78.7553 11.6572 78.7551V78.764Z" fill="white"/>
<path d="M11.6393 79.9484C11.6095 79.9484 11.5804 79.9393 11.5559 79.9224C11.5315 79.9055 11.5128 79.8815 11.5025 79.8536C11.4877 79.8175 11.4878 79.777 11.5028 79.741C11.5179 79.7049 11.5466 79.6762 11.5828 79.6612C13.3204 78.9683 14.4034 76.9105 14.4153 76.8869C14.4335 76.8519 14.4649 76.8256 14.5025 76.8136C14.5402 76.8017 14.5811 76.8051 14.6162 76.8232C14.6513 76.8413 14.6778 76.8725 14.6898 76.9099C14.7018 76.9474 14.6983 76.9881 14.6802 77.0231C14.6326 77.1119 13.5346 79.2022 11.7048 79.9365C11.6844 79.9462 11.6618 79.9502 11.6393 79.9484Z" fill="white"/>
<path d="M72.3755 64.0191C72.3755 64.0191 71.0753 61.9228 70.9473 59.6459C70.8194 57.369 71.3222 56.4215 72.0125 56.1491C72.7028 55.8767 72.7563 56.7146 73.1104 57.2091C73.4645 57.7035 74.1875 57.4223 74.4553 55.8797C74.7231 54.3371 75.699 51.7345 77.7282 51.2282C79.9597 50.6774 78.7636 53.283 78.2013 54.2986C77.6389 55.3141 77.2045 56.6998 77.5735 57.0759C77.9424 57.4519 78.5167 56.7561 79.0611 57.4015C79.7247 58.1803 77.6627 60.9842 76.4785 61.6622L72.3755 64.0191Z" fill="#0082F4"/>
<path d="M74.1577 63.1397C74.1382 63.139 74.119 63.1344 74.1012 63.1262C74.0835 63.1181 74.0675 63.1065 74.0542 63.0922C74.041 63.0779 74.0307 63.0612 74.0239 63.0429C74.0172 63.0246 74.0141 63.0052 74.0149 62.9858C74.2164 59.3231 75.3642 55.7741 77.3473 52.682C77.3585 52.6659 77.3729 52.6522 77.3896 52.6418C77.4063 52.6314 77.425 52.6244 77.4444 52.6214C77.4639 52.6183 77.4838 52.6193 77.5029 52.6241C77.522 52.6289 77.5399 52.6375 77.5556 52.6494C77.5868 52.6725 77.6076 52.7068 77.6138 52.7449C77.6199 52.7831 77.6107 52.8222 77.5883 52.8537C75.6406 55.9006 74.5135 59.3949 74.3154 63.0006C74.3143 63.02 74.3093 63.0391 74.3007 63.0566C74.2922 63.0741 74.2802 63.0898 74.2656 63.1027C74.2509 63.1157 74.2339 63.1256 74.2154 63.1319C74.1969 63.1383 74.1773 63.1409 74.1577 63.1397Z" fill="white"/>
<path d="M74.3274 61.3898C74.3025 61.3896 74.278 61.3835 74.256 61.372C73.4229 60.9131 72.9617 59.5511 72.9438 59.4949C72.9373 59.4764 72.9344 59.4568 72.9355 59.4373C72.9366 59.4177 72.9416 59.3986 72.9502 59.381C72.9588 59.3633 72.9708 59.3476 72.9855 59.3346C73.0002 59.3216 73.0174 59.3117 73.0361 59.3054C73.0735 59.2932 73.1143 59.2964 73.1495 59.3141C73.1846 59.3319 73.2113 59.3628 73.2235 59.4001C73.2235 59.4001 73.6698 60.7118 74.4137 61.1115C74.4474 61.1313 74.4721 61.1633 74.4826 61.2008C74.4931 61.2384 74.4887 61.2785 74.4702 61.3128C74.4567 61.3383 74.436 61.3592 74.4105 61.3729C74.3851 61.3866 74.3562 61.3925 74.3274 61.3898Z" fill="white"/>
<path d="M74.4732 60.4926C74.4402 60.4923 74.4083 60.481 74.3825 60.4607C74.3566 60.4403 74.3383 60.412 74.3304 60.3801C74.3255 60.3615 74.3244 60.342 74.3272 60.3229C74.3299 60.3038 74.3365 60.2855 74.3465 60.2689C74.3564 60.2524 74.3696 60.238 74.3853 60.2266C74.4009 60.2152 74.4187 60.207 74.4375 60.2025C76.5857 59.6606 77.3296 58.5414 77.3355 58.5296C77.3461 58.5131 77.3598 58.4988 77.3759 58.4875C77.392 58.4763 77.4102 58.4683 77.4294 58.464C77.4486 58.4598 77.4684 58.4593 77.4878 58.4627C77.5072 58.4661 77.5257 58.4732 77.5423 58.4837C77.5589 58.4942 77.5733 58.5078 77.5846 58.5239C77.5959 58.5399 77.6039 58.558 77.6082 58.5771C77.6125 58.5962 77.6129 58.616 77.6095 58.6352C77.6061 58.6545 77.599 58.6729 77.5884 58.6895C77.5557 58.7398 76.7821 59.9153 74.5119 60.4897L74.4732 60.4926Z" fill="white"/>
<path d="M40.0036 59.4179C40.0036 59.4179 37.1502 58.725 37.0014 53.4073C36.8437 47.6692 37.7006 40.9717 34.3236 40.4299C30.9465 39.8881 29.0721 43.9829 29.1137 48.7647C29.1524 52.9513 30.8484 62.0412 39.9917 63.8236L40.0036 59.4179Z" fill="#0082F4"/>
<path opacity="0.2" d="M40.0036 59.4179C40.0036 59.4179 37.1502 58.725 37.0014 53.4073C36.8437 47.6692 37.7006 40.9717 34.3236 40.4299C30.9465 39.8881 29.0721 43.9829 29.1137 48.7647C29.1524 52.9513 30.8484 62.0412 39.9917 63.8236L40.0036 59.4179Z" fill="black"/>
<path d="M40.0036 63.2788H39.9768C37.9208 62.9057 36.2457 61.7776 34.999 59.9301C31.3036 54.4436 32.467 44.1991 32.8508 42.4107C32.8594 42.3726 32.8824 42.3393 32.9152 42.3178C32.9479 42.2962 32.9877 42.2882 33.0263 42.2952C33.0648 42.3044 33.0984 42.328 33.1199 42.361C33.1415 42.3941 33.1496 42.4341 33.1424 42.4729C32.7645 44.2494 31.6071 54.3637 35.246 59.7643C35.7756 60.6018 36.4744 61.3206 37.2981 61.8752C38.1217 62.4297 39.0521 62.8079 40.0303 62.9857C40.0498 62.9892 40.0683 62.9966 40.0848 63.0073C40.1013 63.018 40.1155 63.0319 40.1266 63.0482C40.1377 63.0645 40.1454 63.0827 40.1493 63.102C40.1532 63.1213 40.1532 63.1411 40.1494 63.1604C40.143 63.1941 40.1249 63.2244 40.0982 63.2461C40.0716 63.2678 40.038 63.2794 40.0036 63.2788Z" fill="white"/>
<path d="M40.0036 76.9253C37.055 77.3221 32.2676 77.3161 29.5035 75.1488C26.7394 72.9814 27.3166 71.1161 28.3788 70.3374C29.441 69.5587 30.3634 68.6704 28.5365 66.9413C26.7096 65.2122 23.7759 62.4349 22.8238 58.269C21.8717 54.103 22.3418 51.4975 24.2103 50.63C26.0223 49.7891 26.5014 51.1274 27.6112 53.8869C28.721 56.6464 31.2173 54.2807 33.3536 55.1423C35.4899 56.0039 35.4037 57.7094 35.5375 59.175C35.6714 60.6406 36.3766 61.0462 37.5876 61.0462C38.7986 61.0462 40.0036 61.7391 40.0036 63.1188V76.9253Z" fill="#0082F4"/>
<path d="M40.0035 72.0872C39.9908 72.0901 39.9776 72.0901 39.9648 72.0872C39.8369 72.0517 36.7871 71.1694 32.3449 67.1101C27.6141 62.7872 25.3825 56.3029 25.3587 56.2378C25.3473 56.2005 25.3509 56.1602 25.3686 56.1255C25.3864 56.0907 25.417 56.0641 25.454 56.0513C25.4911 56.039 25.5315 56.0417 25.5666 56.0589C25.6017 56.0761 25.6285 56.1063 25.6414 56.1431C25.6622 56.2082 27.8729 62.6214 32.5472 66.891C36.927 70.897 40.0124 71.7941 40.0452 71.803C40.0639 71.8085 40.0814 71.8175 40.0966 71.8297C40.1119 71.8419 40.1246 71.8569 40.1339 71.8739C40.1433 71.891 40.1493 71.9097 40.1514 71.929C40.1535 71.9484 40.1518 71.9679 40.1463 71.9866C40.1367 72.0165 40.1175 72.0425 40.0918 72.0606C40.066 72.0788 40.0351 72.0881 40.0035 72.0872Z" fill="white"/>
<path d="M33.5856 68.1405C33.5557 68.141 33.5264 68.1321 33.5018 68.1151C33.4773 68.0981 33.4587 68.0738 33.4487 68.0458C32.4936 65.606 32.2764 60.386 32.2586 60.164C32.2577 60.1249 32.2722 60.087 32.2988 60.0583C32.3254 60.0296 32.3622 60.0123 32.4014 60.01C32.4403 60.0106 32.4775 60.0254 32.5061 60.0516C32.5346 60.0778 32.5525 60.1136 32.5561 60.1521C32.5561 60.2054 32.7793 65.5438 33.7165 67.9392C33.7237 67.9574 33.7271 67.9769 33.7267 67.9965C33.7262 68.0161 33.7218 68.0354 33.7138 68.0534C33.7058 68.0713 33.6942 68.0874 33.6799 68.1008C33.6656 68.1143 33.6487 68.1247 33.6302 68.1316C33.6159 68.1368 33.6008 68.1398 33.5856 68.1405Z" fill="white"/>
<path d="M33.5618 71.6491C33.2875 71.6512 33.0133 71.6374 32.7406 71.6076C32.7211 71.6053 32.7022 71.5992 32.6851 71.5896C32.6679 71.58 32.6528 71.5671 32.6407 71.5517C32.6285 71.5363 32.6195 71.5187 32.6142 71.4998C32.6089 71.481 32.6074 71.4613 32.6097 71.4418C32.6121 71.4224 32.6182 71.4036 32.6279 71.3865C32.6375 71.3695 32.6504 71.3544 32.6659 71.3423C32.6814 71.3302 32.6991 71.3213 32.718 71.316C32.737 71.3107 32.7568 71.3092 32.7763 71.3115C32.8031 71.3115 35.5732 71.6254 36.8437 70.3374C36.8569 70.3218 36.8732 70.3091 36.8916 70.3001C36.91 70.2911 36.9301 70.286 36.9505 70.2851C36.971 70.2841 36.9915 70.2874 37.0106 70.2947C37.0297 70.3021 37.0472 70.3132 37.0618 70.3275C37.0764 70.3419 37.0878 70.359 37.0954 70.378C37.103 70.3969 37.1066 70.4172 37.106 70.4376C37.1054 70.458 37.1005 70.478 37.0917 70.4964C37.0829 70.5149 37.0704 70.5313 37.0549 70.5447C36.1355 71.4892 34.5318 71.6491 33.5618 71.6491Z" fill="white"/>
<path d="M31.4195 15.5824L31.0981 13.7378L29.4438 14.8215C29.2927 14.5254 29.0784 14.2658 28.816 14.0606L29.6075 11.9288L28.1198 11.6001L27.0308 13.6727C26.6368 13.7388 26.2548 13.8626 25.8972 14.0398L25.4241 12.4765L23.6567 13.8592L23.7728 15.695C23.4129 16.0961 23.0865 16.5259 22.7969 16.98L21.3389 16.906L20.3154 19.1888L21.568 19.7217C21.4373 20.1939 21.3545 20.678 21.3211 21.1666L19.7292 22.6234L20.0476 24.4709L21.7049 23.3873C21.8552 23.6831 22.0696 23.9419 22.3327 24.1452L21.5561 26.28L23.0438 26.6057L24.6029 25.0957C24.9629 25.0394 24.8737 24.3643 25.2664 24.1719L25.7395 25.7293L27.5039 24.3495L27.4593 23.6271C27.8163 23.2303 29.1671 22.3569 29.4587 21.9009L29.8247 21.3087L30.8482 19.0259L30.3721 18.1673L29.8425 17.0481L31.4195 15.5824ZM26.0192 21.6552C24.6624 22.7151 24.234 22.9491 24.0049 21.5308C23.7757 20.1126 24.5523 17.9571 25.9091 16.8941C27.2659 15.8312 27.7836 15.7571 28.0275 17.1724C28.2715 18.5877 27.3789 20.607 26.0192 21.6552Z" fill="#E0E0E0"/>
<path d="M28.1317 11.6001L30.0627 12.7075L28.9737 14.7741L27.0427 13.6668L28.1317 11.6001Z" fill="#F5F5F5"/>
<path d="M33.0292 14.8452L31.3749 15.9288L29.4438 14.8215L31.0982 13.7378L33.0292 14.8452Z" fill="#F5F5F5"/>
<path d="M32.7643 20.1244L31.5117 19.5944L29.5807 18.4871L30.8333 19.0171L32.7643 20.1244Z" fill="#E0E0E0"/>
<path d="M21.5531 26.28L23.4841 27.3844L24.2756 25.2526L22.3445 24.1453L21.5531 26.28Z" fill="#E0E0E0"/>
<path d="M27.6526 26.8366L25.7245 25.7293L25.2515 24.1719L27.1825 25.2792L27.6526 26.8366Z" fill="#E0E0E0"/>
<path d="M33.3475 16.6899L33.0291 14.8453L31.3748 15.9289C31.2225 15.6327 31.0073 15.3731 30.744 15.168L31.5355 13.0362L30.0627 12.7075L28.9707 14.7801C28.5767 14.8463 28.1947 14.97 27.8371 15.1473L27.367 13.5899L25.5996 14.9726L25.7156 16.8083C25.3553 17.2123 25.0289 17.6451 24.7397 18.1022L23.2788 18.0282L22.2553 20.311L23.5079 20.8439C23.3783 21.3174 23.2956 21.8023 23.261 22.2918L21.6721 23.7278L21.9905 25.5754L23.6448 24.4917C23.7971 24.7871 24.0124 25.0457 24.2756 25.2497L23.4841 27.3815L24.9718 27.7102L26.0608 25.6376C26.4563 25.5722 26.8395 25.4474 27.1974 25.2675L27.6675 26.8249L29.4349 25.4451L29.3188 23.6094C29.6787 23.2082 30.0051 22.7784 30.2947 22.3244L31.7556 22.3954L32.7792 20.1126L31.5087 19.5826C31.6404 19.1095 31.7241 18.6245 31.7586 18.1348L33.3475 16.6899ZM27.9531 22.7744C26.5993 23.8344 25.3021 23.5472 25.0551 22.1319C24.8082 20.7166 25.7097 18.7062 27.0665 17.6462C28.4232 16.5862 29.7175 16.8764 29.9645 18.2917C30.2114 19.707 29.3099 21.7144 27.9531 22.7744Z" fill="#EBEBEB"/>
<path d="M27.367 13.5839L25.4359 12.4766L23.6686 13.8593L25.5996 14.9666L27.367 13.5839Z" fill="#F5F5F5"/>
<path d="M23.6686 13.8591L23.7846 15.6949L25.7156 16.8022L25.5996 14.9665L23.6686 13.8591Z" fill="#E0E0E0"/>
<path d="M24.7398 18.0874L22.8088 16.98L21.3508 16.9089L23.2789 18.0163L24.7398 18.0874Z" fill="#F5F5F5"/>
<path d="M21.3508 16.9089L20.3273 19.1888L22.2553 20.2962L23.2788 18.0163L21.3508 16.9089Z" fill="#E0E0E0"/>
<path d="M23.261 22.2739L21.3329 21.1665L19.7411 22.6232L21.6691 23.7306L23.261 22.2739Z" fill="#F5F5F5"/>
<path d="M21.9905 25.5782L20.0595 24.4709L19.7411 22.6233L21.6691 23.7306L21.9905 25.5782Z" fill="#E0E0E0"/>
<path d="M30.0627 12.7075L28.1317 11.6001L29.6075 11.9288L31.5355 13.0361L30.0627 12.7075Z" fill="#F5F5F5"/>
<path d="M22.773 7.20914V4.45259L20.5683 5.44151C20.4515 4.97383 20.2498 4.53132 19.9732 4.13577L21.3627 1.34961L19.6667 0.375488L17.9351 2.96624C17.4525 2.92428 16.9663 2.97146 16.501 3.1054L16.257 0.710066L13.8588 2.08982L13.6178 4.75459C13.0959 5.2148 12.616 5.72012 12.1837 6.26463L10.452 5.67246L8.75607 8.59778L10.1426 9.78212C9.8864 10.4268 9.68728 11.0926 9.54752 11.7718L7.34277 13.3144V16.0739L9.54752 15.085C9.6643 15.5527 9.86597 15.9952 10.1426 16.3907L8.76202 19.1799L10.458 20.154L12.1896 17.5632C12.6722 17.6051 13.1584 17.5579 13.6238 17.4241L13.8648 19.8194L16.2629 18.4397L16.5069 15.7749C17.2554 15.5031 17.9185 15.0394 18.429 14.4307L19.6727 14.8659L21.3687 11.9435L20.3273 11.0553C20.5533 10.3146 20.6371 9.53813 20.5742 8.76655L22.773 7.20914ZM15.0579 14.0961C13.2191 15.1531 12.0825 14.3922 12.0825 12.287C12.0825 10.1818 13.6029 7.57925 15.4447 6.52222C17.2865 5.4652 18.3992 6.22614 18.3992 8.34907C18.3992 10.472 16.8997 13.0361 15.0579 14.0961Z" fill="#E0E0E0"/>
<path d="M21.5948 1.47989L19.6667 0.375488L17.9351 2.96624L19.8631 4.0736L21.5948 1.47989Z" fill="#F5F5F5"/>
<path d="M24.704 5.56L22.773 4.45264L20.5682 5.44156L22.4993 6.54892L24.704 5.56Z" fill="#F5F5F5"/>
<path d="M15.7868 20.9268L13.8588 19.8194L13.6178 17.4241L15.5458 18.5314L15.7868 20.9268Z" fill="#E0E0E0"/>
<path d="M8.75305 19.18L10.6841 20.2873L12.0736 17.5012L10.1425 16.3938L8.75305 19.18Z" fill="#E0E0E0"/>
<path d="M24.7041 8.33134V5.57478L22.4993 6.55482C22.3838 6.08672 22.182 5.64399 21.9042 5.24909L23.2937 2.46292L21.5978 1.48584L19.8661 4.07955C19.3835 4.03614 18.897 4.08334 18.432 4.21871L18.188 1.81746L15.7899 3.19722L15.5459 5.86198C15.0247 6.32296 14.5449 6.82821 14.1118 7.37202L12.3801 6.77985L10.6841 9.70517L12.0736 10.8895C11.8161 11.5338 11.6169 12.1997 11.4786 12.8792L9.2738 14.4218V17.1813L11.4786 16.1924C11.594 16.6605 11.7958 17.1033 12.0736 17.4981L10.6841 20.2843L12.3801 21.2584L14.1118 18.6677C14.5943 18.7096 15.0805 18.6625 15.5459 18.5285L15.7899 20.9238L18.188 19.5441L18.429 16.8793C18.9509 16.4191 19.4308 15.9138 19.8631 15.3693L21.5948 15.9615L23.2908 13.0391L21.9013 11.8548C22.1587 11.2105 22.3579 10.5446 22.4963 9.86506L24.7041 8.33134ZM16.9889 15.2183C15.1472 16.2753 13.6535 15.4167 13.6535 13.3026C13.6535 11.1886 15.1412 8.61558 16.9889 7.55559C18.8366 6.4956 20.3213 7.35721 20.3213 9.47126C20.3213 11.5853 18.8277 14.1435 16.9889 15.2035V15.2183Z" fill="#EBEBEB"/>
<path d="M12.1837 6.27052L14.1117 7.37788L12.3801 6.77682L10.452 5.6665L12.1837 6.27052Z" fill="#F0F0F0"/>
<path d="M10.4518 5.66964L8.75537 8.59595L10.6857 9.70412L12.3822 6.7778L10.4518 5.66964Z" fill="#F5F5F5"/>
<path d="M8.75305 8.5918L10.6841 9.69916L12.0736 10.8894L10.1425 9.78502L8.75305 8.5918Z" fill="#E0E0E0"/>
<path d="M9.54752 11.7747L11.4785 12.882L9.27379 14.4246L7.34277 13.3173L9.54752 11.7747Z" fill="#F5F5F5"/>
<path d="M7.34277 13.3174L9.27379 14.4247V17.1843L7.34277 16.0769V13.3174Z" fill="#E0E0E0"/>
<path d="M18.1879 1.81732L16.2569 0.709961L13.8588 2.08972L15.7868 3.19708L18.1879 1.81732Z" fill="#F5F5F5"/>
<path d="M42.9431 80.8872L70.9116 64.8156C70.9732 64.7941 71.0266 64.754 71.0643 64.701C71.1021 64.648 71.1224 64.5846 71.1224 64.5196C71.1224 64.4546 71.1021 64.3912 71.0643 64.3381C71.0266 64.2851 70.9732 64.245 70.9116 64.2235L68.326 62.7431C68.1658 62.6629 67.989 62.6211 67.8097 62.6211C67.6305 62.6211 67.4537 62.6629 67.2935 62.7431L39.3161 78.7998C39.2545 78.8213 39.2011 78.8614 39.1634 78.9144C39.1256 78.9675 39.1053 79.0309 39.1053 79.0959C39.1053 79.1609 39.1256 79.2242 39.1634 79.2773C39.2011 79.3303 39.2545 79.3704 39.3161 79.3919L41.9107 80.8724C42.0696 80.9549 42.2458 80.9992 42.4251 81.0017C42.6044 81.0043 42.7818 80.9651 42.9431 80.8872Z" fill="#E0E0E0"/>
<path d="M70.1439 2.76502L44.9247 17.2554C44.5498 17.4989 44.2378 17.8268 44.014 18.2126C43.7901 18.5984 43.6608 19.0313 43.6364 19.4761V79.01C43.6364 79.8272 44.2136 80.1588 44.9247 79.7502L70.1439 65.2598C70.5193 65.0168 70.8317 64.689 71.0556 64.3031C71.2795 63.9172 71.4085 63.4841 71.4322 63.0391V3.50524C71.4322 2.68804 70.858 2.35643 70.1439 2.76502Z" fill="#455A64"/>
<path d="M44.9248 17.2554L70.144 2.76497C70.7807 2.39782 71.3074 2.62581 71.4145 3.26239C71.355 2.86215 71.211 2.47899 70.992 2.1381C70.7731 1.7972 70.484 1.5063 70.144 1.28454L69.0967 0.692368C68.6974 0.490793 68.256 0.385742 67.8083 0.385742C67.3606 0.385742 66.9192 0.490793 66.52 0.692368L41.2978 15.1709C40.9179 15.408 40.6047 15.737 40.3873 16.1273L44.0143 18.1999C44.2316 17.8127 44.545 17.4875 44.9248 17.2554Z" fill="#37474F"/>
<path d="M40.0034 76.9255C40.0278 77.3703 40.1572 77.8032 40.381 78.189C40.6049 78.5748 40.9169 78.9027 41.2918 79.1461L42.3421 79.7383C42.7056 79.9193 43.1034 80.0218 43.5095 80.0391C43.9156 80.0565 44.3208 79.9883 44.6985 79.839C44.1035 80.0699 43.6304 79.7294 43.6304 78.9981V19.476C43.6453 19.0293 43.7754 18.594 44.0083 18.2118L40.3813 16.1392C40.1517 16.5185 40.0218 16.9492 40.0034 17.3916V76.9255Z" fill="#263238"/>
<path d="M45.6179 25.1874L69.4596 11.4935C69.888 11.2507 70.2332 11.4491 70.2332 11.9376V56.0011C70.2189 56.2681 70.1413 56.528 70.0069 56.7595C69.8724 56.9911 69.6849 57.1877 69.4596 57.3334L45.6269 71.0274C45.1984 71.2731 44.8533 71.0748 44.8533 70.5833V26.5198C44.8668 26.2536 44.9431 25.9943 45.0759 25.7629C45.2087 25.5314 45.3944 25.3343 45.6179 25.1874Z" fill="white"/>
<path d="M57.5343 12.2663C57.4027 12.3523 57.2932 12.4678 57.2147 12.6036C57.1361 12.7393 57.0907 12.8916 57.082 13.048C57.082 13.3441 57.2844 13.4536 57.5343 13.3085C57.6664 13.2231 57.7763 13.1077 57.8549 12.9718C57.9335 12.8359 57.9786 12.6835 57.9865 12.5269C57.9865 12.2397 57.7842 12.1242 57.5343 12.2663Z" fill="#37474F"/>
<path d="M57.5344 66.2871C57.0142 66.6257 56.5816 67.0814 56.2714 67.6174C55.9612 68.1535 55.7823 68.7546 55.7491 69.3723C55.7491 70.5063 56.5495 70.9682 57.5344 70.3997C58.0543 70.0609 58.4869 69.6051 58.797 69.0691C59.1072 68.5331 59.2862 67.9321 59.3196 67.3145C59.3255 66.1805 58.5222 65.7186 57.5344 66.2871Z" fill="#37474F"/>
<path d="M53.2527 16.8498C52.9912 17.0226 52.7742 17.2541 52.6191 17.5256C52.4641 17.7972 52.3754 18.1012 52.3601 18.4132C52.3601 18.9876 52.7648 19.2215 53.2527 18.9343C53.517 18.7632 53.7369 18.5324 53.8946 18.2608C54.0523 17.9891 54.1433 17.6842 54.1602 17.371C54.1602 16.7965 53.7556 16.5626 53.2527 16.8498Z" fill="#37474F"/>
<path d="M55.4753 16.6543C55.4753 17.0392 55.7729 17.1843 56.121 16.98L62.0717 13.5543C62.2561 13.4397 62.4106 13.2835 62.5228 13.0982C62.635 12.913 62.7017 12.7041 62.7174 12.4884C62.7174 12.1064 62.4199 11.9613 62.0717 12.1656L56.121 15.5913C55.9371 15.7056 55.7827 15.8614 55.6706 16.0461C55.5584 16.2307 55.4915 16.4391 55.4753 16.6543Z" fill="#37474F"/>
<path d="M42.0148 27.0943C42.2259 27.2312 42.4017 27.4156 42.5278 27.6327C42.6539 27.8498 42.7269 28.0934 42.7408 28.3438C42.7408 28.8057 42.4164 28.9922 42.0148 28.7613C41.8043 28.6239 41.6293 28.4393 41.5037 28.2222C41.3781 28.0052 41.3055 27.7618 41.2917 27.5118C41.2917 27.0529 41.6161 26.8663 42.0148 27.0943Z" fill="#37474F"/>
<path d="M42.0148 32.6547C42.2259 32.7916 42.4017 32.976 42.5278 33.1931C42.6539 33.4102 42.7269 33.6538 42.7408 33.9042C42.7408 34.3631 42.4164 34.5497 42.0148 34.3217C41.8043 34.1843 41.6293 33.9997 41.5037 33.7827C41.3781 33.5656 41.3055 33.3223 41.2917 33.0722C41.2917 32.6103 41.6161 32.4238 42.0148 32.6547Z" fill="#37474F"/>
<path d="M41.7887 27.2067C41.9999 27.3436 42.1756 27.5281 42.3018 27.7451C42.4279 27.9622 42.5009 28.2058 42.5147 28.4562C42.5147 28.9151 42.1904 29.1017 41.7887 28.8737C41.5776 28.7368 41.4018 28.5524 41.2757 28.3353C41.1496 28.1182 41.0766 27.8746 41.0627 27.6242C41.0657 27.1623 41.39 26.9847 41.7887 27.2067Z" fill="#455A64"/>
<path d="M41.7887 32.7642C42.0003 32.9014 42.1763 33.0863 42.3024 33.3039C42.4286 33.5216 42.5013 33.7658 42.5147 34.0167C42.5147 34.4756 42.1904 34.6621 41.7887 34.4312C41.5771 34.2948 41.4009 34.1105 41.2747 33.8933C41.1485 33.6761 41.0759 33.4322 41.0627 33.1817C41.0657 32.7228 41.39 32.5362 41.7887 32.7642Z" fill="#455A64"/>
<path d="M75.0592 13.3323C75.0592 12.8408 74.7141 12.6424 74.2856 12.8881L71.4322 14.5255L50.4529 26.5821C50.2276 26.7278 50.04 26.9244 49.9056 27.156C49.7711 27.3875 49.6936 27.6474 49.6793 27.9145V71.9661C49.6793 72.4576 50.0245 72.656 50.4529 72.4102L71.4412 60.3506L74.2856 58.7163C74.511 58.5706 74.6985 58.3739 74.8329 58.1424C74.9674 57.9108 75.0449 57.6509 75.0592 57.3839V13.3323Z" fill="white"/>
<path d="M75.3568 13.3323C75.3755 13.1838 75.3498 13.0331 75.2829 12.8991C75.216 12.765 75.1109 12.6536 74.9807 12.5787C74.8505 12.5038 74.701 12.4688 74.5509 12.478C74.4008 12.4872 74.2568 12.5403 74.1369 12.6305L71.4144 14.1968L50.3042 26.3363C50.0324 26.507 49.8064 26.741 49.6457 27.018C49.485 27.295 49.3944 27.6067 49.3818 27.9263V71.9661C49.3699 72.1139 49.3984 72.2622 49.4644 72.3951C49.5304 72.5281 49.6315 72.6407 49.7567 72.7211C49.8632 72.7827 49.9846 72.8144 50.1078 72.8129C50.2822 72.8074 50.4523 72.7575 50.6017 72.6678L71.7268 60.5283L74.4433 58.9679C74.7136 58.7955 74.9383 58.5612 75.0988 58.2845C75.2593 58.0079 75.3508 57.697 75.3657 57.3779L75.3568 13.3323ZM71.4204 60.022L71.1764 60.1641L50.3161 72.1496C50.281 72.1764 50.2404 72.1951 50.1971 72.2043C50.1539 72.2136 50.1092 72.2131 50.0661 72.2029C50.0275 72.1792 49.9888 72.0963 49.9888 71.9601V27.9145C50.0042 27.6995 50.0684 27.4908 50.1767 27.3041C50.2849 27.1174 50.4343 26.9576 50.6136 26.8367L71.4531 14.8453L74.4285 13.1309C74.4635 13.1041 74.5041 13.0854 74.5474 13.0762C74.5906 13.067 74.6354 13.0675 74.6784 13.0776C74.7171 13.1013 74.7557 13.1842 74.7557 13.3204V57.3839C74.7403 57.5988 74.6761 57.8075 74.5679 57.9942C74.4596 58.1809 74.3102 58.3407 74.1309 58.4616L71.4144 60.022H71.4204Z" fill="#0082F4"/>
<path d="M62.3693 23.568C65.0471 22.0343 67.2042 23.2719 67.2042 26.3483C67.2042 29.4246 65.0382 33.1582 62.3693 34.6801C59.7004 36.202 57.5343 34.9762 57.5343 31.9028C57.5343 28.8295 59.7004 25.1047 62.3693 23.568Z" fill="#0082F4"/>
<path d="M62.3693 25.984C63.2351 25.4866 63.9373 25.8892 63.9373 26.8722C63.9079 27.4138 63.7506 27.9408 63.4781 28.4105C63.2057 28.8801 62.8258 29.2793 62.3693 29.5755C61.5035 30.0729 60.8013 29.6702 60.8013 28.6872C60.8307 28.1457 60.988 27.6187 61.2604 27.149C61.5329 26.6793 61.9128 26.2802 62.3693 25.984Z" fill="#0082F4"/>
<path d="M65.425 31.2898C65.425 29.6554 64.2735 28.9921 62.8483 29.8093L61.9557 30.3216C60.5335 31.1388 59.379 33.1285 59.379 34.7629V35.204C60.2032 35.4735 61.2386 35.3284 62.3544 34.68C63.5904 33.9213 64.6356 32.8913 65.4101 31.6688L65.425 31.2898Z" fill="#0082F4"/>
<path opacity="0.7" d="M62.3693 25.984C63.2351 25.4866 63.9373 25.8892 63.9373 26.8722C63.9079 27.4138 63.7506 27.9408 63.4781 28.4105C63.2057 28.8801 62.8258 29.2793 62.3693 29.5755C61.5035 30.0729 60.8013 29.6702 60.8013 28.6872C60.8307 28.1457 60.988 27.6187 61.2604 27.149C61.5329 26.6793 61.9128 26.2802 62.3693 25.984Z" fill="white"/>
<path opacity="0.7" d="M65.425 31.2898C65.425 29.6554 64.2735 28.9921 62.8483 29.8093L61.9557 30.3216C60.5335 31.1388 59.379 33.1285 59.379 34.7629V35.204C60.2032 35.4735 61.2386 35.3284 62.3544 34.68C63.5904 33.9213 64.6356 32.8913 65.4101 31.6688L65.425 31.2898Z" fill="white"/>
<path d="M53.0147 41.4455L59.2362 37.8718C59.5338 37.7089 59.751 37.8392 59.751 38.1679V38.3722C59.7415 38.5501 59.69 38.7233 59.6006 38.8777C59.5111 39.032 59.3863 39.1632 59.2362 39.2604L53.0147 42.8342C52.7321 42.997 52.5 42.8638 52.5 42.5381V42.3338C52.5097 42.1559 52.5613 41.9828 52.6507 41.8285C52.7402 41.6741 52.8649 41.543 53.0147 41.4455Z" fill="#0082F4"/>
<path opacity="0.1" d="M53.0147 41.4455L59.2362 37.8718C59.5338 37.7089 59.751 37.8392 59.751 38.1679V38.3722C59.7415 38.5501 59.69 38.7233 59.6006 38.8777C59.5111 39.032 59.3863 39.1632 59.2362 39.2604L53.0147 42.8342C52.7321 42.997 52.5 42.8638 52.5 42.5381V42.3338C52.5097 42.1559 52.5613 41.9828 52.6507 41.8285C52.7402 41.6741 52.8649 41.543 53.0147 41.4455Z" fill="black"/>
<path d="M52.7589 45.7596L71.581 34.9466C71.7209 34.8637 71.8369 34.9288 71.8369 35.0946V37.2797C71.8317 37.3684 71.8058 37.4547 71.7614 37.5317C71.717 37.6088 71.6553 37.6746 71.581 37.7239L52.7589 48.5369C52.616 48.6198 52.5 48.5517 52.5 48.3889V46.2037C52.5051 46.1147 52.5312 46.0281 52.5762 45.9509C52.6211 45.8738 52.6837 45.8083 52.7589 45.7596Z" fill="#0082F4"/>
<path opacity="0.2" d="M52.7589 45.7596L71.581 34.9466C71.7209 34.8637 71.8369 34.9288 71.8369 35.0946V37.2797C71.8317 37.3684 71.8058 37.4547 71.7614 37.5317C71.717 37.6088 71.6553 37.6746 71.581 37.7239L52.7589 48.5369C52.616 48.6198 52.5 48.5517 52.5 48.3889V46.2037C52.5051 46.1147 52.5312 46.0281 52.5762 45.9509C52.6211 45.8738 52.6837 45.8083 52.7589 45.7596Z" fill="white"/>
<path d="M53.0147 51.166L59.2362 47.5922C59.5338 47.4294 59.751 47.5626 59.751 47.8883V48.0926C59.7418 48.2706 59.6903 48.4439 59.6009 48.5983C59.5114 48.7527 59.3865 48.8838 59.2362 48.9808L53.0147 52.5546C52.7321 52.7204 52.5 52.5872 52.5 52.2585V52.0542C52.5101 51.8764 52.562 51.7035 52.6513 51.5492C52.7407 51.395 52.8652 51.2637 53.0147 51.166Z" fill="#0082F4"/>
<path opacity="0.1" d="M53.0147 51.166L59.2362 47.5922C59.5338 47.4294 59.751 47.5626 59.751 47.8883V48.0926C59.7418 48.2706 59.6903 48.4439 59.6009 48.5983C59.5114 48.7527 59.3865 48.8838 59.2362 48.9808L53.0147 52.5546C52.7321 52.7204 52.5 52.5872 52.5 52.2585V52.0542C52.5101 51.8764 52.562 51.7035 52.6513 51.5492C52.7407 51.395 52.8652 51.2637 53.0147 51.166Z" fill="black"/>
<path d="M52.7589 55.48L71.581 44.667C71.7209 44.5841 71.8369 44.6522 71.8369 44.815V47.0001C71.8317 47.0888 71.8058 47.1751 71.7614 47.2521C71.717 47.3292 71.6553 47.395 71.581 47.4443L52.7589 58.2573C52.616 58.3402 52.5 58.2751 52.5 58.1093V55.9242C52.5051 55.8351 52.5312 55.7485 52.5762 55.6714C52.6211 55.5942 52.6837 55.5287 52.7589 55.48Z" fill="#0082F4"/>
<path opacity="0.2" d="M52.7589 55.48L71.581 44.667C71.7209 44.5841 71.8369 44.6522 71.8369 44.815V47.0001C71.8317 47.0888 71.8058 47.1751 71.7614 47.2521C71.717 47.3292 71.6553 47.395 71.581 47.4443L52.7589 58.2573C52.616 58.3402 52.5 58.2751 52.5 58.1093V55.9242C52.5051 55.8351 52.5312 55.7485 52.5762 55.6714C52.6211 55.5942 52.6837 55.5287 52.7589 55.48Z" fill="white"/>
<path d="M60.2657 56.7205L67.7041 52.4539C68.0017 52.2881 68.2219 52.4213 68.2219 52.75V55.0358C68.2121 55.214 68.1601 55.3874 68.0701 55.5417C67.9802 55.6961 67.8547 55.8271 67.7041 55.924L60.2657 60.1936C59.9682 60.3564 59.751 60.2232 59.751 59.8975V57.6088C59.7613 57.431 59.8133 57.2582 59.9026 57.104C59.992 56.9497 60.1163 56.8184 60.2657 56.7205Z" fill="#0082F4"/>
<path opacity="0.1" d="M60.2657 56.7205L67.7041 52.4539C68.0017 52.2881 68.2219 52.4213 68.2219 52.75V55.0358C68.2121 55.214 68.1601 55.3874 68.0701 55.5417C67.9802 55.6961 67.8547 55.8271 67.7041 55.924L60.2657 60.1936C59.9682 60.3564 59.751 60.2232 59.751 59.8975V57.6088C59.7613 57.431 59.8133 57.2582 59.9026 57.104C59.992 56.9497 60.1163 56.8184 60.2657 56.7205Z" fill="black"/>
<path d="M77.8799 47.0742C77.8799 47.0742 74.2261 42.0585 74.0119 41.4485C73.8423 40.9985 74.0119 40.3293 74.0654 40.0185C74.119 39.7076 74.1666 39.0147 74.2202 38.8341C74.3094 38.4966 73.872 38.5647 73.6251 38.8726C73.3781 39.1805 73.2948 39.7964 73.1669 39.8971C73.0389 39.9977 72.066 38.5854 71.5572 37.934C71.0484 37.2826 70.7301 36.8859 70.4176 37.1287C70.1945 37.3033 70.3611 37.6823 70.7301 38.239C70.9455 38.5387 71.1442 38.8501 71.3251 39.1716C71.3817 39.293 71.0782 39.3019 70.9145 39.5536C70.7866 39.749 70.9145 40.0658 70.736 40.2168C70.6261 40.3 70.5509 40.4205 70.5245 40.5554C70.4982 40.6903 70.5226 40.8301 70.5932 40.9482C70.9244 41.4657 71.3515 41.9159 71.8518 42.2746C72.3992 42.6507 72.6194 42.7839 72.9437 43.2961C73.268 43.8083 76.1779 49.0402 76.3743 49.354C76.5707 49.6679 76.9486 50.3074 77.5228 50.3252C78.0971 50.343 82.7982 46.3162 83.0392 46.1149C83.8128 45.4723 84.0597 45.3806 84.1906 45.9579C84.2358 46.1632 84.2696 46.3707 84.2918 46.5797C84.384 47.314 84.8869 49.9373 84.8869 49.9373C84.8869 49.9373 87.2672 51.0832 89.222 50.5295C91.1768 49.9758 91.8373 49.1497 91.8373 49.1497L90.8584 47.5627C91.1232 46.9084 92.3461 44.2554 92.7418 42.399L86.6126 41.413C86.4876 41.3864 86.2853 41.336 86.0175 41.2679C85.6813 41.1791 84.8274 40.886 84.1817 41.4485C82.0751 43.2754 77.8858 47.0742 77.8858 47.0742" fill="#FFA8A7"/>
<path d="M90.0313 77.8491L88.9333 79.3681C89.4323 79.5999 89.9775 79.7163 90.5281 79.7085C91.513 79.7441 91.7837 79.4125 91.8195 79.3473C91.9861 78.992 91.7272 78.3525 91.6558 77.8018L90.0313 77.8491Z" fill="#37474F"/>
<path d="M88.9959 78.6397C88.9959 78.6397 87.6629 78.5539 86.7435 78.4413C85.8241 78.3288 85.0952 78.773 85.3094 79.149C85.5236 79.525 86.0324 79.8389 86.8239 80.1024C87.4993 80.3304 88.3116 80.4932 89.0137 80.6946C89.7159 80.8959 90.2039 81.1594 90.6115 81.0173C91.0667 80.8604 91.2631 80.6798 91.2244 80.3481C91.1251 79.8764 91.0019 79.41 90.8555 78.9506L88.9959 78.6397Z" fill="#37474F"/>
<path d="M91.8195 76.3242C91.8195 76.3242 91.6529 77.704 91.6409 78.0001C91.629 78.2961 90.2872 78.3909 90.0313 77.8491L89.9896 76.1614L91.8195 76.3242Z" fill="#F28F8F"/>
<path d="M90.4686 77.1711L90.9477 79.2674C90.9477 79.2674 90.9923 79.5221 89.8974 79.6849C88.8024 79.8478 87.0827 79.1135 86.7881 78.9654C86.4935 78.8174 86.4608 78.5183 87.5379 78.5775C88.615 78.6368 88.9958 78.6397 88.9958 78.6397L88.6447 77.713L90.4686 77.1711Z" fill="#FFA8A7"/>
<path d="M92.7239 42.3811L93.4826 42.1709C93.4826 42.1709 95.0685 47.1659 95.2441 47.6485C95.4196 48.1311 95.619 48.6404 95.2768 49.2355C94.8692 49.9431 92.7239 52.7885 92.7239 52.7885L91.3612 51.4621L92.9084 48.6433L91.5397 45.8897L92.7239 42.3811Z" fill="#F28F8F"/>
<path d="M84.9315 35.8939C84.7536 35.5616 84.6634 35.1899 84.6691 34.8134C84.6748 34.437 84.7763 34.0681 84.9642 33.7413C85.72 32.3468 87.404 31.6687 89.4094 31.9263C90.3378 32.0477 91.4327 32.8146 92.0307 33.9604C92.6913 35.2306 92.7538 37.7888 92.9233 38.757L84.9315 35.8939Z" fill="#37474F"/>
<path d="M84.8779 36.4417C84.8779 36.4417 84.4018 37.3447 84.4851 37.4276C84.6085 37.4993 84.7434 37.5494 84.8838 37.5757L84.8779 36.4417Z" fill="#FFA8A7"/>
<path d="M86.3239 33.5874C85.8062 33.922 84.9136 34.5379 84.8749 36.566C84.8332 38.6386 85.1308 39.3226 85.4402 39.5624C85.6485 39.7253 86.8714 39.6424 87.395 39.521C87.9187 39.3996 89.4272 38.6564 89.9717 37.5283C90.6114 36.2019 90.4805 34.2714 89.5313 33.6792C89.0482 33.3949 88.5005 33.2374 87.9395 33.2213C87.3785 33.2053 86.8226 33.3312 86.3239 33.5874Z" fill="#FFA8A7"/>
<path d="M91.8195 49.1377C92.7359 50.5589 93.6047 51.8025 93.7951 53.4072C94.1879 56.7797 92.9025 60.6347 92.6258 63.1307C93.1462 63.8407 93.4462 64.6868 93.4887 65.5645C93.4887 66.5978 91.8195 76.3243 91.8195 76.3243C91.8195 76.3243 90.6055 76.6914 89.9896 76.1614L88.8441 58.269L89.4392 56.0898L91.8195 49.1377Z" fill="#0082F4"/>
<path opacity="0.2" d="M91.8195 49.1377C92.7359 50.5589 93.6047 51.8025 93.7951 53.4072C94.1879 56.7797 92.9025 60.6347 92.6258 63.1307C93.1462 63.8407 93.4462 64.6868 93.4887 65.5645C93.4887 66.5978 91.8195 76.3243 91.8195 76.3243C91.8195 76.3243 90.6055 76.6914 89.9896 76.1614L88.8441 58.269L89.4392 56.0898L91.8195 49.1377Z" fill="black"/>
<path d="M88.8441 58.269L89.4392 56.0898C90.5786 55.7913 91.6775 55.3569 92.7121 54.7959C92.7121 54.7959 92.0932 55.9181 90.3139 56.5339L89.3946 59.3319L89.3172 65.7422L88.8441 58.269Z" fill="#0082F4"/>
<path opacity="0.3" d="M88.8441 58.269L89.4392 56.0898C90.5786 55.7913 91.6775 55.3569 92.7121 54.7959C92.7121 54.7959 92.0932 55.9181 90.3139 56.5339L89.3946 59.3319L89.3172 65.7422L88.8441 58.269Z" fill="black"/>
<path d="M91.8195 49.1377C92.3104 49.9371 93.4827 51.2991 93.2328 52.6108C92.9352 54.1978 92.0724 55.314 89.4481 56.0898L86.9845 64.9723C86.9845 64.9723 88.2669 66.1567 88.6596 67.3025C89.0524 68.4484 90.4686 77.177 90.4686 77.177C90.4686 77.177 90.0283 77.8906 88.6448 77.7188C88.6448 77.7188 83.8217 66.7637 83.4825 66.0501C83.0708 65.3274 82.9266 64.4841 83.0749 63.6666C83.2266 62.5178 84.8601 49.943 84.8601 49.943L91.8195 49.1377Z" fill="#0082F4"/>
<path opacity="0.2" d="M91.8195 49.1377C92.3104 49.9371 93.4827 51.2991 93.2328 52.6108C92.9352 54.1978 92.0724 55.314 89.4481 56.0898L86.9845 64.9723C86.9845 64.9723 88.2669 66.1567 88.6596 67.3025C89.0524 68.4484 90.4686 77.177 90.4686 77.177C90.4686 77.177 90.0283 77.8906 88.6448 77.7188C88.6448 77.7188 83.8217 66.7637 83.4825 66.0501C83.0708 65.3274 82.9266 64.4841 83.0749 63.6666C83.2266 62.5178 84.8601 49.943 84.8601 49.943L91.8195 49.1377Z" fill="black"/>
<path d="M92.7239 42.381L86.5947 41.3951C86.4697 41.3684 86.2674 41.3181 85.9996 41.25C85.9996 41.25 85.7378 45.0754 84.1638 45.9518C84.2025 46.1354 84.2352 46.3397 84.265 46.5736C84.3572 47.3079 84.8601 49.9312 84.8601 49.9312C84.8601 49.9312 87.2403 51.0771 89.1952 50.5234C91.15 49.9697 91.8105 49.1436 91.8105 49.1436L90.8316 47.5566C91.1053 46.8964 92.3372 44.2434 92.7239 42.381Z" fill="#0082F4"/>
<path opacity="0.7" d="M92.7239 42.381L86.5947 41.3951C86.4697 41.3684 86.2674 41.3181 85.9996 41.25C85.9996 41.25 85.7378 45.0754 84.1638 45.9518C84.2025 46.1354 84.2352 46.3397 84.265 46.5736C84.3572 47.3079 84.8601 49.9312 84.8601 49.9312C84.8601 49.9312 87.2403 51.0771 89.1952 50.5234C91.15 49.9697 91.8105 49.1436 91.8105 49.1436L90.8316 47.5566C91.1053 46.8964 92.3372 44.2434 92.7239 42.381Z" fill="white"/>
<path d="M91.1084 46.926C90.2944 47.4124 89.4415 47.8313 88.5585 48.1785C89.36 48.1626 90.1446 47.9467 90.8406 47.5508L91.1084 46.926Z" fill="#0082F4"/>
<path d="M86.1722 33.6881C86.1722 33.6881 85.8747 35.6127 86.5769 36.7437C86.5769 36.7437 86.8387 35.9769 87.4903 36.122C88.1419 36.267 88.1776 37.1227 87.7194 37.6024C87.6029 37.7369 87.4507 37.8361 87.2802 37.8884C87.1097 37.9408 86.9278 37.9443 86.7554 37.8985C86.7554 37.8985 86.6513 39.2901 86.5947 40.4566C86.5382 41.6232 86.2288 44.1666 87.5468 45.194C88.8649 46.2214 92.1735 46.5826 93.7237 44.4271C94.5866 43.228 93.441 41.108 92.9085 38.7305C92.4175 36.5454 92.1408 33.3062 89.8111 32.7851C87.4814 32.264 86.1722 33.6881 86.1722 33.6881Z" fill="#37474F"/>
<path d="M94.7205 7.39263L94.2295 7.68872C94.2708 7.51489 94.2937 7.33727 94.298 7.15873C94.298 6.16684 93.5988 5.76713 92.7359 6.27047C92.4733 6.42809 92.239 6.62823 92.0426 6.86264C92.0426 5.53026 91.1024 4.98842 89.942 5.65461C89.3306 6.05145 88.8217 6.58613 88.4567 7.21528C88.0918 7.84444 87.881 8.55035 87.8414 9.27574C87.8414 9.34384 87.8414 9.40898 87.8414 9.47411C87.5425 9.43669 87.24 9.50593 86.9875 9.66953C86.5328 9.96435 86.1544 10.3617 85.883 10.8293C85.6116 11.297 85.4548 11.8217 85.4254 12.3609C85.4253 12.4863 85.4382 12.6113 85.4641 12.734L85.2023 12.885C84.4912 13.2936 83.9139 14.0901 83.9139 14.6615C83.9139 15.233 84.4912 15.3692 85.2023 14.9576L94.7235 9.49484C95.4346 9.08624 96.0118 8.28977 96.0118 7.71833C96.0118 7.14688 95.4316 6.98108 94.7205 7.39263Z" fill="#EBEBEB"/>
</svg>
