<svg width="106" height="79" viewBox="0 0 106 79" fill="none" xmlns="http://www.w3.org/2000/svg">
<path d="M105.5 68.7539H0.5V68.8064H105.5V68.7539Z" fill="#EBEBEB"/>
<path d="M94.979 72.1328H88.0238V72.1853H94.979V72.1328Z" fill="#EBEBEB"/>
<path d="M70.0562 72.7041H68.2313V72.7566H70.0562V72.7041Z" fill="#EBEBEB"/>
<path d="M87.8138 70.1841H83.7839V70.2366H87.8138V70.1841Z" fill="#EBEBEB"/>
<path d="M20.5865 70.5369H11.5166V70.5894H20.5865V70.5369Z" fill="#EBEBEB"/>
<path d="M23.7869 70.5369H22.4576V70.5894H23.7869V70.5369Z" fill="#EBEBEB"/>
<path d="M47.7814 71.4231H28.1086V71.4756H47.7814V71.4231Z" fill="#EBEBEB"/>
<path d="M50.27 59.388H9.72105C9.40339 59.3874 9.09893 59.2609 8.87451 59.036C8.65009 58.8112 8.52405 58.5065 8.52405 58.1889V1.1886C8.52681 0.872765 8.65408 0.570775 8.8782 0.348226C9.10232 0.125676 9.4052 0.000541041 9.72105 0H50.27C50.588 0 50.893 0.126333 51.1178 0.351208C51.3427 0.576083 51.4691 0.881079 51.4691 1.1991V58.1889C51.4691 58.5069 51.3427 58.8119 51.1178 59.0368C50.893 59.2617 50.588 59.388 50.27 59.388ZM9.72105 0.0420002C9.41731 0.0425564 9.12621 0.163604 8.91164 0.378573C8.69706 0.593542 8.57655 0.884866 8.57655 1.1886V58.1889C8.57655 58.4926 8.69706 58.784 8.91164 58.9989C9.12621 59.2139 9.41731 59.3349 9.72105 59.3355H50.27C50.5739 59.3349 50.8652 59.214 51.0801 58.999C51.295 58.7841 51.416 58.4928 51.4166 58.1889V1.1886C51.416 0.884673 51.295 0.593353 51.0801 0.378444C50.8652 0.163535 50.5739 0.0425553 50.27 0.0420002H9.72105Z" fill="#EBEBEB"/>
<path d="M95.695 59.388H55.144C54.8262 59.3874 54.5215 59.2609 54.2968 59.0362C54.072 58.8114 53.9455 58.5067 53.9449 58.1889V1.1886C53.9483 0.872574 54.076 0.570586 54.3004 0.348094C54.5249 0.125603 54.828 0.000535141 55.144 0H95.695C96.0105 0.00109294 96.3129 0.126472 96.5365 0.348963C96.7602 0.571453 96.8872 0.873128 96.8899 1.1886V58.1889C96.8899 58.5062 96.7642 58.8105 96.5402 59.0353C96.3163 59.2601 96.0123 59.3869 95.695 59.388ZM55.144 0.0420002C54.8401 0.0425553 54.5488 0.163535 54.3339 0.378444C54.119 0.593353 53.998 0.884673 53.9974 1.1886V58.1889C53.998 58.4928 54.119 58.7841 54.3339 58.999C54.5488 59.214 54.8401 59.3349 55.144 59.3355H95.695C95.999 59.3349 96.2903 59.214 96.5052 58.999C96.7201 58.7841 96.8411 58.4928 96.8416 58.1889V1.1886C96.8411 0.884673 96.7201 0.593353 96.5052 0.378444C96.2903 0.163535 95.999 0.0425553 95.695 0.0420002H55.144Z" fill="#EBEBEB"/>
<path d="M35.5196 8.27197H20.5571V59.0311H35.5196V8.27197Z" fill="#FAFAFA"/>
<path d="M33.2914 8.27197H32.4178L27.1993 59.0311H28.0729L33.2914 8.27197Z" fill="#F5F5F5"/>
<path d="M35.2549 8.46729H20.4604V8.91458H35.2549V8.46729Z" fill="#E0E0E0"/>
<path d="M35.2549 58.5857H20.4604V59.5433H35.2549V58.5857Z" fill="#EBEBEB"/>
<path d="M35.0092 59.5015H21.0295V59.5435H35.0092V59.5015Z" fill="#EBEBEB"/>
<path d="M21.0296 8.46711H35.0093V59.5013H35.8451V7.84131H20.1917V59.5013H21.0296V8.46711Z" fill="#EBEBEB"/>
<path d="M52.1684 8.27197H37.2059V59.0311H52.1684V8.27197Z" fill="#FAFAFA"/>
<path d="M48.0188 8.27197H43.2498L38.0312 59.0311H42.8003L48.0188 8.27197Z" fill="#F5F5F5"/>
<path d="M52.326 8.46729H37.1115V8.91458H52.326V8.46729Z" fill="#E0E0E0"/>
<path d="M52.326 58.5857H37.1115V59.5433H52.326V58.5857Z" fill="#EBEBEB"/>
<path d="M51.6602 59.5015H37.6805V59.5435H51.6602V59.5015Z" fill="#EBEBEB"/>
<path d="M37.6806 8.46711H51.6603V59.5013H52.4961V7.84131H36.8427V59.5013H37.6806V8.46711Z" fill="#EBEBEB"/>
<path d="M68.3993 8.27197H53.8568V59.0311H68.3993V8.27197Z" fill="#FAFAFA"/>
<path d="M62.0972 8.27197H61.2236L56.0051 59.0311H56.8787L62.0972 8.27197Z" fill="#F5F5F5"/>
<path d="M68.5568 8.46729H53.7623V8.91458H68.5568V8.46729Z" fill="#E0E0E0"/>
<path d="M68.5568 58.5857H53.7623V59.5433H68.5568V58.5857Z" fill="#EBEBEB"/>
<path d="M68.3111 59.5015H54.3314V59.5435H68.3111V59.5015Z" fill="#EBEBEB"/>
<path d="M54.3293 8.46711H68.309V59.5013H69.1469V7.84131H53.4935V59.5013H54.3293V8.46711Z" fill="#EBEBEB"/>
<path d="M85.4702 8.27197H70.5077V59.0311H85.4702V8.27197Z" fill="#FAFAFA"/>
<path d="M84.0065 8.27197H79.2374L74.0168 59.0311H78.788L84.0065 8.27197Z" fill="#F5F5F5"/>
<path d="M85.2056 8.46729H70.4111V8.91458H85.2056V8.46729Z" fill="#E0E0E0"/>
<path d="M85.2056 58.5857H70.4111V59.5433H85.2056V58.5857Z" fill="#EBEBEB"/>
<path d="M70.9802 8.46711H84.9599V59.5013H85.7978V7.84131H70.1444V59.5013H70.9802V8.46711Z" fill="#EBEBEB"/>
<path d="M84.9599 59.5015H70.9802V59.5435H84.9599V59.5015Z" fill="#EBEBEB"/>
<path d="M31.9391 47.355H25.4438V58.5879H31.9391V47.355Z" fill="#EBEBEB"/>
<path d="M30.6917 45.7864V48.6025H30.1814H27.2036H26.6912V45.7864H30.6917Z" fill="#EBEBEB"/>
<path d="M30.6938 48.6023H31.5254V47.7707H30.6938V48.6023Z" fill="#FAFAFA"/>
<path d="M29.0831 48.6023H29.9147V47.7707H29.0831V48.6023Z" fill="#FAFAFA"/>
<path d="M27.4724 48.6023H28.304V47.7707H27.4724V48.6023Z" fill="#FAFAFA"/>
<path d="M25.8596 48.6023H26.6912V47.7707H25.8596V48.6023Z" fill="#F0F0F0"/>
<path d="M30.6938 50.1145H31.5254V49.2829H30.6938V50.1145Z" fill="#F0F0F0"/>
<path d="M29.0831 50.1145H29.9147V49.2829H29.0831V50.1145Z" fill="#F0F0F0"/>
<path d="M27.4724 50.1145H28.304V49.2829H27.4724V50.1145Z" fill="#FAFAFA"/>
<path d="M25.8596 50.1145H26.6912V49.2829H25.8596V50.1145Z" fill="#FAFAFA"/>
<path d="M30.6938 51.6265H31.5254V50.7949H30.6938V51.6265Z" fill="#F0F0F0"/>
<path d="M29.0831 51.6265H29.9147V50.7949H29.0831V51.6265Z" fill="#FAFAFA"/>
<path d="M27.4724 51.6265H28.304V50.7949H27.4724V51.6265Z" fill="#FAFAFA"/>
<path d="M29.0831 47.2961H29.9147V46.4645H29.0831V47.2961Z" fill="#FAFAFA"/>
<path d="M27.4724 47.2961H28.304V46.4645H27.4724V47.2961Z" fill="#F0F0F0"/>
<path d="M25.8596 51.6265H26.6912V50.7949H25.8596V51.6265Z" fill="#F0F0F0"/>
<path d="M30.6938 53.1362H31.5254V52.3046H30.6938V53.1362Z" fill="#FAFAFA"/>
<path d="M29.0831 53.1362H29.9147V52.3046H29.0831V53.1362Z" fill="#F0F0F0"/>
<path d="M27.4724 53.1362H28.304V52.3046H27.4724V53.1362Z" fill="#F0F0F0"/>
<path d="M25.8596 53.1362H26.6912V52.3046H25.8596V53.1362Z" fill="#FAFAFA"/>
<path d="M30.6938 54.6482H31.5254V53.8166H30.6938V54.6482Z" fill="#F0F0F0"/>
<path d="M29.0831 54.6482H29.9147V53.8166H29.0831V54.6482Z" fill="#FAFAFA"/>
<path d="M27.4724 54.6482H28.304V53.8166H27.4724V54.6482Z" fill="#FAFAFA"/>
<path d="M25.8596 54.6482H26.6912V53.8166H25.8596V54.6482Z" fill="#F0F0F0"/>
<path d="M30.6938 56.1582H31.5254V55.3266H30.6938V56.1582Z" fill="#F0F0F0"/>
<path d="M29.0831 56.1582H29.9147V55.3266H29.0831V56.1582Z" fill="#FAFAFA"/>
<path d="M27.4724 56.1582H28.304V55.3266H27.4724V56.1582Z" fill="#F0F0F0"/>
<path d="M25.8596 56.1582H26.6912V55.3266H25.8596V56.1582Z" fill="#FAFAFA"/>
<path d="M30.6938 57.6682H31.5254V56.8366H30.6938V57.6682Z" fill="#FAFAFA"/>
<path d="M29.0831 57.6682H29.9147V56.8366H29.0831V57.6682Z" fill="#FAFAFA"/>
<path d="M27.4724 57.6682H28.304V56.8366H27.4724V57.6682Z" fill="#F0F0F0"/>
<path d="M25.8596 57.6682H26.6912V56.8366H25.8596V57.6682Z" fill="#F0F0F0"/>
<path d="M77.6961 51.448H71.877V58.588H77.6961V51.448Z" fill="#F0F0F0"/>
<path d="M72.3851 52.2395H73.7375H74.1113H74.483V52.985H74.1113H73.7375H72.3851V52.2395Z" fill="#E6E6E6"/>
<path d="M72.3851 53.6824H73.7375H74.1113H74.483V54.4279H74.1113H73.7375H72.3851V53.6824Z" fill="#FAFAFA"/>
<path d="M72.3851 55.125H73.7375H74.1113H74.483V55.8705H74.1113H73.7375H72.3851V55.125Z" fill="#E6E6E6"/>
<path d="M72.3851 56.5676H73.7375H74.3129H74.483V57.3131H74.3129H73.7375H72.3851V56.5676Z" fill="#FAFAFA"/>
<path d="M75.092 52.2395H76.4444H76.8182H77.1899V52.985H76.8182H76.4444H75.092V52.2395Z" fill="#FAFAFA"/>
<path d="M75.092 53.6824H76.4444H76.9694H77.1899V54.4279H76.9694H76.4444H75.092V53.6824Z" fill="#FAFAFA"/>
<path d="M75.092 55.125H76.4444H76.8182H77.1899V55.8705H76.8182H76.4444H75.092V55.125Z" fill="#E6E6E6"/>
<path d="M75.092 56.5676H76.4444H76.8182H77.1899V57.3131H76.8182H76.4444H75.092V56.5676Z" fill="#FAFAFA"/>
<path d="M49.6568 54.1506H44.369V58.5879H49.6568V54.1506Z" fill="#F0F0F0"/>
<path d="M48.6425 55.3792H49.3187V54.703H48.6425V55.3792Z" fill="#FAFAFA"/>
<path d="M47.33 55.3792H48.0062V54.703H47.33V55.3792Z" fill="#FAFAFA"/>
<path d="M46.0196 55.3792H46.6958V54.703H46.0196V55.3792Z" fill="#FAFAFA"/>
<path d="M44.7092 55.3792H45.3854V54.703H44.7092V55.3792Z" fill="#FAFAFA"/>
<path d="M48.6425 56.6118H49.3187V55.9356H48.6425V56.6118Z" fill="#FAFAFA"/>
<path d="M47.33 56.6118H48.0062V55.9356H47.33V56.6118Z" fill="#FAFAFA"/>
<path d="M46.0196 56.6118H46.6958V55.9356H46.0196V56.6118Z" fill="#FAFAFA"/>
<path d="M44.7092 56.6118H45.3854V55.9356H44.7092V56.6118Z" fill="#E6E6E6"/>
<path d="M48.6425 57.8403H49.3187V57.1641H48.6425V57.8403Z" fill="#E6E6E6"/>
<path d="M47.33 57.8403H48.0062V57.1641H47.33V57.8403Z" fill="#E6E6E6"/>
<path d="M46.0196 57.8403H46.6958V57.1641H46.0196V57.8403Z" fill="#FAFAFA"/>
<path d="M44.7092 57.8403H45.3854V57.1641H44.7092V57.8403Z" fill="#E6E6E6"/>
<path d="M43.6529 50.8704H38.3651V58.5879H43.6529V50.8704Z" fill="#F0F0F0"/>
<path d="M43.3149 51.2085H41.3262V53.1153H43.3149V51.2085Z" fill="#FAFAFA"/>
<path d="M40.6919 51.2085H38.7032V53.1153H40.6919V51.2085Z" fill="#FAFAFA"/>
<path d="M43.3149 53.6675H41.3262V55.5743H43.3149V53.6675Z" fill="#FAFAFA"/>
<path d="M40.6919 53.6675H38.7032V55.5743H40.6919V53.6675Z" fill="#FAFAFA"/>
<path d="M43.3149 56.1289H41.3262V58.0357H43.3149V56.1289Z" fill="#FAFAFA"/>
<path d="M40.6919 56.1289H38.7032V58.0357H40.6919V56.1289Z" fill="#FAFAFA"/>
<path d="M53 78.2376C75.4873 78.2376 93.7169 77.1732 93.7169 75.8603C93.7169 74.5475 75.4873 73.4832 53 73.4832C30.5127 73.4832 12.2831 74.5475 12.2831 75.8603C12.2831 77.1732 30.5127 78.2376 53 78.2376Z" fill="#F5F5F5"/>
<path d="M87.209 69.6612C87.209 69.5919 86.978 62.8068 85.8776 61.7379C84.8171 60.7068 83.5928 61.7001 83.5424 61.7379L83.408 61.5762C83.4206 61.5657 84.8276 60.4191 86.0246 61.5762C87.1838 62.7039 87.4106 69.3609 87.419 69.6444L87.209 69.6612Z" fill="#407BFF"/>
<path d="M87.3035 70.9968C87.272 70.665 86.5475 62.8341 89.5022 59.4468L89.6597 59.5854C86.7659 62.9076 87.5051 70.9002 87.5135 70.98L87.3035 70.9968Z" fill="#407BFF"/>
<path d="M87.23 70.1401L87.02 70.1275C87.02 70.0351 87.5975 60.9568 85.4408 58.9723L85.5836 58.8169C87.8159 60.8707 87.2573 69.7642 87.23 70.1401Z" fill="#407BFF"/>
<path d="M87.5135 70.1402H87.3035C87.3035 69.8903 87.3749 63.9914 89.057 63.0275C89.2181 62.923 89.4021 62.8589 89.5933 62.8406C89.7845 62.8224 89.9772 62.8504 90.1553 62.9225C91.1759 63.3425 91.6799 65.1506 91.7009 65.2325L91.4909 65.2871C91.4909 65.2703 90.9932 63.5021 90.0692 63.1199C89.9207 63.0602 89.7599 63.0377 89.6007 63.0541C89.4416 63.0706 89.2888 63.1256 89.1557 63.2144C87.5828 64.109 87.5135 70.0772 87.5135 70.1402Z" fill="#407BFF"/>
<path d="M86.8624 70.14L86.6524 70.1274C86.6524 70.0812 86.9044 65.4801 85.6654 63.8631C85.3693 63.4746 85.0354 63.2919 84.7078 63.315C83.9035 63.3696 83.2252 64.554 83.2189 64.575L83.0299 64.47C83.0593 64.4175 83.7691 63.1764 84.6868 63.1134C85.1068 63.0861 85.4827 63.2961 85.8271 63.7434C87.1186 65.4171 86.8729 69.9489 86.8624 70.14Z" fill="#407BFF"/>
<path d="M87.0977 70.77C87.0641 70.3227 86.285 59.7975 87.6584 57.939L87.8285 58.0629C86.4992 59.8605 87.2993 70.6461 87.3077 70.7553L87.0977 70.77Z" fill="#407BFF"/>
<path d="M90.5206 63.9976C90.5206 63.9976 89.6995 64.3021 89.9431 65.0161C90.1867 65.7301 92.7886 66.9061 92.7886 66.9061C92.7886 66.9061 93.8764 65.9086 92.8768 64.2853C91.8772 62.662 90.5437 63.4852 90.5206 63.9976Z" fill="#407BFF"/>
<path opacity="0.5" d="M90.5206 63.9976C90.5206 63.9976 89.6995 64.3021 89.9431 65.0161C90.1867 65.7301 92.7886 66.9061 92.7886 66.9061C92.7886 66.9061 93.8764 65.9086 92.8768 64.2853C91.8772 62.662 90.5437 63.4852 90.5206 63.9976Z" fill="white"/>
<path d="M86.9465 62.6369C86.9465 62.6369 87.8222 62.5991 87.8726 63.353C87.923 64.1069 85.9826 66.1964 85.9826 66.1964C85.9826 66.1964 84.5924 65.6945 84.8906 63.8108C85.1888 61.9271 86.7302 62.1728 86.9465 62.6369Z" fill="#407BFF"/>
<path opacity="0.5" d="M86.9465 62.6369C86.9465 62.6369 87.8222 62.5991 87.8726 63.353C87.923 64.1069 85.9826 66.1964 85.9826 66.1964C85.9826 66.1964 84.5924 65.6945 84.8906 63.8108C85.1888 61.9271 86.7302 62.1728 86.9465 62.6369Z" fill="white"/>
<path d="M86.2051 59.0247C86.2051 59.0247 86.7889 58.9617 86.7427 58.6047C86.6965 58.2477 84.4726 57.3342 83.1622 58.8147C83.1622 58.8147 84.0022 60.2574 85.216 60.2847C86.4298 60.312 86.2051 59.0247 86.2051 59.0247Z" fill="#407BFF"/>
<path opacity="0.5" d="M86.2051 59.0247C86.2051 59.0247 86.7889 58.9617 86.7427 58.6047C86.6965 58.2477 84.4726 57.3342 83.1622 58.8147C83.1622 58.8147 84.0022 60.2574 85.216 60.2847C86.4298 60.312 86.2051 59.0247 86.2051 59.0247Z" fill="white"/>
<path d="M87.293 58.1701C87.293 58.1701 86.7659 58.4242 86.6168 58.0987C86.4677 57.7732 87.8768 55.8202 89.7668 56.383C89.7668 56.383 89.8151 58.0504 88.7966 58.7077C87.7781 59.365 87.293 58.1701 87.293 58.1701Z" fill="#407BFF"/>
<path opacity="0.5" d="M87.293 58.1701C87.293 58.1701 86.7659 58.4242 86.6168 58.0987C86.4677 57.7732 87.8768 55.8202 89.7668 56.383C89.7668 56.383 89.8151 58.0504 88.7966 58.7077C87.7781 59.365 87.293 58.1701 87.293 58.1701Z" fill="white"/>
<path d="M84.5294 63.7098C84.5294 63.7098 84.9326 63.3843 84.4979 63.2268C84.0632 63.0693 81.9296 63.1134 81.9086 65.226C81.9086 65.226 84.3929 65.646 84.6995 64.8333C85.0061 64.0206 84.5294 63.7098 84.5294 63.7098Z" fill="#407BFF"/>
<path opacity="0.5" d="M84.5294 63.7098C84.5294 63.7098 84.9326 63.3843 84.4979 63.2268C84.0632 63.0693 81.9296 63.1134 81.9086 65.226C81.9086 65.226 84.3929 65.646 84.6995 64.8333C85.0061 64.0206 84.5294 63.7098 84.5294 63.7098Z" fill="white"/>
<path d="M89.5967 58.9722C89.5967 58.9722 89.1935 58.6467 89.6282 58.4871C90.0629 58.3275 92.1965 58.3737 92.2175 60.4863C92.2175 60.4863 89.7332 60.9063 89.4266 60.0957C89.12 59.2851 89.5967 58.9722 89.5967 58.9722Z" fill="#407BFF"/>
<path opacity="0.5" d="M89.5967 58.9722C89.5967 58.9722 89.1935 58.6467 89.6282 58.4871C90.0629 58.3275 92.1965 58.3737 92.2175 60.4863C92.2175 60.4863 89.7332 60.9063 89.4266 60.0957C89.12 59.2851 89.5967 58.9722 89.5967 58.9722Z" fill="white"/>
<path d="M88.2799 60.6733C88.2799 60.6733 88.2442 60.2785 88.5634 60.4339C88.8826 60.5893 89.9956 61.7884 88.8427 62.9266C88.8427 62.9266 87.2908 61.7779 87.5701 61.1794C87.8494 60.5809 88.2799 60.6733 88.2799 60.6733Z" fill="#407BFF"/>
<path opacity="0.5" d="M88.2799 60.6733C88.2799 60.6733 88.2442 60.2785 88.5634 60.4339C88.8826 60.5893 89.9956 61.7884 88.8427 62.9266C88.8427 62.9266 87.2908 61.7779 87.5701 61.1794C87.8494 60.5809 88.2799 60.6733 88.2799 60.6733Z" fill="white"/>
<path d="M84.1703 61.236C84.1703 61.236 84.4118 60.921 84.059 60.8832C83.7062 60.8454 82.1249 61.2654 82.4924 62.8425C82.4924 62.8425 84.4181 62.6976 84.5021 62.0424C84.5861 61.3872 84.1703 61.236 84.1703 61.236Z" fill="#407BFF"/>
<path opacity="0.5" d="M84.1703 61.236C84.1703 61.236 84.4118 60.921 84.059 60.8832C83.7062 60.8454 82.1249 61.2654 82.4924 62.8425C82.4924 62.8425 84.4181 62.6976 84.5021 62.0424C84.5861 61.3872 84.1703 61.236 84.1703 61.236Z" fill="white"/>
<path d="M90.674 75.9927H84.0674L83.3555 68.7603H91.388L90.674 75.9927Z" fill="#263238"/>
<path opacity="0.2" d="M90.674 75.9927H84.0674L83.3555 68.7603H91.388L90.674 75.9927Z" fill="white"/>
<path d="M91.7408 67.9624H83.0027V69.5584H91.7408V67.9624Z" fill="#263238"/>
<path opacity="0.4" d="M91.7408 67.9624H83.0027V69.5584H91.7408V67.9624Z" fill="white"/>
<path d="M21.8045 71.7464C21.8405 71.6715 21.8578 71.5889 21.8548 71.5058C21.8518 71.4227 21.8287 71.3416 21.7873 71.2694C21.746 71.1973 21.6877 71.1363 21.6175 71.0917C21.5473 71.0471 21.4673 71.0203 21.3845 71.0135C21.4551 70.8036 21.46 70.5771 21.3985 70.3643C21.3369 70.1515 21.2119 69.9626 21.0401 69.8228C20.9989 69.7837 20.9455 69.76 20.8889 69.7556C20.829 69.7624 20.7725 69.7873 20.7272 69.827L19.7738 70.5116C19.6965 70.5585 19.6316 70.6233 19.5848 70.7006C19.3895 71.0786 20.093 71.5616 19.7948 71.8745C19.7108 71.9648 19.5848 71.9816 19.4735 72.0467C19.2467 72.1895 19.2194 72.5003 19.1144 72.7481C19.0094 72.9959 18.6377 73.1849 18.497 72.9581C18.602 72.7229 18.287 72.5192 18.0287 72.4898C17.7704 72.4604 17.5058 72.4457 17.363 72.2042C16.9997 72.5234 16.1849 71.6351 16.2038 71.2781C16.0602 71.3046 15.9283 71.3749 15.8264 71.4795C15.7244 71.5841 15.6575 71.7177 15.6347 71.8619C15.5933 72.1568 15.5835 72.4553 15.6053 72.7523C15.6053 73.3319 15.4079 73.8989 15.4184 74.4785C15.4184 74.9279 15.6011 75.4298 16.0127 75.6104C16.2181 75.6822 16.436 75.7115 16.6532 75.6965L21.353 75.6671C21.4757 75.6749 21.5985 75.6518 21.71 75.5999C21.92 75.4907 21.9662 75.2114 21.9851 74.9699C22.0691 73.9493 22.1538 72.928 22.2392 71.906L21.8045 71.7464Z" fill="#407BFF"/>
<path opacity="0.3" d="M21.8045 71.7464C21.8405 71.6715 21.8578 71.5889 21.8548 71.5058C21.8518 71.4227 21.8287 71.3416 21.7873 71.2694C21.746 71.1973 21.6877 71.1363 21.6175 71.0917C21.5473 71.0471 21.4673 71.0203 21.3845 71.0135C21.4551 70.8036 21.46 70.5771 21.3985 70.3643C21.3369 70.1515 21.2119 69.9626 21.0401 69.8228C20.9989 69.7837 20.9455 69.76 20.8889 69.7556C20.829 69.7624 20.7725 69.7873 20.7272 69.827L19.7738 70.5116C19.6965 70.5585 19.6316 70.6233 19.5848 70.7006C19.3895 71.0786 20.093 71.5616 19.7948 71.8745C19.7108 71.9648 19.5848 71.9816 19.4735 72.0467C19.2467 72.1895 19.2194 72.5003 19.1144 72.7481C19.0094 72.9959 18.6377 73.1849 18.497 72.9581C18.602 72.7229 18.287 72.5192 18.0287 72.4898C17.7704 72.4604 17.5058 72.4457 17.363 72.2042C16.9997 72.5234 16.1849 71.6351 16.2038 71.2781C16.0602 71.3046 15.9283 71.3749 15.8264 71.4795C15.7244 71.5841 15.6575 71.7177 15.6347 71.8619C15.5933 72.1568 15.5835 72.4553 15.6053 72.7523C15.6053 73.3319 15.4079 73.8989 15.4184 74.4785C15.4184 74.9279 15.6011 75.4298 16.0127 75.6104C16.2181 75.6822 16.436 75.7115 16.6532 75.6965L21.353 75.6671C21.4757 75.6749 21.5985 75.6518 21.71 75.5999C21.92 75.4907 21.9662 75.2114 21.9851 74.9699C22.0691 73.9493 22.1538 72.928 22.2392 71.906L21.8045 71.7464Z" fill="white"/>
<path d="M22.0795 66.7799H14.7799L14.8408 67.517L14.8828 68.042L14.9941 69.4112L15.0571 70.1966L15.1411 71.2466L15.1789 71.6939V71.8283L15.223 72.3554L15.2797 73.0778L15.3175 73.5272L15.3532 73.9829L15.4099 74.5079L15.4414 74.9069L15.4771 75.3563L15.4939 75.5516H22.1845L22.1992 75.3563L22.2349 74.909L22.2685 74.5079L22.3105 73.9787L22.3483 73.5251L22.384 73.0757L22.4428 72.3512L22.4848 71.8262V71.6918L22.5205 71.2445L22.6066 70.1945L22.6696 69.4112L22.7788 68.0399L22.8229 67.5149L22.8817 66.7778L22.0795 66.7799ZM22.5184 67.2629L22.3777 67.1222H22.5289L22.5184 67.2629ZM22.4806 67.7102L22.468 67.8887L21.8149 68.5418L21.0673 67.7921L21.7372 67.1222H21.8947L22.4806 67.7102ZM22.2937 70.0433L21.8149 70.52L21.0673 69.7724L21.8149 69.0248L22.3315 69.5435L22.2937 70.0433ZM15.3637 69.5435L15.8824 69.0248L16.63 69.7724L15.8824 70.52L15.4057 70.0433L15.3637 69.5435ZM21.5818 68.7833L20.8342 69.5309L20.0845 68.7833L20.8258 68.0399L21.5818 68.7833ZM20.4058 67.1222H21.2626L20.8426 67.5422L20.4058 67.1222ZM20.5906 69.7724L19.843 70.52L19.0954 69.7724L19.843 69.0248L20.5906 69.7724ZM18.0958 70.7699L18.8455 70.0244L19.591 70.7699L18.8455 71.5196L18.0958 70.7699ZM18.6019 71.7611L17.8522 72.5087L17.1067 71.7632L17.8543 71.0135L18.6019 71.7611ZM19.8346 71.0135L20.5822 71.7632L19.8346 72.5087L19.087 71.7611L19.8346 71.0135ZM18.8455 69.5435L18.0958 68.7959L18.8455 68.0399L19.591 68.7896L18.8455 69.5435ZM18.6019 69.785L17.8543 70.5326L17.1067 69.785L17.8543 69.0374L18.6019 69.785ZM16.8631 69.5435L16.1155 68.7959L16.8631 68.0399L17.6107 68.7896L16.8631 69.5435ZM16.8631 70.0286L17.6107 70.7699L16.8631 71.5196L16.1155 70.7699L16.8631 70.0286ZM17.6107 72.7586L16.8631 73.4999L16.1155 72.7523L16.8631 72.0047L17.6107 72.7586ZM17.8522 73.0001L18.6019 73.7498L17.8543 74.4974L17.1067 73.7498L17.8522 73.0001ZM18.0958 72.7586L18.8455 72.011L19.591 72.7586L18.8455 73.4999L18.0958 72.7586ZM19.8346 73.0001L20.5822 73.7498L19.8346 74.4974L19.087 73.7498L19.8346 73.0001ZM20.8258 73.9913L21.5734 74.7389L21.0799 75.2093H20.5612L20.0761 74.7242L20.8258 73.9913ZM20.0761 72.7586L20.8258 72.011L21.5734 72.7586L20.8258 73.4999L20.0761 72.7586ZM20.0761 70.7762L20.8258 70.0307L21.5734 70.7762L20.8258 71.5259L20.0761 70.7762ZM20.5822 67.8068L19.8346 68.5565L19.087 67.8068L19.7569 67.1369H19.9144L20.5822 67.8068ZM18.8455 67.5653L18.4255 67.1453H19.2802L18.8455 67.5653ZM18.6019 67.8068L17.8543 68.5565L17.1067 67.8068L17.7766 67.1369H17.9299L18.6019 67.8068ZM17.2999 67.1222L16.8799 67.5422L16.4599 67.1222H17.2999ZM15.9601 67.1222L16.63 67.7921L15.8824 68.5418L15.2314 67.8887L15.2167 67.7102L15.8026 67.1222H15.9601ZM15.3301 67.1222L15.1915 67.2608L15.1789 67.1222H15.3301ZM15.2839 68.4158L15.6514 68.7833L15.3196 69.0899L15.2839 68.4158ZM15.4939 70.9253L15.4645 70.5704L15.6577 70.7615L15.4939 70.9253ZM15.5296 71.3747L15.8992 71.0051L16.6468 71.7548L15.8992 72.5003L15.5968 72.2L15.5296 71.3747ZM15.6409 72.7607V72.7271L15.6598 72.7439L15.643 72.7607H15.6409ZM15.7711 74.3546L15.6766 73.2059L15.8992 72.9854L16.6468 73.7351L15.8992 74.4806L15.7711 74.3546ZM15.8404 75.2093L15.8257 75.0371L15.8992 74.9657L16.1407 75.2093H15.8404ZM16.1407 74.7242L16.8883 73.9766L17.6359 74.7242L17.1529 75.2093H16.5985L16.1407 74.7242ZM17.638 75.2093L17.8543 74.9699L18.0979 75.2135L17.638 75.2093ZM18.6061 75.2093L18.121 74.7242L18.8707 73.9766L19.6162 74.7242L19.1332 75.2093H18.6061ZM19.6162 75.2093L19.8346 74.9699L20.0782 75.2135L19.6162 75.2093ZM21.8989 75.2093H21.5965L21.8149 74.9699L21.8863 75.0413L21.8989 75.2093ZM21.9682 74.3546L21.8401 74.4806L21.0925 73.7351L21.8401 72.9854L22.0501 73.2059L21.9682 74.3546ZM22.1005 72.725V72.7607L22.0858 72.7439L22.1047 72.725H22.1005ZM22.1425 72.2L21.8401 72.5003L21.0925 71.7548L21.8401 71.0051L22.2097 71.3747L22.1425 72.2ZM22.2454 70.9274L22.0816 70.7615L22.2748 70.5704L22.2454 70.9274ZM22.4554 68.4074L22.4008 69.0899L22.0879 68.777L22.4554 68.4074Z" fill="#407BFF"/>
<g opacity="0.6">
<path d="M22.0795 66.7799H14.7799L14.8408 67.517L14.8828 68.042L14.9941 69.4112L15.0571 70.1966L15.1411 71.2466L15.1789 71.6939V71.8283L15.223 72.3554L15.2797 73.0778L15.3175 73.5272L15.3532 73.9829L15.4099 74.5079L15.4414 74.9069L15.4771 75.3563L15.4939 75.5516H22.1845L22.1992 75.3563L22.2349 74.909L22.2685 74.5079L22.3105 73.9787L22.3483 73.5251L22.384 73.0757L22.4428 72.3512L22.4848 71.8262V71.6918L22.5205 71.2445L22.6066 70.1945L22.6696 69.4112L22.7788 68.0399L22.8229 67.5149L22.8817 66.7778L22.0795 66.7799ZM22.5184 67.2629L22.3777 67.1222H22.5289L22.5184 67.2629ZM22.4806 67.7102L22.468 67.8887L21.8149 68.5418L21.0673 67.7921L21.7372 67.1222H21.8947L22.4806 67.7102ZM22.2937 70.0433L21.8149 70.52L21.0673 69.7724L21.8149 69.0248L22.3315 69.5435L22.2937 70.0433ZM15.3637 69.5435L15.8824 69.0248L16.63 69.7724L15.8824 70.52L15.4057 70.0433L15.3637 69.5435ZM21.5818 68.7833L20.8342 69.5309L20.0845 68.7833L20.8258 68.0399L21.5818 68.7833ZM20.4058 67.1222H21.2626L20.8426 67.5422L20.4058 67.1222ZM20.5906 69.7724L19.843 70.52L19.0954 69.7724L19.843 69.0248L20.5906 69.7724ZM18.0958 70.7699L18.8455 70.0244L19.591 70.7699L18.8455 71.5196L18.0958 70.7699ZM18.6019 71.7611L17.8522 72.5087L17.1067 71.7632L17.8543 71.0135L18.6019 71.7611ZM19.8346 71.0135L20.5822 71.7632L19.8346 72.5087L19.087 71.7611L19.8346 71.0135ZM18.8455 69.5435L18.0958 68.7959L18.8455 68.0399L19.591 68.7896L18.8455 69.5435ZM18.6019 69.785L17.8543 70.5326L17.1067 69.785L17.8543 69.0374L18.6019 69.785ZM16.8631 69.5435L16.1155 68.7959L16.8631 68.0399L17.6107 68.7896L16.8631 69.5435ZM16.8631 70.0286L17.6107 70.7699L16.8631 71.5196L16.1155 70.7699L16.8631 70.0286ZM17.6107 72.7586L16.8631 73.4999L16.1155 72.7523L16.8631 72.0047L17.6107 72.7586ZM17.8522 73.0001L18.6019 73.7498L17.8543 74.4974L17.1067 73.7498L17.8522 73.0001ZM18.0958 72.7586L18.8455 72.011L19.591 72.7586L18.8455 73.4999L18.0958 72.7586ZM19.8346 73.0001L20.5822 73.7498L19.8346 74.4974L19.087 73.7498L19.8346 73.0001ZM20.8258 73.9913L21.5734 74.7389L21.0799 75.2093H20.5612L20.0761 74.7242L20.8258 73.9913ZM20.0761 72.7586L20.8258 72.011L21.5734 72.7586L20.8258 73.4999L20.0761 72.7586ZM20.0761 70.7762L20.8258 70.0307L21.5734 70.7762L20.8258 71.5259L20.0761 70.7762ZM20.5822 67.8068L19.8346 68.5565L19.087 67.8068L19.7569 67.1369H19.9144L20.5822 67.8068ZM18.8455 67.5653L18.4255 67.1453H19.2802L18.8455 67.5653ZM18.6019 67.8068L17.8543 68.5565L17.1067 67.8068L17.7766 67.1369H17.9299L18.6019 67.8068ZM17.2999 67.1222L16.8799 67.5422L16.4599 67.1222H17.2999ZM15.9601 67.1222L16.63 67.7921L15.8824 68.5418L15.2314 67.8887L15.2167 67.7102L15.8026 67.1222H15.9601ZM15.3301 67.1222L15.1915 67.2608L15.1789 67.1222H15.3301ZM15.2839 68.4158L15.6514 68.7833L15.3196 69.0899L15.2839 68.4158ZM15.4939 70.9253L15.4645 70.5704L15.6577 70.7615L15.4939 70.9253ZM15.5296 71.3747L15.8992 71.0051L16.6468 71.7548L15.8992 72.5003L15.5968 72.2L15.5296 71.3747ZM15.6409 72.7607V72.7271L15.6598 72.7439L15.643 72.7607H15.6409ZM15.7711 74.3546L15.6766 73.2059L15.8992 72.9854L16.6468 73.7351L15.8992 74.4806L15.7711 74.3546ZM15.8404 75.2093L15.8257 75.0371L15.8992 74.9657L16.1407 75.2093H15.8404ZM16.1407 74.7242L16.8883 73.9766L17.6359 74.7242L17.1529 75.2093H16.5985L16.1407 74.7242ZM17.638 75.2093L17.8543 74.9699L18.0979 75.2135L17.638 75.2093ZM18.6061 75.2093L18.121 74.7242L18.8707 73.9766L19.6162 74.7242L19.1332 75.2093H18.6061ZM19.6162 75.2093L19.8346 74.9699L20.0782 75.2135L19.6162 75.2093ZM21.8989 75.2093H21.5965L21.8149 74.9699L21.8863 75.0413L21.8989 75.2093ZM21.9682 74.3546L21.8401 74.4806L21.0925 73.7351L21.8401 72.9854L22.0501 73.2059L21.9682 74.3546ZM22.1005 72.725V72.7607L22.0858 72.7439L22.1047 72.725H22.1005ZM22.1425 72.2L21.8401 72.5003L21.0925 71.7548L21.8401 71.0051L22.2097 71.3747L22.1425 72.2ZM22.2454 70.9274L22.0816 70.7615L22.2748 70.5704L22.2454 70.9274ZM22.4554 68.4074L22.4008 69.0899L22.0879 68.777L22.4554 68.4074Z" fill="white"/>
</g>
<path d="M14.6665 67.4268H23.0224C23.2126 67.4268 23.3668 67.2726 23.3668 67.0824V66.8178C23.3668 66.6275 23.2126 66.4734 23.0224 66.4734H14.6665C14.4763 66.4734 14.3221 66.6275 14.3221 66.8178V67.0824C14.3221 67.2726 14.4763 67.4268 14.6665 67.4268Z" fill="#407BFF"/>
<path d="M22.3714 75.0393H15.3196C15.1294 75.0393 14.9752 75.1935 14.9752 75.3837V75.6483C14.9752 75.8385 15.1294 75.9927 15.3196 75.9927H22.3714C22.5616 75.9927 22.7158 75.8385 22.7158 75.6483V75.3837C22.7158 75.1935 22.5616 75.0393 22.3714 75.0393Z" fill="#407BFF"/>
<path d="M71.7047 75.9927H52.2104C51.9308 75.9977 51.6532 75.943 51.3964 75.8324C51.1395 75.7217 50.9091 75.5576 50.7205 75.351C50.532 75.1444 50.3896 74.9 50.3029 74.6341C50.2162 74.3681 50.1871 74.0868 50.2175 73.8087L55.2575 16.2435C55.3172 15.6538 55.5903 15.1062 56.0253 14.7037C56.4604 14.3011 57.0275 14.0713 57.62 14.0574H77.1143C77.3942 14.0525 77.6719 14.1072 77.9289 14.218C78.186 14.3287 78.4165 14.493 78.6051 14.6999C78.7936 14.9067 78.936 15.1514 79.0225 15.4176C79.1091 15.6838 79.138 15.9653 79.1072 16.2435L74.0672 73.8087C74.007 74.3981 73.7338 74.9452 73.2988 75.3473C72.8638 75.7494 72.297 75.9789 71.7047 75.9927Z" fill="#407BFF"/>
<path opacity="0.4" d="M71.7047 75.9927H52.2104C51.9308 75.9977 51.6532 75.943 51.3964 75.8324C51.1395 75.7217 50.9091 75.5576 50.7205 75.351C50.532 75.1444 50.3896 74.9 50.3029 74.6341C50.2162 74.3681 50.1871 74.0868 50.2175 73.8087L55.2575 16.2435C55.3172 15.6538 55.5903 15.1062 56.0253 14.7037C56.4604 14.3011 57.0275 14.0713 57.62 14.0574H77.1143C77.3942 14.0525 77.6719 14.1072 77.9289 14.218C78.186 14.3287 78.4165 14.493 78.6051 14.6999C78.7936 14.9067 78.936 15.1514 79.0225 15.4176C79.1091 15.6838 79.138 15.9653 79.1072 16.2435L74.0672 73.8087C74.007 74.3981 73.7338 74.9452 73.2988 75.3473C72.8638 75.7494 72.297 75.9789 71.7047 75.9927Z" fill="white"/>
<path d="M69.6048 75.9927H50.1105C49.8308 75.9977 49.5533 75.943 49.2964 75.8324C49.0395 75.7217 48.8091 75.5576 48.6206 75.351C48.432 75.1444 48.2897 74.9 48.2029 74.6341C48.1162 74.3681 48.0871 74.0868 48.1175 73.8087L53.1575 16.2435C53.2173 15.6538 53.4903 15.1062 53.9254 14.7037C54.3604 14.3011 54.9275 14.0713 55.52 14.0574H75.0143C75.2942 14.0525 75.5719 14.1072 75.829 14.218C76.086 14.3287 76.3165 14.493 76.5051 14.6999C76.6937 14.9067 76.836 15.1514 76.9226 15.4176C77.0092 15.6838 77.038 15.9653 77.0072 16.2435L71.9673 73.8087C71.907 74.3981 71.6338 74.9452 71.1988 75.3473C70.7638 75.7494 70.197 75.9789 69.6048 75.9927Z" fill="#263238"/>
<path d="M69.6048 75.9927H50.1105C49.8308 75.9977 49.5533 75.943 49.2964 75.8324C49.0395 75.7217 48.8091 75.5576 48.6206 75.351C48.432 75.1444 48.2897 74.9 48.2029 74.6341C48.1162 74.3681 48.0871 74.0868 48.1175 73.8087L53.1575 16.2435C53.2173 15.6538 53.4903 15.1062 53.9254 14.7037C54.3604 14.3011 54.9275 14.0713 55.52 14.0574H75.0143C75.2942 14.0525 75.5719 14.1072 75.829 14.218C76.086 14.3287 76.3165 14.493 76.5051 14.6999C76.6937 14.9067 76.836 15.1514 76.9226 15.4176C77.0092 15.6838 77.038 15.9653 77.0072 16.2435L71.9673 73.8087C71.907 74.3981 71.6338 74.9452 71.1988 75.3473C70.7638 75.7494 70.197 75.9789 69.6048 75.9927Z" fill="#407BFF"/>
<path opacity="0.4" d="M76.2196 16.1323L71.1796 73.8067C71.1376 74.2813 70.8415 74.6467 70.5118 74.6467H49.3795C49.0771 74.6467 48.8776 74.3086 48.9175 73.8718L53.9743 16.0588C54.0079 15.6808 54.2284 15.3511 54.4909 15.3511H59.7724C59.9215 15.3511 60.0454 15.4918 60.0832 15.6955L60.2344 16.4725C60.2722 16.672 60.394 16.8106 60.5431 16.8106H69.5374C69.6253 16.7981 69.7075 16.7596 69.7733 16.7001C69.8392 16.6407 69.8857 16.5628 69.907 16.4767L70.1926 15.6955C70.2143 15.6081 70.261 15.529 70.3271 15.4678C70.3931 15.4066 70.4756 15.366 70.5643 15.3511H75.7702C76.0579 15.3553 76.2574 15.7165 76.2196 16.1323Z" fill="white"/>
<path d="M75.974 18.9587L71.6438 68.4473H49.3922L53.7224 18.9587H75.974Z" fill="#407BFF"/>
<path opacity="0.6" d="M56.2844 17.6798H56.5601L56.6064 17.1506H56.3328L56.2844 17.6798Z" fill="white"/>
<path opacity="0.6" d="M55.8372 17.68H56.1129L56.1739 16.9744H55.9003L55.8372 17.68Z" fill="white"/>
<path opacity="0.6" d="M55.3898 17.6799H55.6655L55.7433 16.7979H55.4676L55.3898 17.6799Z" fill="white"/>
<path opacity="0.6" d="M54.9425 17.68H55.2176L55.31 16.6216H55.0349L54.9425 17.68Z" fill="white"/>
<path opacity="0.6" d="M73.5846 17.4867H73.4204L73.4667 16.9575H73.6309L73.5846 17.4867Z" fill="white"/>
<path opacity="0.6" d="M73.6787 17.68H74.9765L75.0563 16.7644H73.7585L73.6787 17.68Z" fill="white"/>
<path opacity="0.6" d="M65.1527 15.4307C65.1317 15.6743 64.9763 15.8717 64.8083 15.8717C64.6403 15.8717 64.5206 15.6743 64.5416 15.4307C64.5626 15.1871 64.7159 14.9897 64.886 14.9897C65.0561 14.9897 65.18 15.1871 65.1527 15.4307Z" fill="#263238"/>
<path opacity="0.6" d="M65.7701 15.4308C65.7575 15.5883 65.6588 15.7143 65.5496 15.7143C65.4404 15.7143 65.3648 15.5883 65.3795 15.4308C65.3942 15.2733 65.4908 15.1494 65.6 15.1494C65.7092 15.1494 65.7848 15.2754 65.7701 15.4308Z" fill="#263238"/>
<path d="M75.9719 18.9587L75.3713 25.8236L75.2684 27.008L74.7875 32.5079L74.7119 33.3626L74.0294 41.1599L73.9559 42.0146L73.3007 49.5011L73.2062 50.5784L71.6438 68.4452H49.3901L53.7203 18.9587H75.9719Z" fill="#263238"/>
<path opacity="0.5" d="M53.9933 34.247C54.0158 34.2653 54.0441 34.275 54.0731 34.2743C54.0953 34.2735 54.117 34.268 54.1369 34.2582C54.1568 34.2485 54.1744 34.2346 54.1886 34.2176C54.2005 34.2042 54.2095 34.1887 54.2153 34.1719C54.2211 34.155 54.2235 34.1372 54.2223 34.1194C54.2211 34.1016 54.2164 34.0842 54.2085 34.0683C54.2005 34.0523 54.1895 34.0381 54.176 34.0265L53.7938 33.7283L54.2243 33.428C54.2554 33.4084 54.2777 33.3775 54.2863 33.3418C54.295 33.3061 54.2893 33.2684 54.2705 33.2369C54.2599 33.2224 54.2466 33.2101 54.2312 33.2008C54.2159 33.1914 54.1988 33.1852 54.1811 33.1825C54.1633 33.1798 54.1452 33.1806 54.1277 33.1848C54.1103 33.1891 54.0939 33.1968 54.0794 33.2075L53.4893 33.6275C53.4711 33.6403 53.4559 33.6568 53.4447 33.676C53.4334 33.6952 53.4265 33.7166 53.4242 33.7388C53.4224 33.7597 53.4256 33.7807 53.4337 33.8001C53.4417 33.8195 53.4543 33.8366 53.4704 33.8501L53.9933 34.247Z" fill="white"/>
<path opacity="0.5" d="M55.9001 33.7261L55.4696 34.0201C55.4387 34.0403 55.4168 34.0717 55.4086 34.1078C55.4004 34.1438 55.4064 34.1816 55.4255 34.2133C55.4371 34.2304 55.4527 34.2444 55.4711 34.2539C55.4894 34.2634 55.5099 34.2682 55.5305 34.2679C55.5608 34.2682 55.5903 34.2586 55.6145 34.2406L56.2046 33.8311C56.2233 33.8192 56.2389 33.8032 56.2502 33.7842C56.2615 33.7653 56.2682 33.7439 56.2697 33.7219C56.2721 33.7009 56.2692 33.6797 56.2611 33.6602C56.253 33.6407 56.2401 33.6236 56.2235 33.6106L55.7027 33.2032C55.6728 33.1814 55.6356 33.1723 55.5991 33.1778C55.5625 33.1833 55.5296 33.203 55.5074 33.2326C55.4956 33.2459 55.4865 33.2614 55.4807 33.2783C55.4749 33.2951 55.4726 33.313 55.4737 33.3307C55.4749 33.3485 55.4796 33.3659 55.4875 33.3819C55.4955 33.3978 55.5065 33.412 55.52 33.4237L55.9001 33.7261Z" fill="white"/>
<path opacity="0.5" d="M54.6107 34.2659C54.626 34.268 54.6416 34.268 54.6569 34.2659C54.6861 34.2653 54.7146 34.2563 54.7388 34.2399C54.7631 34.2235 54.782 34.2004 54.7934 34.1735L55.1525 33.3545C55.1604 33.3386 55.1648 33.3213 55.1655 33.3036C55.1663 33.2859 55.1633 33.2683 55.1567 33.2518C55.1502 33.2354 55.1403 33.2205 55.1276 33.2082C55.1149 33.1958 55.0998 33.1863 55.0832 33.1802C55.0477 33.1688 55.0093 33.1712 54.9755 33.1867C54.9417 33.2023 54.915 33.2299 54.9005 33.2642L54.5414 34.0811C54.532 34.0974 54.5264 34.1156 54.5248 34.1344C54.5233 34.1532 54.5259 34.1721 54.5326 34.1898C54.5392 34.2074 54.5496 34.2234 54.5631 34.2365C54.5766 34.2497 54.5929 34.2597 54.6107 34.2659Z" fill="white"/>
<path opacity="0.5" d="M56.9039 34.3183H57.62C57.6695 34.3162 57.7166 34.2968 57.7531 34.2634C57.7896 34.2299 57.8131 34.1847 57.8195 34.1356C57.8219 34.1123 57.8193 34.0887 57.8119 34.0664C57.8045 34.0442 57.7925 34.0238 57.7766 34.0065C57.7607 33.9892 57.7414 33.9755 57.7198 33.9663C57.6982 33.957 57.675 33.9525 57.6515 33.9529H56.9249C56.8736 33.9525 56.824 33.9708 56.7853 34.0045C56.7466 34.0381 56.7216 34.0848 56.7149 34.1356C56.7121 34.1608 56.7151 34.1864 56.7237 34.2103C56.7322 34.2342 56.7462 34.2558 56.7645 34.2735C56.7827 34.2911 56.8048 34.3043 56.829 34.3121C56.8531 34.3199 56.8788 34.322 56.9039 34.3183Z" fill="white"/>
<path d="M59.468 39.0602C59.4704 39.0368 59.4678 39.0133 59.4604 38.991C59.453 38.9687 59.441 38.9483 59.4251 38.931C59.4092 38.9138 59.3899 38.9001 59.3683 38.8908C59.3467 38.8816 59.3235 38.877 59.3 38.8775H53C52.9509 38.88 52.9043 38.8997 52.8682 38.9331C52.8322 38.9665 52.8089 39.0114 52.8026 39.0602C52.7999 39.0836 52.8022 39.1073 52.8095 39.1297C52.8168 39.1521 52.8288 39.1727 52.8447 39.19C52.8607 39.2074 52.8802 39.2211 52.9019 39.2302C52.9236 39.2393 52.9471 39.2436 52.9706 39.2429H59.2706C59.3197 39.2403 59.3663 39.2207 59.4024 39.1873C59.4385 39.1539 59.4617 39.1089 59.468 39.0602Z" fill="white"/>
<path opacity="0.5" d="M60.2597 39.2448H62.114C62.1631 39.2423 62.2097 39.2226 62.2458 39.1892C62.2819 39.1558 62.3051 39.1109 62.3114 39.0621C62.3138 39.0388 62.3112 39.0152 62.3038 38.993C62.2964 38.9707 62.2844 38.9503 62.2685 38.933C62.2526 38.9157 62.2333 38.902 62.2117 38.8928C62.1902 38.8836 62.1669 38.879 62.1434 38.8794H60.2912C60.24 38.879 60.1903 38.8973 60.1516 38.931C60.1129 38.9646 60.0879 39.0113 60.0812 39.0621C60.0787 39.0864 60.0815 39.1109 60.0895 39.1339C60.0975 39.157 60.1105 39.178 60.1276 39.1954C60.1446 39.2129 60.1653 39.2263 60.1881 39.2349C60.211 39.2434 60.2354 39.2468 60.2597 39.2448Z" fill="white"/>
<path opacity="0.5" d="M53.0652 38.0856H55.4508C55.5002 38.0836 55.5473 38.0641 55.5838 38.0307C55.6203 37.9973 55.6439 37.952 55.6502 37.9029C55.6526 37.8796 55.65 37.856 55.6426 37.8338C55.6352 37.8115 55.6232 37.7911 55.6073 37.7738C55.5914 37.7566 55.5721 37.7429 55.5505 37.7336C55.529 37.7244 55.5057 37.7198 55.4823 37.7202H53.0967C53.0454 37.7198 52.9957 37.7381 52.957 37.7718C52.9183 37.8055 52.8933 37.8521 52.8867 37.9029C52.8841 37.9272 52.8869 37.9517 52.8949 37.9748C52.9029 37.9978 52.9159 38.0188 52.933 38.0362C52.95 38.0537 52.9707 38.0671 52.9935 38.0757C53.0164 38.0842 53.0408 38.0876 53.0652 38.0856Z" fill="white"/>
<path d="M64.2454 37.9029C64.2478 37.8796 64.2452 37.856 64.2378 37.8338C64.2304 37.8115 64.2184 37.7911 64.2025 37.7738C64.1866 37.7566 64.1673 37.7429 64.1457 37.7336C64.1242 37.7244 64.1009 37.7198 64.0774 37.7202H56.6665C56.6171 37.7223 56.57 37.7418 56.5335 37.7752C56.497 37.8086 56.4734 37.8539 56.467 37.9029C56.4647 37.9263 56.4673 37.9498 56.4747 37.9721C56.4821 37.9944 56.4941 38.0148 56.51 38.0321C56.5258 38.0493 56.5452 38.063 56.5668 38.0723C56.5883 38.0815 56.6116 38.0861 56.635 38.0856H64.0459C64.0954 38.0836 64.1425 38.0641 64.179 38.0307C64.2155 37.9973 64.239 37.952 64.2454 37.9029Z" fill="white"/>
<path d="M53.1638 36.9287H57.4877C57.5371 36.9266 57.5843 36.9071 57.6208 36.8737C57.6573 36.8403 57.6808 36.795 57.6872 36.746C57.6896 36.7226 57.687 36.6991 57.6796 36.6768C57.6722 36.6545 57.6601 36.6341 57.6443 36.6168C57.6284 36.5996 57.609 36.5859 57.5875 36.5766C57.5659 36.5674 57.5426 36.5628 57.5192 36.5633H53.1953C53.144 36.5628 53.0944 36.5812 53.0557 36.6148C53.017 36.6485 52.9919 36.6951 52.9853 36.746C52.9827 36.7702 52.9856 36.7947 52.9936 36.8178C53.0016 36.8408 53.0146 36.8618 53.0316 36.8792C53.0487 36.8967 53.0693 36.9102 53.0922 36.9187C53.115 36.9272 53.1395 36.9306 53.1638 36.9287Z" fill="white"/>
<path opacity="0.5" d="M58.3151 36.7501C58.3127 36.7734 58.3153 36.797 58.3227 36.8193C58.3301 36.8415 58.3421 36.862 58.358 36.8792C58.3739 36.8965 58.3932 36.9102 58.4148 36.9194C58.4363 36.9287 58.4596 36.9332 58.4831 36.9328H59.5541C59.6053 36.9332 59.655 36.9149 59.6937 36.8812C59.7324 36.8476 59.7574 36.8009 59.7641 36.7501C59.7664 36.7268 59.7638 36.7032 59.7565 36.6809C59.7491 36.6587 59.737 36.6383 59.7211 36.621C59.7053 36.6037 59.6859 36.59 59.6644 36.5808C59.6428 36.5715 59.6195 36.567 59.5961 36.5674H58.5251C58.4738 36.567 58.4241 36.5853 58.3854 36.619C58.3468 36.6526 58.3217 36.6993 58.3151 36.7501Z" fill="white"/>
<path opacity="0.5" d="M53.2625 35.7692H58.3676C58.4171 35.7672 58.4642 35.7477 58.5007 35.7143C58.5372 35.6809 58.5607 35.6356 58.5671 35.5865C58.5695 35.5632 58.5669 35.5396 58.5595 35.5174C58.5521 35.4951 58.5401 35.4747 58.5242 35.4574C58.5083 35.4401 58.489 35.4264 58.4674 35.4172C58.4458 35.408 58.4226 35.4034 58.3991 35.4038H53.2919C53.2425 35.4059 53.1953 35.4254 53.1588 35.4588C53.1223 35.4922 53.0988 35.5375 53.0924 35.5865C53.09 35.6101 53.0927 35.6338 53.1002 35.6562C53.1077 35.6786 53.1199 35.6992 53.136 35.7165C53.1521 35.7338 53.1718 35.7474 53.1936 35.7565C53.2154 35.7656 53.2389 35.77 53.2625 35.7692Z" fill="white"/>
<path d="M62.1623 35.7692H66.0788C66.13 35.7697 66.1797 35.7513 66.2184 35.7177C66.2571 35.684 66.2821 35.6374 66.2888 35.5865C66.2911 35.5632 66.2886 35.5396 66.2812 35.5174C66.2738 35.4951 66.2617 35.4747 66.2458 35.4574C66.23 35.4401 66.2106 35.4264 66.189 35.4172C66.1675 35.408 66.1442 35.4034 66.1208 35.4038H62.1917C62.1426 35.4064 62.0959 35.426 62.0599 35.4594C62.0238 35.4928 62.0006 35.5378 61.9943 35.5865C61.9919 35.6099 61.9945 35.6334 62.0019 35.6557C62.0093 35.678 62.0213 35.6984 62.0372 35.7157C62.0531 35.7329 62.0724 35.7466 62.094 35.7559C62.1155 35.7651 62.1388 35.7697 62.1623 35.7692Z" fill="white"/>
<path opacity="0.5" d="M70.3586 44.6712H58.9976C58.9481 44.6732 58.901 44.6927 58.8645 44.7261C58.828 44.7595 58.8045 44.8048 58.7981 44.8539C58.7957 44.8772 58.7983 44.9008 58.8057 44.923C58.8131 44.9453 58.8252 44.9657 58.841 44.983C58.8569 45.0003 58.8763 45.014 58.8978 45.0232C58.9194 45.0324 58.9426 45.037 58.9661 45.0366H70.3271C70.3766 45.0345 70.4237 45.015 70.4602 44.9816C70.4967 44.9482 70.5202 44.9029 70.5266 44.8539C70.529 44.8305 70.5264 44.807 70.519 44.7847C70.5116 44.7624 70.4995 44.742 70.4837 44.7248C70.4678 44.7075 70.4484 44.6938 70.4269 44.6845C70.4053 44.6753 70.3821 44.6708 70.3586 44.6712Z" fill="white"/>
<path d="M72.8534 44.6712H71.4485C71.3973 44.6707 71.3476 44.6891 71.3089 44.7227C71.2702 44.7564 71.2452 44.803 71.2385 44.8538C71.2361 44.8772 71.2387 44.9008 71.2461 44.923C71.2535 44.9453 71.2656 44.9657 71.2815 44.983C71.2973 45.0002 71.3167 45.0139 71.3382 45.0232C71.3598 45.0324 71.3831 45.037 71.4065 45.0365H72.8114C72.8609 45.0345 72.908 45.015 72.9445 44.9816C72.981 44.9482 73.0045 44.9029 73.0109 44.8538C73.0132 44.8314 73.0109 44.8087 73.0042 44.7871C72.9974 44.7656 72.9863 44.7457 72.9716 44.7286C72.9568 44.7115 72.9387 44.6975 72.9184 44.6877C72.8981 44.6778 72.876 44.6722 72.8534 44.6712Z" fill="white"/>
<path d="M62.4899 43.8774H67.07C67.1194 43.8753 67.1666 43.8559 67.2031 43.8224C67.2396 43.789 67.2631 43.7438 67.2695 43.6947C67.2719 43.6714 67.2693 43.6478 67.2619 43.6255C67.2545 43.6033 67.2425 43.5828 67.2266 43.5656C67.2107 43.5483 67.1913 43.5346 67.1698 43.5254C67.1482 43.5161 67.1249 43.5116 67.1015 43.512H62.5214C62.4719 43.514 62.4248 43.5335 62.3883 43.5669C62.3518 43.6004 62.3283 43.6456 62.3219 43.6947C62.3195 43.718 62.3221 43.7416 62.3295 43.7639C62.3369 43.7861 62.349 43.8065 62.3648 43.8238C62.3807 43.8411 62.4001 43.8548 62.4216 43.864C62.4432 43.8732 62.4664 43.8778 62.4899 43.8774Z" fill="white"/>
<path opacity="0.5" d="M70.43 43.8774C70.4795 43.8754 70.5266 43.8559 70.5631 43.8225C70.5996 43.7891 70.6231 43.7438 70.6295 43.6947C70.6319 43.6712 70.6293 43.6475 70.6218 43.6251C70.6142 43.6027 70.602 43.5821 70.5859 43.5648C70.5698 43.5475 70.5502 43.5339 70.5284 43.5248C70.5066 43.5157 70.4831 43.5113 70.4594 43.512H67.8617C67.8123 43.5141 67.7651 43.5336 67.7286 43.567C67.6921 43.6004 67.6686 43.6457 67.6622 43.6947C67.6599 43.7181 67.6624 43.7416 67.6698 43.7639C67.6772 43.7862 67.6893 43.8066 67.7052 43.8239C67.721 43.8411 67.7404 43.8548 67.7619 43.8641C67.7835 43.8733 67.8068 43.8779 67.8302 43.8774H70.43Z" fill="white"/>
<path opacity="0.5" d="M72.95 43.512H71.5682C71.5187 43.514 71.4716 43.5335 71.4351 43.5669C71.3986 43.6004 71.375 43.6456 71.3687 43.6947C71.3663 43.718 71.3689 43.7416 71.3763 43.7639C71.3837 43.7861 71.3957 43.8065 71.4116 43.8238C71.4275 43.8411 71.4468 43.8548 71.4684 43.864C71.4899 43.8732 71.5132 43.8778 71.5367 43.8774H72.9185C72.9679 43.8753 73.015 43.8559 73.0515 43.8224C73.088 43.789 73.1116 43.7438 73.118 43.6947C73.1203 43.6714 73.1177 43.6478 73.1103 43.6255C73.1029 43.6033 73.0909 43.5828 73.075 43.5656C73.0591 43.5483 73.0398 43.5346 73.0182 43.5254C72.9967 43.5161 72.9734 43.5116 72.95 43.512Z" fill="white"/>
<path d="M70.5728 42.355H64.4555C64.406 42.3571 64.3589 42.3766 64.3224 42.41C64.2859 42.4434 64.2624 42.4887 64.256 42.5377C64.2536 42.5611 64.2562 42.5846 64.2636 42.6069C64.271 42.6292 64.283 42.6496 64.2989 42.6669C64.3148 42.6841 64.3341 42.6978 64.3557 42.7071C64.3773 42.7163 64.4005 42.7209 64.424 42.7204H70.5413C70.5926 42.7209 70.6422 42.7025 70.6809 42.6689C70.7196 42.6352 70.7446 42.5886 70.7513 42.5377C70.7538 42.5135 70.751 42.489 70.743 42.4659C70.735 42.4429 70.722 42.4219 70.705 42.4045C70.6879 42.387 70.6672 42.3735 70.6444 42.365C70.6215 42.3565 70.5971 42.3531 70.5728 42.355Z" fill="white"/>
<path d="M73.0487 42.355H71.6543C71.6049 42.3571 71.5577 42.3765 71.5212 42.41C71.4847 42.4434 71.4612 42.4886 71.4548 42.5377C71.4525 42.561 71.455 42.5846 71.4624 42.6069C71.4698 42.6291 71.4819 42.6496 71.4978 42.6668C71.5136 42.6841 71.533 42.6978 71.5545 42.707C71.5761 42.7163 71.5994 42.7208 71.6228 42.7204H73.0193C73.0684 42.7179 73.1151 42.6982 73.1511 42.6648C73.1872 42.6314 73.2104 42.5864 73.2167 42.5377C73.2191 42.5144 73.2165 42.4908 73.2091 42.4685C73.2017 42.4463 73.1897 42.4259 73.1738 42.4086C73.1579 42.3913 73.1386 42.3776 73.117 42.3684C73.0955 42.3591 73.0722 42.3546 73.0487 42.355Z" fill="white"/>
<path opacity="0.5" d="M67.28 41.37C67.2827 41.3466 67.2803 41.3229 67.2731 41.3005C67.2658 41.2781 67.2538 41.2575 67.2378 41.2402C67.2219 41.2228 67.2024 41.2091 67.1807 41.2C67.1589 41.1909 67.1355 41.1866 67.112 41.1873H60.8813C60.8318 41.1894 60.7847 41.2089 60.7482 41.2423C60.7117 41.2757 60.6882 41.321 60.6818 41.37C60.6794 41.3934 60.682 41.4169 60.6894 41.4392C60.6968 41.4615 60.7088 41.4819 60.7247 41.4992C60.7406 41.5164 60.7599 41.5301 60.7815 41.5394C60.803 41.5486 60.8263 41.5532 60.8498 41.5527H67.0868C67.1351 41.5493 67.1808 41.5292 67.216 41.4959C67.2512 41.4626 67.2738 41.4181 67.28 41.37Z" fill="white"/>
<path opacity="0.5" d="M68.2481 41.1958C68.1986 41.1979 68.1515 41.2173 68.115 41.2508C68.0785 41.2842 68.055 41.3294 68.0486 41.3785C68.0462 41.4019 68.0488 41.4254 68.0562 41.4477C68.0636 41.4699 68.0756 41.4904 68.0915 41.5076C68.1074 41.5249 68.1267 41.5386 68.1483 41.5479C68.1699 41.5571 68.1931 41.5616 68.2166 41.5612H70.64C70.6894 41.5592 70.7366 41.5397 70.7731 41.5063C70.8096 41.4729 70.8331 41.4276 70.8395 41.3785C70.8419 41.3552 70.8393 41.3316 70.8319 41.3094C70.8245 41.2871 70.8124 41.2667 70.7966 41.2494C70.7807 41.2321 70.7613 41.2184 70.7398 41.2092C70.7182 41.2 70.6949 41.1954 70.6715 41.1958H68.2481Z" fill="white"/>
<path d="M73.1474 41.1958H71.7677C71.7183 41.1979 71.6712 41.2173 71.6347 41.2508C71.5982 41.2842 71.5746 41.3294 71.5682 41.3785C71.5659 41.4019 71.5685 41.4254 71.5759 41.4477C71.5833 41.4699 71.5953 41.4904 71.6112 41.5076C71.627 41.5249 71.6464 41.5386 71.668 41.5479C71.6895 41.5571 71.7128 41.5616 71.7362 41.5612H73.1159C73.1654 41.5592 73.2125 41.5397 73.249 41.5063C73.2855 41.4729 73.309 41.4276 73.3154 41.3785C73.3178 41.3552 73.3152 41.3316 73.3078 41.3094C73.3004 41.2871 73.2884 41.2667 73.2725 41.2494C73.2566 41.2321 73.2373 41.2184 73.2157 41.2092C73.1942 41.2 73.1709 41.1954 73.1474 41.1958Z" fill="white"/>
<path d="M68.6597 40.4042H69.8588C69.9101 40.4046 69.9598 40.3862 69.9984 40.3526C70.0371 40.3189 70.0622 40.2723 70.0688 40.2215C70.0715 40.198 70.0692 40.1742 70.0619 40.1516C70.0547 40.1291 70.0427 40.1084 70.0268 40.0909C70.0109 40.0734 69.9914 40.0595 69.9697 40.0502C69.9479 40.0408 69.9245 40.0362 69.9008 40.0367H68.6996C68.6499 40.0388 68.6025 40.0585 68.5659 40.0924C68.5294 40.1263 68.5061 40.172 68.5001 40.2215C68.4978 40.2441 68.5002 40.267 68.5071 40.2886C68.514 40.3103 68.5253 40.3304 68.5402 40.3475C68.5552 40.3646 68.5735 40.3785 68.5941 40.3882C68.6146 40.398 68.637 40.4034 68.6597 40.4042Z" fill="white"/>
<path opacity="0.5" d="M70.7135 40.4042H73.2146C73.2641 40.4021 73.3112 40.3826 73.3477 40.3492C73.3842 40.3158 73.4077 40.2705 73.4141 40.2215C73.4168 40.198 73.4145 40.1742 73.4072 40.1516C73.4 40.1291 73.388 40.1084 73.3721 40.0909C73.3562 40.0734 73.3367 40.0595 73.315 40.0502C73.2933 40.0408 73.2698 40.0362 73.2461 40.0367H70.745C70.6953 40.0388 70.6479 40.0585 70.6113 40.0924C70.5748 40.1263 70.5515 40.172 70.5455 40.2215C70.5432 40.2448 70.5458 40.2684 70.5532 40.2906C70.5606 40.3129 70.5726 40.3333 70.5885 40.3506C70.6043 40.3678 70.6237 40.3815 70.6453 40.3908C70.6668 40.4 70.6901 40.4046 70.7135 40.4042Z" fill="white"/>
<path d="M55.1356 20.7396C55.1581 20.7579 55.1864 20.7676 55.2154 20.7669C55.2375 20.7668 55.2593 20.7619 55.2792 20.7524C55.2992 20.743 55.3168 20.7293 55.3309 20.7123C55.3429 20.6988 55.352 20.6831 55.3578 20.6661C55.3636 20.6491 55.366 20.6311 55.3648 20.6131C55.3637 20.5951 55.3589 20.5776 55.351 20.5615C55.343 20.5453 55.3319 20.531 55.3183 20.5191L54.9361 20.2209L55.3561 19.9227C55.3873 19.9032 55.4095 19.8723 55.4182 19.8366C55.4268 19.8009 55.4211 19.7632 55.4023 19.7316C55.3919 19.7169 55.3787 19.7044 55.3633 19.6949C55.348 19.6854 55.3309 19.6791 55.313 19.6764C55.2952 19.6736 55.277 19.6745 55.2595 19.6789C55.242 19.6834 55.2256 19.6913 55.2112 19.7022L54.6211 20.1222C54.6028 20.1348 54.5874 20.1513 54.5761 20.1706C54.5649 20.1898 54.558 20.2113 54.556 20.2335C54.5542 20.2541 54.5574 20.2749 54.5655 20.2939C54.5736 20.3129 54.5862 20.3297 54.6022 20.3427L55.1356 20.7396Z" fill="white"/>
<path d="M57.0425 20.2189L56.612 20.5192C56.5813 20.539 56.5594 20.5701 56.5512 20.6058C56.543 20.6415 56.549 20.6789 56.5679 20.7103C56.579 20.7281 56.5945 20.7427 56.6129 20.7526C56.6313 20.7626 56.652 20.7675 56.6729 20.767C56.7032 20.7673 56.7327 20.7577 56.7569 20.7397L57.3491 20.3302C57.3672 20.3173 57.3824 20.3007 57.3936 20.2815C57.4048 20.2623 57.4119 20.241 57.4142 20.2189C57.4159 20.1981 57.4123 20.1772 57.4039 20.1582C57.3954 20.1391 57.3824 20.1225 57.3659 20.1097L56.8451 19.7002C56.8151 19.679 56.778 19.6702 56.7416 19.6757C56.7052 19.6811 56.6723 19.7005 56.6498 19.7296C56.6379 19.7431 56.6288 19.7588 56.623 19.7758C56.6172 19.7928 56.6148 19.8108 56.616 19.8288C56.6171 19.8467 56.6218 19.8643 56.6298 19.8804C56.6378 19.8966 56.6489 19.9109 56.6624 19.9228L57.0425 20.2189Z" fill="white"/>
<path d="M55.7531 20.7586C55.7684 20.7618 55.7841 20.7618 55.7993 20.7586C55.8286 20.7581 55.857 20.7491 55.8813 20.7327C55.9055 20.7163 55.9245 20.6932 55.9358 20.6662L56.2949 19.8493C56.3028 19.8335 56.3072 19.8162 56.308 19.7985C56.3087 19.7808 56.3057 19.7632 56.2992 19.7467C56.2926 19.7303 56.2827 19.7154 56.27 19.7031C56.2574 19.6907 56.2422 19.6812 56.2256 19.675C56.1904 19.6636 56.1522 19.6656 56.1185 19.6808C56.0847 19.6959 56.0578 19.7231 56.0429 19.7569L55.6838 20.5759C55.6745 20.5921 55.6688 20.6102 55.6673 20.6289C55.6658 20.6475 55.6684 20.6663 55.6751 20.6838C55.6817 20.7013 55.6921 20.7171 55.7056 20.73C55.7192 20.743 55.7354 20.7527 55.7531 20.7586Z" fill="white"/>
<path opacity="0.5" d="M58.04 20.8132H58.7645C58.8139 20.8111 58.861 20.7917 58.8975 20.7582C58.934 20.7248 58.9576 20.6796 58.964 20.6305C58.9663 20.6071 58.9637 20.5836 58.9563 20.5613C58.9489 20.5391 58.9369 20.5186 58.921 20.5014C58.9051 20.4841 58.8858 20.4704 58.8642 20.4612C58.8427 20.4519 58.8194 20.4474 58.796 20.4478H58.0694C58.0203 20.4503 57.9736 20.47 57.9376 20.5034C57.9015 20.5368 57.8783 20.5817 57.872 20.6305C57.8692 20.6539 57.8716 20.6776 57.8788 20.7C57.8861 20.7224 57.8981 20.743 57.9141 20.7603C57.93 20.7777 57.9495 20.7914 57.9712 20.8005C57.993 20.8096 58.0164 20.8139 58.04 20.8132Z" fill="white"/>
<path opacity="0.5" d="M67.3409 22.26H68.33C68.3791 22.2575 68.4257 22.2378 68.4618 22.2044C68.4979 22.171 68.5211 22.1261 68.5274 22.0773C68.5301 22.0539 68.5278 22.0302 68.5205 22.0078C68.5132 21.9854 68.5012 21.9648 68.4853 21.9475C68.4693 21.9301 68.4498 21.9164 68.4281 21.9073C68.4064 21.8982 68.383 21.8939 68.3594 21.8946H67.3787C67.3293 21.8967 67.2821 21.9161 67.2456 21.9496C67.2091 21.983 67.1856 22.0282 67.1792 22.0773C67.1769 22.1001 67.1793 22.1232 67.1863 22.145C67.1934 22.1668 67.2048 22.1869 67.22 22.2041C67.2352 22.2213 67.2538 22.2351 67.2746 22.2447C67.2954 22.2543 67.318 22.2596 67.3409 22.26Z" fill="white"/>
<path d="M56.7317 22.0817C56.7293 22.105 56.7319 22.1286 56.7393 22.1508C56.7467 22.1731 56.7587 22.1935 56.7746 22.2108C56.7905 22.228 56.8098 22.2417 56.8314 22.251C56.853 22.2602 56.8762 22.2648 56.8997 22.2644H66.0788C66.1301 22.2648 66.1797 22.2464 66.2184 22.2128C66.2571 22.1791 66.2821 22.1325 66.2888 22.0817C66.2912 22.0583 66.2886 22.0347 66.2812 22.0125C66.2738 21.9902 66.2617 21.9698 66.2459 21.9525C66.23 21.9353 66.2106 21.9216 66.1891 21.9123C66.1675 21.9031 66.1442 21.8985 66.1208 21.899H56.9291C56.88 21.9015 56.8334 21.9212 56.7973 21.9546C56.7612 21.9879 56.738 22.0329 56.7317 22.0817Z" fill="white"/>
<path opacity="0.5" d="M54.4049 22.26H55.8077C55.8572 22.2579 55.9043 22.2384 55.9408 22.205C55.9773 22.1716 56.0009 22.1263 56.0072 22.0773C56.0096 22.0539 56.007 22.0304 55.9996 22.0081C55.9922 21.9858 55.9802 21.9654 55.9643 21.9481C55.9484 21.9309 55.9291 21.9172 55.9075 21.9079C55.886 21.8987 55.8627 21.8941 55.8392 21.8946H54.4343C54.3853 21.8971 54.3386 21.9168 54.3026 21.9502C54.2665 21.9835 54.2433 22.0285 54.2369 22.0773C54.2342 22.1007 54.2366 22.1244 54.2438 22.1468C54.2511 22.1692 54.2631 22.1898 54.2791 22.2071C54.295 22.2245 54.3145 22.2382 54.3362 22.2473C54.358 22.2564 54.3814 22.2607 54.4049 22.26Z" fill="white"/>
<path d="M63.8192 23.4214C63.8705 23.4218 63.9202 23.4035 63.9588 23.3698C63.9975 23.3362 64.0226 23.2895 64.0292 23.2387C64.0316 23.2152 64.029 23.1914 64.0215 23.169C64.0139 23.1466 64.0017 23.1261 63.9856 23.1088C63.9695 23.0915 63.9499 23.0778 63.9281 23.0687C63.9062 23.0596 63.8827 23.0553 63.8591 23.056H60.2051C60.1557 23.058 60.1085 23.0775 60.072 23.1109C60.0355 23.1444 60.012 23.1896 60.0056 23.2387C60.0032 23.262 60.0058 23.2856 60.0132 23.3079C60.0206 23.3301 60.0327 23.3505 60.0485 23.3678C60.0644 23.3851 60.0838 23.3988 60.1053 23.408C60.1269 23.4172 60.1502 23.4218 60.1736 23.4214H63.8192Z" fill="white"/>
<path d="M56.8009 23.4213H59.3944C59.4439 23.4193 59.491 23.3998 59.5275 23.3664C59.564 23.333 59.5875 23.2877 59.5939 23.2386C59.5963 23.2153 59.5937 23.1917 59.5863 23.1695C59.5789 23.1472 59.5669 23.1268 59.551 23.1095C59.5351 23.0923 59.5158 23.0785 59.4942 23.0693C59.4727 23.0601 59.4494 23.0555 59.4259 23.0559H56.8324C56.783 23.058 56.7358 23.0775 56.6993 23.1109C56.6628 23.1443 56.6393 23.1896 56.6329 23.2386C56.6306 23.262 56.6332 23.2855 56.6406 23.3078C56.648 23.3301 56.66 23.3505 56.6759 23.3678C56.6917 23.385 56.7111 23.3987 56.7327 23.408C56.7542 23.4172 56.7775 23.4218 56.8009 23.4213Z" fill="white"/>
<path opacity="0.5" d="M54.3062 23.4213H55.6859C55.7354 23.4193 55.7825 23.3998 55.819 23.3664C55.8555 23.333 55.879 23.2877 55.8854 23.2386C55.8878 23.2153 55.8852 23.1917 55.8778 23.1695C55.8704 23.1472 55.8584 23.1268 55.8425 23.1095C55.8266 23.0923 55.8073 23.0785 55.7857 23.0693C55.7642 23.0601 55.7409 23.0555 55.7174 23.0559H54.3377C54.2865 23.0555 54.2368 23.0738 54.1981 23.1075C54.1594 23.1412 54.1344 23.1878 54.1277 23.2386C54.1252 23.2629 54.128 23.2874 54.136 23.3104C54.144 23.3335 54.157 23.3545 54.1741 23.3719C54.1911 23.3894 54.2118 23.4028 54.2346 23.4114C54.2575 23.4199 54.2819 23.4233 54.3062 23.4213Z" fill="white"/>
<path d="M62.0846 24.3978C62.0869 24.3745 62.0843 24.3509 62.0769 24.3287C62.0695 24.3064 62.0575 24.286 62.0416 24.2687C62.0258 24.2514 62.0064 24.2377 61.9848 24.2285C61.9633 24.2193 61.94 24.2147 61.9166 24.2151H56.7149C56.6658 24.2177 56.6191 24.2373 56.5831 24.2707C56.547 24.3041 56.5238 24.3491 56.5175 24.3978C56.5151 24.4211 56.5177 24.4447 56.5251 24.467C56.5325 24.4892 56.5445 24.5097 56.5604 24.5269C56.5763 24.5442 56.5956 24.5579 56.6172 24.5671C56.6387 24.5764 56.662 24.5809 56.6855 24.5805H61.8851C61.9345 24.5785 61.9816 24.559 62.0181 24.5256C62.0546 24.4921 62.0782 24.4469 62.0846 24.3978Z" fill="white"/>
<path opacity="0.5" d="M54.2075 24.5805H55.604C55.6553 24.581 55.7049 24.5626 55.7436 24.529C55.7823 24.4953 55.8073 24.4487 55.814 24.3978C55.8164 24.3745 55.8138 24.3509 55.8064 24.3287C55.799 24.3064 55.7869 24.286 55.7711 24.2687C55.7552 24.2514 55.7358 24.2377 55.7143 24.2285C55.6927 24.2193 55.6694 24.2147 55.646 24.2151H54.239C54.1877 24.2147 54.1381 24.233 54.0994 24.2667C54.0607 24.3003 54.0356 24.347 54.029 24.3978C54.0264 24.4221 54.0293 24.4466 54.0373 24.4696C54.0453 24.4927 54.0583 24.5137 54.0753 24.5311C54.0924 24.5486 54.113 24.562 54.1359 24.5706C54.1587 24.5791 54.1832 24.5825 54.2075 24.5805Z" fill="white"/>
<path d="M60.14 25.7397H65.4593C65.5087 25.737 65.5556 25.7171 65.5917 25.6833C65.6278 25.6494 65.6509 25.604 65.6567 25.5549C65.6595 25.5315 65.6571 25.5077 65.6498 25.4853C65.6426 25.4629 65.6306 25.4423 65.6146 25.425C65.5987 25.4077 65.5792 25.394 65.5574 25.3848C65.5357 25.3757 65.5123 25.3714 65.4887 25.3722H60.1715C60.1221 25.3742 60.0749 25.3937 60.0384 25.4271C60.0019 25.4605 59.9784 25.5058 59.972 25.5549C59.9693 25.5784 59.9717 25.6022 59.9789 25.6247C59.9862 25.6472 59.9982 25.6679 60.0141 25.6854C60.03 25.7029 60.0495 25.7168 60.0712 25.7261C60.0929 25.7355 60.1164 25.7401 60.14 25.7397Z" fill="white"/>
<path d="M56.6204 25.3723C56.5713 25.3749 56.5247 25.3946 56.4886 25.4279C56.4525 25.4613 56.4293 25.5063 56.423 25.555C56.4199 25.5786 56.422 25.6025 56.4292 25.6252C56.4363 25.6479 56.4482 25.6687 56.4642 25.6863C56.4802 25.7039 56.4998 25.7178 56.5217 25.727C56.5436 25.7363 56.5673 25.7406 56.591 25.7398H59.0102C59.0596 25.7372 59.1065 25.7172 59.1426 25.6834C59.1787 25.6496 59.2017 25.6042 59.2076 25.555C59.21 25.5317 59.2074 25.5081 59.2 25.4859C59.1926 25.4636 59.1805 25.4432 59.1647 25.4259C59.1488 25.4087 59.1294 25.395 59.1079 25.3857C59.0863 25.3765 59.0631 25.3719 59.0396 25.3723H56.6204Z" fill="white"/>
<path opacity="0.5" d="M54.1109 25.7398H55.4906C55.54 25.7372 55.5869 25.7172 55.623 25.6834C55.6591 25.6496 55.6821 25.6042 55.688 25.555C55.6904 25.5317 55.6878 25.5081 55.6804 25.4859C55.673 25.4636 55.6609 25.4432 55.6451 25.4259C55.6292 25.4087 55.6098 25.395 55.5883 25.3857C55.5667 25.3765 55.5434 25.3719 55.52 25.3723H54.1403C54.0912 25.3749 54.0446 25.3946 54.0085 25.4279C53.9724 25.4613 53.9492 25.5063 53.9429 25.555C53.9398 25.5786 53.9419 25.6025 53.9491 25.6252C53.9562 25.6479 53.9681 25.6687 53.9841 25.6863C54.0001 25.7039 54.0197 25.7178 54.0416 25.727C54.0635 25.7363 54.0871 25.7406 54.1109 25.7398Z" fill="white"/>
<path d="M58.5986 26.5316H57.41C57.3605 26.5336 57.3134 26.5531 57.2769 26.5865C57.2404 26.6199 57.2168 26.6652 57.2104 26.7143C57.2081 26.7376 57.2107 26.7612 57.2181 26.7834C57.2255 26.8057 57.2375 26.8261 57.2534 26.8434C57.2693 26.8606 57.2886 26.8743 57.3102 26.8836C57.3317 26.8928 57.355 26.8974 57.3785 26.897H58.5776C58.627 26.8949 58.6741 26.8754 58.7106 26.842C58.7471 26.8086 58.7707 26.7633 58.7771 26.7143C58.7796 26.69 58.7768 26.6655 58.7688 26.6424C58.7608 26.6194 58.7478 26.5984 58.7307 26.581C58.7137 26.5635 58.693 26.5501 58.6702 26.5415C58.6473 26.533 58.6229 26.5296 58.5986 26.5316Z" fill="white"/>
<path d="M56.5448 26.5315H54.05C54.0005 26.5336 53.9534 26.553 53.9169 26.5865C53.8804 26.6199 53.8569 26.6651 53.8505 26.7142C53.8481 26.7375 53.8507 26.7611 53.8581 26.7834C53.8655 26.8056 53.8775 26.8261 53.8934 26.8433C53.9093 26.8606 53.9286 26.8743 53.9502 26.8835C53.9717 26.8928 53.995 26.8973 54.0185 26.8969H56.5196C56.569 26.8949 56.6161 26.8754 56.6526 26.842C56.6891 26.8085 56.7127 26.7633 56.7191 26.7142C56.7215 26.6903 56.7188 26.6662 56.711 26.6435C56.7033 26.6208 56.6907 26.6 56.6741 26.5826C56.6575 26.5653 56.6374 26.5517 56.615 26.5429C56.5927 26.534 56.5687 26.5302 56.5448 26.5315Z" fill="white"/>
<path d="M64.3001 27.8733C64.2977 27.8966 64.3003 27.9202 64.3077 27.9425C64.3151 27.9647 64.3271 27.9852 64.343 28.0024C64.3589 28.0197 64.3782 28.0334 64.3998 28.0426C64.4213 28.0519 64.4446 28.0564 64.468 28.056H74.2583C74.3077 28.0539 74.3548 28.0345 74.3913 28.0011C74.4278 27.9676 74.4514 27.9224 74.4577 27.8733C74.4604 27.8498 74.4581 27.826 74.4508 27.8035C74.4436 27.781 74.4316 27.7603 74.4157 27.7428C74.3998 27.7253 74.3803 27.7114 74.3586 27.702C74.3369 27.6927 74.3134 27.6881 74.2898 27.6885H64.4996C64.4498 27.6906 64.4024 27.7104 64.3658 27.7443C64.3293 27.7781 64.306 27.8238 64.3001 27.8733Z" fill="white"/>
<path opacity="0.5" d="M61.6562 27.6885C61.6046 27.6881 61.5547 27.7068 61.5159 27.7408C61.4772 27.7749 61.4524 27.8221 61.4462 27.8733C61.4438 27.8966 61.4464 27.9202 61.4538 27.9425C61.4612 27.9647 61.4732 27.9852 61.4891 28.0024C61.505 28.0197 61.5243 28.0334 61.5459 28.0426C61.5674 28.0519 61.5907 28.0564 61.6142 28.056H63.4685C63.5197 28.0564 63.5694 28.0381 63.6081 28.0044C63.6468 27.9708 63.6718 27.9241 63.6785 27.8733C63.6808 27.8497 63.6782 27.8258 63.6707 27.8033C63.6632 27.7808 63.651 27.7602 63.6349 27.7427C63.6189 27.7252 63.5993 27.7114 63.5774 27.702C63.5556 27.6927 63.5321 27.6881 63.5084 27.6885H61.6562Z" fill="white"/>
<path opacity="0.5" d="M74.191 28.8477H71.8075C71.7581 28.8497 71.7109 28.8692 71.6744 28.9026C71.6379 28.9361 71.6144 28.9813 71.608 29.0304C71.6057 29.0537 71.6083 29.0773 71.6157 29.0995C71.6231 29.1218 71.6351 29.1422 71.651 29.1595C71.6668 29.1768 71.6862 29.1905 71.7078 29.1997C71.7293 29.2089 71.7526 29.2135 71.776 29.2131H74.1616C74.2107 29.2105 74.2574 29.1909 74.2934 29.1575C74.3295 29.1241 74.3527 29.0791 74.359 29.0304C74.3614 29.0071 74.3588 28.9835 74.3514 28.9612C74.344 28.939 74.332 28.9185 74.3161 28.9013C74.3002 28.884 74.2809 28.8703 74.2593 28.8611C74.2378 28.8518 74.2145 28.8473 74.191 28.8477Z" fill="white"/>
<path d="M70.7891 29.0304C70.7915 29.0071 70.7889 28.9835 70.7815 28.9612C70.7741 28.939 70.7621 28.9185 70.7462 28.9013C70.7303 28.884 70.711 28.8703 70.6894 28.8611C70.6678 28.8518 70.6446 28.8473 70.6211 28.8477H60.6398C60.5904 28.8497 60.5432 28.8692 60.5067 28.9026C60.4702 28.9361 60.4467 28.9813 60.4403 29.0304C60.4379 29.0537 60.4405 29.0773 60.4479 29.0995C60.4553 29.1218 60.4674 29.1422 60.4832 29.1595C60.4991 29.1768 60.5185 29.1905 60.54 29.1997C60.5616 29.2089 60.5849 29.2135 60.6083 29.2131H70.5917C70.6408 29.2105 70.6874 29.1909 70.7235 29.1575C70.7596 29.1241 70.7828 29.0791 70.7891 29.0304Z" fill="white"/>
<path d="M74.0944 30.0069H69.7705C69.7211 30.0089 69.674 30.0284 69.6375 30.0618C69.601 30.0952 69.5774 30.1405 69.571 30.1896C69.5687 30.2129 69.5713 30.2365 69.5787 30.2587C69.5861 30.281 69.5981 30.3014 69.614 30.3187C69.6298 30.3359 69.6492 30.3496 69.6708 30.3589C69.6923 30.3681 69.7156 30.3727 69.739 30.3723H74.0629C74.1124 30.3702 74.1595 30.3507 74.196 30.3173C74.2325 30.2839 74.2561 30.2386 74.2624 30.1896C74.2648 30.1662 74.2622 30.1427 74.2548 30.1204C74.2474 30.0981 74.2354 30.0777 74.2195 30.0604C74.2036 30.0432 74.1843 30.0295 74.1627 30.0202C74.1412 30.011 74.1179 30.0064 74.0944 30.0069Z" fill="white"/>
<path opacity="0.5" d="M67.7 30.0069C67.6505 30.0089 67.6034 30.0284 67.5669 30.0618C67.5304 30.0952 67.5069 30.1405 67.5005 30.1896C67.4981 30.2129 67.5007 30.2365 67.5081 30.2587C67.5155 30.281 67.5275 30.3014 67.5434 30.3187C67.5593 30.3359 67.5786 30.3496 67.6002 30.3589C67.6218 30.3681 67.645 30.3727 67.6685 30.3723H68.75C68.7991 30.3697 68.8457 30.35 68.8818 30.3167C68.9178 30.2833 68.9411 30.2383 68.9474 30.1896C68.9498 30.1662 68.9472 30.1427 68.9398 30.1204C68.9324 30.0981 68.9203 30.0777 68.9045 30.0604C68.8886 30.0432 68.8692 30.0295 68.8477 30.0202C68.8261 30.011 68.8028 30.0064 68.7794 30.0069H67.7Z" fill="white"/>
<path d="M74 31.1641H65.4005C65.3514 31.1666 65.3048 31.1863 65.2687 31.2197C65.2327 31.253 65.2094 31.298 65.2031 31.3468C65.2007 31.3701 65.2033 31.3937 65.2107 31.4159C65.2181 31.4382 65.2302 31.4586 65.2461 31.4759C65.2619 31.4931 65.2813 31.5068 65.3028 31.5161C65.3244 31.5253 65.3477 31.5299 65.3711 31.5295H73.9643C74.0138 31.5274 74.0609 31.5079 74.0974 31.4745C74.1339 31.4411 74.1574 31.3958 74.1638 31.3468C74.1662 31.3238 74.1637 31.3006 74.1565 31.2786C74.1494 31.2566 74.1377 31.2364 74.1223 31.2192C74.1069 31.202 74.088 31.1882 74.067 31.1787C74.0459 31.1692 74.0231 31.1642 74 31.1641Z" fill="white"/>
<path d="M61.6099 31.164H58.609C58.5596 31.166 58.5125 31.1855 58.476 31.2189C58.4395 31.2523 58.4159 31.2976 58.4095 31.3467C58.4072 31.37 58.4098 31.3936 58.4172 31.4158C58.4246 31.4381 58.4366 31.4585 58.4525 31.4758C58.4683 31.4931 58.4877 31.5068 58.5093 31.516C58.5308 31.5252 58.5541 31.5298 58.5775 31.5294H61.5763C61.6276 31.5298 61.6773 31.5115 61.716 31.4778C61.7546 31.4442 61.7797 31.3975 61.7863 31.3467C61.7889 31.3226 61.7861 31.2983 61.7782 31.2754C61.7703 31.2525 61.7575 31.2316 61.7407 31.2142C61.7239 31.1968 61.7035 31.1833 61.6809 31.1746C61.6583 31.1659 61.6341 31.1623 61.6099 31.164Z" fill="white"/>
<path d="M72.7401 55.7404L71.6103 68.4454V68.4895H49.4301V68.4454L51.8283 41.4436L53.0463 41.7628L58.9872 43.3105L59.3169 43.3966L59.7222 43.5016L60.222 43.6318L60.5328 43.7137L64.5123 44.7511H64.5375C64.8273 44.8267 65.1108 44.9128 65.388 45.0094C67.5962 45.7803 69.5003 47.2366 70.8225 49.1659C72.1447 51.0952 72.8158 53.3965 72.738 55.7341L72.7401 55.7404Z" fill="#407BFF"/>
<path opacity="0.8" d="M72.7401 55.7404L71.6103 68.4454V68.4895H49.4301V68.4454L51.8283 41.4436L53.0463 41.7628L58.9872 43.3105L59.3169 43.3966L59.7222 43.5016L60.222 43.6318L60.5328 43.7137L64.5123 44.7511H64.5375C64.8273 44.8267 65.1108 44.9128 65.388 45.0094C67.5962 45.7803 69.5003 47.2366 70.8225 49.1659C72.1447 51.0952 72.8158 53.3965 72.738 55.7341L72.7401 55.7404Z" fill="white"/>
<path opacity="0.6" d="M60.5369 43.7136H52.8782L52.9139 43.3104L53.0504 41.7627L58.9913 43.3104L59.321 43.3965L59.7263 43.5015L60.2261 43.6317L60.5369 43.7136Z" fill="black"/>
<path opacity="0.5" d="M60.5369 43.7137H52.8782L52.9139 43.3105H58.9913L59.321 43.3966L59.7263 43.5016L60.2261 43.6318L60.5369 43.7137Z" fill="black"/>
<path opacity="0.6" d="M59.7263 43.5016L59.7074 43.7137H52.8782L52.9139 43.3105H58.9913L59.321 43.3966L59.7263 43.5016Z" fill="white"/>
<path d="M60.226 43.6317C60.2176 43.66 60.2063 43.6875 60.1924 43.7136C60.1481 43.7995 60.0814 43.8717 59.9993 43.9228C59.9172 43.9738 59.8229 44.0016 59.7262 44.0034C59.6341 44.0079 59.5431 43.982 59.4672 43.9296C59.3913 43.8772 59.3347 43.8013 59.3062 43.7136C59.2847 43.6531 59.2768 43.5885 59.2831 43.5246C59.2874 43.4808 59.2973 43.4378 59.3125 43.3965L59.7178 43.5015L60.226 43.6317Z" fill="white"/>
<path opacity="0.4" d="M62.6978 46.6746H53C52.9515 46.6759 52.9033 46.6666 52.8587 46.6476C52.814 46.6286 52.774 46.6002 52.7414 46.5643C52.7087 46.5285 52.6841 46.486 52.6693 46.4398C52.6545 46.3936 52.6498 46.3448 52.6556 46.2966C52.6665 46.193 52.7155 46.0972 52.7932 46.0277C52.8708 45.9583 52.9714 45.9201 53.0756 45.9207H62.765C62.8132 45.9198 62.861 45.9292 62.9053 45.9483C62.9496 45.9673 62.9893 45.9955 63.0219 46.031C63.0545 46.0666 63.0791 46.1086 63.0942 46.1544C63.1093 46.2002 63.1144 46.2487 63.1094 46.2966C63.0991 46.3991 63.0515 46.4943 62.9756 46.564C62.8997 46.6337 62.8008 46.6731 62.6978 46.6746Z" fill="#407BFF"/>
<path opacity="0.4" d="M65.39 45.129C65.3791 45.2326 65.3301 45.3284 65.2525 45.3978C65.1749 45.4673 65.0742 45.5055 64.97 45.5049H53.0967C53.0485 45.5057 53.0006 45.4964 52.9563 45.4773C52.912 45.4583 52.8723 45.4301 52.8397 45.3946C52.8072 45.359 52.7825 45.317 52.7674 45.2712C52.7524 45.2254 52.7472 45.1769 52.7523 45.129C52.7627 45.025 52.8115 44.9287 52.8892 44.8588C52.9668 44.7889 53.0678 44.7505 53.1723 44.751H64.5248H64.55C64.8398 44.8266 65.1233 44.9127 65.4005 45.0093C65.403 45.0495 65.3995 45.0898 65.39 45.129Z" fill="#407BFF"/>
<path opacity="0.3" d="M71.921 51.2001L71.3792 57.3027H51.6707L52.4309 48.7515H70.5245C71.0936 49.5041 71.5629 50.3271 71.921 51.2001Z" fill="#407BFF"/>
<path opacity="0.5" d="M65.4908 50.2403H63.9452C63.9014 50.2412 63.8578 50.2327 63.8175 50.2154C63.7771 50.1981 63.741 50.1724 63.7113 50.14C63.6817 50.1076 63.6594 50.0692 63.6457 50.0275C63.6321 49.9858 63.6275 49.9416 63.6323 49.898C63.6421 49.8052 63.6855 49.7191 63.7543 49.656C63.8232 49.5929 63.9128 49.5573 64.0061 49.5557H65.5517C65.5955 49.5548 65.639 49.5633 65.6793 49.5807C65.7195 49.598 65.7556 49.6237 65.785 49.6562C65.8145 49.6886 65.8366 49.727 65.85 49.7687C65.8634 49.8104 65.8676 49.8545 65.8625 49.898C65.8533 49.9907 65.8103 50.0768 65.7418 50.1399C65.6733 50.203 65.584 50.2387 65.4908 50.2403Z" fill="white"/>
<path opacity="0.5" d="M69.7622 51.3388H63.8465C63.8027 51.3397 63.7592 51.3312 63.7189 51.3139C63.6787 51.2966 63.6426 51.2708 63.6132 51.2384C63.5837 51.2059 63.5616 51.1676 63.5482 51.1258C63.5348 51.0841 63.5306 51.04 63.5357 50.9965C63.5454 50.9042 63.5886 50.8186 63.657 50.756C63.7255 50.6933 63.8146 50.6578 63.9074 50.6563H69.8231C69.8667 50.6555 69.9101 50.6639 69.9503 50.6811C69.9904 50.6983 70.0265 50.7238 70.0561 50.756C70.0857 50.7881 70.1081 50.8262 70.1218 50.8677C70.1356 50.9091 70.1404 50.953 70.136 50.9965C70.1262 51.0894 70.0828 51.1755 70.014 51.2385C69.9451 51.3016 69.8555 51.3373 69.7622 51.3388Z" fill="white"/>
<path opacity="0.3" d="M61.631 56.4985H52.6724L53.2898 49.5559H62.2463L61.631 56.4985Z" fill="#407BFF"/>
<path opacity="0.5" d="M52.8089 54.9674L55.4486 53.027L56.8325 54.1232L59.7578 52.0295L61.8515 54.0077L61.631 56.4983H52.6724L52.8089 54.9674Z" fill="white"/>
<path opacity="0.5" d="M55.8077 51.1917C55.7915 51.3876 55.7046 51.5709 55.5631 51.7073C55.4217 51.8438 55.2354 51.924 55.0391 51.933C54.947 51.9316 54.8562 51.9106 54.7729 51.8713C54.6896 51.832 54.6157 51.7754 54.556 51.7052C54.4964 51.635 54.4524 51.5529 54.4271 51.4643C54.4017 51.3758 54.3956 51.2829 54.4091 51.1917C54.4256 50.996 54.5127 50.813 54.654 50.6766C54.7954 50.5403 54.9815 50.4599 55.1777 50.4504C55.2699 50.4515 55.3608 50.4723 55.4442 50.5115C55.5277 50.5507 55.6018 50.6073 55.6615 50.6776C55.7212 50.7479 55.7652 50.8301 55.7904 50.9188C55.8156 51.0075 55.8215 51.1006 55.8077 51.1917Z" fill="white"/>
<path opacity="0.3" d="M70.5224 66.9649H50.8118L51.572 58.4116H71.2826L70.5224 66.9649Z" fill="#407BFF"/>
<path opacity="0.5" d="M64.6319 59.9003H63.08C63.0362 59.9012 62.9927 59.8927 62.9525 59.8754C62.9122 59.8581 62.8762 59.8323 62.8467 59.7999C62.8173 59.7675 62.7951 59.7291 62.7817 59.6874C62.7683 59.6457 62.7641 59.6015 62.7692 59.558C62.7789 59.4657 62.8221 59.3802 62.8906 59.3175C62.959 59.2548 63.0481 59.2194 63.1409 59.2178H64.6865C64.7301 59.217 64.7734 59.2254 64.8135 59.2426C64.8535 59.2598 64.8895 59.2854 64.9189 59.3176C64.9483 59.3498 64.9705 59.3879 64.984 59.4293C64.9976 59.4708 65.0021 59.5147 64.9973 59.558C64.9882 59.6497 64.9461 59.7349 64.8789 59.7978C64.8117 59.8608 64.7239 59.8972 64.6319 59.9003Z" fill="white"/>
<path opacity="0.5" d="M68.9033 61.0008H62.9897C62.9458 61.0017 62.9022 60.9932 62.8619 60.9759C62.8216 60.9586 62.7854 60.9329 62.7558 60.9005C62.7262 60.8681 62.7038 60.8297 62.6902 60.788C62.6766 60.7463 62.672 60.7021 62.6768 60.6585C62.6865 60.5657 62.7299 60.4796 62.7988 60.4165C62.8676 60.3534 62.9572 60.3178 63.0506 60.3162H68.96C69.0038 60.3154 69.0474 60.3239 69.0877 60.3412C69.1281 60.3585 69.1642 60.3842 69.1939 60.4166C69.2235 60.449 69.2458 60.4873 69.2595 60.529C69.2731 60.5707 69.2777 60.6149 69.2729 60.6585C69.2632 60.7507 69.2204 60.8362 69.1524 60.8992C69.0845 60.9621 68.9959 60.9983 68.9033 61.0008Z" fill="white"/>
<path opacity="0.3" d="M60.7721 66.1585H51.8135L52.4309 59.218H61.3895L60.7721 66.1585Z" fill="#407BFF"/>
<path opacity="0.5" d="M51.95 64.6276L54.5897 62.6872L55.9757 63.7834L58.8989 61.6897L60.9926 63.67L60.7721 66.1585H51.8135L51.95 64.6276Z" fill="white"/>
<path opacity="0.5" d="M54.9509 60.8517C54.9344 61.0475 54.8473 61.2305 54.7059 61.3668C54.5646 61.5032 54.3785 61.5836 54.1823 61.593C54.0901 61.592 53.9992 61.5712 53.9158 61.532C53.8323 61.4928 53.7582 61.4362 53.6985 61.3659C53.6388 61.2956 53.5948 61.2134 53.5696 61.1247C53.5444 61.036 53.5385 60.9429 53.5523 60.8517C53.5685 60.6561 53.6555 60.4731 53.797 60.337C53.9385 60.2009 54.1248 60.1211 54.3209 60.1125C54.4129 60.1137 54.5036 60.1344 54.5869 60.1735C54.6702 60.2126 54.7442 60.269 54.8039 60.339C54.8635 60.409 54.9075 60.491 54.9329 60.5795C54.9583 60.6679 54.9644 60.7607 54.9509 60.8517Z" fill="white"/>
<path opacity="0.2" d="M68.54 46.9897C62.7272 44.0875 53.5292 49.7994 53.2604 49.8982C52.3343 50.2425 51.257 49.7806 50.2826 49.0855L51.0386 40.4314L51.4796 40.4041C51.4796 40.4041 63.9515 43.4701 68.54 46.9897Z" fill="black"/>
<path d="M38.1992 37.7202C38.1992 37.7202 39.5432 38.5287 40.2719 38.8794C40.6919 39.0747 42.2291 38.7912 43.4765 39.5913C44.6798 40.362 44.5454 41.1369 45.0536 41.8215C46.5929 43.8963 49.8836 43.8291 49.8836 43.8291C49.8836 43.8291 63.8906 41.1957 71.0747 49.56C71.0747 49.56 65.7575 39.1839 38.1992 37.7202Z" fill="#407BFF"/>
<path opacity="0.4" d="M38.1992 37.7202C38.1992 37.7202 39.5432 38.5287 40.2719 38.8794C40.6919 39.0747 42.2291 38.7912 43.4765 39.5913C44.6798 40.362 44.5454 41.1369 45.0536 41.8215C46.5929 43.8963 49.8836 43.8291 49.8836 43.8291C49.8836 43.8291 63.8906 41.1957 71.0747 49.56C71.0747 49.56 65.7575 39.1839 38.1992 37.7202Z" fill="white"/>
<path d="M30.95 17.9487H21.1955C20.9292 17.9487 20.6739 18.0545 20.4857 18.2427C20.2974 18.431 20.1917 18.6863 20.1917 18.9525V24.2277C20.1922 24.4936 20.2982 24.7484 20.4864 24.9362C20.6746 25.124 20.9296 25.2294 21.1955 25.2294H27.9806C28.2431 25.8594 28.9865 27.1026 30.8954 27.678C30.8954 27.678 29.7509 26.6427 29.8097 25.2294H30.95C31.2158 25.2294 31.4708 25.124 31.659 24.9362C31.8472 24.7484 31.9532 24.4936 31.9538 24.2277V18.9525C31.9538 18.6863 31.848 18.431 31.6597 18.2427C31.4715 18.0545 31.2162 17.9487 30.95 17.9487Z" fill="#407BFF"/>
<path opacity="0.6" d="M30.95 17.9487H21.1955C20.9292 17.9487 20.6739 18.0545 20.4857 18.2427C20.2974 18.431 20.1917 18.6863 20.1917 18.9525V24.2277C20.1922 24.4936 20.2982 24.7484 20.4864 24.9362C20.6746 25.124 20.9296 25.2294 21.1955 25.2294H27.9806C28.2431 25.8594 28.9865 27.1026 30.8954 27.678C30.8954 27.678 29.7509 26.6427 29.8097 25.2294H30.95C31.2158 25.2294 31.4708 25.124 31.659 24.9362C31.8472 24.7484 31.9532 24.4936 31.9538 24.2277V18.9525C31.9538 18.6863 31.848 18.431 31.6597 18.2427C31.4715 18.0545 31.2162 17.9487 30.95 17.9487Z" fill="white"/>
<g opacity="0.5">
<path d="M21.3888 19.7064C21.3888 19.3179 21.5988 19.0764 21.876 19.0764C22.1532 19.0764 22.3653 19.3095 22.3653 19.7064C22.3653 20.1033 22.1553 20.3364 21.876 20.3364C21.5967 20.3364 21.3888 20.097 21.3888 19.7064ZM22.2288 19.7064C22.2288 19.3809 22.0818 19.2003 21.8676 19.2003C21.6534 19.2003 21.5085 19.3809 21.5085 19.7064C21.5085 20.0319 21.6555 20.2125 21.8676 20.2125C22.0797 20.2125 22.2372 20.034 22.2372 19.7064H22.2288Z" fill="black"/>
<path d="M22.8796 19.0952V20.3174H22.7599V19.2065H22.4659V19.0952H22.8796Z" fill="black"/>
<path d="M23.1799 19.7064C23.1799 19.3179 23.3899 19.0764 23.6671 19.0764C23.9443 19.0764 24.1564 19.3095 24.1564 19.7064C24.1564 20.1033 23.9464 20.3364 23.6671 20.3364C23.3878 20.3364 23.1799 20.097 23.1799 19.7064ZM24.0199 19.7064C24.0199 19.3809 23.8729 19.2003 23.6608 19.2003C23.4487 19.2003 23.3017 19.3809 23.3017 19.7064C23.3017 20.0319 23.4466 20.2125 23.6608 20.2125C23.875 20.2125 24.0199 20.034 24.0199 19.7064Z" fill="black"/>
<path d="M24.3265 19.7064C24.3265 19.3179 24.5365 19.0764 24.8137 19.0764C25.0909 19.0764 25.303 19.3095 25.303 19.7064C25.303 20.1033 25.093 20.3364 24.8137 20.3364C24.5344 20.3364 24.3265 20.097 24.3265 19.7064ZM25.1665 19.7064C25.1665 19.3809 25.0216 19.2003 24.8074 19.2003C24.5932 19.2003 24.4483 19.3809 24.4483 19.7064C24.4483 20.0319 24.5953 20.2125 24.8074 20.2125C25.0195 20.2125 25.1728 20.034 25.1728 19.7064H25.1665Z" fill="black"/>
<path d="M25.8175 19.0952V20.3174H25.6999V19.2065H25.4122V19.0952H25.8175Z" fill="black"/>
<path d="M26.4475 19.0952V20.3174H26.3299V19.2065H26.0422V19.0952H26.4475Z" fill="black"/>
<path d="M27.0774 19.0952V20.3174H26.9598V19.2065H26.6721V19.0952H27.0774Z" fill="black"/>
<path d="M27.3799 19.7064C27.3799 19.3179 27.5899 19.0764 27.8671 19.0764C28.1443 19.0764 28.3564 19.3095 28.3564 19.7064C28.3564 20.1033 28.1464 20.3364 27.8671 20.3364C27.5878 20.3364 27.3799 20.097 27.3799 19.7064ZM28.2199 19.7064C28.2199 19.3809 28.0729 19.2003 27.8608 19.2003C27.6487 19.2003 27.4996 19.3809 27.4996 19.7064C27.4996 20.0319 27.6466 20.2125 27.8608 20.2125C28.075 20.2125 28.2199 20.034 28.2199 19.7064Z" fill="black"/>
<path d="M28.5244 19.7064C28.5244 19.3179 28.7344 19.0764 29.0116 19.0764C29.2888 19.0764 29.5009 19.3095 29.5009 19.7064C29.5009 20.1033 29.2909 20.3364 29.0116 20.3364C28.7323 20.3364 28.5244 20.097 28.5244 19.7064ZM29.3644 19.7064C29.3644 19.3809 29.2174 19.2003 29.0053 19.2003C28.7932 19.2003 28.6462 19.3809 28.6462 19.7064C28.6462 20.0319 28.7911 20.2125 29.0053 20.2125C29.2195 20.2125 29.3707 20.034 29.3707 19.7064H29.3644Z" fill="black"/>
<path d="M30.0154 19.0952V20.3174H29.8999V19.2065H29.6122V19.0952H30.0154Z" fill="black"/>
<path d="M30.6454 19.0952V20.3174H30.5299V19.2065H30.2422V19.0952H30.6454Z" fill="black"/>
<path d="M21.7267 20.8657V22.0879H21.6007V20.977H21.313V20.8657H21.7267Z" fill="black"/>
<path d="M22.0186 21.4767C22.0186 21.0861 22.2286 20.8467 22.5058 20.8467C22.783 20.8467 22.993 21.0777 22.993 21.4767C22.993 21.8757 22.783 22.1067 22.5058 22.1067C22.2286 22.1067 22.0186 21.8652 22.0186 21.4767ZM22.8586 21.4767C22.8586 21.1491 22.7116 20.9706 22.4995 20.9706C22.2874 20.9706 22.1383 21.1491 22.1383 21.4767C22.1383 21.8043 22.2853 21.9828 22.4995 21.9828C22.7137 21.9828 22.8649 21.8022 22.8649 21.4767H22.8586Z" fill="black"/>
<path d="M23.1799 21.4767C23.1799 21.0861 23.3899 20.8467 23.6671 20.8467C23.9443 20.8467 24.1564 21.0777 24.1564 21.4767C24.1564 21.8757 23.9464 22.1067 23.6671 22.1067C23.3878 22.1067 23.1799 21.8652 23.1799 21.4767ZM24.0199 21.4767C24.0199 21.1491 23.8729 20.9706 23.6608 20.9706C23.4487 20.9706 23.2996 21.1491 23.2996 21.4767C23.2996 21.8043 23.4466 21.9828 23.6608 21.9828C23.875 21.9828 24.0199 21.8022 24.0199 21.4767Z" fill="black"/>
<path d="M24.6646 20.8657V22.0879H24.5386V20.977H24.2488V20.8657H24.6646Z" fill="black"/>
<path d="M25.2946 20.8657V22.0879H25.1686V20.977H24.8809V20.8657H25.2946Z" fill="black"/>
<path d="M25.9246 20.8657V22.0879H25.7986V20.977H25.5109V20.8657H25.9246Z" fill="black"/>
<path d="M26.2144 21.4767C26.2144 21.0861 26.4244 20.8467 26.7016 20.8467C26.9788 20.8467 27.1909 21.0777 27.1909 21.4767C27.1909 21.8757 26.9809 22.1067 26.7016 22.1067C26.4223 22.1067 26.2144 21.8652 26.2144 21.4767ZM27.0544 21.4767C27.0544 21.1491 26.9074 20.9706 26.6932 20.9706C26.479 20.9706 26.3341 21.1491 26.3341 21.4767C26.3341 21.8043 26.4811 21.9828 26.6932 21.9828C26.9053 21.9828 27.0628 21.8022 27.0628 21.4767H27.0544Z" fill="black"/>
<path d="M27.3799 21.4767C27.3799 21.0861 27.5899 20.8467 27.8692 20.8467C28.1485 20.8467 28.3564 21.0777 28.3564 21.4767C28.3564 21.8757 28.1464 22.1067 27.8692 22.1067C27.592 22.1067 27.3799 21.8652 27.3799 21.4767ZM28.2199 21.4767C28.2199 21.1491 28.0729 20.9706 27.8608 20.9706C27.6487 20.9706 27.4996 21.1491 27.4996 21.4767C27.4996 21.8043 27.6466 21.9828 27.8608 21.9828C28.075 21.9828 28.2199 21.8022 28.2199 21.4767Z" fill="black"/>
<path d="M28.8604 20.8657V22.0879H28.7344V20.977H28.4467V20.8657H28.8604Z" fill="black"/>
<path d="M29.4904 20.8657V22.0879H29.3665V20.977H29.0767V20.8657H29.4904Z" fill="black"/>
<path d="M29.7822 21.4767C29.7822 21.0861 29.9922 20.8467 30.2694 20.8467C30.5466 20.8467 30.7587 21.0777 30.7587 21.4767C30.7587 21.8757 30.5487 22.1067 30.2694 22.1067C29.9901 22.1067 29.7822 21.8652 29.7822 21.4767ZM30.6222 21.4767C30.6222 21.1491 30.4773 20.9706 30.2631 20.9706C30.0489 20.9706 29.904 21.1491 29.904 21.4767C29.904 21.8043 30.051 21.9828 30.2631 21.9828C30.4752 21.9828 30.6285 21.8022 30.6285 21.4767H30.6222Z" fill="black"/>
<path d="M21.3888 23.245C21.3888 22.8565 21.5988 22.615 21.876 22.615C22.1532 22.615 22.3653 22.8481 22.3653 23.245C22.3653 23.6419 22.1553 23.875 21.876 23.875C21.5967 23.875 21.3888 23.6356 21.3888 23.245ZM22.2288 23.245C22.2288 22.9195 22.0818 22.7389 21.8676 22.7389C21.6534 22.7389 21.5085 22.9195 21.5085 23.245C21.5085 23.5705 21.6555 23.7532 21.8676 23.7532C22.0797 23.7532 22.2372 23.5726 22.2372 23.245H22.2288Z" fill="black"/>
<path d="M22.5499 23.245C22.5499 22.8565 22.7599 22.615 23.0371 22.615C23.3143 22.615 23.5243 22.8481 23.5243 23.245C23.5243 23.6419 23.3143 23.875 23.0371 23.875C22.7599 23.875 22.5499 23.6356 22.5499 23.245ZM23.3899 23.245C23.3899 22.9195 23.2429 22.7389 23.0308 22.7389C22.8187 22.7389 22.6696 22.9195 22.6696 23.245C22.6696 23.5705 22.8166 23.7532 23.0308 23.7532C23.245 23.7532 23.3899 23.5726 23.3899 23.245Z" fill="black"/>
<path d="M24.0345 22.6338V23.856H23.9107V22.7451H23.6208V22.6338H24.0345Z" fill="black"/>
<path d="M24.6646 22.6338V23.856H24.5407V22.7451H24.2509V22.6338H24.6646Z" fill="black"/>
<path d="M24.9565 23.245C24.9565 22.8565 25.1665 22.615 25.4437 22.615C25.7209 22.615 25.933 22.8481 25.933 23.245C25.933 23.6419 25.723 23.875 25.4437 23.875C25.1644 23.875 24.9565 23.6356 24.9565 23.245ZM25.7965 23.245C25.7965 22.9195 25.6516 22.7389 25.4374 22.7389C25.2232 22.7389 25.0783 22.9195 25.0783 23.245C25.0783 23.5705 25.2253 23.7532 25.4374 23.7532C25.6495 23.7532 25.8028 23.5726 25.8028 23.245H25.7965Z" fill="black"/>
<path d="M26.1199 23.245C26.1199 22.8565 26.3299 22.615 26.6071 22.615C26.8843 22.615 27.0964 22.8481 27.0964 23.245C27.0964 23.6419 26.8864 23.875 26.6071 23.875C26.3278 23.875 26.1199 23.6356 26.1199 23.245ZM26.9599 23.245C26.9599 22.9195 26.8129 22.7389 26.5987 22.7389C26.3845 22.7389 26.2396 22.9195 26.2396 23.245C26.2396 23.5705 26.3866 23.7532 26.5987 23.7532C26.8108 23.7532 26.9599 23.5726 26.9599 23.245Z" fill="black"/>
<path d="M27.6024 22.6338V23.856H27.4764V22.7451H27.1887V22.6338H27.6024Z" fill="black"/>
<path d="M28.2324 22.6338V23.856H28.1064V22.7451H27.8187V22.6338H28.2324Z" fill="black"/>
<path d="M28.8624 22.6338V23.856H28.7364V22.7451H28.4487V22.6338H28.8624Z" fill="black"/>
<path d="M29.1544 23.245C29.1544 22.8565 29.3644 22.615 29.6416 22.615C29.9188 22.615 30.1309 22.8481 30.1309 23.245C30.1309 23.6419 29.9209 23.875 29.6416 23.875C29.3623 23.875 29.1544 23.6356 29.1544 23.245ZM29.9944 23.245C29.9944 22.9195 29.8474 22.7389 29.6353 22.7389C29.4232 22.7389 29.2762 22.9195 29.2762 23.245C29.2762 23.5705 29.4211 23.7532 29.6353 23.7532C29.8495 23.7532 30.0007 23.5726 30.0007 23.245H29.9944Z" fill="black"/>
<path d="M30.6454 22.6338V23.856H30.5299V22.7451H30.2422V22.6338H30.6454Z" fill="black"/>
</g>
<path d="M39.4529 38.7217C39.6763 38.4781 39.9354 38.2699 40.2215 38.1043C40.5397 37.9782 40.877 37.9072 41.219 37.8943L41.3807 38.9968C41.1288 39.1948 40.8596 39.3698 40.5764 39.5197C40.2929 39.6394 39.6503 39.5848 39.6503 39.5848L39.4529 38.7217Z" fill="#EBB376"/>
<path d="M32.9995 36.2144C32.9995 36.2144 34.4422 38.2892 34.9903 38.6504C35.5384 39.0116 39.4528 38.7218 39.4528 38.7218L39.6502 39.5744C39.6502 39.5744 35.635 40.3073 34.7908 39.8579C33.9466 39.4085 31.8319 37.067 31.8319 37.067L32.9995 36.2144Z" fill="#EBB376"/>
<path opacity="0.2" d="M39.4529 38.7217C39.6763 38.4781 39.9354 38.2699 40.2215 38.1043C40.5397 37.9782 40.877 37.9072 41.219 37.8943L41.3807 38.9968C41.1288 39.1948 40.8596 39.3698 40.5764 39.5197C40.2929 39.6394 39.6503 39.5848 39.6503 39.5848L39.4529 38.7217Z" fill="black"/>
<path opacity="0.2" d="M32.9995 36.2144C32.9995 36.2144 34.4422 38.2892 34.9903 38.6504C35.5384 39.0116 39.4528 38.7218 39.4528 38.7218L39.6502 39.5744C39.6502 39.5744 35.635 40.3073 34.7908 39.8579C33.9466 39.4085 31.8319 37.067 31.8319 37.067L32.9995 36.2144Z" fill="black"/>
<path d="M37.943 31.2165C37.929 31.2166 37.9154 31.2114 37.9052 31.2018C37.9002 31.1971 37.8962 31.1914 37.8934 31.1851C37.8907 31.1787 37.8893 31.1719 37.8893 31.165C37.8893 31.1581 37.8907 31.1513 37.8934 31.145C37.8962 31.1387 37.9002 31.133 37.9052 31.1283C37.9935 31.0498 38.099 30.9934 38.2132 30.9634C38.3274 30.9335 38.4471 30.931 38.5625 30.9561C38.5693 30.9576 38.5757 30.9604 38.5814 30.9644C38.587 30.9683 38.5919 30.9734 38.5956 30.9793C38.5993 30.9851 38.6018 30.9917 38.603 30.9985C38.6041 31.0053 38.6039 31.0123 38.6024 31.0191C38.5989 31.0321 38.5908 31.0433 38.5796 31.0507C38.5683 31.058 38.5548 31.061 38.5415 31.059C38.4433 31.0387 38.3418 31.0411 38.2447 31.0658C38.1476 31.0906 38.0573 31.1371 37.9808 31.2018C37.9705 31.2114 37.957 31.2166 37.943 31.2165Z" fill="#263238"/>
<path d="M38.2139 31.8843C38.3063 32.0971 38.424 32.2981 38.5646 32.4828C38.5201 32.5358 38.4619 32.5755 38.3963 32.5973C38.3306 32.6192 38.2602 32.6224 38.1929 32.6067L38.2139 31.8843Z" fill="#D58745"/>
<path d="M38.4832 31.5271C38.4832 31.6405 38.4095 31.7371 38.3338 31.7245C38.258 31.7119 38.2033 31.6237 38.2096 31.5145C38.2159 31.4053 38.2833 31.315 38.359 31.3192C38.4348 31.3234 38.4895 31.4158 38.4832 31.5271Z" fill="#263238"/>
<path d="M38.3273 31.3193L38.5777 31.2395C38.5777 31.2395 38.443 31.4369 38.3273 31.3193Z" fill="#263238"/>
<path d="M35.1373 33.623C35.1485 33.6377 35.1619 33.6504 35.1772 33.6608C35.3657 33.852 35.5906 34.0034 35.8387 34.106C36.5653 34.3832 37.0987 34.3517 37.4746 34.0577C38.0143 33.6125 38.2558 32.7263 38.3398 31.628C38.3878 31.1927 38.3666 30.7525 38.2768 30.3239C38.2768 30.3239 38.2768 30.3071 38.2768 30.3029C38.2768 30.2987 38.2768 30.2693 38.2768 30.2546C38.2153 30.013 38.0946 29.7904 37.9256 29.6071C37.7566 29.4238 37.5446 29.2855 37.3087 29.2046C37.1048 29.1292 36.8937 29.075 36.6787 29.0429C34.543 28.7216 33.6799 32.1866 35.1373 33.623Z" fill="#EBB376"/>
<path opacity="0.2" d="M35.1772 33.6609C35.369 33.8438 35.5953 33.9866 35.8429 34.0809C36.5695 34.3581 37.1029 34.2909 37.483 34.0032C37.0189 34.0514 36.5516 33.9475 36.1516 33.7071C36.0034 33.6258 35.8386 33.5793 35.6698 33.5713C35.5009 33.5633 35.3325 33.5939 35.1772 33.6609Z" fill="black"/>
<path d="M35.906 28.3689C35.906 28.3689 37.376 28.2051 38.0837 28.8855C38.909 29.6793 39.161 30.4164 37.9262 31.3383C37.9262 31.3383 35.6477 30.2358 34.8329 30.2883C34.3561 30.319 33.8827 30.3892 33.4175 30.4983C33.47 28.9002 35.15 27.93 35.906 28.3689Z" fill="#263238"/>
<path d="M36.2125 34.192C36.0862 34.2482 35.9737 34.3315 35.8831 34.436C35.7926 34.5405 35.7261 34.6637 35.6884 34.7967C35.6507 34.9298 35.6428 35.0695 35.6651 35.206C35.6875 35.3425 35.7396 35.4724 35.8177 35.5864L32.7496 34.7275C32.7496 34.7275 34.2049 34.0975 34.3225 33.0685C34.3225 33.0685 35.9353 32.9383 36.2125 34.192Z" fill="#EBB376"/>
<path d="M36.2126 28.7215C36.2126 28.7215 35.8514 26.3107 33.9971 26.3674C32.1428 26.4241 31.9202 28.3603 33.0815 29.1919C34.2428 30.0235 36.074 30.1327 36.2126 28.7215Z" fill="#263238"/>
<path d="M33.5813 29.2466C33.5813 29.2466 32.0105 28.9421 31.9517 30.3281C32.0842 30.0865 32.2987 29.9003 32.5565 29.8031C32.5565 29.8031 32.0126 30.0782 32.3675 30.7985C32.3675 30.7985 32.2541 30.3512 32.9576 30.1853C33.6611 30.0194 35.4356 30.3827 35.2676 29.4419C35.0996 28.5011 33.5813 29.2466 33.5813 29.2466Z" fill="#263238"/>
<path d="M35.9353 28.7174C35.9285 28.7171 35.9218 28.7155 35.9156 28.7126C35.9095 28.7097 35.904 28.7055 35.8995 28.7004C35.8949 28.6953 35.8915 28.6894 35.8894 28.6829C35.8872 28.6764 35.8864 28.6696 35.887 28.6628C35.887 28.6481 35.9458 27.26 35.1856 26.5082C34.9958 26.3295 34.7693 26.1944 34.522 26.112C34.2747 26.0297 34.0124 26.0022 33.7534 26.0315C33.7398 26.0321 33.7265 26.0274 33.7163 26.0184C33.7062 26.0094 33.6999 25.9968 33.6988 25.9832C33.6982 25.9694 33.7028 25.9559 33.7118 25.9453C33.7207 25.9348 33.7334 25.9281 33.7471 25.9265C34.0209 25.8959 34.2981 25.9255 34.5593 26.0133C34.8205 26.1011 35.0593 26.2449 35.2591 26.4347C36.0529 27.218 35.9941 28.6103 35.992 28.6691C35.9915 28.676 35.9896 28.6827 35.9864 28.6889C35.9833 28.6951 35.979 28.7006 35.9737 28.7051C35.9684 28.7095 35.9623 28.7129 35.9557 28.7151C35.9491 28.7172 35.9422 28.718 35.9353 28.7174Z" fill="#263238"/>
<path d="M34.2889 32.6045C34.2787 32.608 34.2676 32.608 34.2574 32.6045C34.2427 32.594 32.7664 31.4432 33.3061 30.1769C33.3082 30.1698 33.3118 30.1634 33.3166 30.1578C33.3214 30.1523 33.3273 30.1478 33.3339 30.1447C33.3405 30.1416 33.3477 30.1398 33.355 30.1397C33.3623 30.1395 33.3696 30.1408 33.3764 30.1436C33.3831 30.1464 33.3892 30.1506 33.3943 30.1559C33.3994 30.1612 33.4032 30.1675 33.4057 30.1744C33.4082 30.1812 33.4092 30.1886 33.4087 30.1959C33.4082 30.2032 33.4061 30.2103 33.4027 30.2168C32.8945 31.4096 34.3078 32.51 34.3204 32.5268C34.3297 32.5371 34.3348 32.5506 34.3348 32.5646C34.3348 32.5785 34.3297 32.592 34.3204 32.6024C34.3104 32.6063 34.2994 32.607 34.2889 32.6045Z" fill="#263238"/>
<path d="M31.6976 29.9333H31.6808C31.6678 29.929 31.657 29.9198 31.6507 29.9076C31.6445 29.8955 31.6432 29.8813 31.6472 29.8682C31.9622 28.8896 33.4133 29.1752 33.428 29.1773C33.4418 29.1804 33.4538 29.1886 33.4617 29.2004C33.4695 29.2121 33.4725 29.2264 33.47 29.2403C33.4685 29.2471 33.4657 29.2535 33.4617 29.2592C33.4577 29.2649 33.4526 29.2697 33.4468 29.2734C33.4409 29.2771 33.4344 29.2796 33.4276 29.2808C33.4207 29.282 33.4137 29.2818 33.407 29.2802C33.3944 29.2802 32.0336 29.0114 31.748 29.9102C31.7426 29.9184 31.735 29.9249 31.7261 29.929C31.7172 29.9331 31.7073 29.9346 31.6976 29.9333Z" fill="#263238"/>
<path d="M38.281 30.3091C38.281 30.3091 38.1928 31.8148 36.6934 32.26C36.6934 32.26 35.8744 33.73 34.9798 33.6229C33.7576 33.4843 32.926 31.6048 33.5896 29.9017C34.4506 27.6904 37.9387 27.9823 38.281 30.3091Z" fill="#263238"/>
<path d="M37.4599 31.9304C37.4914 31.6973 37.3591 31.2815 36.9916 31.2857C36.6241 31.2899 36.2755 32.1824 37.1659 32.5142C37.3003 32.5625 37.4011 32.4155 37.4599 31.9304Z" fill="#EBB376"/>
<path d="M39.2764 74.4638L40.2718 74.1908C39.9085 69.1676 38.9215 63.107 38.0836 58.5626C37.9534 57.8507 37.8274 57.1766 37.7035 56.5487C37.6468 56.2505 37.5901 55.9649 37.5355 55.6877C37.2709 54.3269 37.0462 53.2496 36.9055 52.586C36.8026 52.1009 36.7438 51.8342 36.7438 51.8342L33.1738 52.8716L33.472 53.7746L34.4569 56.7545L34.5682 57.0947L35.2192 59.0624L36.3259 62.4098C36.4708 67.5338 39.2764 74.4638 39.2764 74.4638Z" fill="#EBB376"/>
<path d="M30.5908 74.2203L31.6198 74.1216C32.1574 68.6742 32.1784 61.8912 32.1049 57.1788C32.0923 56.448 32.0797 55.7655 32.065 55.1481C32.065 55.1166 32.065 55.0872 32.065 55.0578C32.0335 53.8293 32.002 52.8549 31.9789 52.2375L31.9495 51.4878L28.243 51.9078L28.474 53.4492L28.81 55.7151L28.8772 56.1582L29.1082 57.7038L29.7277 61.8429C29.0053 66.9123 30.5908 74.2203 30.5908 74.2203Z" fill="#EBB376"/>
<path opacity="0.2" d="M28.8079 55.7107L32.065 55.1479C32.065 55.1164 32.065 55.087 32.065 55.0576C32.0335 53.8291 32.002 52.8547 31.9789 52.2373L28.4719 53.4448L28.8079 55.7107Z" fill="black"/>
<path opacity="0.2" d="M37.2667 54.3268L33.8395 54.9085L33.4636 53.7745L36.9055 52.5859C36.9958 53.008 37.1197 53.6002 37.2667 54.3268Z" fill="black"/>
<path d="M28.3858 42.1175C28.3858 42.1175 26.164 47.3108 28.2409 54.8393L32.2897 54.3773V52.586L32.9197 54.2177L37.2268 53.4197C35.9794 47.3108 34.8538 44.5388 34.8538 44.5388L34.5514 41.4644L28.3858 42.1175Z" fill="#407BFF"/>
<path d="M30.1099 74.0103C30.1099 73.8822 31.7017 73.983 31.7017 73.983C31.7017 73.983 32.6782 74.9763 33.6274 75.1989C34.5766 75.4215 34.0474 75.9927 32.9869 75.9927H30.3619C29.5996 75.9927 30.07 75.3501 30.1099 74.0103Z" fill="#263238"/>
<path d="M32.5292 74.3882C32.2994 74.3575 32.0769 74.2864 31.8719 74.1782C31.866 74.1752 31.861 74.1709 31.8572 74.1656C31.8539 74.1554 31.8539 74.1444 31.8572 74.1341C31.8572 74.1173 31.9979 73.7477 32.2121 73.6574C32.245 73.6423 32.2808 73.6345 32.3171 73.6345C32.3533 73.6345 32.3891 73.6423 32.4221 73.6574C32.4935 73.691 32.5292 73.7372 32.5271 73.7897C32.525 73.8422 32.4095 73.9577 32.2793 74.027C32.3995 74.0064 32.523 74.0195 32.6363 74.0648C32.657 74.0763 32.6752 74.0919 32.6896 74.1107C32.7041 74.1295 32.7145 74.151 32.7203 74.174C32.7312 74.2026 32.7335 74.2339 32.7267 74.2638C32.72 74.2936 32.7046 74.3209 32.6825 74.342C32.6395 74.3771 32.5843 74.3937 32.5292 74.3882ZM32.0168 74.1614C32.2499 74.2601 32.5418 74.3483 32.6153 74.2853C32.6153 74.2853 32.6426 74.2643 32.6153 74.2034C32.6128 74.1912 32.6076 74.1797 32.5999 74.1698C32.5923 74.16 32.5824 74.1521 32.5712 74.1467C32.3884 74.1019 32.1969 74.1069 32.0168 74.1614ZM32.3003 73.7246C32.278 73.7249 32.2559 73.7292 32.2352 73.7372C32.1109 73.8198 32.0161 73.9397 31.9643 74.0795C32.1995 73.9892 32.4263 73.8695 32.4305 73.7939C32.4305 73.7729 32.3948 73.7519 32.3738 73.7414C32.351 73.7299 32.3258 73.7241 32.3003 73.7246Z" fill="#407BFF"/>
<path d="M38.993 74.0103C38.993 73.8822 40.5848 73.983 40.5848 73.983C40.5848 73.983 41.5613 74.9763 42.5105 75.1989C43.4597 75.4215 42.9305 75.9927 41.8679 75.9927H39.245C38.4911 75.9927 38.9615 75.3501 38.993 74.0103Z" fill="#263238"/>
<path d="M41.4205 74.3882C41.1901 74.3571 40.967 74.286 40.7611 74.1782C40.7611 74.1782 40.7506 74.1782 40.7485 74.1656C40.7463 74.1607 40.7452 74.1553 40.7452 74.1499C40.7452 74.1445 40.7463 74.1391 40.7485 74.1341C40.7485 74.1173 40.8871 73.7477 41.1034 73.6574C41.1363 73.6423 41.1721 73.6345 41.2084 73.6345C41.2446 73.6345 41.2804 73.6423 41.3134 73.6574C41.3848 73.691 41.4205 73.7372 41.4163 73.7897C41.4121 73.8422 41.2987 73.9577 41.1706 74.027C41.2901 74.0063 41.413 74.0194 41.5255 74.0648C41.5465 74.0763 41.5649 74.0918 41.5797 74.1106C41.5945 74.1294 41.6054 74.151 41.6116 74.174C41.6225 74.2026 41.6248 74.2339 41.6181 74.2638C41.6113 74.2936 41.5959 74.3209 41.5738 74.342C41.5302 74.3759 41.4755 74.3924 41.4205 74.3882ZM40.9081 74.1614C41.1412 74.2601 41.4331 74.3483 41.5066 74.2853C41.5066 74.2853 41.5339 74.2643 41.5066 74.2034C41.5035 74.1915 41.498 74.1803 41.4904 74.1705C41.4828 74.1608 41.4733 74.1527 41.4625 74.1467C41.2797 74.1019 41.0882 74.1069 40.9081 74.1614ZM41.1916 73.7246C41.1693 73.7249 41.1473 73.7292 41.1265 73.7372C41.0017 73.8197 40.9061 73.9395 40.8535 74.0795C41.0887 73.9892 41.3176 73.8695 41.3218 73.7939C41.3218 73.7729 41.2861 73.7519 41.2651 73.7414C41.2422 73.7301 41.2171 73.7244 41.1916 73.7246Z" fill="#407BFF"/>
<path opacity="0.2" d="M32.2897 52.5839V53.6444C28.0603 51.8762 29.1082 47.6489 29.1082 47.6489C29.3791 49.2722 31.2376 49.8749 31.2376 49.8749L32.2897 52.5839Z" fill="black"/>
<path d="M29.7593 43.2976L33.1739 43.6547V42.8798L29.8601 42.55C29.8328 42.739 29.7929 43.0498 29.7593 43.2976Z" fill="#263238"/>
<path d="M33.4406 42.905V43.682L34.8539 43.829V43.0457L33.4406 42.905Z" fill="#263238"/>
<path d="M29.5871 42.5249L28.1528 42.3821L27.9722 43.1108L29.4527 43.2641L29.5871 42.5249Z" fill="#263238"/>
<path opacity="0.2" d="M30.1876 45.0344H31.9495L32.1364 46.7879L31.162 47.546L30.1876 46.9433V45.0344Z" fill="black"/>
<path opacity="0.2" d="M28.4846 44.7468L28.388 46.788L27.758 47.649C27.758 47.649 27.548 47.4705 27.3821 47.2899C27.4255 46.4369 27.523 45.5875 27.674 44.7468H28.4846Z" fill="black"/>
<path d="M44.1211 41.5652C44.3921 41.376 44.6902 41.2287 45.0052 41.1284C45.3436 41.0705 45.6895 41.0705 46.0279 41.1284L45.9481 42.2393C45.6595 42.3793 45.3586 42.4924 45.0493 42.5774C44.7448 42.632 44.1316 42.4388 44.1316 42.4388L44.1211 41.5652Z" fill="#EBB376"/>
<path d="M32.6299 53.9699C32.6299 53.9699 32.7139 54.5516 32.8525 54.4403C32.9911 54.329 37.3927 53.6402 37.3927 53.6402V53.0564L32.6299 53.9699Z" fill="#407BFF"/>
<path opacity="0.7" d="M32.6299 53.9699C32.6299 53.9699 32.7139 54.5516 32.8525 54.4403C32.9911 54.329 37.3927 53.6402 37.3927 53.6402V53.0564L32.6299 53.9699Z" fill="white"/>
<path d="M28.1066 54.7344C28.1066 54.7344 28.1822 55.3203 28.3061 55.2132C28.43 55.1061 32.378 54.558 32.378 54.558V53.97L28.1066 54.7344Z" fill="#407BFF"/>
<path opacity="0.7" d="M28.1066 54.7344C28.1066 54.7344 28.1822 55.3203 28.3061 55.2132C28.43 55.1061 32.378 54.558 32.378 54.558V53.97L28.1066 54.7344Z" fill="white"/>
<path d="M28.3859 42.1174L34.6859 42.823L37.8149 35.7691C37.8149 35.7691 35.6351 33.8917 31.601 34.5091C31.5989 34.5007 30.152 35.1433 28.3859 42.1174Z" fill="#263238"/>
<path d="M38.3629 37.7202C38.3629 37.7202 39.3247 40.0596 39.7804 40.53C40.2361 41.0004 44.1211 41.5653 44.1211 41.5653L44.1316 42.4389C44.1316 42.4389 40.0513 42.2877 39.3247 41.6661C38.5981 41.0445 37.0378 38.3061 37.0378 38.3061L38.3629 37.7202Z" fill="#EBB376"/>
<path d="M37.8127 35.7693C38.281 36.267 38.7976 38.5266 38.7976 38.5266H36.5549L35.8177 37.3086C36.0804 36.9203 36.4173 36.5877 36.8089 36.33C37.1228 36.1081 37.4593 35.9202 37.8127 35.7693Z" fill="#263238"/>
</svg>
