<svg width="76" height="76" viewBox="0 0 76 76" fill="none" xmlns="http://www.w3.org/2000/svg">
<path d="M37.7238 10.1804V0.369904C46.0224 0.338175 54.0981 3.05435 60.6907 8.09462C67.2834 13.1349 72.0222 20.2157 74.1677 28.2322C76.3132 36.2488 75.7447 44.75 72.5509 52.4095C69.3572 60.0689 63.7178 66.4558 56.5127 70.5734L51.6142 62.0781C56.95 59.0403 61.1285 54.3197 63.4961 48.6545C65.8637 42.9894 66.2869 36.6993 64.6994 30.7681C63.1119 24.8369 59.6033 19.5991 54.7225 15.8741C49.8416 12.149 43.8637 10.1467 37.7238 10.1804Z" fill="#407BFF"/>
<path d="M0.145935 37.9746H9.943C9.943 45.3425 12.8699 52.4087 18.0798 57.6186C23.2897 62.8285 30.3559 65.7554 37.7238 65.7554C42.5984 65.7643 47.3878 64.4766 51.6007 62.0244L56.5127 70.5734C50.8 73.8716 44.3198 75.6079 37.7233 75.6078C31.1269 75.6078 24.6467 73.8713 18.9341 70.5729C13.2215 67.2746 8.47777 62.5306 5.17975 56.8178C1.88173 51.105 0.145631 44.6247 0.145935 38.0283V37.9746Z" fill="#407BFF"/>
<path d="M0.145935 37.6049C0.145935 27.6387 4.10503 18.0806 11.1522 11.0334C18.1995 3.98617 27.7575 0.0270996 37.7238 0.0270996V9.81075C34.0762 9.80899 30.464 10.5259 27.0936 11.9206C23.7231 13.3152 20.6605 15.3603 18.0806 17.9389C15.5008 20.5175 13.4542 23.5791 12.058 26.9489C10.6617 30.3187 9.943 33.9305 9.943 37.5781L0.145935 37.6049Z" fill="#407BFF"/>
<path opacity="0.5" d="M-0.00012203 37.6304H9.79694C9.79694 44.9983 12.7238 52.0644 17.9337 57.2743C23.1436 62.4842 30.2098 65.4111 37.5777 65.4111C42.4524 65.4201 47.2417 64.1324 51.4547 61.6802L56.3666 70.2291C50.6539 73.5274 44.1737 75.2637 37.5773 75.2636C30.9808 75.2635 24.5007 73.5271 18.7881 70.2287C13.0755 66.9304 8.33171 62.1864 5.03369 56.4736C1.73567 50.7608 -0.000425634 44.2805 -0.00012203 37.684V37.6304Z" fill="white"/>
<path opacity="0.7" d="M37.7238 9.81077V0.000274848C46.0224 -0.0314539 54.0981 2.68472 60.6907 7.725C67.2834 12.7653 72.0222 19.8461 74.1677 27.8626C76.3132 35.8791 75.7447 44.3804 72.5509 52.0398C69.3572 59.6993 63.7178 66.0861 56.5127 70.2037L51.6142 61.7085C56.95 58.6707 61.1285 53.95 63.4961 48.2849C65.8637 42.6198 66.2869 36.3297 64.6994 30.3985C63.1119 24.4673 59.6033 19.2295 54.7225 15.5044C49.8416 11.7794 43.8637 9.77707 37.7238 9.81077Z" fill="black"/>
</svg>
