<svg width="41" height="18" viewBox="0 0 41 18" fill="none" xmlns="http://www.w3.org/2000/svg">
<path d="M13.7148 27.7715L14.0805 28.7023L14.0862 28.7L13.7148 27.7715ZM5.40039 26.8047L4.75752 27.5707L4.76489 27.5768L4.77237 27.5829L5.40039 26.8047ZM2.83398 7.89062L1.86919 7.6275L1.86722 7.63495L2.83398 7.89062ZM4.46875 4.48047L5.24131 5.11545L5.24551 5.11027L4.46875 4.48047ZM7 2.61719L6.64767 1.6813L6.644 1.6827L7 2.61719ZM13.082 2.42383L12.7984 3.38276L12.8064 3.38512L12.8144 3.38735L13.082 2.42383ZM15.332 3.56641L14.7056 4.34596L14.7142 4.35273L15.332 3.56641ZM17.002 5.64062L16.1173 6.10686L16.1211 6.11404L16.125 6.12116L17.002 5.64062ZM14.9629 9.5957L13.9735 9.74082L13.9746 9.7483L13.9758 9.75577L14.9629 9.5957ZM13.3984 5.83398L12.6913 6.54109L12.6966 6.54637L12.702 6.55157L13.3984 5.83398ZM12.0449 4.99023L11.6962 5.92746L11.7092 5.93228L11.7222 5.93674L12.0449 4.99023ZM8.2832 5.14844L8.709 6.05326L8.71621 6.04986L8.72336 6.04636L8.2832 5.14844ZM6.77148 6.50195L5.93695 5.95084L5.92979 5.962L6.77148 6.50195ZM5.73438 20.6348L4.74488 20.7799L4.74693 20.7928L5.73438 20.6348ZM6.34961 22.9199L5.42701 23.3057L5.42959 23.3118L6.34961 22.9199ZM8.66992 25.3984L8.30226 26.3284L8.31515 26.3335L8.32818 26.3382L8.66992 25.3984ZM13.9609 23.7988L13.1129 23.2688L13.1103 23.273L13.9609 23.7988ZM14.875 21.2852L15.8564 21.4769L15.8568 21.4748L14.875 21.2852ZM17.4434 13.1641V17.0664H19.4434V13.1641H17.4434ZM17.4434 17.0664C17.4434 19.1107 17.26 20.7899 16.9131 22.1232L18.8486 22.6268C19.2518 21.0773 19.4434 19.2174 19.4434 17.0664H17.4434ZM16.9131 22.1232C16.5626 23.4704 16.0746 24.491 15.4828 25.2308L17.0445 26.4802C17.859 25.4621 18.4491 24.1624 18.8486 22.6268L16.9131 22.1232ZM15.4828 25.2308C14.8821 25.9816 14.1711 26.5119 13.3435 26.843L14.0862 28.7C15.2508 28.2341 16.239 27.4871 17.0445 26.4802L15.4828 25.2308ZM13.3492 26.8407C12.4997 27.1745 11.5135 27.3516 10.375 27.3516V29.3516C11.7209 29.3516 12.9612 29.142 14.0805 28.7022L13.3492 26.8407ZM10.375 27.3516C9.47397 27.3516 8.66255 27.239 7.93402 27.0235L7.36676 28.9414C8.30229 29.2181 9.30728 29.3516 10.375 29.3516V27.3516ZM7.93402 27.0235C7.22611 26.8141 6.59339 26.4824 6.02841 26.0265L4.77237 27.5829C5.54333 28.2051 6.41061 28.6586 7.36676 28.9414L7.93402 27.0235ZM6.04326 26.0387C5.49958 25.5824 5.01345 24.9737 4.59524 24.1896L2.83054 25.1307C3.34983 26.1044 3.9887 26.9254 4.75752 27.5707L6.04326 26.0387ZM4.59524 24.1896C4.18403 23.4185 3.85405 22.4512 3.6219 21.2684L1.65935 21.6535C1.91939 22.9785 2.30425 24.144 2.83054 25.1307L4.59524 24.1896ZM3.6219 21.2684C3.39141 20.0939 3.27148 18.6963 3.27148 17.0664H1.27148C1.27148 18.7881 1.39765 20.3201 1.65935 21.6535L3.6219 21.2684ZM3.27148 17.0664V13.1641H1.27148V17.0664H3.27148ZM3.27148 13.1641C3.27148 11.119 3.45502 9.45358 3.80075 8.1463L1.86722 7.63495C1.46295 9.16361 1.27148 11.0138 1.27148 13.1641H3.27148ZM3.79875 8.15374C4.1599 6.82954 4.65197 5.83244 5.24129 5.11543L3.69621 3.8455C2.87928 4.83944 2.28151 6.11578 1.86922 7.62751L3.79875 8.15374ZM5.24551 5.11027C5.84456 4.37144 6.5462 3.86017 7.356 3.55167L6.644 1.6827C5.48505 2.12421 4.49919 2.85513 3.69199 3.85067L5.24551 5.11027ZM7.35233 3.55306C8.21969 3.22653 9.21122 3.05469 10.3398 3.05469V1.05469C9.00753 1.05469 7.7725 1.25785 6.64767 1.68131L7.35233 3.55306ZM10.3398 3.05469C11.2538 3.05469 12.0709 3.16758 12.7984 3.38276L13.3657 1.46489C12.4291 1.18788 11.4181 1.05469 10.3398 1.05469V3.05469ZM12.8144 3.38735C13.5327 3.58687 14.1595 3.90705 14.7056 4.34591L15.9584 2.7869C15.1921 2.17107 14.3189 1.72954 13.3497 1.46031L12.8144 3.38735ZM14.7142 4.35273C15.2424 4.76776 15.7144 5.34248 16.1173 6.10686L17.8866 5.17439C17.3754 4.2044 16.7341 3.39631 15.9499 2.78009L14.7142 4.35273ZM16.125 6.12116C16.5326 6.86499 16.8615 7.81125 17.0933 8.98145L19.0552 8.59277C18.7948 7.2786 18.4089 6.1272 17.8789 5.16009L16.125 6.12116ZM17.0933 8.98145C17.3234 10.1429 17.4434 11.534 17.4434 13.1641H19.4434C19.4434 11.4426 19.3172 9.91566 19.0552 8.59277L17.0933 8.98145ZM16.1738 17.5938V12.6191H14.1738V17.5938H16.1738ZM16.1738 12.6191C16.1738 11.4324 16.1013 10.369 15.95 9.43563L13.9758 9.75577C14.1057 10.5568 14.1738 11.509 14.1738 12.6191H16.1738ZM15.9523 9.45059C15.815 8.51432 15.6042 7.67971 15.3064 6.96233L13.4592 7.72908C13.6771 8.25389 13.853 8.91927 13.9735 9.74082L15.9523 9.45059ZM15.3064 6.96233C15.0072 6.24148 14.6093 5.61569 14.0949 5.1164L12.702 6.55157C12.9844 6.82572 13.2428 7.20774 13.4592 7.72908L15.3064 6.96233ZM14.1055 5.12688C13.6111 4.63245 13.0286 4.26906 12.3676 4.04372L11.7222 5.93674C12.0925 6.06297 12.4123 6.26208 12.6913 6.54109L14.1055 5.12688ZM12.3937 4.05301C11.7603 3.81736 11.0711 3.70898 10.3398 3.70898V5.70898C10.8742 5.70898 11.3217 5.78811 11.6962 5.92746L12.3937 4.05301ZM10.3398 3.70898C9.4385 3.70898 8.59827 3.88031 7.84305 4.25052L8.72336 6.04636C9.16345 5.83063 9.69432 5.70898 10.3398 5.70898V3.70898ZM7.85741 4.24362C7.07329 4.61261 6.43519 5.19652 5.93702 5.95089L7.60595 7.05301C7.92809 6.5652 8.2978 6.24676 8.709 6.05326L7.85741 4.24362ZM5.92979 5.962C5.44525 6.71731 5.10537 7.65715 4.87863 8.74045L6.83621 9.15018C7.03135 8.21785 7.30084 7.52878 7.61318 7.04191L5.92979 5.962ZM4.87863 8.74045C4.64925 9.83638 4.54102 11.1339 4.54102 12.6191H6.54102C6.54102 11.2215 6.64372 10.0699 6.83621 9.15018L4.87863 8.74045ZM4.54102 12.6191V17.5938H6.54102V12.6191H4.54102ZM4.54102 17.5938C4.54102 18.7775 4.60731 19.8414 4.74496 20.7799L6.72379 20.4897C6.60362 19.6703 6.54102 18.7069 6.54102 17.5938H4.54102ZM4.74693 20.7928C4.89684 21.7297 5.11993 22.5714 5.42703 23.3057L7.27219 22.5341C7.04023 21.9794 6.85316 21.2976 6.72182 20.4768L4.74693 20.7928ZM5.42959 23.3118C5.73553 24.0301 6.12304 24.6577 6.60639 25.1704L8.06157 23.7984C7.7715 23.4907 7.50275 23.0754 7.26963 22.5281L5.42959 23.3118ZM6.60639 25.1704C7.08958 25.6829 7.6564 26.0731 8.30226 26.3284L9.03758 24.4685C8.67563 24.3254 8.35183 24.1062 8.06157 23.7984L6.60639 25.1704ZM8.32818 26.3382C8.96679 26.5705 9.65258 26.6797 10.375 26.6797V24.6797C9.85523 24.6797 9.4043 24.6014 9.01167 24.4586L8.32818 26.3382ZM10.375 26.6797C11.3003 26.6797 12.1586 26.5023 12.921 26.1136L12.0126 24.3318C11.5797 24.5524 11.0435 24.6797 10.375 24.6797V26.6797ZM12.921 26.1136C13.702 25.7154 14.3296 25.1042 14.8115 24.3246L13.1103 23.273C12.7954 23.7825 12.4269 24.1206 12.0126 24.3318L12.921 26.1136ZM14.8089 24.3288C15.3019 23.5401 15.6413 22.5778 15.8564 21.4769L13.8936 21.0934C13.7102 22.0315 13.4403 22.745 13.1129 23.2688L14.8089 24.3288ZM15.8568 21.4748C16.0716 20.3633 16.1738 19.066 16.1738 17.5938H14.1738C14.1738 18.9809 14.0769 20.1445 13.8932 21.0955L15.8568 21.4748ZM39.168 2.40625H40.168V1.40625H39.168V2.40625ZM39.168 4.23438L40.0812 4.6417L40.168 4.44727V4.23438H39.168ZM28.5684 28V29H29.2173L29.4816 28.4073L28.5684 28ZM25.1406 28L24.2327 27.5809L23.5775 29H25.1406V28ZM35.7227 5.07812L36.6306 5.49727L37.2857 4.07812H35.7227V5.07812ZM21.8711 5.07812H20.8711V6.07812H21.8711V5.07812ZM21.8711 2.40625V1.40625H20.8711V2.40625H21.8711ZM38.168 2.40625V4.23438H40.168V2.40625H38.168ZM38.2547 3.82705L27.6551 27.5927L29.4816 28.4073L40.0812 4.6417L38.2547 3.82705ZM28.5684 27H25.1406V29H28.5684V27ZM26.0485 28.4191L36.6306 5.49727L34.8147 4.65898L24.2327 27.5809L26.0485 28.4191ZM35.7227 4.07812H21.8711V6.07812H35.7227V4.07812ZM22.8711 5.07812V2.40625H20.8711V5.07812H22.8711ZM21.8711 3.40625H39.168V1.40625H21.8711V3.40625Z" fill="white"/>
</svg>
