<svg width="41" height="18" viewBox="0 0 41 18" fill="none" xmlns="http://www.w3.org/2000/svg">
<path d="M13.7148 27.7715L14.0805 28.7023L14.0862 28.7L13.7148 27.7715ZM5.40039 26.8047L4.75752 27.5707L4.76489 27.5768L4.77237 27.5829L5.40039 26.8047ZM2.83398 7.89062L1.86919 7.6275L1.86722 7.63495L2.83398 7.89062ZM4.46875 4.48047L5.24131 5.11545L5.24551 5.11027L4.46875 4.48047ZM7 2.61719L6.64767 1.6813L6.644 1.6827L7 2.61719ZM13.082 2.42383L12.7984 3.38276L12.8064 3.38512L12.8144 3.38735L13.082 2.42383ZM15.332 3.56641L14.7056 4.34596L14.7142 4.35273L15.332 3.56641ZM17.002 5.64062L16.1173 6.10686L16.1211 6.11404L16.125 6.12116L17.002 5.64062ZM14.9629 9.5957L13.9735 9.74082L13.9746 9.7483L13.9758 9.75577L14.9629 9.5957ZM13.3984 5.83398L12.6913 6.54109L12.6966 6.54637L12.702 6.55157L13.3984 5.83398ZM12.0449 4.99023L11.6962 5.92746L11.7092 5.93228L11.7222 5.93674L12.0449 4.99023ZM8.2832 5.14844L8.709 6.05326L8.71621 6.04986L8.72336 6.04636L8.2832 5.14844ZM6.77148 6.50195L5.93695 5.95084L5.92979 5.962L6.77148 6.50195ZM5.73438 20.6348L4.74488 20.7799L4.74693 20.7928L5.73438 20.6348ZM6.34961 22.9199L5.42701 23.3057L5.42959 23.3118L6.34961 22.9199ZM8.66992 25.3984L8.30226 26.3284L8.31515 26.3335L8.32818 26.3382L8.66992 25.3984ZM13.9609 23.7988L13.1129 23.2688L13.1103 23.273L13.9609 23.7988ZM14.875 21.2852L15.8564 21.4769L15.8568 21.4748L14.875 21.2852ZM17.4434 13.1641V17.0664H19.4434V13.1641H17.4434ZM17.4434 17.0664C17.4434 19.1107 17.26 20.7899 16.9131 22.1232L18.8486 22.6268C19.2518 21.0773 19.4434 19.2174 19.4434 17.0664H17.4434ZM16.9131 22.1232C16.5626 23.4704 16.0746 24.491 15.4828 25.2308L17.0445 26.4802C17.859 25.4621 18.4491 24.1624 18.8486 22.6268L16.9131 22.1232ZM15.4828 25.2308C14.8821 25.9816 14.1711 26.5119 13.3435 26.843L14.0862 28.7C15.2508 28.2341 16.239 27.4871 17.0445 26.4802L15.4828 25.2308ZM13.3492 26.8407C12.4997 27.1745 11.5135 27.3516 10.375 27.3516V29.3516C11.7209 29.3516 12.9612 29.142 14.0805 28.7022L13.3492 26.8407ZM10.375 27.3516C9.47397 27.3516 8.66255 27.239 7.93402 27.0235L7.36676 28.9414C8.30229 29.2181 9.30728 29.3516 10.375 29.3516V27.3516ZM7.93402 27.0235C7.22611 26.8141 6.59339 26.4824 6.02841 26.0265L4.77237 27.5829C5.54333 28.2051 6.41061 28.6586 7.36676 28.9414L7.93402 27.0235ZM6.04326 26.0387C5.49958 25.5824 5.01345 24.9737 4.59524 24.1896L2.83054 25.1307C3.34983 26.1044 3.9887 26.9254 4.75752 27.5707L6.04326 26.0387ZM4.59524 24.1896C4.18403 23.4185 3.85405 22.4512 3.6219 21.2684L1.65935 21.6535C1.91939 22.9785 2.30425 24.144 2.83054 25.1307L4.59524 24.1896ZM3.6219 21.2684C3.39141 20.0939 3.27148 18.6963 3.27148 17.0664H1.27148C1.27148 18.7881 1.39765 20.3201 1.65935 21.6535L3.6219 21.2684ZM3.27148 17.0664V13.1641H1.27148V17.0664H3.27148ZM3.27148 13.1641C3.27148 11.119 3.45502 9.45358 3.80075 8.1463L1.86722 7.63495C1.46295 9.16361 1.27148 11.0138 1.27148 13.1641H3.27148ZM3.79875 8.15374C4.1599 6.82954 4.65197 5.83244 5.24129 5.11543L3.69621 3.8455C2.87928 4.83944 2.28151 6.11578 1.86922 7.62751L3.79875 8.15374ZM5.24551 5.11027C5.84456 4.37144 6.5462 3.86017 7.356 3.55167L6.644 1.6827C5.48505 2.12421 4.49919 2.85513 3.69199 3.85067L5.24551 5.11027ZM7.35233 3.55306C8.21969 3.22653 9.21122 3.05469 10.3398 3.05469V1.05469C9.00753 1.05469 7.7725 1.25785 6.64767 1.68131L7.35233 3.55306ZM10.3398 3.05469C11.2538 3.05469 12.0709 3.16758 12.7984 3.38276L13.3657 1.46489C12.4291 1.18788 11.4181 1.05469 10.3398 1.05469V3.05469ZM12.8144 3.38735C13.5327 3.58687 14.1595 3.90705 14.7056 4.34591L15.9584 2.7869C15.1921 2.17107 14.3189 1.72954 13.3497 1.46031L12.8144 3.38735ZM14.7142 4.35273C15.2424 4.76776 15.7144 5.34248 16.1173 6.10686L17.8866 5.17439C17.3754 4.2044 16.7341 3.39631 15.9499 2.78009L14.7142 4.35273ZM16.125 6.12116C16.5326 6.86499 16.8615 7.81125 17.0933 8.98145L19.0552 8.59277C18.7948 7.2786 18.4089 6.1272 17.8789 5.16009L16.125 6.12116ZM17.0933 8.98145C17.3234 10.1429 17.4434 11.534 17.4434 13.1641H19.4434C19.4434 11.4426 19.3172 9.91566 19.0552 8.59277L17.0933 8.98145ZM16.1738 17.5938V12.6191H14.1738V17.5938H16.1738ZM16.1738 12.6191C16.1738 11.4324 16.1013 10.369 15.95 9.43563L13.9758 9.75577C14.1057 10.5568 14.1738 11.509 14.1738 12.6191H16.1738ZM15.9523 9.45059C15.815 8.51432 15.6042 7.67971 15.3064 6.96233L13.4592 7.72908C13.6771 8.25389 13.853 8.91927 13.9735 9.74082L15.9523 9.45059ZM15.3064 6.96233C15.0072 6.24148 14.6093 5.61569 14.0949 5.1164L12.702 6.55157C12.9844 6.82572 13.2428 7.20774 13.4592 7.72908L15.3064 6.96233ZM14.1055 5.12688C13.6111 4.63245 13.0286 4.26906 12.3676 4.04372L11.7222 5.93674C12.0925 6.06297 12.4123 6.26208 12.6913 6.54109L14.1055 5.12688ZM12.3937 4.05301C11.7603 3.81736 11.0711 3.70898 10.3398 3.70898V5.70898C10.8742 5.70898 11.3217 5.78811 11.6962 5.92746L12.3937 4.05301ZM10.3398 3.70898C9.4385 3.70898 8.59827 3.88031 7.84305 4.25052L8.72336 6.04636C9.16345 5.83063 9.69432 5.70898 10.3398 5.70898V3.70898ZM7.85741 4.24362C7.07329 4.61261 6.43519 5.19652 5.93702 5.95089L7.60595 7.05301C7.92809 6.5652 8.2978 6.24676 8.709 6.05326L7.85741 4.24362ZM5.92979 5.962C5.44525 6.71731 5.10537 7.65715 4.87863 8.74045L6.83621 9.15018C7.03135 8.21785 7.30084 7.52878 7.61318 7.04191L5.92979 5.962ZM4.87863 8.74045C4.64925 9.83638 4.54102 11.1339 4.54102 12.6191H6.54102C6.54102 11.2215 6.64372 10.0699 6.83621 9.15018L4.87863 8.74045ZM4.54102 12.6191V17.5938H6.54102V12.6191H4.54102ZM4.54102 17.5938C4.54102 18.7775 4.60731 19.8414 4.74496 20.7799L6.72379 20.4897C6.60362 19.6703 6.54102 18.7069 6.54102 17.5938H4.54102ZM4.74693 20.7928C4.89684 21.7297 5.11993 22.5714 5.42703 23.3057L7.27219 22.5341C7.04023 21.9794 6.85316 21.2976 6.72182 20.4768L4.74693 20.7928ZM5.42959 23.3118C5.73553 24.0301 6.12304 24.6577 6.60639 25.1704L8.06157 23.7984C7.7715 23.4907 7.50275 23.0754 7.26963 22.5281L5.42959 23.3118ZM6.60639 25.1704C7.08958 25.6829 7.6564 26.0731 8.30226 26.3284L9.03758 24.4685C8.67563 24.3254 8.35183 24.1062 8.06157 23.7984L6.60639 25.1704ZM8.32818 26.3382C8.96679 26.5705 9.65258 26.6797 10.375 26.6797V24.6797C9.85523 24.6797 9.4043 24.6014 9.01167 24.4586L8.32818 26.3382ZM10.375 26.6797C11.3003 26.6797 12.1586 26.5023 12.921 26.1136L12.0126 24.3318C11.5797 24.5524 11.0435 24.6797 10.375 24.6797V26.6797ZM12.921 26.1136C13.702 25.7154 14.3296 25.1042 14.8115 24.3246L13.1103 23.273C12.7954 23.7825 12.4269 24.1206 12.0126 24.3318L12.921 26.1136ZM14.8089 24.3288C15.3019 23.5401 15.6413 22.5778 15.8564 21.4769L13.8936 21.0934C13.7102 22.0315 13.4403 22.745 13.1129 23.2688L14.8089 24.3288ZM15.8568 21.4748C16.0716 20.3633 16.1738 19.066 16.1738 17.5938H14.1738C14.1738 18.9809 14.0769 20.1445 13.8932 21.0955L15.8568 21.4748ZM35.3887 2.37109H36.3887V1.37109H35.3887V2.37109ZM35.3887 5.13086V6.13086H36.3887V5.13086H35.3887ZM30.7832 5.97461L31.2121 6.87801L31.2195 6.87442L30.7832 5.97461ZM28.0234 8.20703L28.8295 8.79885L28.833 8.794L28.0234 8.20703ZM26.5469 11.3359L25.5796 11.0819L25.5773 11.0911L26.5469 11.3359ZM26.5117 21.6543L25.5557 21.9475L25.5568 21.9511L26.5117 21.6543ZM29.2012 25.2051L28.7398 26.0923L28.747 26.096L29.2012 25.2051ZM33.0684 25.2402L33.5011 26.1418L33.5084 26.1383L33.5156 26.1347L33.0684 25.2402ZM34.5449 24.0273L33.7556 23.4134L33.7536 23.4159L34.5449 24.0273ZM35.5117 17.6113L34.5444 17.865L34.5455 17.869L35.5117 17.6113ZM34.6504 15.7129L33.8263 16.2794L33.832 16.2875L34.6504 15.7129ZM33.1914 14.3945L32.6953 15.2628L32.7057 15.2687L32.7163 15.2744L33.1914 14.3945ZM28.6035 14.5703L29.0925 15.4426L29.0969 15.4401L28.6035 14.5703ZM26.6875 16.293L25.8702 15.7168L25.8683 15.7195L26.6875 16.293ZM25.8438 18.5957L25.8335 19.5957L26.762 19.6051L26.8402 18.6799L25.8438 18.5957ZM24.1211 18.5781L23.1288 18.4541L22.9897 19.5666L24.1109 19.5781L24.1211 18.5781ZM25.0352 15.2207L24.1363 14.7825L24.134 14.7872L25.0352 15.2207ZM26.7227 12.9355L27.3821 13.6873L27.383 13.6865L26.7227 12.9355ZM28.9902 11.6348L29.2984 12.5861L29.3065 12.5834L28.9902 11.6348ZM37.252 13.8672L36.4478 14.4616L36.452 14.4672L37.252 13.8672ZM38.5703 16.5742L37.607 16.843L37.6109 16.8564L38.5703 16.5742ZM36.9707 25.8203L36.2098 25.1713L36.2043 25.1779L36.9707 25.8203ZM27.4434 27.5078L26.9569 28.3815L26.9645 28.3857L27.4434 27.5078ZM25.2637 6.97656L24.422 6.4365L24.4189 6.44151L25.2637 6.97656ZM35.1074 3.37109H35.3887V1.37109H35.1074V3.37109ZM34.3887 2.37109V5.13086H36.3887V2.37109H34.3887ZM35.3887 4.13086H35.1074V6.13086H35.3887V4.13086ZM35.1074 4.13086C33.2821 4.13086 31.6808 4.42807 30.3469 5.0748L31.2195 6.87442C32.2059 6.39615 33.4875 6.13086 35.1074 6.13086V4.13086ZM30.3543 5.07124C29.0596 5.68591 28.0023 6.53252 27.2138 7.62006L28.833 8.794C29.404 8.00655 30.1865 7.36487 31.2121 6.87798L30.3543 5.07124ZM27.2174 7.61523C26.4599 8.64694 25.9149 9.80553 25.5797 11.0819L27.5141 11.59C27.7882 10.546 28.2276 9.61869 28.8295 8.79884L27.2174 7.61523ZM25.5773 11.0911C25.2642 12.3312 25.1074 13.5912 25.1074 14.8691H27.1074C27.1074 13.7565 27.2437 12.661 27.5164 11.5808L25.5773 11.0911ZM25.1074 14.8691V18.6309H27.1074V14.8691H25.1074ZM25.1074 18.6309C25.1074 19.8445 25.2511 20.9542 25.5557 21.9475L27.4678 21.3611C27.2333 20.5966 27.1074 19.6907 27.1074 18.6309H25.1074ZM25.5568 21.9511C25.8555 22.9122 26.2754 23.7587 26.8323 24.4687L28.406 23.2344C28.0254 22.7491 27.707 22.1307 27.4667 21.3575L25.5568 21.9511ZM26.8323 24.4687C27.3759 25.1618 28.0097 25.7126 28.7398 26.0923L29.6625 24.3179C29.2207 24.0881 28.7999 23.7367 28.406 23.2344L26.8323 24.4687ZM28.747 26.096C29.4794 26.4694 30.2555 26.6621 31.0645 26.6621V24.6621C30.5843 24.6621 30.1183 24.5502 29.6554 24.3142L28.747 26.096ZM31.0645 26.6621C31.9412 26.6621 32.7608 26.4971 33.5011 26.1418L32.6356 24.3387C32.2041 24.5459 31.6877 24.6621 31.0645 24.6621V26.6621ZM33.5156 26.1347C34.2353 25.7748 34.8453 25.2741 35.3362 24.6388L33.7536 23.4159C33.4477 23.8119 33.0733 24.1197 32.6211 24.3458L33.5156 26.1347ZM35.3343 24.6413C35.8296 24.0044 36.1934 23.268 36.4357 22.4471L34.5174 21.881C34.3378 22.4898 34.0806 22.9956 33.7556 23.4134L35.3343 24.6413ZM36.4357 22.4471C36.6774 21.6279 36.793 20.746 36.793 19.8086H34.793C34.793 20.5821 34.6976 21.2705 34.5174 21.881L36.4357 22.4471ZM36.793 19.8086C36.793 18.964 36.6889 18.1447 36.478 17.3537L34.5455 17.869C34.7095 18.4842 34.793 19.1298 34.793 19.8086H36.793ZM36.479 17.3576C36.2643 16.5391 35.9302 15.7954 35.4688 15.1383L33.832 16.2875C34.144 16.7319 34.3841 17.2539 34.5444 17.865L36.479 17.3576ZM35.4744 15.1464C35.0002 14.4566 34.3956 13.9083 33.6666 13.5146L32.7163 15.2744C33.1591 15.5136 33.5271 15.8442 33.8263 16.2794L35.4744 15.1464ZM33.6875 13.5263C32.9341 13.0957 32.07 12.9023 31.1348 12.9023V14.9023C31.7932 14.9023 32.3003 15.0371 32.6953 15.2628L33.6875 13.5263ZM31.1348 12.9023C30.0594 12.9023 29.0457 13.1699 28.1102 13.7005L29.0969 15.4401C29.7316 15.0801 30.4054 14.9023 31.1348 14.9023V12.9023ZM28.1145 13.698C27.2128 14.2036 26.4613 14.8783 25.8702 15.7168L27.5048 16.8691C27.9215 16.278 28.4474 15.8043 29.0925 15.4426L28.1145 13.698ZM25.8683 15.7195C25.2778 16.563 24.9329 17.4985 24.8473 18.5115L26.8402 18.6799C26.8952 18.0288 27.1128 17.4292 27.5067 16.8664L25.8683 15.7195ZM25.854 17.5958L24.1313 17.5782L24.1109 19.5781L25.8335 19.5957L25.854 17.5958ZM25.1134 18.7022C25.2677 17.4678 25.5492 16.459 25.9363 15.6542L24.134 14.7872C23.6305 15.834 23.3026 17.0635 23.1288 18.4541L25.1134 18.7022ZM25.934 15.6589C26.3428 14.8203 26.8298 14.1718 27.3821 13.6873L26.0632 12.1838C25.2796 12.8712 24.6415 13.7461 24.1363 14.7825L25.934 15.6589ZM27.383 13.6865C27.9638 13.1758 28.6008 12.8121 29.2984 12.5861L28.6821 10.6834C27.7156 10.9965 26.8408 11.5 26.0623 12.1846L27.383 13.6865ZM29.3065 12.5834C30.0428 12.338 30.8262 12.2129 31.6621 12.2129V10.2129C30.623 10.2129 29.6251 10.369 28.674 10.6861L29.3065 12.5834ZM31.6621 12.2129C32.8146 12.2129 33.7512 12.4294 34.5062 12.8212L35.4274 11.046C34.3308 10.4769 33.0643 10.2129 31.6621 10.2129V12.2129ZM34.5062 12.8212C35.3018 13.2341 35.9442 13.7803 36.4478 14.4616L38.0561 13.2728C37.3644 12.3369 36.4834 11.594 35.4274 11.046L34.5062 12.8212ZM36.452 14.4672C36.9714 15.1598 37.3575 15.9487 37.6071 16.843L39.5335 16.3054C39.2206 15.1841 38.7278 14.1683 38.052 13.2672L36.452 14.4672ZM37.6109 16.8564C37.8765 17.7594 38.0098 18.6897 38.0098 19.6504H40.0098C40.0098 18.5017 39.85 17.3812 39.5297 16.2921L37.6109 16.8564ZM38.0098 19.6504C38.0098 20.7626 37.8534 21.7891 37.5482 22.7363L39.4518 23.3497C39.8263 22.1874 40.0098 20.9523 40.0098 19.6504H38.0098ZM37.5482 22.7363C37.2464 23.6728 36.799 24.4806 36.2099 25.1714L37.7315 26.4693C38.5017 25.5663 39.0739 24.5225 39.4518 23.3497L37.5482 22.7363ZM36.2043 25.1779C35.6366 25.8552 34.9332 26.3865 34.08 26.7725L34.9044 28.5947C36.02 28.09 36.9689 27.3791 37.7371 26.4627L36.2043 25.1779ZM34.08 26.7725C33.2488 27.1485 32.2516 27.3516 31.0645 27.3516V29.3516C32.4789 29.3516 33.7668 29.1093 34.9044 28.5947L34.08 26.7725ZM31.0645 27.3516C29.8193 27.3516 28.7825 27.0992 27.9222 26.6299L26.9645 28.3857C28.1667 29.0414 29.544 29.3516 31.0645 29.3516V27.3516ZM27.9298 26.6341C27.0262 26.1309 26.2827 25.4682 25.69 24.6405L24.0639 25.8048C24.8306 26.8755 25.798 27.7362 26.9569 28.3815L27.9298 26.6341ZM25.69 24.6405C25.0781 23.7859 24.6167 22.8336 24.3073 21.7775L22.388 22.3397C22.7583 23.6039 23.3165 24.761 24.0639 25.8048L25.69 24.6405ZM24.3073 21.7775C23.9939 20.7076 23.8379 19.6245 23.8379 18.5254H21.8379C21.8379 19.8169 22.0217 21.0893 22.388 22.3397L24.3073 21.7775ZM23.8379 18.5254V16.9961H21.8379V18.5254H23.8379ZM23.8379 16.9961C23.8379 15.259 24.0127 13.5582 24.3616 11.8925L22.4041 11.4825C22.0264 13.2855 21.8379 15.1238 21.8379 16.9961H23.8379ZM24.3616 11.8925C24.7019 10.2677 25.2859 8.81038 26.1085 7.51161L24.4189 6.44151C23.4602 7.95525 22.7903 9.63859 22.4041 11.4825L24.3616 11.8925ZM26.1053 7.51661C26.9066 6.26792 28.019 5.26342 29.4706 4.50561L28.545 2.73267C26.8091 3.63892 25.4255 4.87271 24.422 6.43651L26.1053 7.51661ZM29.4706 4.50561C30.8781 3.77083 32.7385 3.37109 35.1074 3.37109V1.37109C32.531 1.37109 30.3251 1.80339 28.545 2.73267L29.4706 4.50561Z" fill="white"/>
</svg>
