<svg width="41" height="15" viewBox="0 0 41 15" fill="none" xmlns="http://www.w3.org/2000/svg">
<path d="M13.7148 27.7715L14.0805 28.7023L14.0862 28.7L13.7148 27.7715ZM5.40039 26.8047L4.75752 27.5707L4.76489 27.5768L4.77237 27.5829L5.40039 26.8047ZM2.83398 7.89062L1.86919 7.6275L1.86722 7.63495L2.83398 7.89062ZM4.46875 4.48047L5.24131 5.11545L5.24551 5.11027L4.46875 4.48047ZM7 2.61719L6.64767 1.6813L6.644 1.6827L7 2.61719ZM13.082 2.42383L12.7984 3.38276L12.8064 3.38512L12.8144 3.38735L13.082 2.42383ZM15.332 3.56641L14.7056 4.34596L14.7142 4.35272L15.332 3.56641ZM17.002 5.64062L16.1173 6.10686L16.1211 6.11404L16.125 6.12116L17.002 5.64062ZM14.9629 9.5957L13.9735 9.74082L13.9746 9.7483L13.9758 9.75577L14.9629 9.5957ZM13.3984 5.83398L12.6913 6.54109L12.6966 6.54637L12.702 6.55157L13.3984 5.83398ZM12.0449 4.99023L11.6962 5.92746L11.7092 5.93228L11.7222 5.93674L12.0449 4.99023ZM8.2832 5.14844L8.709 6.05326L8.71621 6.04986L8.72336 6.04636L8.2832 5.14844ZM6.77148 6.50195L5.93695 5.95084L5.92979 5.962L6.77148 6.50195ZM5.73438 20.6348L4.74488 20.7799L4.74693 20.7928L5.73438 20.6348ZM6.34961 22.9199L5.42701 23.3057L5.42959 23.3118L6.34961 22.9199ZM8.66992 25.3984L8.30226 26.3284L8.31515 26.3335L8.32818 26.3382L8.66992 25.3984ZM13.9609 23.7988L13.1129 23.2688L13.1103 23.273L13.9609 23.7988ZM14.875 21.2852L15.8564 21.4769L15.8568 21.4748L14.875 21.2852ZM17.4434 13.1641V17.0664H19.4434V13.1641H17.4434ZM17.4434 17.0664C17.4434 19.1107 17.26 20.7899 16.9131 22.1232L18.8486 22.6268C19.2518 21.0773 19.4434 19.2174 19.4434 17.0664H17.4434ZM16.9131 22.1232C16.5626 23.4704 16.0746 24.491 15.4828 25.2308L17.0445 26.4802C17.859 25.4621 18.4491 24.1624 18.8486 22.6268L16.9131 22.1232ZM15.4828 25.2308C14.8821 25.9816 14.1711 26.5119 13.3435 26.843L14.0862 28.7C15.2508 28.2341 16.239 27.4871 17.0445 26.4802L15.4828 25.2308ZM13.3492 26.8407C12.4997 27.1745 11.5135 27.3516 10.375 27.3516V29.3516C11.7209 29.3516 12.9612 29.142 14.0805 28.7022L13.3492 26.8407ZM10.375 27.3516C9.47397 27.3516 8.66255 27.239 7.93402 27.0235L7.36676 28.9414C8.30229 29.2181 9.30728 29.3516 10.375 29.3516V27.3516ZM7.93402 27.0235C7.22611 26.8141 6.59339 26.4824 6.02841 26.0265L4.77237 27.5829C5.54333 28.2051 6.41061 28.6586 7.36676 28.9414L7.93402 27.0235ZM6.04326 26.0387C5.49958 25.5824 5.01345 24.9737 4.59524 24.1896L2.83054 25.1307C3.34983 26.1044 3.9887 26.9254 4.75752 27.5707L6.04326 26.0387ZM4.59524 24.1896C4.18403 23.4185 3.85405 22.4512 3.6219 21.2683L1.65935 21.6535C1.91939 22.9785 2.30425 24.144 2.83054 25.1307L4.59524 24.1896ZM3.6219 21.2683C3.39141 20.0939 3.27148 18.6963 3.27148 17.0664H1.27148C1.27148 18.7881 1.39765 20.3201 1.65935 21.6535L3.6219 21.2683ZM3.27148 17.0664V13.1641H1.27148V17.0664H3.27148ZM3.27148 13.1641C3.27148 11.119 3.45502 9.45358 3.80075 8.1463L1.86722 7.63495C1.46295 9.16361 1.27148 11.0138 1.27148 13.1641H3.27148ZM3.79875 8.15374C4.1599 6.82954 4.65197 5.83244 5.24129 5.11543L3.69621 3.8455C2.87928 4.83944 2.28151 6.11578 1.86922 7.62751L3.79875 8.15374ZM5.24551 5.11027C5.84456 4.37144 6.5462 3.86017 7.356 3.55168L6.644 1.6827C5.48505 2.12421 4.49919 2.85513 3.69199 3.85067L5.24551 5.11027ZM7.35233 3.55306C8.21969 3.22653 9.21122 3.05469 10.3398 3.05469V1.05469C9.00753 1.05469 7.7725 1.25785 6.64767 1.68131L7.35233 3.55306ZM10.3398 3.05469C11.2538 3.05469 12.0709 3.16758 12.7984 3.38276L13.3657 1.46489C12.4291 1.18788 11.4181 1.05469 10.3398 1.05469V3.05469ZM12.8144 3.38735C13.5327 3.58687 14.1595 3.90705 14.7056 4.34592L15.9584 2.7869C15.1921 2.17107 14.3189 1.72954 13.3497 1.46031L12.8144 3.38735ZM14.7142 4.35272C15.2424 4.76776 15.7144 5.34248 16.1173 6.10686L17.8866 5.17439C17.3754 4.2044 16.7341 3.39631 15.9499 2.78009L14.7142 4.35272ZM16.125 6.12116C16.5326 6.86499 16.8615 7.81125 17.0933 8.98145L19.0552 8.59277C18.7948 7.2786 18.4089 6.1272 17.8789 5.16009L16.125 6.12116ZM17.0933 8.98145C17.3234 10.1429 17.4434 11.534 17.4434 13.1641H19.4434C19.4434 11.4426 19.3172 9.91565 19.0552 8.59277L17.0933 8.98145ZM16.1738 17.5938V12.6191H14.1738V17.5938H16.1738ZM16.1738 12.6191C16.1738 11.4324 16.1013 10.369 15.95 9.43563L13.9758 9.75577C14.1057 10.5568 14.1738 11.509 14.1738 12.6191H16.1738ZM15.9523 9.45059C15.815 8.51432 15.6042 7.67971 15.3064 6.96233L13.4592 7.72908C13.6771 8.25389 13.853 8.91927 13.9735 9.74082L15.9523 9.45059ZM15.3064 6.96233C15.0072 6.24148 14.6093 5.61569 14.0949 5.1164L12.702 6.55157C12.9844 6.82572 13.2428 7.20774 13.4592 7.72908L15.3064 6.96233ZM14.1055 5.12688C13.6111 4.63245 13.0286 4.26906 12.3676 4.04372L11.7222 5.93674C12.0925 6.06297 12.4123 6.26208 12.6913 6.54109L14.1055 5.12688ZM12.3937 4.05301C11.7603 3.81736 11.0711 3.70898 10.3398 3.70898V5.70898C10.8742 5.70898 11.3217 5.78811 11.6962 5.92746L12.3937 4.05301ZM10.3398 3.70898C9.4385 3.70898 8.59827 3.88031 7.84305 4.25052L8.72336 6.04636C9.16345 5.83063 9.69432 5.70898 10.3398 5.70898V3.70898ZM7.85741 4.24362C7.07329 4.61261 6.43519 5.19652 5.93702 5.95089L7.60595 7.05301C7.92809 6.5652 8.2978 6.24676 8.709 6.05326L7.85741 4.24362ZM5.92979 5.962C5.44525 6.71731 5.10537 7.65715 4.87863 8.74045L6.83621 9.15018C7.03135 8.21785 7.30084 7.52878 7.61318 7.04191L5.92979 5.962ZM4.87863 8.74045C4.64925 9.83638 4.54102 11.1339 4.54102 12.6191H6.54102C6.54102 11.2215 6.64372 10.0699 6.83621 9.15018L4.87863 8.74045ZM4.54102 12.6191V17.5938H6.54102V12.6191H4.54102ZM4.54102 17.5938C4.54102 18.7775 4.60731 19.8414 4.74496 20.7799L6.72379 20.4897C6.60362 19.6703 6.54102 18.7069 6.54102 17.5938H4.54102ZM4.74693 20.7928C4.89684 21.7297 5.11993 22.5714 5.42703 23.3057L7.27219 22.5341C7.04022 21.9794 6.85316 21.2976 6.72182 20.4768L4.74693 20.7928ZM5.42959 23.3118C5.73553 24.0301 6.12304 24.6577 6.60639 25.1704L8.06157 23.7984C7.7715 23.4907 7.50275 23.0754 7.26963 22.5281L5.42959 23.3118ZM6.60639 25.1704C7.08958 25.6829 7.6564 26.0731 8.30226 26.3284L9.03758 24.4685C8.67563 24.3254 8.35183 24.1062 8.06157 23.7984L6.60639 25.1704ZM8.32818 26.3382C8.96679 26.5705 9.65258 26.6797 10.375 26.6797V24.6797C9.85523 24.6797 9.4043 24.6014 9.01166 24.4586L8.32818 26.3382ZM10.375 26.6797C11.3003 26.6797 12.1586 26.5023 12.921 26.1136L12.0126 24.3318C11.5797 24.5524 11.0435 24.6797 10.375 24.6797V26.6797ZM12.921 26.1136C13.702 25.7154 14.3296 25.1042 14.8115 24.3247L13.1103 23.273C12.7954 23.7825 12.4269 24.1206 12.0126 24.3318L12.921 26.1136ZM14.8089 24.3288C15.3019 23.5401 15.6413 22.5778 15.8564 21.4769L13.8936 21.0934C13.7102 22.0315 13.4403 22.745 13.1129 23.2688L14.8089 24.3288ZM15.8568 21.4748C16.0716 20.3633 16.1738 19.066 16.1738 17.5938H14.1738C14.1738 18.9809 14.0769 20.1445 13.8932 21.0955L15.8568 21.4748ZM26.7402 15.8184L26.4915 16.7869L26.9968 16.9167L27.3923 16.5765L26.7402 15.8184ZM24.1387 15.1504L23.1437 15.0502L23.0576 15.9053L23.89 16.119L24.1387 15.1504ZM25.4219 2.40625V1.40625H24.5175L24.4269 2.30607L25.4219 2.40625ZM38.5527 2.40625H39.5527V1.40625H38.5527V2.40625ZM38.5527 5.41211V6.41211H39.5527V5.41211H38.5527ZM28.1816 5.41211V4.41211H27.2866L27.1878 5.30168L28.1816 5.41211ZM27.4082 12.373L26.4143 12.2626L26.1965 14.2233L27.9067 13.24L27.4082 12.373ZM29.1836 11.6172L28.8766 10.6655L28.872 10.667L29.1836 11.6172ZM34.8613 11.8809L34.4605 12.7971L34.4702 12.8012L34.8613 11.8809ZM37.252 13.6035L36.4993 14.262L36.5052 14.2686L37.252 13.6035ZM38.7988 23.2363L37.849 22.9233L37.8459 22.9331L38.7988 23.2363ZM37.3047 25.9434L38.0566 26.6027L38.0615 26.597L37.3047 25.9434ZM34.7734 27.7188L34.3911 26.7947L34.3873 26.7963L34.7734 27.7188ZM28.2695 27.9297L27.9643 28.882L27.9716 28.8843L27.9789 28.8865L28.2695 27.9297ZM25.8086 26.6113L25.1672 27.3785L25.174 27.3842L25.1808 27.3897L25.8086 26.6113ZM24.0508 24.3965L23.1564 24.8437L23.1599 24.8508L23.1636 24.8578L24.0508 24.3965ZM23.207 21.2676V20.2676H22.1042L22.2118 21.3651L23.207 21.2676ZM26.3008 21.2676L27.2902 21.1228L27.1651 20.2676H26.3008V21.2676ZM28.7969 25.1875L28.3497 26.0819L28.3588 26.0865L28.3681 26.0909L28.7969 25.1875ZM35.7051 22.2871L34.7503 21.9897L34.7481 21.9969L34.746 22.0041L35.7051 22.2871ZM34.7031 15.8184L33.9377 16.462L33.9463 16.472L34.7031 15.8184ZM33.1035 14.623L32.6834 15.5305L32.6904 15.5337L32.6974 15.5369L33.1035 14.623ZM28.4453 14.623L27.9834 13.7361L27.9757 13.7402L28.4453 14.623ZM26.9889 14.8498L24.3874 14.1818L23.89 16.119L26.4915 16.7869L26.9889 14.8498ZM25.1336 15.2506L26.4168 2.50643L24.4269 2.30607L23.1437 15.0502L25.1336 15.2506ZM25.4219 3.40625H38.5527V1.40625H25.4219V3.40625ZM37.5527 2.40625V5.41211H39.5527V2.40625H37.5527ZM38.5527 4.41211H28.1816V6.41211H38.5527V4.41211ZM27.1878 5.30168L26.4143 12.2626L28.4021 12.4835L29.1755 5.52254L27.1878 5.30168ZM27.9067 13.24C28.2982 13.0148 28.8221 12.7881 29.4951 12.5674L28.872 10.667C28.1154 10.915 27.4557 11.1922 26.9097 11.5061L27.9067 13.24ZM29.4906 12.5689C30.0983 12.3728 30.8236 12.2656 31.6797 12.2656V10.2656C30.6608 10.2656 29.722 10.3928 28.8766 10.6655L29.4906 12.5689ZM31.6797 12.2656C32.7468 12.2656 33.6677 12.4502 34.4605 12.797L35.2621 10.9647C34.18 10.4913 32.9798 10.2656 31.6797 10.2656V12.2656ZM34.4702 12.8012C35.2722 13.142 35.9446 13.628 36.4994 14.262L38.0045 12.945C37.2468 12.0791 36.3255 11.4165 35.2525 10.9605L34.4702 12.8012ZM36.5052 14.2686C37.0737 14.9069 37.5193 15.687 37.8326 16.6268L39.7299 15.9943C39.3401 14.8247 38.7662 13.8002 37.9987 12.9384L36.5052 14.2686ZM37.8326 16.6268C38.1449 17.5638 38.3086 18.6326 38.3086 19.8438H40.3086C40.3086 18.4533 40.1207 17.1666 39.7299 15.9943L37.8326 16.6268ZM38.3086 19.8438C38.3086 20.9818 38.1515 22.0055 37.8491 22.9233L39.7486 23.5493C40.1258 22.4046 40.3086 21.1666 40.3086 19.8438H38.3086ZM37.8459 22.9331C37.5563 23.8432 37.1223 24.6246 36.5479 25.2897L38.0615 26.597C38.823 25.7152 39.3851 24.6919 39.7518 23.5395L37.8459 22.9331ZM36.5528 25.284C35.9949 25.9203 35.2816 26.4262 34.3911 26.7947L35.1558 28.6428C36.3043 28.1675 37.2786 27.4899 38.0565 26.6027L36.5528 25.284ZM34.3873 26.7963C33.5287 27.1557 32.4762 27.3516 31.2051 27.3516V29.3516C32.6761 29.3516 34.0026 29.1255 35.1596 28.6412L34.3873 26.7963ZM31.2051 27.3516C30.2658 27.3516 29.3857 27.2237 28.5602 26.9729L27.9789 28.8865C29.0049 29.1982 30.0818 29.3516 31.2051 29.3516V27.3516ZM28.5747 26.9774C27.7746 26.7209 27.0643 26.3393 26.4363 25.8329L25.1808 27.3897C26.006 28.0552 26.9363 28.5525 27.9643 28.882L28.5747 26.9774ZM26.45 25.8441C25.8428 25.3365 25.338 24.7044 24.938 23.9351L23.1636 24.8578C23.6776 25.8464 24.3447 26.6909 25.1672 27.3785L26.45 25.8441ZM24.9452 23.9493C24.5646 23.188 24.3099 22.268 24.2023 21.17L22.2118 21.3651C22.3385 22.6578 22.6463 23.8237 23.1564 24.8437L24.9452 23.9493ZM23.207 22.2676H26.3008V20.2676H23.207V22.2676ZM25.3113 21.4124C25.4677 22.4808 25.7879 23.4324 26.3034 24.2341L27.9857 23.1526C27.6574 22.6418 27.4151 21.9762 27.2902 21.1228L25.3113 21.4124ZM26.3034 24.2341C26.8197 25.0373 27.5048 25.6595 28.3497 26.0819L29.2441 24.2931C28.7295 24.0358 28.3131 23.6619 27.9857 23.1526L26.3034 24.2341ZM28.3681 26.0909C29.2171 26.4938 30.1712 26.6797 31.2051 26.6797V24.6797C30.4109 24.6797 29.7595 24.5374 29.2256 24.2841L28.3681 26.0909ZM31.2051 26.6797C32.0951 26.6797 32.9248 26.5243 33.6728 26.187L32.8506 24.3638C32.4033 24.5655 31.8619 24.6797 31.2051 24.6797V26.6797ZM33.6728 26.187C34.4108 25.8542 35.0399 25.372 35.549 24.7465L33.9979 23.484C33.6867 23.8663 33.308 24.1575 32.8506 24.3638L33.6728 26.187ZM35.549 24.7465C36.0542 24.1258 36.4212 23.3935 36.6642 22.5701L34.746 22.0041C34.5671 22.6104 34.313 23.0968 33.9979 23.484L35.549 24.7465ZM36.6598 22.5845C36.9175 21.7571 37.0391 20.8518 37.0391 19.8789H35.0391C35.0391 20.6872 34.9379 21.3874 34.7503 21.9897L36.6598 22.5845ZM37.0391 19.8789C37.0391 18.9779 36.9149 18.1233 36.6569 17.3224L34.7532 17.9354C34.9406 18.5173 35.0391 19.1627 35.0391 19.8789H37.0391ZM36.6569 17.3224C36.3959 16.5119 35.9986 15.7884 35.4599 15.1647L33.9463 16.472C34.2983 16.8796 34.5689 17.3631 34.7532 17.9354L36.6569 17.3224ZM35.4685 15.1748C34.9344 14.5397 34.2772 14.0504 33.5097 13.7092L32.6974 15.5369C33.1955 15.7582 33.6046 16.0658 33.9378 16.462L35.4685 15.1748ZM33.5236 13.7156C32.7379 13.3518 31.8639 13.1836 30.9238 13.1836V15.1836C31.6244 15.1836 32.2035 15.3083 32.6834 15.5305L33.5236 13.7156ZM30.9238 13.1836C29.7735 13.1836 28.7567 13.3333 27.9834 13.7361L28.9072 15.51C29.2589 15.3268 29.8945 15.1836 30.9238 15.1836V13.1836ZM27.9757 13.7402C27.3464 14.0749 26.7174 14.519 26.0882 15.0602L27.3923 16.5765C27.9349 16.1099 28.4427 15.7571 28.9149 15.5059L27.9757 13.7402Z" fill="white"/>
</svg>
