<svg width="40" height="17" viewBox="0 0 40 17" fill="none" xmlns="http://www.w3.org/2000/svg">
<path d="M13.7148 26.7715L14.0805 27.7023L14.0862 27.7L13.7148 26.7715ZM5.40039 25.8047L4.75752 26.5707L4.76489 26.5768L4.77237 26.5829L5.40039 25.8047ZM2.83398 6.89062L1.86919 6.6275L1.86722 6.63495L2.83398 6.89062ZM4.46875 3.48047L5.24131 4.11545L5.24551 4.11027L4.46875 3.48047ZM7 1.61719L6.64767 0.681304L6.644 0.6827L7 1.61719ZM13.082 1.42383L12.7984 2.38276L12.8064 2.38512L12.8144 2.38735L13.082 1.42383ZM15.332 2.56641L14.7056 3.34596L14.7142 3.35272L15.332 2.56641ZM17.002 4.64062L16.1173 5.10686L16.1211 5.11404L16.125 5.12116L17.002 4.64062ZM14.9629 8.5957L13.9735 8.74082L13.9746 8.7483L13.9758 8.75577L14.9629 8.5957ZM13.3984 4.83398L12.6913 5.54109L12.6966 5.54637L12.702 5.55157L13.3984 4.83398ZM12.0449 3.99023L11.6962 4.92746L11.7092 4.93228L11.7222 4.93674L12.0449 3.99023ZM8.2832 4.14844L8.709 5.05326L8.71621 5.04986L8.72336 5.04636L8.2832 4.14844ZM6.77148 5.50195L5.93695 4.95084L5.92979 4.962L6.77148 5.50195ZM5.73438 19.6348L4.74488 19.7799L4.74693 19.7928L5.73438 19.6348ZM6.34961 21.9199L5.42701 22.3057L5.42959 22.3118L6.34961 21.9199ZM8.66992 24.3984L8.30226 25.3284L8.31515 25.3335L8.32818 25.3382L8.66992 24.3984ZM13.9609 22.7988L13.1129 22.2688L13.1103 22.273L13.9609 22.7988ZM14.875 20.2852L15.8564 20.4769L15.8568 20.4748L14.875 20.2852ZM17.4434 12.1641V16.0664H19.4434V12.1641H17.4434ZM17.4434 16.0664C17.4434 18.1107 17.26 19.7899 16.9131 21.1232L18.8486 21.6268C19.2518 20.0773 19.4434 18.2174 19.4434 16.0664H17.4434ZM16.9131 21.1232C16.5626 22.4704 16.0746 23.491 15.4828 24.2308L17.0445 25.4802C17.859 24.4621 18.4491 23.1624 18.8486 21.6268L16.9131 21.1232ZM15.4828 24.2308C14.8821 24.9816 14.1711 25.5119 13.3435 25.843L14.0862 27.7C15.2508 27.2341 16.239 26.4871 17.0445 25.4802L15.4828 24.2308ZM13.3492 25.8407C12.4997 26.1745 11.5135 26.3516 10.375 26.3516V28.3516C11.7209 28.3516 12.9612 28.142 14.0805 27.7022L13.3492 25.8407ZM10.375 26.3516C9.47397 26.3516 8.66255 26.239 7.93402 26.0235L7.36676 27.9414C8.30229 28.2181 9.30728 28.3516 10.375 28.3516V26.3516ZM7.93402 26.0235C7.22611 25.8141 6.59339 25.4824 6.02841 25.0265L4.77237 26.5829C5.54333 27.2051 6.41061 27.6586 7.36676 27.9414L7.93402 26.0235ZM6.04326 25.0387C5.49958 24.5824 5.01345 23.9737 4.59524 23.1896L2.83054 24.1307C3.34983 25.1044 3.9887 25.9254 4.75752 26.5707L6.04326 25.0387ZM4.59524 23.1896C4.18403 22.4185 3.85405 21.4512 3.6219 20.2683L1.65935 20.6535C1.91939 21.9785 2.30425 23.144 2.83054 24.1307L4.59524 23.1896ZM3.6219 20.2683C3.39141 19.0939 3.27148 17.6963 3.27148 16.0664H1.27148C1.27148 17.7881 1.39765 19.3201 1.65935 20.6535L3.6219 20.2683ZM3.27148 16.0664V12.1641H1.27148V16.0664H3.27148ZM3.27148 12.1641C3.27148 10.119 3.45502 8.45358 3.80075 7.1463L1.86722 6.63495C1.46295 8.16361 1.27148 10.0138 1.27148 12.1641H3.27148ZM3.79875 7.15374C4.1599 5.82954 4.65197 4.83244 5.24129 4.11543L3.69621 2.8455C2.87928 3.83944 2.28151 5.11578 1.86922 6.62751L3.79875 7.15374ZM5.24551 4.11027C5.84456 3.37144 6.5462 2.86017 7.356 2.55168L6.644 0.6827C5.48505 1.12421 4.49919 1.85513 3.69199 2.85067L5.24551 4.11027ZM7.35233 2.55306C8.21969 2.22653 9.21122 2.05469 10.3398 2.05469V0.0546875C9.00753 0.0546875 7.7725 0.257848 6.64767 0.681312L7.35233 2.55306ZM10.3398 2.05469C11.2538 2.05469 12.0709 2.16758 12.7984 2.38276L13.3657 0.464894C12.4291 0.187884 11.4181 0.0546875 10.3398 0.0546875V2.05469ZM12.8144 2.38735C13.5327 2.58687 14.1595 2.90705 14.7056 3.34592L15.9584 1.7869C15.1921 1.17107 14.3189 0.729537 13.3497 0.46031L12.8144 2.38735ZM14.7142 3.35272C15.2424 3.76776 15.7144 4.34248 16.1173 5.10686L17.8866 4.17439C17.3754 3.2044 16.7341 2.39631 15.9499 1.78009L14.7142 3.35272ZM16.125 5.12116C16.5326 5.86499 16.8615 6.81125 17.0933 7.98145L19.0552 7.59277C18.7948 6.2786 18.4089 5.1272 17.8789 4.16009L16.125 5.12116ZM17.0933 7.98145C17.3234 9.14294 17.4434 10.534 17.4434 12.1641H19.4434C19.4434 10.4426 19.3172 8.91565 19.0552 7.59277L17.0933 7.98145ZM16.1738 16.5938V11.6191H14.1738V16.5938H16.1738ZM16.1738 11.6191C16.1738 10.4324 16.1013 9.36896 15.95 8.43563L13.9758 8.75577C14.1057 9.55682 14.1738 10.509 14.1738 11.6191H16.1738ZM15.9523 8.45059C15.815 7.51432 15.6042 6.67971 15.3064 5.96233L13.4592 6.72908C13.6771 7.25389 13.853 7.91927 13.9735 8.74082L15.9523 8.45059ZM15.3064 5.96233C15.0072 5.24148 14.6093 4.61569 14.0949 4.1164L12.702 5.55157C12.9844 5.82572 13.2428 6.20774 13.4592 6.72908L15.3064 5.96233ZM14.1055 4.12688C13.6111 3.63245 13.0286 3.26906 12.3676 3.04372L11.7222 4.93674C12.0925 5.06297 12.4123 5.26208 12.6913 5.54109L14.1055 4.12688ZM12.3937 3.05301C11.7603 2.81736 11.0711 2.70898 10.3398 2.70898V4.70898C10.8742 4.70898 11.3217 4.78811 11.6962 4.92746L12.3937 3.05301ZM10.3398 2.70898C9.4385 2.70898 8.59827 2.88031 7.84305 3.25052L8.72336 5.04636C9.16345 4.83063 9.69432 4.70898 10.3398 4.70898V2.70898ZM7.85741 3.24362C7.07329 3.61261 6.43519 4.19652 5.93702 4.95089L7.60595 6.05301C7.92809 5.5652 8.2978 5.24676 8.709 5.05326L7.85741 3.24362ZM5.92979 4.962C5.44525 5.71731 5.10537 6.65715 4.87863 7.74045L6.83621 8.15018C7.03135 7.21785 7.30084 6.52878 7.61318 6.04191L5.92979 4.962ZM4.87863 7.74045C4.64925 8.83638 4.54102 10.1339 4.54102 11.6191H6.54102C6.54102 10.2215 6.64372 9.06987 6.83621 8.15018L4.87863 7.74045ZM4.54102 11.6191V16.5938H6.54102V11.6191H4.54102ZM4.54102 16.5938C4.54102 17.7775 4.60731 18.8414 4.74496 19.7799L6.72379 19.4897C6.60362 18.6703 6.54102 17.7069 6.54102 16.5938H4.54102ZM4.74693 19.7928C4.89684 20.7297 5.11993 21.5714 5.42703 22.3057L7.27219 21.5341C7.04022 20.9794 6.85316 20.2976 6.72182 19.4768L4.74693 19.7928ZM5.42959 22.3118C5.73553 23.0301 6.12304 23.6577 6.60639 24.1704L8.06157 22.7984C7.7715 22.4907 7.50275 22.0754 7.26963 21.5281L5.42959 22.3118ZM6.60639 24.1704C7.08958 24.6829 7.6564 25.0731 8.30226 25.3284L9.03758 23.4685C8.67563 23.3254 8.35183 23.1062 8.06157 22.7984L6.60639 24.1704ZM8.32818 25.3382C8.96679 25.5705 9.65258 25.6797 10.375 25.6797V23.6797C9.85523 23.6797 9.4043 23.6014 9.01166 23.4586L8.32818 25.3382ZM10.375 25.6797C11.3003 25.6797 12.1586 25.5023 12.921 25.1136L12.0126 23.3318C11.5797 23.5524 11.0435 23.6797 10.375 23.6797V25.6797ZM12.921 25.1136C13.702 24.7154 14.3296 24.1042 14.8115 23.3247L13.1103 22.273C12.7954 22.7825 12.4269 23.1206 12.0126 23.3318L12.921 25.1136ZM14.8089 23.3288C15.3019 22.5401 15.6413 21.5778 15.8564 20.4769L13.8936 20.0934C13.7102 21.0315 13.4403 21.745 13.1129 22.2688L14.8089 23.3288ZM15.8568 20.4748C16.0716 19.3633 16.1738 18.066 16.1738 16.5938H14.1738C14.1738 17.9809 14.0769 19.1445 13.8932 20.0955L15.8568 20.4748ZM27.373 12.6035V11.6035H26.373V12.6035H27.373ZM32.5059 12.041L32.9587 12.9326L32.9641 12.9298L32.5059 12.041ZM34.1758 10.4766L33.3038 9.98702L33.3009 9.99225L34.1758 10.4766ZM27.8477 4.27148L28.3009 5.16289L28.3067 5.15991L27.8477 4.27148ZM26.2129 5.7832L25.358 5.26418L25.3514 5.27551L26.2129 5.7832ZM25.6328 8.10352V9.10352H26.6328V8.10352H25.6328ZM22.3809 8.10352H21.3809V9.10352H22.3809V8.10352ZM26.125 2.00391L25.6571 1.12011L25.6535 1.12204L26.125 2.00391ZM34.334 1.88086L33.9051 2.78426L33.9126 2.78774L34.334 1.88086ZM37.041 4.30664L36.1827 4.81977L36.1852 4.8239L37.041 4.30664ZM37.5508 10.3711L36.6264 9.98959L36.6233 9.99713L37.5508 10.3711ZM36.1621 12.4102L35.455 11.703L35.4484 11.7097L36.1621 12.4102ZM33.7363 13.9746L34.1077 14.9031L34.1171 14.8993L33.7363 13.9746ZM27.373 14.5723H26.373V15.5723H27.373V14.5723ZM27.373 15.2754H26.373V16.2754H27.373V15.2754ZM27.373 13.3242V12.3242H26.373V13.3242H27.373ZM36.707 15.4512L35.9804 16.1382L35.987 16.1451L36.707 15.4512ZM38.0078 17.5781L37.0549 17.8813L37.0577 17.8901L37.0606 17.8987L38.0078 17.5781ZM37.7793 23.0449L36.865 22.6398L36.8608 22.6496L37.7793 23.0449ZM36.0742 25.4004L35.4165 24.647L35.4106 24.6523L36.0742 25.4004ZM27.1445 26.877L26.8352 27.8279L26.8385 27.829L27.1445 26.877ZM24.5605 25.5059L23.9299 26.282L23.9373 26.2879L24.5605 25.5059ZM22.8027 23.2734L21.899 23.7015L21.9012 23.7062L22.8027 23.2734ZM22.1699 20.2324V19.2324H21.1699V20.2324H22.1699ZM25.4219 20.2324H26.4219V19.2324H25.4219V20.2324ZM26.002 22.5703L25.1365 23.0714L25.1431 23.0826L26.002 22.5703ZM27.6895 24.1348L27.2308 25.0234L27.2393 25.0278L27.2479 25.032L27.6895 24.1348ZM32.8574 24.1699L33.2868 25.0731L33.293 25.0701L32.8574 24.1699ZM34.5273 22.5879L33.6573 22.0948L33.6511 22.106L34.5273 22.5879ZM34.457 17.3145L33.6163 17.8559L33.6206 17.8625L34.457 17.3145ZM32.5586 15.7852L32.1711 16.707L32.1791 16.7104L32.1872 16.7136L32.5586 15.7852ZM27.373 13.6035H29.6934V11.6035H27.373V13.6035ZM29.6934 13.6035C30.9319 13.6035 32.0378 13.4004 32.9587 12.9326L32.053 11.1494C31.4974 11.4317 30.7283 11.6035 29.6934 11.6035V13.6035ZM32.9641 12.9298C33.8672 12.4642 34.5799 11.8113 35.0507 10.9609L33.3009 9.99225C33.0451 10.4543 32.6445 10.8444 32.0476 11.1522L32.9641 12.9298ZM35.0478 10.9661C35.5138 10.1359 35.7383 9.21486 35.7383 8.22656H33.7383C33.7383 8.90233 33.5877 9.48127 33.3038 9.98703L35.0478 10.9661ZM35.7383 8.22656C35.7383 7.13656 35.5573 6.14921 35.1436 5.30714L33.3485 6.18895C33.5911 6.68282 33.7383 7.34782 33.7383 8.22656H35.7383ZM35.1436 5.30714C34.7219 4.44862 34.077 3.7873 33.2294 3.34833L32.3097 5.12432C32.7745 5.36505 33.114 5.71154 33.3485 6.18895L35.1436 5.30714ZM33.2294 3.34833C32.3889 2.91308 31.3859 2.72656 30.2734 2.72656V4.72656C31.1766 4.72656 31.8377 4.87989 32.3097 5.12432L33.2294 3.34833ZM30.2734 2.72656C29.2245 2.72656 28.2542 2.93585 27.3886 3.38306L28.3067 5.15991C28.8474 4.88056 29.4943 4.72656 30.2734 4.72656V2.72656ZM27.3944 3.3801C26.5389 3.81509 25.8542 4.44717 25.3581 5.26422L27.0677 6.30218C27.3685 5.80674 27.7736 5.431 28.3009 5.16287L27.3944 3.3801ZM25.3514 5.27551C24.8596 6.10993 24.6328 7.06488 24.6328 8.10352H26.6328C26.6328 7.3609 26.7927 6.76897 27.0744 6.2909L25.3514 5.27551ZM25.6328 7.10352H22.3809V9.10352H25.6328V7.10352ZM23.3809 8.10352C23.3809 6.98025 23.6615 5.97933 24.2169 5.07683L22.5136 4.02864C21.7565 5.25895 21.3809 6.62522 21.3809 8.10352H23.3809ZM24.2169 5.07683C24.7737 4.17208 25.5574 3.44131 26.5965 2.88578L25.6535 1.12204C24.3254 1.83213 23.2693 2.80058 22.5136 4.02864L24.2169 5.07683ZM26.5929 2.88769C27.6224 2.34265 28.8399 2.05469 30.2734 2.05469V0.0546875C28.5664 0.0546875 27.0182 0.399537 25.6571 1.12012L26.5929 2.88769ZM30.2734 2.05469C31.7018 2.05469 32.9036 2.30875 33.9051 2.78423L34.7629 0.977493C33.4441 0.351406 31.9388 0.0546875 30.2734 0.0546875V2.05469ZM33.9126 2.78774C34.8945 3.24398 35.6431 3.91708 36.1827 4.81976L37.8993 3.79352C37.1499 2.53995 36.0938 1.59586 34.7554 0.973975L33.9126 2.78774ZM36.1852 4.8239C36.7125 5.69633 37.0078 6.83537 37.0078 8.29688H39.0078C39.0078 6.57088 38.6586 5.04977 37.8968 3.78938L36.1852 4.8239ZM37.0078 8.29688C37.0078 8.78328 36.8927 9.34429 36.6264 9.98961L38.4752 10.7526C38.8182 9.92133 39.0078 9.09953 39.0078 8.29688H37.0078ZM36.6233 9.99713C36.3873 10.5824 36.0062 11.1519 35.455 11.703L36.8692 13.1173C37.5837 12.4028 38.1283 11.6129 38.4782 10.7451L36.6233 9.99713ZM35.4484 11.7097C34.94 12.2277 34.2529 12.6804 33.3556 13.0499L34.1171 14.8993C35.2119 14.4485 36.142 13.8583 36.8758 13.1106L35.4484 11.7097ZM33.3649 13.0461C32.5165 13.3855 31.454 13.5723 30.1504 13.5723V15.5723C31.6358 15.5723 32.9639 15.3606 34.1077 14.9031L33.3649 13.0461ZM30.1504 13.5723H27.373V15.5723H30.1504V13.5723ZM28.373 14.5723V12.6035H26.373V14.5723H28.373ZM28.373 15.2754V13.3242H26.373V15.2754H28.373ZM27.373 14.3242H30.1504V12.3242H27.373V14.3242ZM30.1504 14.3242C31.7094 14.3242 32.9318 14.5105 33.8524 14.8444L34.5343 12.9642C33.3221 12.5246 31.8492 12.3242 30.1504 12.3242V14.3242ZM33.8524 14.8444C34.8119 15.1923 35.5037 15.634 35.9804 16.1382L37.4337 14.7642C36.6916 13.9792 35.7076 13.3897 34.5343 12.9642L33.8524 14.8444ZM35.987 16.1451C36.5126 16.6905 36.86 17.2688 37.0549 17.8813L38.9607 17.2749C38.6634 16.3406 38.1437 15.5009 37.4271 14.7573L35.987 16.1451ZM37.0606 17.8987C37.2854 18.563 37.3945 19.2165 37.3945 19.8633H39.3945C39.3945 18.9866 39.2458 18.1167 38.955 17.2575L37.0606 17.8987ZM37.3945 19.8633C37.3945 20.9439 37.2094 21.8626 36.865 22.6399L38.6936 23.45C39.1695 22.3757 39.3945 21.1733 39.3945 19.8633H37.3945ZM36.8608 22.6496C36.5197 23.4421 36.039 24.1037 35.4166 24.6471L36.7319 26.1537C37.586 25.408 38.242 24.4993 38.6978 23.4402L36.8608 22.6496ZM35.4106 24.6523C34.7919 25.2012 34.0567 25.6223 33.1916 25.9107L33.824 27.8081C34.9277 27.4402 35.9034 26.8887 36.7378 26.1485L35.4106 24.6523ZM33.1916 25.9107C32.3204 26.2011 31.3563 26.3516 30.291 26.3516V28.3516C31.5461 28.3516 32.7264 28.1739 33.824 27.8081L33.1916 25.9107ZM30.291 26.3516C29.2737 26.3516 28.3287 26.2072 27.4505 25.9249L26.8385 27.829C27.9291 28.1795 29.0818 28.3516 30.291 28.3516V26.3516ZM27.4539 25.926C26.5875 25.6442 25.834 25.242 25.1838 24.7238L23.9373 26.2879C24.7871 26.9651 25.7563 27.4769 26.8352 27.8279L27.4539 25.926ZM25.1911 24.7297C24.5567 24.2143 24.0629 23.5878 23.7043 22.8407L21.9012 23.7062C22.3864 24.7169 23.0644 25.5787 23.93 26.282L25.1911 24.7297ZM23.7065 22.8454C23.357 22.1076 23.1699 21.2438 23.1699 20.2324H21.1699C21.1699 21.4945 21.4047 22.658 21.899 23.7015L23.7065 22.8454ZM22.1699 21.2324H25.4219V19.2324H22.1699V21.2324ZM24.4219 20.2324C24.4219 21.2716 24.6489 22.229 25.1365 23.0713L26.8674 22.0693C26.5816 21.5757 26.4219 20.9745 26.4219 20.2324H24.4219ZM25.1431 23.0826C25.6422 23.9193 26.3472 24.5674 27.2308 25.0234L28.1481 23.2461C27.5785 22.9522 27.1586 22.5573 26.8608 22.058L25.1431 23.0826ZM27.2479 25.032C28.1495 25.4757 29.1736 25.6797 30.291 25.6797V23.6797C29.4162 23.6797 28.706 23.5204 28.131 23.2375L27.2479 25.032ZM30.291 25.6797C31.3983 25.6797 32.4077 25.491 33.2868 25.0731L32.4281 23.2668C31.8774 23.5286 31.1759 23.6797 30.291 23.6797V25.6797ZM33.293 25.0701C34.2051 24.6287 34.9163 23.9558 35.4036 23.0698L33.6511 22.106C33.365 22.6262 32.9629 23.008 32.4219 23.2698L33.293 25.0701ZM35.3974 23.0809C35.904 22.1869 36.125 21.1193 36.125 19.9336H34.125C34.125 20.8807 33.9476 21.5826 33.6573 22.0949L35.3974 23.0809ZM36.125 19.9336C36.125 18.7323 35.8741 17.6527 35.2935 16.7664L33.6206 17.8625C33.9305 18.3356 34.125 19.0021 34.125 19.9336H36.125ZM35.2977 16.773C34.7315 15.8937 33.928 15.2559 32.93 14.8567L32.1872 16.7136C32.8298 16.9707 33.292 17.3523 33.6163 17.8559L35.2977 16.773ZM32.9461 14.8633C31.9877 14.4605 30.8951 14.2754 29.6934 14.2754V16.2754C30.6947 16.2754 31.5123 16.4301 32.1711 16.707L32.9461 14.8633ZM29.6934 14.2754H27.373V16.2754H29.6934V14.2754Z" fill="white"/>
</svg>
