<svg width="41" height="18" viewBox="0 0 41 18" fill="none" xmlns="http://www.w3.org/2000/svg">
<path d="M13.7148 27.7715L14.0805 28.7023L14.0862 28.7L13.7148 27.7715ZM5.40039 26.8047L4.75752 27.5707L4.76489 27.5768L4.77237 27.5829L5.40039 26.8047ZM2.83398 7.89062L1.86919 7.6275L1.86722 7.63495L2.83398 7.89062ZM4.46875 4.48047L5.24131 5.11545L5.24551 5.11027L4.46875 4.48047ZM7 2.61719L6.64767 1.6813L6.644 1.6827L7 2.61719ZM13.082 2.42383L12.7984 3.38276L12.8064 3.38512L12.8144 3.38735L13.082 2.42383ZM15.332 3.56641L14.7056 4.34596L14.7142 4.35273L15.332 3.56641ZM17.002 5.64062L16.1173 6.10686L16.1211 6.11404L16.125 6.12116L17.002 5.64062ZM14.9629 9.5957L13.9735 9.74082L13.9746 9.7483L13.9758 9.75577L14.9629 9.5957ZM13.3984 5.83398L12.6913 6.54109L12.6966 6.54637L12.702 6.55157L13.3984 5.83398ZM12.0449 4.99023L11.6962 5.92746L11.7092 5.93228L11.7222 5.93674L12.0449 4.99023ZM8.2832 5.14844L8.709 6.05326L8.71621 6.04986L8.72336 6.04636L8.2832 5.14844ZM6.77148 6.50195L5.93695 5.95084L5.92979 5.962L6.77148 6.50195ZM5.73438 20.6348L4.74488 20.7799L4.74693 20.7928L5.73438 20.6348ZM6.34961 22.9199L5.42701 23.3057L5.42959 23.3118L6.34961 22.9199ZM8.66992 25.3984L8.30226 26.3284L8.31515 26.3335L8.32818 26.3382L8.66992 25.3984ZM13.9609 23.7988L13.1129 23.2688L13.1103 23.273L13.9609 23.7988ZM14.875 21.2852L15.8564 21.4769L15.8568 21.4748L14.875 21.2852ZM17.4434 13.1641V17.0664H19.4434V13.1641H17.4434ZM17.4434 17.0664C17.4434 19.1107 17.26 20.7899 16.9131 22.1232L18.8486 22.6268C19.2518 21.0773 19.4434 19.2174 19.4434 17.0664H17.4434ZM16.9131 22.1232C16.5626 23.4704 16.0746 24.491 15.4828 25.2308L17.0445 26.4802C17.859 25.4621 18.4491 24.1624 18.8486 22.6268L16.9131 22.1232ZM15.4828 25.2308C14.8821 25.9816 14.1711 26.5119 13.3435 26.843L14.0862 28.7C15.2508 28.2341 16.239 27.4871 17.0445 26.4802L15.4828 25.2308ZM13.3492 26.8407C12.4997 27.1745 11.5135 27.3516 10.375 27.3516V29.3516C11.7209 29.3516 12.9612 29.142 14.0805 28.7022L13.3492 26.8407ZM10.375 27.3516C9.47397 27.3516 8.66255 27.239 7.93402 27.0235L7.36676 28.9414C8.30229 29.2181 9.30728 29.3516 10.375 29.3516V27.3516ZM7.93402 27.0235C7.22611 26.8141 6.59339 26.4824 6.02841 26.0265L4.77237 27.5829C5.54333 28.2051 6.41061 28.6586 7.36676 28.9414L7.93402 27.0235ZM6.04326 26.0387C5.49958 25.5824 5.01345 24.9737 4.59524 24.1896L2.83054 25.1307C3.34983 26.1044 3.9887 26.9254 4.75752 27.5707L6.04326 26.0387ZM4.59524 24.1896C4.18403 23.4185 3.85405 22.4512 3.6219 21.2684L1.65935 21.6535C1.91939 22.9785 2.30425 24.144 2.83054 25.1307L4.59524 24.1896ZM3.6219 21.2684C3.39141 20.0939 3.27148 18.6963 3.27148 17.0664H1.27148C1.27148 18.7881 1.39765 20.3201 1.65935 21.6535L3.6219 21.2684ZM3.27148 17.0664V13.1641H1.27148V17.0664H3.27148ZM3.27148 13.1641C3.27148 11.119 3.45502 9.45358 3.80075 8.1463L1.86722 7.63495C1.46295 9.16361 1.27148 11.0138 1.27148 13.1641H3.27148ZM3.79875 8.15374C4.1599 6.82954 4.65197 5.83244 5.24129 5.11543L3.69621 3.8455C2.87928 4.83944 2.28151 6.11578 1.86922 7.62751L3.79875 8.15374ZM5.24551 5.11027C5.84456 4.37144 6.5462 3.86017 7.356 3.55167L6.644 1.6827C5.48505 2.12421 4.49919 2.85513 3.69199 3.85067L5.24551 5.11027ZM7.35233 3.55306C8.21969 3.22653 9.21122 3.05469 10.3398 3.05469V1.05469C9.00753 1.05469 7.7725 1.25785 6.64767 1.68131L7.35233 3.55306ZM10.3398 3.05469C11.2538 3.05469 12.0709 3.16758 12.7984 3.38276L13.3657 1.46489C12.4291 1.18788 11.4181 1.05469 10.3398 1.05469V3.05469ZM12.8144 3.38735C13.5327 3.58687 14.1595 3.90705 14.7056 4.34591L15.9584 2.7869C15.1921 2.17107 14.3189 1.72954 13.3497 1.46031L12.8144 3.38735ZM14.7142 4.35273C15.2424 4.76776 15.7144 5.34248 16.1173 6.10686L17.8866 5.17439C17.3754 4.2044 16.7341 3.39631 15.9499 2.78009L14.7142 4.35273ZM16.125 6.12116C16.5326 6.86499 16.8615 7.81125 17.0933 8.98145L19.0552 8.59277C18.7948 7.2786 18.4089 6.1272 17.8789 5.16009L16.125 6.12116ZM17.0933 8.98145C17.3234 10.1429 17.4434 11.534 17.4434 13.1641H19.4434C19.4434 11.4426 19.3172 9.91566 19.0552 8.59277L17.0933 8.98145ZM16.1738 17.5938V12.6191H14.1738V17.5938H16.1738ZM16.1738 12.6191C16.1738 11.4324 16.1013 10.369 15.95 9.43563L13.9758 9.75577C14.1057 10.5568 14.1738 11.509 14.1738 12.6191H16.1738ZM15.9523 9.45059C15.815 8.51432 15.6042 7.67971 15.3064 6.96233L13.4592 7.72908C13.6771 8.25389 13.853 8.91927 13.9735 9.74082L15.9523 9.45059ZM15.3064 6.96233C15.0072 6.24148 14.6093 5.61569 14.0949 5.1164L12.702 6.55157C12.9844 6.82572 13.2428 7.20774 13.4592 7.72908L15.3064 6.96233ZM14.1055 5.12688C13.6111 4.63245 13.0286 4.26906 12.3676 4.04372L11.7222 5.93674C12.0925 6.06297 12.4123 6.26208 12.6913 6.54109L14.1055 5.12688ZM12.3937 4.05301C11.7603 3.81736 11.0711 3.70898 10.3398 3.70898V5.70898C10.8742 5.70898 11.3217 5.78811 11.6962 5.92746L12.3937 4.05301ZM10.3398 3.70898C9.4385 3.70898 8.59827 3.88031 7.84305 4.25052L8.72336 6.04636C9.16345 5.83063 9.69432 5.70898 10.3398 5.70898V3.70898ZM7.85741 4.24362C7.07329 4.61261 6.43519 5.19652 5.93702 5.95089L7.60595 7.05301C7.92809 6.5652 8.2978 6.24676 8.709 6.05326L7.85741 4.24362ZM5.92979 5.962C5.44525 6.71731 5.10537 7.65715 4.87863 8.74045L6.83621 9.15018C7.03135 8.21785 7.30084 7.52878 7.61318 7.04191L5.92979 5.962ZM4.87863 8.74045C4.64925 9.83638 4.54102 11.1339 4.54102 12.6191H6.54102C6.54102 11.2215 6.64372 10.0699 6.83621 9.15018L4.87863 8.74045ZM4.54102 12.6191V17.5938H6.54102V12.6191H4.54102ZM4.54102 17.5938C4.54102 18.7775 4.60731 19.8414 4.74496 20.7799L6.72379 20.4897C6.60362 19.6703 6.54102 18.7069 6.54102 17.5938H4.54102ZM4.74693 20.7928C4.89684 21.7297 5.11993 22.5714 5.42703 23.3057L7.27219 22.5341C7.04023 21.9794 6.85316 21.2976 6.72182 20.4768L4.74693 20.7928ZM5.42959 23.3118C5.73553 24.0301 6.12304 24.6577 6.60639 25.1704L8.06157 23.7984C7.7715 23.4907 7.50275 23.0754 7.26963 22.5281L5.42959 23.3118ZM6.60639 25.1704C7.08958 25.6829 7.6564 26.0731 8.30226 26.3284L9.03758 24.4685C8.67563 24.3254 8.35183 24.1062 8.06157 23.7984L6.60639 25.1704ZM8.32818 26.3382C8.96679 26.5705 9.65258 26.6797 10.375 26.6797V24.6797C9.85523 24.6797 9.4043 24.6014 9.01167 24.4586L8.32818 26.3382ZM10.375 26.6797C11.3003 26.6797 12.1586 26.5023 12.921 26.1136L12.0126 24.3318C11.5797 24.5524 11.0435 24.6797 10.375 24.6797V26.6797ZM12.921 26.1136C13.702 25.7154 14.3296 25.1042 14.8115 24.3246L13.1103 23.273C12.7954 23.7825 12.4269 24.1206 12.0126 24.3318L12.921 26.1136ZM14.8089 24.3288C15.3019 23.5401 15.6413 22.5778 15.8564 21.4769L13.8936 21.0934C13.7102 22.0315 13.4403 22.745 13.1129 23.2688L14.8089 24.3288ZM15.8568 21.4748C16.0716 20.3633 16.1738 19.066 16.1738 17.5938H14.1738C14.1738 18.9809 14.0769 20.1445 13.8932 21.0955L15.8568 21.4748ZM37.6738 25.0469L36.8418 24.4922L36.8404 24.4943L37.6738 25.0469ZM34.7559 27.5078L34.3401 26.5983L34.3368 26.5999L34.7559 27.5078ZM23.5586 25.0469L22.7224 25.5953L22.7252 25.5995L23.5586 25.0469ZM23.0664 18.2793L22.1599 17.8571L22.1573 17.8626L23.0664 18.2793ZM24.7363 16.0469L24.0795 15.2928L24.0735 15.2981L24.7363 16.0469ZM27.3027 14.5879L27.6291 15.5332L27.6356 15.5309L27.3027 14.5879ZM34.791 14.9746L34.3472 15.8708L34.3541 15.8741L34.791 14.9746ZM37.6914 17.4531L36.8593 18.0078L36.8636 18.0142L37.6914 17.4531ZM34.8789 18.4902L34.0047 18.9759L34.0081 18.9818L34.8789 18.4902ZM28.0059 16.7676L27.5143 15.8967L27.5082 15.9002L28.0059 16.7676ZM26.3359 18.4902L27.2128 18.9711L27.216 18.9652L26.3359 18.4902ZM26.3184 23.5352L25.4421 24.0171L25.4469 24.0258L25.4519 24.0345L26.3184 23.5352ZM28.0059 25.1348L27.5472 26.0234L27.5557 26.0278L27.5644 26.032L28.0059 25.1348ZM33.2266 25.1348L33.6738 26.0293L33.6852 26.0234L33.2266 25.1348ZM34.8965 23.5352L34.0264 23.0421L34.0237 23.047L34.8965 23.5352ZM26.7051 14.7812L26.2542 15.6738L26.2579 15.6757L26.7051 14.7812ZM24.0332 5.27148L23.1868 4.73891L23.1825 4.74579L24.0332 5.27148ZM37.1816 5.27148L36.3309 5.7972L36.3353 5.80405L37.1816 5.27148ZM32.8574 5.30664L32.3429 6.16421L32.3545 6.17099L32.8574 5.30664ZM28.3574 5.27148L28.8431 6.14566L28.8484 6.14264L28.3574 5.27148ZM26.8633 6.7832L25.9883 6.29884L25.9818 6.31098L26.8633 6.7832ZM26.8633 11.4238L25.9817 11.8961L25.9884 11.9081L26.8633 11.4238ZM32.8574 12.9531L32.3664 12.0819L32.3596 12.0859L32.8574 12.9531ZM37.7637 21.0742C37.7637 22.4735 37.4394 23.5957 36.8418 24.4922L38.5059 25.6016C39.3614 24.3184 39.7637 22.7921 39.7637 21.0742H37.7637ZM36.8404 24.4943C36.2336 25.4095 35.4089 26.1097 34.3401 26.5983L35.1716 28.4173C36.5637 27.7809 37.6844 26.8405 38.5073 25.5995L36.8404 24.4943ZM34.3368 26.5999C33.2671 27.0936 32.0362 27.3516 30.625 27.3516V29.3516C32.2841 29.3516 33.8072 29.047 35.1749 28.4158L34.3368 26.5999ZM30.625 27.3516C29.214 27.3516 27.9758 27.0936 26.8923 26.5983L26.0608 28.4173C27.4383 29.047 28.9657 29.3516 30.625 29.3516V27.3516ZM26.8923 26.5983C25.8235 26.1097 24.9988 25.4095 24.392 24.4943L22.7252 25.5995C23.548 26.8405 24.6687 27.7809 26.0608 28.4173L26.8923 26.5983ZM24.3948 24.4984C23.8062 23.6011 23.4863 22.4766 23.4863 21.0742H21.4863C21.4863 22.789 21.8813 24.3129 22.7224 25.5953L24.3948 24.4984ZM23.4863 21.0742C23.4863 20.1842 23.6544 19.3966 23.9755 18.696L22.1573 17.8626C21.705 18.8495 21.4863 19.9252 21.4863 21.0742H23.4863ZM23.9729 18.7015C24.3127 17.9719 24.7859 17.3386 25.3992 16.7956L24.0735 15.2981C23.2571 16.0208 22.617 16.8757 22.1599 17.8571L23.9729 18.7015ZM25.3931 16.801C26.0152 16.2591 26.7562 15.8345 27.6291 15.5331L26.9764 13.6426C25.8805 14.021 24.9105 14.569 24.0795 15.2928L25.3931 16.801ZM27.6356 15.5309C28.5117 15.2217 29.4932 15.0605 30.5898 15.0605V13.0605C29.2959 13.0605 28.086 13.251 26.9699 13.6449L27.6356 15.5309ZM30.5898 15.0605C32.0284 15.0605 33.2733 15.3389 34.3472 15.8707L35.2348 14.0785C33.8478 13.3916 32.2919 13.0605 30.5898 13.0605V15.0605ZM34.3541 15.8741C35.4376 16.4004 36.2627 17.1128 36.8594 18.0078L38.5235 16.8984C37.7139 15.684 36.6053 14.7441 35.2279 14.0751L34.3541 15.8741ZM36.8636 18.0142C37.4586 18.892 37.7637 19.9008 37.7637 21.0742H39.7637C39.7637 19.5289 39.3539 18.1236 38.5192 16.8921L36.8636 18.0142ZM36.4941 21.0039C36.4941 19.9065 36.2557 18.8949 35.7497 17.9986L34.0081 18.9818C34.3225 19.5387 34.4941 20.2029 34.4941 21.0039H36.4941ZM35.7531 18.0046C35.2522 17.1031 34.5434 16.3943 33.6419 15.8934L32.6706 17.6417C33.2456 17.9612 33.6853 18.4008 34.0047 18.9759L35.7531 18.0046ZM33.6419 15.8934C32.7338 15.3889 31.7064 15.1523 30.5898 15.1523V17.1523C31.4186 17.1523 32.1021 17.3259 32.6706 17.6417L33.6419 15.8934ZM30.5898 15.1523C29.4549 15.1523 28.4175 15.3869 27.5143 15.8968L28.4975 17.6384C29.0474 17.328 29.7326 17.1523 30.5898 17.1523V15.1523ZM27.5082 15.9002C26.6288 16.4048 25.9411 17.1163 25.4559 18.0153L27.216 18.9652C27.5276 18.3876 27.9532 17.9507 28.5035 17.6349L27.5082 15.9002ZM25.4591 18.0094C24.9688 18.9036 24.7383 19.9113 24.7383 21.0039H26.7383C26.7383 20.198 26.9062 19.53 27.2127 18.9711L25.4591 18.0094ZM24.7383 21.0039C24.7383 22.119 24.9578 23.1364 25.4421 24.0171L27.1946 23.0532C26.9055 22.5277 26.7383 21.8576 26.7383 21.0039H24.7383ZM25.4519 24.0345C25.9486 24.8963 26.6546 25.5627 27.5472 26.0234L28.4645 24.2461C27.904 23.9568 27.485 23.5568 27.1848 23.0359L25.4519 24.0345ZM27.5644 26.032C28.4674 26.4764 29.4979 26.6797 30.625 26.6797V24.6797C29.7365 24.6797 29.0209 24.5197 28.4474 24.2375L27.5644 26.032ZM30.625 26.6797C31.7515 26.6797 32.779 26.4766 33.6738 26.0292L32.7794 24.2403C32.221 24.5195 31.5142 24.6797 30.625 24.6797V26.6797ZM33.6852 26.0234C34.5802 25.5615 35.2836 24.8917 35.7692 24.0233L34.0237 23.047C33.736 23.5615 33.3261 23.9581 32.7679 24.2461L33.6852 26.0234ZM35.7665 24.0282C36.2669 23.1451 36.4941 22.1236 36.4941 21.0039H34.4941C34.4941 21.853 34.323 22.5189 34.0265 23.0421L35.7665 24.0282ZM37.166 9.06836C37.166 10.1235 36.8906 11.0498 36.3466 11.8756L38.0167 12.9759C38.7852 11.8095 39.166 10.4976 39.166 9.06836H37.166ZM36.3466 11.8756C35.7928 12.7161 35.0332 13.3876 34.0413 13.8887L34.9431 15.6738C36.2246 15.0264 37.258 14.1276 38.0167 12.9759L36.3466 11.8756ZM34.0413 13.8887C33.0619 14.3834 31.9306 14.6426 30.625 14.6426V16.6426C32.2022 16.6426 33.6491 16.3275 34.9431 15.6738L34.0413 13.8887ZM30.625 14.6426C29.2934 14.6426 28.1435 14.3824 27.1523 13.8868L26.2579 15.6757C27.5636 16.3285 29.0269 16.6426 30.625 16.6426V14.6426ZM27.156 13.8887C26.1655 13.3883 25.4139 12.7189 24.8728 11.8825L23.1936 12.969C23.9415 14.1249 24.9713 15.0258 26.2542 15.6738L27.156 13.8887ZM24.8728 11.8825C24.338 11.0561 24.0664 10.1273 24.0664 9.06836H22.0664C22.0664 10.4938 22.4393 11.8033 23.1936 12.969L24.8728 11.8825ZM24.0664 9.06836C24.0664 7.72592 24.356 6.6514 24.8839 5.79718L23.1825 4.74579C22.4214 5.97751 22.0664 7.43424 22.0664 9.06836H24.0664ZM24.8796 5.80405C25.4335 4.92366 26.186 4.25209 27.1587 3.78078L26.2866 1.98094C24.9859 2.61119 23.9454 3.53337 23.1868 4.73892L24.8796 5.80405ZM27.1587 3.78078C28.1404 3.3051 29.2826 3.05469 30.6074 3.05469V1.05469C29.026 1.05469 27.5783 1.35505 26.2866 1.98094L27.1587 3.78078ZM30.6074 3.05469C31.9453 3.05469 33.093 3.30561 34.0737 3.78078L34.9458 1.98094C33.653 1.35455 32.1992 1.05469 30.6074 1.05469V3.05469ZM34.0737 3.78078C35.0449 4.25138 35.7894 4.92088 36.331 5.79718L38.0323 4.74579C37.2848 3.53615 36.248 2.6119 34.9458 1.98094L34.0737 3.78078ZM36.3353 5.80405C36.872 6.65714 37.166 7.7291 37.166 9.06836H39.166C39.166 7.43106 38.8038 5.97176 38.028 4.73892L36.3353 5.80405ZM35.9141 9.12109C35.9141 8.12031 35.7003 7.19344 35.244 6.3692L33.4942 7.33783C33.7645 7.82609 33.9141 8.41094 33.9141 9.12109H35.9141ZM35.244 6.3692C34.7939 5.556 34.1618 4.90864 33.3603 4.44229L32.3545 6.17099C32.8421 6.45465 33.2178 6.83853 33.4942 7.33783L35.244 6.3692ZM33.3719 4.44915C32.5514 3.95686 31.6186 3.72656 30.6074 3.72656V5.72656C31.3072 5.72656 31.8743 5.88299 32.3429 6.16413L33.3719 4.44915ZM30.6074 3.72656C29.6071 3.72656 28.6828 3.94018 27.8664 4.40033L28.8484 6.14264C29.3211 5.87623 29.8968 5.72656 30.6074 5.72656V3.72656ZM27.8718 4.39733C27.0692 4.84323 26.4389 5.48504 25.9884 6.29889L27.7382 7.26752C28.0142 6.76887 28.3801 6.40287 28.8431 6.14564L27.8718 4.39733ZM25.9818 6.31098C25.5376 7.14022 25.3359 8.08863 25.3359 9.12109H27.3359C27.3359 8.34887 27.4859 7.73869 27.7448 7.25542L25.9818 6.31098ZM25.3359 9.12109C25.3359 10.135 25.5395 11.0704 25.9818 11.896L27.7448 10.9516C27.4839 10.4647 27.3359 9.86498 27.3359 9.12109H25.3359ZM25.9884 11.9081C26.44 12.724 27.0758 13.3688 27.884 13.8243L28.866 12.082C28.3851 11.8109 28.0131 11.4361 27.7382 10.9395L25.9884 11.9081ZM27.884 13.8243C28.7004 14.2844 29.6247 14.498 30.625 14.498V12.498C29.9144 12.498 29.3387 12.3484 28.866 12.082L27.884 13.8243ZM30.625 14.498C31.6248 14.498 32.5467 14.2846 33.3553 13.8204L32.3596 12.0859C31.9026 12.3482 31.3361 12.498 30.625 12.498V14.498ZM33.3484 13.8243C34.1566 13.3688 34.7924 12.724 35.244 11.9081L33.4942 10.9395C33.2193 11.4361 32.8473 11.8109 32.3664 12.082L33.3484 13.8243ZM35.244 11.9081C35.7025 11.08 35.9141 10.1402 35.9141 9.12109H33.9141C33.9141 9.85981 33.7624 10.4551 33.4942 10.9395L35.244 11.9081Z" fill="white"/>
</svg>
