<svg width="39" height="15" viewBox="0 0 39 15" fill="none" xmlns="http://www.w3.org/2000/svg">
<path d="M12.7148 26.7715L13.0805 27.7023L13.0862 27.7L12.7148 26.7715ZM4.40039 25.8047L3.75752 26.5707L3.76489 26.5768L3.77237 26.5829L4.40039 25.8047ZM1.83398 6.89062L0.869192 6.6275L0.867221 6.63495L1.83398 6.89062ZM3.46875 3.48047L4.24131 4.11545L4.24551 4.11027L3.46875 3.48047ZM6 1.61719L5.64767 0.681304L5.644 0.6827L6 1.61719ZM12.082 1.42383L11.7984 2.38276L11.8064 2.38512L11.8144 2.38735L12.082 1.42383ZM14.332 2.56641L13.7056 3.34596L13.7142 3.35272L14.332 2.56641ZM16.002 4.64062L15.1173 5.10686L15.1211 5.11404L15.125 5.12116L16.002 4.64062ZM13.9629 8.5957L12.9735 8.74082L12.9746 8.7483L12.9758 8.75577L13.9629 8.5957ZM12.3984 4.83398L11.6913 5.54109L11.6966 5.54637L11.702 5.55157L12.3984 4.83398ZM11.0449 3.99023L10.6962 4.92746L10.7092 4.93228L10.7222 4.93674L11.0449 3.99023ZM7.2832 4.14844L7.709 5.05326L7.71621 5.04986L7.72336 5.04636L7.2832 4.14844ZM5.77148 5.50195L4.93695 4.95084L4.92979 4.962L5.77148 5.50195ZM4.73438 19.6348L3.74488 19.7799L3.74693 19.7928L4.73438 19.6348ZM5.34961 21.9199L4.42701 22.3057L4.42959 22.3118L5.34961 21.9199ZM7.66992 24.3984L7.30226 25.3284L7.31515 25.3335L7.32818 25.3382L7.66992 24.3984ZM12.9609 22.7988L12.1129 22.2688L12.1103 22.273L12.9609 22.7988ZM13.875 20.2852L14.8564 20.4769L14.8568 20.4748L13.875 20.2852ZM16.4434 12.1641V16.0664H18.4434V12.1641H16.4434ZM16.4434 16.0664C16.4434 18.1107 16.26 19.7899 15.9131 21.1232L17.8486 21.6268C18.2518 20.0773 18.4434 18.2174 18.4434 16.0664H16.4434ZM15.9131 21.1232C15.5626 22.4704 15.0746 23.491 14.4828 24.2308L16.0445 25.4802C16.859 24.4621 17.4491 23.1624 17.8486 21.6268L15.9131 21.1232ZM14.4828 24.2308C13.8821 24.9816 13.1711 25.5119 12.3435 25.843L13.0862 27.7C14.2508 27.2341 15.239 26.4871 16.0445 25.4802L14.4828 24.2308ZM12.3492 25.8407C11.4997 26.1745 10.5135 26.3516 9.375 26.3516V28.3516C10.7209 28.3516 11.9612 28.142 13.0805 27.7022L12.3492 25.8407ZM9.375 26.3516C8.47397 26.3516 7.66255 26.239 6.93402 26.0235L6.36676 27.9414C7.30229 28.2181 8.30728 28.3516 9.375 28.3516V26.3516ZM6.93402 26.0235C6.22611 25.8141 5.59339 25.4824 5.02841 25.0265L3.77237 26.5829C4.54333 27.2051 5.41061 27.6586 6.36676 27.9414L6.93402 26.0235ZM5.04326 25.0387C4.49958 24.5824 4.01345 23.9737 3.59524 23.1896L1.83054 24.1307C2.34983 25.1044 2.9887 25.9254 3.75752 26.5707L5.04326 25.0387ZM3.59524 23.1896C3.18403 22.4185 2.85405 21.4512 2.6219 20.2683L0.659345 20.6535C0.919391 21.9785 1.30425 23.144 1.83054 24.1307L3.59524 23.1896ZM2.6219 20.2683C2.39141 19.0939 2.27148 17.6963 2.27148 16.0664H0.271484C0.271484 17.7881 0.39765 19.3201 0.659345 20.6535L2.6219 20.2683ZM2.27148 16.0664V12.1641H0.271484V16.0664H2.27148ZM2.27148 12.1641C2.27148 10.119 2.45502 8.45358 2.80075 7.1463L0.867221 6.63495C0.462948 8.16361 0.271484 10.0138 0.271484 12.1641H2.27148ZM2.79875 7.15374C3.1599 5.82954 3.65197 4.83244 4.24129 4.11543L2.69621 2.8455C1.87928 3.83944 1.28151 5.11578 0.869221 6.62751L2.79875 7.15374ZM4.24551 4.11027C4.84456 3.37144 5.5462 2.86017 6.356 2.55168L5.644 0.6827C4.48505 1.12421 3.49919 1.85513 2.69199 2.85067L4.24551 4.11027ZM6.35233 2.55306C7.21969 2.22653 8.21122 2.05469 9.33984 2.05469V0.0546875C8.00753 0.0546875 6.7725 0.257848 5.64767 0.681312L6.35233 2.55306ZM9.33984 2.05469C10.2538 2.05469 11.0709 2.16758 11.7984 2.38276L12.3657 0.464894C11.4291 0.187884 10.4181 0.0546875 9.33984 0.0546875V2.05469ZM11.8144 2.38735C12.5327 2.58687 13.1595 2.90705 13.7056 3.34592L14.9584 1.7869C14.1921 1.17107 13.3189 0.729537 12.3497 0.46031L11.8144 2.38735ZM13.7142 3.35272C14.2424 3.76776 14.7144 4.34248 15.1173 5.10686L16.8866 4.17439C16.3754 3.2044 15.7341 2.39631 14.9499 1.78009L13.7142 3.35272ZM15.125 5.12116C15.5326 5.86499 15.8615 6.81125 16.0933 7.98145L18.0552 7.59277C17.7948 6.2786 17.4089 5.1272 16.8789 4.16009L15.125 5.12116ZM16.0933 7.98145C16.3234 9.14294 16.4434 10.534 16.4434 12.1641H18.4434C18.4434 10.4426 18.3172 8.91565 18.0552 7.59277L16.0933 7.98145ZM15.1738 16.5938V11.6191H13.1738V16.5938H15.1738ZM15.1738 11.6191C15.1738 10.4324 15.1013 9.36896 14.95 8.43563L12.9758 8.75577C13.1057 9.55682 13.1738 10.509 13.1738 11.6191H15.1738ZM14.9523 8.45059C14.815 7.51432 14.6042 6.67971 14.3064 5.96233L12.4592 6.72908C12.6771 7.25389 12.853 7.91927 12.9735 8.74082L14.9523 8.45059ZM14.3064 5.96233C14.0072 5.24148 13.6093 4.61569 13.0949 4.1164L11.702 5.55157C11.9844 5.82572 12.2428 6.20774 12.4592 6.72908L14.3064 5.96233ZM13.1055 4.12688C12.6111 3.63245 12.0286 3.26906 11.3676 3.04372L10.7222 4.93674C11.0925 5.06297 11.4123 5.26208 11.6913 5.54109L13.1055 4.12688ZM11.3937 3.05301C10.7603 2.81736 10.0711 2.70898 9.33984 2.70898V4.70898C9.87423 4.70898 10.3217 4.78811 10.6962 4.92746L11.3937 3.05301ZM9.33984 2.70898C8.4385 2.70898 7.59827 2.88031 6.84305 3.25052L7.72336 5.04636C8.16345 4.83063 8.69432 4.70898 9.33984 4.70898V2.70898ZM6.85741 3.24362C6.07329 3.61261 5.43519 4.19652 4.93702 4.95089L6.60595 6.05301C6.92809 5.5652 7.2978 5.24676 7.709 5.05326L6.85741 3.24362ZM4.92979 4.962C4.44525 5.71731 4.10537 6.65715 3.87863 7.74045L5.83621 8.15018C6.03135 7.21785 6.30084 6.52878 6.61318 6.04191L4.92979 4.962ZM3.87863 7.74045C3.64925 8.83638 3.54102 10.1339 3.54102 11.6191H5.54102C5.54102 10.2215 5.64372 9.06987 5.83621 8.15018L3.87863 7.74045ZM3.54102 11.6191V16.5938H5.54102V11.6191H3.54102ZM3.54102 16.5938C3.54102 17.7775 3.60731 18.8414 3.74496 19.7799L5.72379 19.4897C5.60362 18.6703 5.54102 17.7069 5.54102 16.5938H3.54102ZM3.74693 19.7928C3.89684 20.7297 4.11993 21.5714 4.42703 22.3057L6.27219 21.5341C6.04022 20.9794 5.85316 20.2976 5.72182 19.4768L3.74693 19.7928ZM4.42959 22.3118C4.73553 23.0301 5.12304 23.6577 5.60639 24.1704L7.06157 22.7984C6.7715 22.4907 6.50275 22.0754 6.26963 21.5281L4.42959 22.3118ZM5.60639 24.1704C6.08958 24.6829 6.6564 25.0731 7.30226 25.3284L8.03758 23.4685C7.67563 23.3254 7.35183 23.1062 7.06157 22.7984L5.60639 24.1704ZM7.32818 25.3382C7.96679 25.5705 8.65258 25.6797 9.375 25.6797V23.6797C8.85523 23.6797 8.4043 23.6014 8.01166 23.4586L7.32818 25.3382ZM9.375 25.6797C10.3003 25.6797 11.1586 25.5023 11.921 25.1136L11.0126 23.3318C10.5797 23.5524 10.0435 23.6797 9.375 23.6797V25.6797ZM11.921 25.1136C12.702 24.7154 13.3296 24.1042 13.8115 23.3247L12.1103 22.273C11.7954 22.7825 11.4269 23.1206 11.0126 23.3318L11.921 25.1136ZM13.8089 23.3288C14.3019 22.5401 14.6413 21.5778 14.8564 20.4769L12.8936 20.0934C12.7102 21.0315 12.4403 21.745 12.1129 22.2688L13.8089 23.3288ZM14.8568 20.4748C15.0716 19.3633 15.1738 18.066 15.1738 16.5938H13.1738C13.1738 17.9809 13.0769 19.1445 12.8932 20.0955L14.8568 20.4748ZM38.3965 24.3281H39.3965V23.3281H38.3965V24.3281ZM38.3965 27V28H39.3965V27H38.3965ZM21.6445 27H20.6445V28H21.6445V27ZM21.6445 24.6621L20.9006 23.9938L20.6445 24.2789V24.6621H21.6445ZM30.0293 15.3281L30.7732 15.9964L30.7733 15.9963L30.0293 15.3281ZM32.4199 12.4102L31.6046 11.8312L31.603 11.8335L32.4199 12.4102ZM33.6152 10.248L32.6754 9.90629L32.6719 9.91614L33.6152 10.248ZM33.4395 5.99414L32.542 6.43526L32.5465 6.44446L32.5512 6.45356L33.4395 5.99414ZM26.6543 4.39453L27.1548 5.26028L27.159 5.25783L26.6543 4.39453ZM24.4043 8.92969V9.92969H25.4043V8.92969H24.4043ZM21.1523 8.92969H20.1523V9.92969H21.1523V8.92969ZM24.9141 2.12695L25.4067 2.99723L25.4128 2.99368L24.9141 2.12695ZM33.6504 1.91602L33.2032 2.81047L33.2105 2.81408L33.6504 1.91602ZM36.2871 4.30664L35.4261 4.81542L35.4331 4.8269L36.2871 4.30664ZM36.832 10.1777L35.8833 9.86149L35.8805 9.8703L36.832 10.1777ZM35.7949 12.4629L34.9316 11.9582L34.9259 11.9682L35.7949 12.4629ZM34.2656 14.7129L33.4823 14.0912L33.4763 14.099L34.2656 14.7129ZM32.4199 16.8926L33.1551 17.5704L33.1566 17.5688L32.4199 16.8926ZM25.5645 24.3281L24.8292 23.6503L23.2823 25.3281H25.5645V24.3281ZM37.3965 24.3281V27H39.3965V24.3281H37.3965ZM38.3965 26H21.6445V28H38.3965V26ZM22.6445 27V24.6621H20.6445V27H22.6445ZM22.3885 25.3304L30.7732 15.9964L29.2854 14.6599L20.9006 23.9938L22.3885 25.3304ZM30.7733 15.9963C31.8175 14.8334 32.6429 13.8284 33.2369 12.9868L31.603 11.8335C31.072 12.5857 30.3035 13.526 29.2852 14.66L30.7733 15.9963ZM33.2352 12.9892C33.8403 12.1372 34.294 11.3318 34.5585 10.58L32.6719 9.91614C32.4911 10.4299 32.148 11.0659 31.6046 11.8312L33.2352 12.9892ZM34.555 10.5898C34.8282 9.8387 34.9668 9.06694 34.9668 8.2793H32.9668C32.9668 8.82759 32.8711 9.36833 32.6754 9.9063L34.555 10.5898ZM34.9668 8.2793C34.9668 7.29236 34.76 6.37053 34.3277 5.53472L32.5512 6.45356C32.822 6.97713 32.9668 7.57873 32.9668 8.2793H34.9668ZM34.3369 5.55302C33.9122 4.68889 33.2771 3.99686 32.451 3.48963L31.4045 5.19397C31.9143 5.50705 32.2871 5.91658 32.542 6.43526L34.3369 5.55302ZM32.451 3.48963C31.5953 2.9642 30.5968 2.72656 29.502 2.72656V4.72656C30.3056 4.72656 30.9242 4.89908 31.4045 5.19397L32.451 3.48963ZM29.502 2.72656C28.2379 2.72656 27.1026 2.97412 26.1496 3.53123L27.159 5.25783C27.7295 4.92432 28.4925 4.72656 29.502 4.72656V2.72656ZM26.1538 3.5288C25.2282 4.0639 24.526 4.82522 24.0644 5.79168L25.8692 6.65364C26.1576 6.04978 26.5804 5.59235 27.1548 5.26027L26.1538 3.5288ZM24.0644 5.79168C23.615 6.73264 23.4043 7.78647 23.4043 8.92969H25.4043C25.4043 8.03384 25.5686 7.28299 25.8692 6.65364L24.0644 5.79168ZM24.4043 7.92969H21.1523V9.92969H24.4043V7.92969ZM22.1523 8.92969C22.1523 7.64035 22.4339 6.48421 22.9854 5.4425L21.2178 4.50672C20.5036 5.85563 20.1523 7.33621 20.1523 8.92969H22.1523ZM22.9854 5.4425C23.5238 4.42544 24.321 3.61176 25.4067 2.99721L24.4215 1.2567C23.0228 2.04839 21.945 3.13316 21.2178 4.50672L22.9854 5.4425ZM25.4128 2.99368C26.4678 2.38656 27.8146 2.05469 29.502 2.05469V0.0546875C27.5565 0.0546875 25.8447 0.437663 24.4153 1.26022L25.4128 2.99368ZM29.502 2.05469C31.0032 2.05469 32.2249 2.3213 33.2032 2.81044L34.0976 1.02159C32.779 0.362291 31.2351 0.0546875 29.502 0.0546875V2.05469ZM33.2105 2.81408C34.196 3.29678 34.923 3.96375 35.4262 4.81537L37.148 3.79791C36.4325 2.58703 35.4016 1.66025 34.0903 1.01795L33.2105 2.81408ZM35.4331 4.8269C35.9452 5.66755 36.2188 6.67723 36.2188 7.89258H38.2188C38.2188 6.36574 37.8712 4.98479 37.1411 3.78638L35.4331 4.8269ZM36.2188 7.89258C36.2188 8.52615 36.1101 9.18118 35.8833 9.86151L37.7807 10.494C38.0696 9.62741 38.2188 8.75901 38.2188 7.89258H36.2188ZM35.8805 9.8703C35.6587 10.5567 35.3441 11.2526 34.9316 11.9582L36.6582 12.9676C37.1363 12.1498 37.5132 11.3222 37.7836 10.4852L35.8805 9.8703ZM34.9259 11.9682C34.5194 12.6823 34.0388 13.39 33.4823 14.0912L35.0489 15.3345C35.6643 14.5592 36.2033 13.7669 36.664 12.9576L34.9259 11.9682ZM33.4763 14.099C32.9194 14.815 32.3218 15.5208 31.6833 16.2163L33.1566 17.5688C33.8305 16.8347 34.4634 16.0874 35.055 15.3268L33.4763 14.099ZM31.6847 16.2147L24.8292 23.6503L26.2997 25.006L33.1551 17.5704L31.6847 16.2147ZM25.5645 25.3281H38.3965V23.3281H25.5645V25.3281Z" fill="white"/>
</svg>
