<svg width="105" height="105" viewBox="0 0 105 105" fill="none" xmlns="http://www.w3.org/2000/svg">
<path d="M96.2985 71.1722C94.9878 71.1759 93.7319 71.6797 92.8051 72.5735C91.8783 73.4673 91.3559 74.6786 91.3521 75.9426C91.3521 78.5769 96.2985 83.5416 96.2985 83.5416C96.2985 83.5416 101.245 78.5657 101.245 75.9426C101.241 74.6786 100.719 73.4673 99.7919 72.5735C98.8651 71.6797 97.6092 71.1759 96.2985 71.1722ZM96.2985 77.6454C95.8858 77.6459 95.4822 77.5284 95.1388 77.3078C94.7953 77.0871 94.5274 76.7732 94.369 76.4057C94.2105 76.0382 94.1686 75.6337 94.2485 75.2432C94.3285 74.8528 94.5267 74.4939 94.8181 74.2121C95.1095 73.9303 95.481 73.7381 95.8856 73.6599C96.2903 73.5818 96.7099 73.621 97.0914 73.7728C97.4728 73.9246 97.7991 74.1821 98.0289 74.5127C98.2586 74.8433 98.3815 75.2322 98.3821 75.6302C98.3825 75.8945 98.3289 76.1562 98.2244 76.4005C98.1199 76.6448 97.9665 76.8668 97.773 77.054C97.5796 77.2411 97.3498 77.3896 97.0968 77.4911C96.8437 77.5926 96.5725 77.645 96.2985 77.6454Z" fill="#263238"/>
<path d="M96.2979 83.6935C96.2783 83.694 96.2588 83.6904 96.2407 83.6832C96.2226 83.6759 96.2063 83.665 96.1929 83.6513C95.9886 83.4458 91.2056 78.6022 91.2056 75.9426C91.2056 74.6401 91.7421 73.3909 92.6971 72.4699C93.6521 71.5489 94.9473 71.0314 96.2979 71.0314C97.6485 71.0314 98.9437 71.5489 99.8987 72.4699C100.854 73.3909 101.39 74.6401 101.39 75.9426C101.39 78.6022 96.6072 83.4458 96.403 83.6513C96.3894 83.6649 96.3731 83.6757 96.355 83.6829C96.3369 83.6902 96.3175 83.6938 96.2979 83.6935ZM96.2979 71.3101C95.0252 71.3115 93.8051 71.7998 92.9051 72.6677C92.0052 73.5356 91.4989 74.7124 91.4974 75.9398C91.4974 78.2758 95.5829 82.6072 96.2979 83.3445C97.01 82.6072 101.098 78.2786 101.098 75.9398C101.097 74.7126 100.591 73.5362 99.6905 72.6687C98.7905 71.8012 97.5703 71.3136 96.2979 71.3129V71.3101ZM96.2979 77.7832C95.8564 77.7838 95.4246 77.6581 95.0571 77.4219C94.6897 77.1858 94.4031 76.8499 94.2336 76.4567C94.0641 76.0635 94.0193 75.6307 94.1049 75.2129C94.1904 74.7952 94.4025 74.4113 94.7143 74.1098C95.0261 73.8083 95.4237 73.6027 95.8566 73.5191C96.2895 73.4355 96.7385 73.4775 97.1466 73.64C97.5548 73.8024 97.9038 74.0779 98.1496 74.4317C98.3954 74.7855 98.5269 75.2016 98.5275 75.6274C98.5282 75.9104 98.4711 76.1907 98.3595 76.4524C98.2478 76.7141 98.0838 76.952 97.8767 77.1524C97.6696 77.3529 97.4236 77.5121 97.1527 77.6208C96.8818 77.7295 96.5913 77.7857 96.2979 77.786V77.7832ZM96.2979 73.7614C95.9141 73.7609 95.5387 73.8701 95.2193 74.0753C94.8998 74.2805 94.6506 74.5724 94.5032 74.9142C94.3558 75.256 94.3168 75.6322 94.3911 75.9954C94.4654 76.3585 94.6497 76.6923 94.9207 76.9544C95.1917 77.2166 95.5372 77.3953 95.9135 77.4681C96.2899 77.5408 96.6801 77.5044 97.035 77.3632C97.3898 77.2221 97.6932 76.9826 97.907 76.6752C98.1207 76.3677 98.2351 76.006 98.2356 75.6358C98.2333 75.1414 98.0282 74.6679 97.6652 74.3189C97.3021 73.9698 96.8106 73.7734 96.2979 73.7727V73.7614Z" fill="#263238"/>
<path d="M35.0675 7.20027C32.7883 6.04073 29.765 5.81839 26.9869 6.60925C24.2087 7.4001 21.734 9.19851 20.4908 11.3938C20.4177 11.5199 20.3855 11.6642 20.3982 11.8082C20.411 11.9521 20.4681 12.0891 20.5623 12.2015C20.6565 12.3138 20.7834 12.3964 20.9267 12.4385C21.07 12.4807 21.2231 12.4805 21.3663 12.4379C21.4604 12.4116 21.5482 12.3675 21.6243 12.308C21.7005 12.2486 21.7636 12.175 21.8099 12.0917C22.878 10.223 24.9733 8.69192 27.4158 7.99957C29.8584 7.30722 32.4294 7.49297 34.373 8.48083C34.549 8.57041 34.7548 8.58885 34.945 8.53211C35.1351 8.47537 35.2942 8.3481 35.387 8.17828C35.4799 8.00847 35.499 7.81003 35.4402 7.62662C35.3814 7.44321 35.2494 7.28985 35.0733 7.20027H35.0675Z" fill="#263238"/>
<path d="M33.7132 9.76991C31.8472 9.03204 29.7757 8.93173 27.8424 9.48564C25.9092 10.0396 24.2305 11.2144 23.0849 12.8151C22.9999 12.939 22.9566 13.0852 22.9607 13.2337C22.9649 13.3823 23.0164 13.5259 23.1082 13.6452C23.2 13.7645 23.3277 13.8537 23.4739 13.9005C23.6201 13.9474 23.7778 13.9497 23.9254 13.9071C24.094 13.8643 24.2411 13.7644 24.3397 13.6257C25.2915 12.3107 26.6777 11.346 28.2717 10.8895C29.8658 10.4329 31.5732 10.5115 33.1149 11.1124C33.2054 11.1503 33.3027 11.1706 33.4013 11.1722C33.4998 11.1738 33.5978 11.1567 33.6895 11.1218C33.7813 11.0869 33.865 11.035 33.9359 10.9689C34.0068 10.9028 34.0635 10.8239 34.1028 10.7367C34.142 10.6494 34.1631 10.5556 34.1648 10.4605C34.1665 10.3654 34.1487 10.271 34.1125 10.1825C34.0764 10.094 34.0225 10.0133 33.954 9.94494C33.8854 9.87656 33.8036 9.82187 33.7132 9.78398V9.76991Z" fill="#263238"/>
<path d="M32.3389 12.3198C31.1545 11.8405 29.833 11.7784 28.6059 12.1442C27.3788 12.5101 26.3242 13.2806 25.6269 14.3208C25.5167 14.4807 25.4766 14.6762 25.5154 14.8645C25.5543 15.0527 25.6688 15.2185 25.8341 15.3256C25.9991 15.4308 26.2001 15.47 26.3946 15.4348C26.589 15.3996 26.7616 15.2928 26.8759 15.137C27.3796 14.3725 28.1478 13.8049 29.0443 13.5349C29.9408 13.2649 30.9075 13.31 31.7727 13.6623C31.9573 13.7343 32.164 13.7327 32.3473 13.6577C32.5307 13.5828 32.6756 13.4406 32.7503 13.2626C32.825 13.0846 32.8233 12.8852 32.7456 12.7084C32.6679 12.5316 32.5205 12.3918 32.3359 12.3198H32.3389Z" fill="#263238"/>
<path d="M29.4204 14.5741C29.0779 14.67 28.7726 14.8616 28.543 15.1248C28.3135 15.388 28.17 15.7109 28.1306 16.0527C28.0913 16.3945 28.1579 16.7399 28.3221 17.0452C28.4862 17.3505 28.7405 17.602 29.0529 17.7679C29.3652 17.9339 29.7215 18.0068 30.0768 17.9775C30.4321 17.9482 30.7704 17.8179 31.049 17.6032C31.3276 17.3885 31.5339 17.099 31.6419 16.7713C31.7499 16.4435 31.7547 16.0922 31.6558 15.7618C31.59 15.5422 31.4799 15.3372 31.332 15.1587C31.184 14.9801 31.001 14.8314 30.7933 14.7211C30.5857 14.6108 30.3576 14.541 30.122 14.5158C29.8864 14.4906 29.648 14.5104 29.4204 14.5741Z" fill="#263238"/>
<path d="M96.1758 22.9358H83.1341C82.6218 22.9358 82.1304 23.1321 81.7681 23.4815C81.4058 23.8309 81.2022 24.3048 81.2022 24.7989V31.5226C81.2022 32.0167 81.4058 32.4906 81.7681 32.84C82.1304 33.1894 82.6218 33.3857 83.1341 33.3857H83.5398C83.1341 34.2526 82.355 35.5725 81.103 36.3578C81.103 36.3578 83.747 36.1805 86.5018 33.3857H96.17C96.6823 33.3857 97.1737 33.1894 97.536 32.84C97.8983 32.4906 98.1018 32.0167 98.1018 31.5226V24.7989C98.1018 24.3058 97.8991 23.8327 97.5381 23.4835C97.177 23.1342 96.6871 22.9373 96.1758 22.9358Z" fill="#263238"/>
<path d="M81.1087 36.4985C81.0779 36.4988 81.0477 36.4898 81.0226 36.4726C80.9974 36.4554 80.9785 36.431 80.9687 36.4028C80.9587 36.3731 80.959 36.3412 80.9696 36.3118C80.9801 36.2823 81.0003 36.257 81.027 36.2395C82.1418 35.5416 82.8772 34.4158 83.3149 33.5264H83.134C82.5842 33.5242 82.0576 33.3122 81.6694 32.9367C81.2812 32.5612 81.0628 32.0528 81.0621 31.5226V24.7989C81.0628 24.2689 81.2813 23.7608 81.6696 23.3858C82.0579 23.0107 82.5845 22.7994 83.134 22.7979H96.1698C96.4427 22.7979 96.7129 22.8497 96.965 22.9504C97.2171 23.0511 97.4461 23.1987 97.6391 23.3848C97.832 23.5709 97.9851 23.7918 98.0895 24.0349C98.1939 24.278 98.2476 24.5386 98.2476 24.8017V31.5226C98.2476 32.054 98.0287 32.5637 97.6391 32.9395C97.2494 33.3153 96.7209 33.5264 96.1698 33.5264H86.5717C83.8227 36.2874 81.2284 36.49 81.1175 36.4985H81.1087ZM83.134 23.0793C82.6603 23.0793 82.2061 23.2608 81.8711 23.5838C81.5362 23.9068 81.348 24.3449 81.348 24.8017V31.5226C81.348 31.9794 81.5362 32.4175 81.8711 32.7405C82.2061 33.0635 82.6603 33.245 83.134 33.245H83.5397C83.5644 33.2444 83.5888 33.25 83.6106 33.2612C83.6324 33.2724 83.6508 33.2889 83.664 33.309C83.6772 33.3292 83.6848 33.3522 83.686 33.376C83.6873 33.3998 83.6821 33.4235 83.671 33.4448C83.2208 34.4618 82.5455 35.3714 81.6924 36.1101C82.6175 35.8877 84.4881 35.2264 86.3966 33.2957C86.4098 33.2814 86.426 33.27 86.4441 33.2623C86.4622 33.2545 86.4819 33.2505 86.5017 33.2506H96.1698C96.6435 33.2506 97.0978 33.0692 97.4327 32.7461C97.7676 32.4231 97.9558 31.985 97.9558 31.5282V24.7989C97.9558 24.3421 97.7676 23.904 97.4327 23.581C97.0978 23.258 96.6435 23.0765 96.1698 23.0765L83.134 23.0793Z" fill="#263238"/>
<path d="M87.4155 27.92C87.4155 27.7302 87.3572 27.5446 87.2478 27.3868C87.1385 27.229 86.9831 27.106 86.8012 27.0334C86.6194 26.9608 86.4193 26.9418 86.2263 26.9788C86.0332 27.0158 85.8559 27.1072 85.7168 27.2414C85.5776 27.3756 85.4828 27.5466 85.4444 27.7328C85.406 27.9189 85.4257 28.1118 85.501 28.2872C85.5764 28.4625 85.7039 28.6124 85.8676 28.7178C86.0312 28.8233 86.2236 28.8796 86.4204 28.8796C86.5507 28.8796 86.6797 28.8548 86.8001 28.8067C86.9205 28.7587 87.0299 28.6882 87.122 28.5993C87.2141 28.5105 87.2872 28.405 87.3371 28.2889C87.387 28.1728 87.4126 28.0484 87.4126 27.9228L87.4155 27.92Z" fill="white"/>
<path d="M89.8023 28.8796C90.3518 28.8796 90.7974 28.4499 90.7974 27.92C90.7974 27.39 90.3518 26.9604 89.8023 26.9604C89.2527 26.9604 88.8071 27.39 88.8071 27.92C88.8071 28.4499 89.2527 28.8796 89.8023 28.8796Z" fill="white"/>
<path d="M94.1768 27.92C94.1768 27.7302 94.1184 27.5446 94.0091 27.3868C93.8997 27.229 93.7443 27.106 93.5625 27.0334C93.3806 26.9608 93.1805 26.9418 92.9875 26.9788C92.7945 27.0158 92.6172 27.1072 92.478 27.2414C92.3388 27.3756 92.244 27.5466 92.2056 27.7328C92.1672 27.9189 92.187 28.1118 92.2623 28.2872C92.3376 28.4625 92.4651 28.6124 92.6288 28.7178C92.7924 28.8233 92.9848 28.8796 93.1816 28.8796C93.4456 28.8796 93.6987 28.7785 93.8853 28.5985C94.0719 28.4185 94.1768 28.1745 94.1768 27.92Z" fill="white"/>
<path d="M6.45667 64.4641C9.29086 64.1952 11.3623 61.7613 11.0835 59.0279C10.8046 56.2946 8.2809 54.2968 5.4467 54.5658C2.61251 54.8348 0.541029 57.2686 0.819923 60.002C1.09882 62.7353 3.62247 64.7331 6.45667 64.4641Z" fill="#263238"/>
<path d="M5.95823 64.6258C4.9095 64.6258 3.88432 64.3259 3.01234 63.764C2.14035 63.2021 1.46072 62.4034 1.05939 61.469C0.658058 60.5345 0.553053 59.5063 0.75765 58.5143C0.962246 57.5224 1.46726 56.6112 2.20882 55.896C2.95038 55.1808 3.89519 54.6938 4.92377 54.4965C5.95234 54.2991 7.01849 54.4004 7.98739 54.7875C8.95629 55.1745 9.78442 55.83 10.3671 56.6709C10.9497 57.5119 11.2607 58.5006 11.2607 59.512C11.2611 60.1837 11.1242 60.8488 10.8578 61.4694C10.5915 62.09 10.2009 62.6539 9.70849 63.1288C9.21603 63.6038 8.63134 63.9804 7.98784 64.2373C7.34435 64.4942 6.65466 64.6262 5.95823 64.6258ZM5.95823 54.6796C4.96722 54.6796 3.99846 54.9631 3.17447 55.494C2.35047 56.025 1.70824 56.7797 1.329 57.6627C0.949758 58.5457 0.85053 59.5174 1.04387 60.4548C1.2372 61.3921 1.71442 62.2532 2.41517 62.929C3.11592 63.6048 4.00873 64.0651 4.9807 64.2515C5.95267 64.438 6.96014 64.3423 7.87571 63.9765C8.79129 63.6108 9.57384 62.9914 10.1244 62.1967C10.675 61.402 10.9689 60.4678 10.9689 59.512C10.9689 58.2304 10.441 57.0013 9.50128 56.095C8.56161 55.1888 7.28713 54.6796 5.95823 54.6796Z" fill="#263238"/>
<path d="M3.63184 56.4133L9.19402 59.5119L3.63184 62.6106V56.4133Z" fill="white"/>
<path d="M3.63226 62.7627C3.60642 62.7635 3.58094 62.7566 3.55931 62.743C3.53684 62.7311 3.51817 62.7136 3.50531 62.6923C3.49245 62.6709 3.48589 62.6466 3.48635 62.6219V56.4302C3.48589 56.4055 3.49245 56.3812 3.50531 56.3599C3.51817 56.3385 3.53684 56.321 3.55931 56.3092C3.58149 56.2968 3.60665 56.2903 3.63226 56.2903C3.65788 56.2903 3.68304 56.2968 3.70522 56.3092L9.26741 59.4051C9.30055 59.4224 9.32528 59.4516 9.33621 59.4864C9.34714 59.5211 9.34339 59.5587 9.32577 59.5908C9.31262 59.6148 9.29228 59.6344 9.26741 59.6471L3.70522 62.743C3.68344 62.7563 3.65806 62.7632 3.63226 62.7627ZM3.77818 56.6694V62.3771L8.90263 59.5233L3.77818 56.6694Z" fill="#263238"/>
<path d="M18.2496 97.1915C17.3448 97.2084 16.4535 96.9781 15.6786 96.5273C11.9899 94.394 9.81582 91.2249 8.89657 87.2172C8.66878 86.3966 8.6428 85.536 8.82069 84.7039C8.96623 84.0176 9.31181 83.3855 9.81684 82.882C10.3219 82.3785 10.9654 82.0244 11.6718 81.8614C11.9325 81.7734 12.2184 81.7868 12.469 81.8987C12.7196 82.0106 12.9152 82.2122 13.0142 82.4608C13.358 83.3832 13.6503 84.3227 13.8897 85.2752C13.9308 85.4841 13.8949 85.7001 13.7883 85.8862C13.6818 86.0722 13.5112 86.2165 13.306 86.2941C12.8746 86.5052 12.4313 86.6932 11.9782 86.857C11.9206 86.8689 11.8661 86.8918 11.8177 86.9243C11.7693 86.9567 11.7281 86.998 11.6963 87.0459C11.6646 87.0938 11.643 87.1473 11.6328 87.2032C11.6226 87.2592 11.6239 87.3165 11.6368 87.372C11.6459 87.4166 11.6626 87.4594 11.6864 87.4987C12.5223 89.7598 13.892 91.8025 15.6873 93.4652C15.9558 93.7157 16.1484 93.6735 16.3936 93.4146C16.7031 93.0738 17.0461 92.7627 17.4179 92.4858C17.6054 92.3306 17.8437 92.2441 18.0908 92.2415C18.3379 92.2389 18.5781 92.3204 18.769 92.4717C19.4714 92.9729 20.1437 93.5123 20.7826 94.0872C21.5209 94.7852 21.4713 95.455 20.7301 96.1502C20.0731 96.7923 19.1846 97.1653 18.2496 97.1915Z" fill="#263238"/>
<path d="M18.2496 97.3322C17.3252 97.3438 16.4158 97.107 15.6231 96.6483C12.0337 94.574 9.72827 91.4106 8.77108 87.2481C8.53602 86.4065 8.51003 85.5232 8.69521 84.6701C8.84488 83.9606 9.20104 83.3069 9.722 82.7855C10.243 82.2641 10.9072 81.8967 11.6368 81.7262C11.9331 81.6275 12.2575 81.6441 12.5414 81.7723C12.8252 81.9005 13.0461 82.1303 13.1572 82.4129C13.5041 83.3429 13.7964 84.291 14.0327 85.2527C14.0837 85.4922 14.0452 85.7415 13.924 85.9563C13.8027 86.1711 13.6066 86.3376 13.3702 86.4263C12.9442 86.6346 12.4948 86.8288 12.0337 87.0032C11.7769 87.0989 11.7244 87.2115 11.8207 87.4648C12.6527 89.7033 14.01 91.7261 15.7866 93.3751C15.8467 93.4423 15.9292 93.4871 16.02 93.5017C16.0901 93.5017 16.1747 93.4455 16.2827 93.3301C16.5983 92.9829 16.9482 92.6662 17.3274 92.3844C17.54 92.2093 17.8097 92.1119 18.0893 92.1093C18.3689 92.1067 18.6405 92.1992 18.8566 92.3703L19.1192 92.5702C19.7323 93.0111 20.3171 93.4876 20.8702 93.9971C21.0402 94.1323 21.1797 94.2998 21.2801 94.489C21.3805 94.6783 21.4396 94.8854 21.4538 95.0975C21.4364 95.3211 21.372 95.5389 21.2647 95.7377C21.1573 95.9366 21.0092 96.1123 20.8293 96.2542C20.1431 96.9141 19.2212 97.2958 18.2525 97.3209L18.2496 97.3322ZM12.0308 81.9542C11.9223 81.9542 11.8143 81.9684 11.7098 81.9964C11.0289 82.1542 10.4087 82.4959 9.92183 82.9814C9.43498 83.4669 9.10162 84.076 8.96077 84.7376C8.78927 85.5485 8.81524 86.3867 9.03664 87.1862C9.97632 91.2699 12.2467 94.3742 15.7486 96.4062C16.4991 96.8448 17.3635 97.0684 18.2408 97.0507C19.1358 97.0283 19.9874 96.6746 20.6192 96.0629C20.7702 95.9448 20.8952 95.7989 20.9869 95.6336C21.0786 95.4683 21.1352 95.287 21.1532 95.1003C21.14 94.9264 21.0903 94.7568 21.007 94.602C20.9237 94.4472 20.8086 94.3103 20.6688 94.1997C20.1191 93.6982 19.5393 93.2283 18.9324 92.7925L18.6698 92.5927C18.5042 92.4626 18.2965 92.393 18.083 92.3961C17.8695 92.3992 17.6639 92.4748 17.5025 92.6096C17.1376 92.8809 16.8013 93.1864 16.4986 93.5214C16.444 93.594 16.3742 93.6548 16.2938 93.6998C16.2134 93.7449 16.1241 93.7733 16.0317 93.7832C15.9457 93.783 15.8609 93.7645 15.7832 93.7289C15.7055 93.6934 15.6369 93.6418 15.5823 93.5777C13.7737 91.898 12.3924 89.8376 11.5463 87.5577C11.5093 87.4928 11.4858 87.4216 11.4773 87.348C11.4688 87.2744 11.4755 87.1999 11.4969 87.1288C11.5183 87.0577 11.5541 86.9913 11.6021 86.9336C11.6502 86.8758 11.7095 86.8278 11.7769 86.7922C11.824 86.7685 11.874 86.7506 11.9257 86.7387C12.378 86.567 12.8216 86.3784 13.2389 86.1758C13.4156 86.1142 13.5639 85.9941 13.6574 85.8369C13.751 85.6797 13.7836 85.4956 13.7496 85.3174C13.5106 84.3647 13.2184 83.4252 12.8741 82.503C12.8104 82.3382 12.6948 82.1967 12.5436 82.0983C12.3924 81.9999 12.2131 81.9495 12.0308 81.9542Z" fill="#263238"/>
<path d="M23.4267 88.9565C23.3654 89.404 23.3304 89.8571 23.237 90.3018C23.2279 90.3879 23.2013 90.4715 23.1587 90.5477C23.116 90.6239 23.0582 90.6913 22.9885 90.7459C22.9189 90.8005 22.8387 90.8414 22.7527 90.8661C22.6666 90.8908 22.5764 90.8989 22.4871 90.89C22.4447 90.8842 22.4028 90.8758 22.3616 90.8647C21.9793 90.7774 21.7779 90.4312 21.8655 89.9753C22.1365 88.576 21.8451 87.1297 21.0505 85.93C20.2559 84.7304 19.0177 83.8674 17.5873 83.5162C17.4558 83.4908 17.3268 83.4541 17.2021 83.4064C17.0492 83.35 16.923 83.2415 16.8472 83.1016C16.7715 82.9616 16.7513 82.7998 16.7906 82.6465C16.7994 82.567 16.8243 82.49 16.8639 82.4198C16.9036 82.3496 16.9572 82.2876 17.0217 82.2374C17.0862 82.1872 17.1603 82.1498 17.2399 82.1273C17.3194 82.1048 17.4028 82.0976 17.4852 82.1062H17.5552C18.1973 82.2408 18.8225 82.4418 19.42 82.7056C20.6203 83.2902 21.6297 84.1834 22.3368 85.2865C23.0438 86.3896 23.421 87.6597 23.4267 88.9565Z" fill="#263238"/>
<path d="M22.5632 91.0364C22.4807 91.0354 22.3985 91.0259 22.3181 91.0082C21.8599 90.9013 21.6148 90.4791 21.714 89.9556C21.9787 88.5913 21.695 87.1809 20.9204 86.011C20.1459 84.8411 18.9386 83.9994 17.5438 83.6569L17.4417 83.6344C17.3338 83.6154 17.2289 83.5832 17.1294 83.5387C16.9472 83.4688 16.7972 83.3378 16.7071 83.1697C16.6171 83.0017 16.5929 82.8079 16.6392 82.6241C16.6581 82.5109 16.7007 82.4026 16.7644 82.3058C16.8281 82.2091 16.9116 82.1258 17.0098 82.0612C17.0954 82.0082 17.1916 81.9733 17.2922 81.9587C17.3928 81.9442 17.4955 81.9503 17.5934 81.9767C18.2453 82.1142 18.8801 82.318 19.4874 82.5847C20.7113 83.1764 21.7412 84.0839 22.4624 85.2063C23.1837 86.3287 23.5681 87.622 23.5729 88.9424V88.9621C23.5554 89.1 23.5379 89.2436 23.5233 89.373C23.4883 89.6826 23.4504 90.0035 23.3832 90.3187C23.3664 90.4353 23.3255 90.5475 23.2628 90.6485C23.2001 90.7496 23.117 90.8375 23.0185 90.9069C22.884 90.994 22.7251 91.0392 22.5632 91.0364ZM17.395 82.2469C17.3145 82.2458 17.2354 82.2673 17.1674 82.3088C17.1032 82.352 17.0488 82.4071 17.0072 82.4709C16.9656 82.5347 16.9377 82.6059 16.9251 82.6803C16.8926 82.8034 16.9086 82.9338 16.97 83.0461C17.0315 83.1584 17.1341 83.2447 17.2578 83.2883C17.3372 83.3214 17.4205 83.3451 17.5059 83.3586L17.6168 83.384C19.0811 83.7468 20.3477 84.6326 21.1604 85.8621C21.9731 87.0916 22.2711 88.5729 21.9941 90.0063C21.9212 90.3834 22.07 90.662 22.3764 90.7324C22.4524 90.7544 22.5322 90.7613 22.6109 90.7526C22.6897 90.7439 22.7658 90.7198 22.8346 90.6818C22.9024 90.6332 22.9596 90.5721 23.0026 90.502C23.0457 90.432 23.0739 90.3543 23.0856 90.2737C23.1498 89.9725 23.1848 89.6573 23.2227 89.3505C23.2373 89.2183 23.2519 89.0691 23.2723 88.9481C23.265 87.6799 22.8931 86.4384 22.1982 85.3618C21.5032 84.2851 20.5123 83.4154 19.3356 82.8492C18.7484 82.5904 18.1339 82.3932 17.503 82.261C17.4671 82.2569 17.4308 82.2569 17.395 82.261V82.2469Z" fill="#263238"/>
<path d="M21.0074 89.3055C20.9841 89.4743 20.9607 89.8008 20.8936 90.116C20.8824 90.2045 20.8532 90.29 20.8077 90.3675C20.7621 90.445 20.7011 90.5131 20.6281 90.5678C20.5551 90.6224 20.4716 90.6626 20.3825 90.6861C20.2933 90.7095 20.2003 90.7157 20.1086 90.7043H20.0823C19.9862 90.6864 19.8946 90.6504 19.8131 90.5981C19.7315 90.5459 19.6615 90.4785 19.6072 90.3999C19.5529 90.3214 19.5153 90.2332 19.4967 90.1404C19.4781 90.0477 19.4787 89.9524 19.4987 89.8599C19.5569 89.4504 19.5657 89.0358 19.525 88.6244C19.2506 87.068 18.2964 86.0745 16.7176 85.6411C16.204 85.5004 15.9413 85.188 16.0347 84.7968C16.1281 84.4056 16.5192 84.1917 17.0532 84.3014C19.3032 84.7799 21.0133 86.871 21.0074 89.3055Z" fill="#263238"/>
<path d="M20.2073 90.8506H20.0585C19.945 90.8322 19.8364 90.7924 19.7389 90.7335C19.6414 90.6746 19.5569 90.5977 19.4902 90.5072C19.4236 90.4168 19.376 90.3146 19.3504 90.2064C19.3247 90.0982 19.3214 89.9862 19.3406 89.8768C19.3406 89.7896 19.3552 89.6995 19.364 89.6095C19.4048 89.2992 19.4048 88.9853 19.364 88.6751C19.1013 87.189 18.1967 86.2209 16.6617 85.8015C16.078 85.6411 15.7657 85.2527 15.8766 84.7912C15.9875 84.3296 16.4603 84.0594 17.0644 84.1917C19.434 84.6898 21.1499 86.8485 21.1499 89.3308V89.3477C21.1521 89.4019 21.1452 89.4561 21.1295 89.5081C21.112 89.6854 21.0828 89.9275 21.0332 90.1667C20.9999 90.3557 20.8991 90.5275 20.7483 90.6524C20.5974 90.7773 20.4061 90.8474 20.2073 90.8506ZM16.7521 84.414C16.6187 84.4017 16.4852 84.4374 16.3774 84.5143C16.2697 84.5912 16.1952 84.7039 16.1685 84.8306C16.0634 85.2724 16.5391 85.4526 16.7521 85.5088C18.4009 85.9591 19.3785 87.0005 19.6704 88.6047C19.7141 88.9392 19.7141 89.2777 19.6704 89.6123C19.6704 89.6995 19.6529 89.7868 19.647 89.874C19.6282 89.9482 19.6253 90.0253 19.6383 90.1007C19.6514 90.176 19.6803 90.248 19.7231 90.3123C19.766 90.3765 19.822 90.4317 19.8877 90.4744C19.9534 90.5171 20.0274 90.5465 20.1052 90.5607C20.178 90.5715 20.2523 90.5684 20.3239 90.5514C20.3954 90.5345 20.4628 90.5041 20.5222 90.462C20.5815 90.4199 20.6317 90.367 20.6698 90.3061C20.7079 90.2453 20.7332 90.1779 20.7443 90.1076C20.7443 90.1076 20.7443 90.0935 20.7443 90.0851C20.791 89.8599 20.8172 89.6235 20.8377 89.4518C20.834 89.3987 20.8399 89.3454 20.8552 89.2942C20.8552 86.9498 19.2385 84.9094 17.006 84.4394C16.9225 84.4224 16.8374 84.4139 16.7521 84.414Z" fill="#263238"/>
<path d="M17.1495 89.5391C17.1992 89.1543 17.0997 88.7654 16.8703 88.447C16.6409 88.1286 16.2976 87.9031 15.9063 87.8138C15.4102 87.6675 15.1797 87.3297 15.2964 86.9245C15.4132 86.5192 15.7984 86.3616 16.3091 86.4882C17.043 86.6781 17.6779 87.1235 18.0913 87.7384C18.5046 88.3533 18.6671 89.094 18.5474 89.8177C18.4569 90.313 18.1884 90.541 17.7478 90.496C17.3071 90.4509 17.1057 90.1611 17.1378 89.6516C17.1408 89.6151 17.1466 89.5757 17.1495 89.5391Z" fill="#263238"/>
<path d="M17.8498 90.6423H17.7331C17.2224 90.5917 16.9539 90.2314 16.9948 89.6517V89.5335C17.0411 89.1807 16.9501 88.824 16.7393 88.5323C16.5285 88.2406 16.2129 88.0347 15.8537 87.9546C15.2701 87.7829 15.0074 87.3748 15.1446 86.8907C15.2817 86.4066 15.7487 86.2124 16.3352 86.356C17.1036 86.5568 17.7681 87.0239 18.2016 87.6678C18.6351 88.3118 18.807 89.0873 18.6844 89.8459C18.5969 90.3609 18.2992 90.6423 17.8498 90.6423ZM15.988 86.5868C15.8633 86.5751 15.7383 86.607 15.636 86.6768C15.5337 86.7465 15.4608 86.8494 15.4306 86.9667C15.3343 87.2988 15.521 87.5605 15.9442 87.6872C16.366 87.7861 16.7358 88.0305 16.9836 88.3742C17.2315 88.718 17.3403 89.1373 17.2895 89.5532V89.6657C17.2457 90.3074 17.6397 90.3468 17.7681 90.3609C17.9957 90.3834 18.3109 90.3609 18.4101 89.798C18.5255 89.1087 18.3711 88.4026 17.9768 87.817C17.5826 87.2313 16.9767 86.8079 16.2769 86.629C16.1827 86.6035 16.0857 86.5894 15.988 86.5868Z" fill="#263238"/>
<path d="M13.058 86.4403C13.028 86.4403 12.9987 86.4314 12.9742 86.4148C12.9496 86.3982 12.931 86.3747 12.9208 86.3475L12.7515 85.8888C12.7357 85.8548 12.7346 85.8162 12.7482 85.7814C12.7619 85.7466 12.7893 85.7184 12.8245 85.703C12.8419 85.6951 12.8607 85.6906 12.8799 85.6899C12.8992 85.6892 12.9183 85.6922 12.9363 85.6987C12.9543 85.7053 12.9707 85.7153 12.9846 85.7281C12.9985 85.741 13.0095 85.7563 13.0171 85.7734V85.7959L13.1864 86.2518C13.1986 86.2873 13.1959 86.3259 13.179 86.3595C13.1621 86.3932 13.1323 86.4191 13.0959 86.4319C13.0837 86.4365 13.071 86.4393 13.058 86.4403Z" fill="white"/>
<path d="M12.7047 85.4779C12.6745 85.4787 12.6449 85.4701 12.6201 85.4534C12.5954 85.4367 12.577 85.4127 12.5675 85.385L11.4002 82.2103C11.3939 82.1919 11.3915 82.1724 11.393 82.153C11.3946 82.1336 11.4002 82.1147 11.4094 82.0974C11.4187 82.0801 11.4314 82.0647 11.4468 82.0522C11.4623 82.0397 11.4802 82.0303 11.4995 82.0246C11.5184 82.018 11.5385 82.0152 11.5586 82.0164C11.5787 82.0175 11.5984 82.0226 11.6164 82.0313C11.6344 82.0399 11.6504 82.0521 11.6634 82.0669C11.6764 82.0817 11.6862 82.0989 11.6921 82.1174L12.8594 85.2921C12.8725 85.3272 12.8707 85.3659 12.8543 85.3997C12.8378 85.4334 12.8082 85.4595 12.7718 85.4722C12.7501 85.4784 12.7272 85.4803 12.7047 85.4779Z" fill="white"/>
<path d="M20.9522 95.992C20.9169 95.9923 20.8827 95.9803 20.8559 95.9582L18.0223 93.5719C18.0077 93.5597 17.9958 93.5448 17.9871 93.5282C17.9785 93.5116 17.9734 93.4934 17.972 93.4749C17.9707 93.4563 17.9731 93.4377 17.9792 93.4201C17.9854 93.4024 17.995 93.3861 18.0077 93.3721C18.0203 93.358 18.0357 93.3465 18.053 93.3382C18.0702 93.3299 18.089 93.325 18.1082 93.3237C18.1275 93.3223 18.1468 93.3247 18.1651 93.3306C18.1834 93.3365 18.2003 93.3458 18.2149 93.358L21.0485 95.7472C21.0742 95.7729 21.0885 95.8072 21.0885 95.8428C21.0885 95.8785 21.0742 95.9128 21.0485 95.9385C21.0372 95.9534 21.0228 95.9659 21.0062 95.9751C20.9896 95.9843 20.9712 95.9901 20.9522 95.992Z" fill="white"/>
<path d="M17.8119 93.3469C17.7767 93.3472 17.7425 93.3352 17.7156 93.3131L17.2487 92.922C17.235 92.9089 17.2242 92.8933 17.2168 92.8762C17.2094 92.859 17.2056 92.8406 17.2056 92.8221C17.2056 92.8035 17.2094 92.7851 17.2168 92.7679C17.2242 92.7508 17.235 92.7352 17.2487 92.7222C17.2731 92.6942 17.308 92.6767 17.3458 92.6735C17.3835 92.6704 17.4211 92.6818 17.4501 92.7053L17.917 93.0964C17.9439 93.1232 17.959 93.159 17.959 93.1963C17.959 93.2336 17.9439 93.2694 17.917 93.2962C17.9043 93.3115 17.8884 93.3239 17.8702 93.3327C17.8521 93.3414 17.8322 93.3463 17.8119 93.3469Z" fill="white"/>
<path d="M39.5615 103.203H39.9788H40.1451C40.1838 103.203 40.2209 103.188 40.2483 103.162C40.2757 103.135 40.291 103.1 40.291 103.062C40.291 103.025 40.2757 102.989 40.2483 102.963C40.2209 102.936 40.1838 102.922 40.1451 102.922H39.5615C39.5228 102.922 39.4856 102.936 39.4583 102.963C39.4309 102.989 39.4156 103.025 39.4156 103.062C39.4156 103.1 39.4309 103.135 39.4583 103.162C39.4856 103.188 39.5228 103.203 39.5615 103.203Z" fill="#263238"/>
<path d="M40.9174 103.162C40.9448 103.188 40.9819 103.203 41.0206 103.203H41.0323H41.6159C41.6347 103.202 41.6531 103.198 41.6702 103.19C41.6873 103.183 41.7026 103.172 41.7154 103.159C41.7281 103.145 41.738 103.13 41.7445 103.113C41.7509 103.096 41.7538 103.078 41.7531 103.059C41.7509 103.023 41.7343 102.988 41.7067 102.962C41.6791 102.937 41.6425 102.922 41.6042 102.922H41.0206C40.9819 102.922 40.9448 102.936 40.9174 102.963C40.89 102.989 40.8747 103.025 40.8747 103.062C40.8747 103.1 40.89 103.135 40.9174 103.162Z" fill="#263238"/>
<path d="M38.1023 103.189L38.686 103.203V103.186C38.7209 103.186 38.7545 103.173 38.7807 103.151C38.807 103.129 38.8241 103.098 38.829 103.065C38.8294 103.047 38.826 103.028 38.819 103.011C38.812 102.994 38.8016 102.978 38.7883 102.965C38.775 102.951 38.7592 102.941 38.7416 102.933C38.7241 102.926 38.7052 102.922 38.686 102.922L38.1023 102.907C38.0636 102.907 38.0265 102.922 37.9992 102.949C37.9718 102.975 37.9564 103.011 37.9564 103.048C37.9564 103.085 37.9718 103.121 37.9992 103.148C38.0265 103.174 38.0636 103.189 38.1023 103.189Z" fill="#263238"/>
<path d="M42.3783 103.137C42.4055 103.162 42.4417 103.177 42.4797 103.178H42.4856L43.0692 103.155C43.0884 103.154 43.1072 103.15 43.1246 103.142C43.142 103.135 43.1577 103.124 43.1707 103.11C43.1837 103.096 43.1938 103.08 43.2004 103.063C43.2071 103.046 43.2101 103.027 43.2093 103.009C43.2063 102.972 43.1891 102.938 43.1609 102.912C43.1328 102.887 43.0958 102.874 43.0575 102.874L42.4739 102.896C42.4357 102.898 42.3996 102.914 42.3734 102.94C42.3472 102.967 42.333 103.003 42.3338 103.04C42.3353 103.076 42.3512 103.111 42.3783 103.137Z" fill="#263238"/>
<path d="M36.6432 103.127L37.2269 103.158L37.2298 103.141C37.2666 103.143 37.3028 103.131 37.3309 103.108C37.3591 103.085 37.3771 103.053 37.3815 103.017C37.3823 102.999 37.3794 102.981 37.3729 102.964C37.3664 102.947 37.3565 102.931 37.3438 102.918C37.3311 102.905 37.3157 102.894 37.2987 102.886C37.2816 102.879 37.2632 102.874 37.2444 102.874L36.6607 102.846C36.622 102.843 36.584 102.856 36.555 102.881C36.526 102.906 36.5084 102.94 36.5061 102.978C36.5037 103.015 36.5169 103.052 36.5426 103.08C36.5683 103.108 36.6045 103.125 36.6432 103.127Z" fill="#263238"/>
<path d="M43.8357 103.072C43.863 103.098 43.9001 103.113 43.9388 103.113H43.9622C44.1577 103.104 44.3532 103.093 44.5458 103.079C44.5646 103.078 44.583 103.073 44.5998 103.064C44.6165 103.056 44.6315 103.045 44.6437 103.031C44.6559 103.017 44.6651 103.001 44.6709 102.984C44.6766 102.966 44.6788 102.948 44.6772 102.93C44.6742 102.893 44.6563 102.859 44.6273 102.835C44.5984 102.81 44.5607 102.798 44.5225 102.801L43.9388 102.831C43.9001 102.831 43.863 102.846 43.8357 102.873C43.8083 102.899 43.7929 102.935 43.7929 102.972C43.7929 103.01 43.8083 103.045 43.8357 103.072Z" fill="#263238"/>
<path d="M35.1841 103.031L35.7677 103.073L35.7736 103.059C35.8093 103.062 35.8446 103.052 35.8727 103.03C35.9008 103.009 35.9196 102.978 35.9253 102.944C35.9269 102.926 35.9247 102.907 35.9188 102.889C35.9129 102.872 35.9035 102.855 35.891 102.841C35.8785 102.827 35.8633 102.815 35.8461 102.807C35.829 102.799 35.8103 102.794 35.7911 102.792L35.2074 102.75C35.1687 102.747 35.1304 102.759 35.1008 102.783C35.0713 102.807 35.0529 102.842 35.0498 102.879C35.0467 102.917 35.0592 102.954 35.0843 102.982C35.1095 103.011 35.1454 103.028 35.1841 103.031Z" fill="#263238"/>
<path d="M45.2948 102.982C45.3222 103.008 45.3593 103.023 45.398 103.023H45.4271L46.0108 102.981C46.0296 102.979 46.0479 102.974 46.0645 102.965C46.0812 102.956 46.0959 102.945 46.1079 102.93C46.1198 102.916 46.1287 102.9 46.1341 102.883C46.1395 102.865 46.1412 102.847 46.1392 102.829C46.1377 102.81 46.1325 102.792 46.1237 102.776C46.115 102.759 46.103 102.744 46.0883 102.732C46.0737 102.72 46.0567 102.711 46.0384 102.705C46.0201 102.7 46.0008 102.698 45.9816 102.699L45.398 102.741C45.3593 102.741 45.3222 102.756 45.2948 102.783C45.2674 102.809 45.2521 102.845 45.2521 102.882C45.2521 102.919 45.2674 102.955 45.2948 102.982Z" fill="#263238"/>
<path d="M33.7425 102.893C33.9351 102.916 34.1306 102.936 34.3261 102.952H34.3436C34.3628 102.953 34.3819 102.95 34.3999 102.944C34.4179 102.938 34.4345 102.928 34.4485 102.915C34.4626 102.903 34.474 102.888 34.4821 102.871C34.4901 102.854 34.4946 102.836 34.4954 102.817C34.4966 102.799 34.4939 102.781 34.4876 102.763C34.4813 102.746 34.4715 102.73 34.4587 102.716C34.446 102.703 34.4305 102.692 34.4132 102.684C34.396 102.676 34.3773 102.672 34.3582 102.671L33.7746 102.612C33.7554 102.61 33.736 102.612 33.7175 102.617C33.699 102.622 33.6817 102.631 33.6667 102.642C33.6517 102.654 33.6391 102.668 33.6299 102.685C33.6206 102.701 33.6147 102.719 33.6126 102.737C33.6105 102.756 33.6122 102.774 33.6176 102.792C33.623 102.81 33.6319 102.827 33.644 102.841C33.6561 102.856 33.671 102.868 33.6879 102.877C33.7048 102.886 33.7233 102.891 33.7425 102.893Z" fill="#263238"/>
<path d="M46.7493 102.872C46.7764 102.896 46.8118 102.908 46.8483 102.907H46.8658L47.4495 102.854C47.4683 102.852 47.4866 102.847 47.5032 102.838C47.5199 102.83 47.5346 102.818 47.5466 102.804C47.5585 102.79 47.5674 102.773 47.5728 102.756C47.5782 102.738 47.5799 102.72 47.5779 102.702C47.5761 102.684 47.5705 102.666 47.5614 102.649C47.5523 102.633 47.54 102.618 47.525 102.606C47.5101 102.595 47.4929 102.586 47.4744 102.581C47.456 102.575 47.4366 102.573 47.4174 102.575L46.8337 102.626C46.8145 102.628 46.7959 102.633 46.7789 102.642C46.7619 102.651 46.7468 102.663 46.7346 102.677C46.7224 102.691 46.7133 102.708 46.7077 102.726C46.7022 102.744 46.7004 102.762 46.7024 102.781C46.7054 102.816 46.7222 102.849 46.7493 102.872Z" fill="#263238"/>
<path d="M32.8582 102.792H32.8757L32.8699 102.778C32.9063 102.782 32.9427 102.771 32.9712 102.749C32.9996 102.727 33.0178 102.695 33.0217 102.66C33.0255 102.625 33.0148 102.59 32.9918 102.562C32.9688 102.535 32.9355 102.517 32.8991 102.513L32.3154 102.438C32.2772 102.433 32.2386 102.442 32.2075 102.464C32.1765 102.486 32.1556 102.519 32.1491 102.556C32.1455 102.593 32.1564 102.63 32.1796 102.659C32.2028 102.689 32.2367 102.709 32.2746 102.716L32.8582 102.792Z" fill="#263238"/>
<path d="M48.1986 102.733C48.2251 102.757 48.2598 102.77 48.2958 102.77H48.3162L48.8999 102.708C48.919 102.705 48.9375 102.7 48.9544 102.69C48.9712 102.681 48.986 102.669 48.9979 102.655C49.0098 102.64 49.0187 102.623 49.0239 102.605C49.0291 102.587 49.0306 102.569 49.0283 102.55C49.026 102.532 49.0199 102.514 49.0105 102.498C49.001 102.481 48.9883 102.467 48.9732 102.456C48.958 102.444 48.9406 102.436 48.922 102.43C48.9034 102.425 48.884 102.424 48.8648 102.426L48.2812 102.488C48.243 102.492 48.208 102.511 48.1839 102.54C48.1599 102.569 48.1487 102.606 48.1528 102.643C48.1557 102.678 48.1721 102.71 48.1986 102.733Z" fill="#263238"/>
<path d="M86.7672 3.22356L68.5981 5.21335L73.1886 8.51186L86.7672 3.22356Z" fill="white"/>
<path d="M73.1883 8.65281C73.1571 8.65307 73.1266 8.64424 73.1007 8.62748L68.5132 5.32617C68.4895 5.30955 68.4716 5.28643 68.4617 5.25983C68.4518 5.23322 68.4504 5.20436 68.4578 5.177C68.4651 5.14956 68.4811 5.12501 68.5036 5.10683C68.5261 5.08865 68.554 5.07775 68.5833 5.07568L86.7494 3.10559C86.7847 3.1019 86.8201 3.11072 86.8491 3.13041C86.8781 3.15009 86.8987 3.17929 86.907 3.21254C86.9166 3.24502 86.9132 3.2798 86.8976 3.31002C86.8819 3.34024 86.8551 3.3637 86.8224 3.37577L73.2437 8.66689C73.2246 8.66507 73.2059 8.66032 73.1883 8.65281ZM68.9831 5.31491L73.2116 8.35448L85.7222 3.47991L68.9831 5.31491Z" fill="#263238"/>
<path d="M73.1888 8.51186L73.1538 12.089L86.7675 3.22356L73.1888 8.51186Z" fill="white"/>
<path d="M73.1537 12.2298C73.1302 12.2299 73.1071 12.2241 73.0866 12.2129C73.0632 12.2009 73.0436 12.1831 73.0298 12.1613C73.0159 12.1395 73.0083 12.1146 73.0078 12.0891L73.0428 8.51194C73.043 8.48416 73.0516 8.45704 73.0677 8.434C73.0838 8.41096 73.1067 8.39303 73.1333 8.38248L86.7119 3.09699C86.7454 3.08322 86.783 3.08225 86.8171 3.09427C86.8513 3.1063 86.8794 3.13041 86.8958 3.16172C86.9128 3.19239 86.9175 3.22805 86.9089 3.26184C86.9002 3.29562 86.8789 3.32513 86.8491 3.34466L73.2354 12.2073C73.2114 12.2231 73.1828 12.231 73.1537 12.2298ZM73.3347 8.60763L73.3026 11.8217L85.5388 3.85407L73.3347 8.60763Z" fill="#263238"/>
<path d="M73.1538 12.089L75.2841 9.19013L86.7675 3.22356L73.1538 12.089Z" fill="white"/>
<path d="M73.1536 12.2297C73.1344 12.2299 73.1155 12.2263 73.0979 12.219C73.0803 12.2118 73.0645 12.201 73.0514 12.1875C73.0275 12.1639 73.0129 12.1329 73.0102 12.1C73.0075 12.0671 73.017 12.0343 73.0368 12.0074L75.1643 9.10853C75.1772 9.09098 75.1942 9.07654 75.2139 9.06631L86.6972 3.09693C86.7304 3.08003 86.769 3.07586 86.8053 3.08525C86.8415 3.09465 86.8728 3.11691 86.8927 3.14759C86.9112 3.17906 86.917 3.21604 86.9089 3.25138C86.9009 3.28673 86.8795 3.31793 86.8489 3.33897L73.2353 12.2016C73.2118 12.2191 73.1832 12.2289 73.1536 12.2297ZM75.3831 9.28865L73.7372 11.5402L84.2634 4.68426L75.3831 9.28865Z" fill="#263238"/>
<path d="M75.2837 9.19013L81.2661 13.5018L86.767 3.22356L75.2837 9.19013Z" fill="white"/>
<path d="M81.2661 13.6427C81.2344 13.6434 81.2035 13.6335 81.1786 13.6146L75.1962 9.30291C75.1759 9.28909 75.1599 9.27035 75.1496 9.24859C75.1394 9.22684 75.1353 9.20285 75.1378 9.17907C75.1395 9.15563 75.1473 9.13298 75.1606 9.11328C75.1738 9.09357 75.1921 9.07747 75.2137 9.06649L86.697 3.09711C86.7246 3.08341 86.756 3.07822 86.7867 3.08224C86.8175 3.08627 86.8463 3.09932 86.8692 3.11962C86.8915 3.1409 86.9061 3.16854 86.9108 3.19845C86.9155 3.22836 86.9101 3.25895 86.8954 3.28567L81.3974 13.5668C81.3876 13.5853 81.3735 13.6014 81.3564 13.6141C81.3392 13.6268 81.3193 13.6356 81.2982 13.6399L81.2661 13.6427ZM75.5464 9.21003L81.2107 13.2909L86.4139 3.5643L75.5464 9.21003Z" fill="#263238"/>
<path d="M50.2046 44.6575C50.0763 44.6574 49.9516 44.6166 49.8498 44.5413C49.748 44.466 49.6747 44.3604 49.6414 44.2409C49.5743 43.9989 42.8594 19.9581 41.6746 12.3451C40.9012 7.36921 42.4362 4.42532 43.8603 2.83236C44.6698 1.92689 45.6756 1.20397 46.8067 0.714725C47.9378 0.225477 49.1665 -0.0181563 50.406 0.00105383C55.5917 0.00105383 58.2444 4.5379 58.9214 6.93579C59.5051 9.02409 60.5031 12.6575 60.5148 12.6941C60.547 12.8363 60.5208 12.9851 60.4417 13.1091C60.3626 13.2331 60.2367 13.3227 60.0906 13.3591C59.9444 13.3955 59.7893 13.3759 59.6578 13.3044C59.5264 13.2329 59.4287 13.115 59.3854 12.9755C59.3854 12.939 58.3845 9.31679 57.795 7.22567C57.2055 5.13456 54.8855 1.12682 50.406 1.12682C49.3348 1.11005 48.2728 1.31982 47.2947 1.74139C46.3166 2.16295 45.4461 2.78608 44.7446 3.56693C43.481 4.97414 42.1181 7.62532 42.8302 12.1791C43.9975 19.7301 50.7095 43.7006 50.7707 43.9482C50.8109 44.0923 50.7901 44.2458 50.713 44.3751C50.6358 44.5044 50.5086 44.5989 50.3593 44.6378C50.309 44.6514 50.2569 44.6581 50.2046 44.6575Z" fill="#263238"/>
<path d="M17.3125 71.6421C14.8729 71.6421 12.8885 70.8287 11.8875 68.4703C9.87682 63.7448 16.1336 60.649 23.3767 57.0606C25.7113 55.9067 28.1217 54.7106 30.4213 53.4018C39.144 48.3894 38.5136 45.0486 38.5049 45.0149C38.4727 44.8726 38.4989 44.7239 38.578 44.5999C38.6571 44.4759 38.7829 44.3863 38.9291 44.3499C39.0752 44.3134 39.2303 44.3331 39.3618 44.4046C39.4933 44.4761 39.5909 44.594 39.6342 44.7334C39.748 45.15 40.4689 48.9551 31.0196 54.3728C28.685 55.7125 26.257 56.9058 23.9107 58.0794C17.1783 61.4117 11.3622 64.2908 12.9672 68.0594C14.7532 72.2613 20.8611 70.2659 26.7706 68.3408C30.4301 67.1475 33.8853 66.0189 36.0419 66.5846C37.9621 67.0912 38.356 68.3746 38.5662 69.0641C38.5953 69.1738 38.6334 69.281 38.68 69.3849C38.7805 69.4956 38.8322 69.6399 38.8238 69.7869C38.8154 69.9338 38.7476 70.0718 38.635 70.1711C38.5225 70.2705 38.374 70.3234 38.2215 70.3185C38.069 70.3136 37.9245 70.2512 37.8191 70.1448C37.6335 69.9232 37.5064 69.6615 37.4485 69.3821C37.2617 68.7714 37.0282 68.0115 35.7354 67.671C33.9232 67.1925 30.6314 68.2704 27.1441 69.4075C23.8115 70.4741 20.2337 71.6421 17.3125 71.6421Z" fill="#263238"/>
<path d="M78.6399 60.573C78.5379 60.5746 78.4373 60.5503 78.3481 60.5027C78.281 60.4668 78.2219 60.4186 78.1741 60.3607C78.1264 60.3029 78.0909 60.2365 78.0698 60.1654C78.0486 60.0943 78.0422 60.0199 78.0509 59.9464C78.0596 59.8729 78.0833 59.8018 78.1205 59.7371C81.1671 54.4517 86.6593 52.8897 91.5094 51.5134C93.2013 51.0658 94.8663 50.5284 96.4967 49.9035C98.3556 49.1465 99.4149 47.2889 98.9101 45.6819C98.0492 42.935 92.9248 40.7679 81.1263 42.9238C75.8384 43.8891 71.7879 43.4867 69.0826 41.6883C66.748 40.1488 66.3424 38.1477 66.3249 38.0633C66.2999 37.9181 66.3349 37.7692 66.4223 37.6486C66.5098 37.528 66.6427 37.4452 66.7927 37.418C66.9426 37.3907 67.0977 37.4212 67.2246 37.5029C67.3516 37.5846 67.4403 37.711 67.4718 37.855C67.5272 38.1196 68.89 44.013 80.8957 41.8177C96.701 38.9301 99.5288 43.7878 100.016 45.3554C100.702 47.5451 99.3799 49.9486 96.9403 50.9421C95.2703 51.5868 93.5632 52.1384 91.8275 52.5941C86.9657 53.976 81.9434 55.4086 79.1302 60.286C79.081 60.3705 79.01 60.4413 78.9241 60.4916C78.8382 60.5419 78.7403 60.5699 78.6399 60.573Z" fill="#263238"/>
<path d="M60.5441 16.2627C60.2887 16.2623 60.0406 16.1811 59.8377 16.0317C59.6347 15.8822 59.4882 15.6727 59.4205 15.4353L58.227 11.2137C58.1866 11.071 58.1757 10.922 58.1949 10.7753C58.2142 10.6286 58.2632 10.487 58.3392 10.3585C58.4152 10.2301 58.5167 10.1173 58.6379 10.0267C58.7591 9.93608 58.8976 9.86937 59.0455 9.83037C59.1935 9.79138 59.3479 9.78087 59.5001 9.79944C59.6522 9.81801 59.7991 9.8653 59.9322 9.93861C60.0654 10.0119 60.1824 10.1098 60.2763 10.2267C60.3703 10.3436 60.4394 10.4772 60.4799 10.6198L61.6734 14.8415C61.7137 14.9841 61.7244 15.133 61.705 15.2797C61.6856 15.4263 61.6364 15.5679 61.5602 15.6962C61.4841 15.8245 61.3825 15.9371 61.2612 16.0276C61.1399 16.118 61.0013 16.1845 60.8534 16.2233C60.7527 16.2504 60.6486 16.2637 60.5441 16.2627Z" fill="#263238"/>
<path d="M77.067 59.8188C77.067 59.8188 78.459 57.5166 79.851 58.4763C81.243 59.436 78.2606 61.3526 79.4541 61.7354C80.6477 62.1181 83.0319 61.1725 83.8315 63.6548C84.6311 66.1371 82.2382 67.2967 79.8539 66.7225C77.4697 66.1484 75.4766 63.8462 77.067 59.8188Z" fill="white"/>
<path d="M81.0444 67.0068C80.6301 67.0064 80.2173 66.9563 79.8158 66.8576C79.1926 66.7212 78.6071 66.457 78.099 66.0831C77.591 65.7092 77.1723 65.2342 76.8713 64.6905C76.1563 63.3734 76.1797 61.6706 76.9297 59.7681V59.7484C76.9647 59.6893 77.7847 58.3412 78.8382 58.1301C79.0257 58.0912 79.2198 58.0917 79.4071 58.1315C79.5944 58.1713 79.7706 58.2495 79.9238 58.3609C80.7993 58.9603 80.1777 59.8835 79.7312 60.5589C79.4919 60.922 79.2439 61.2963 79.3081 61.4736C79.3081 61.4933 79.3372 61.5552 79.4861 61.6031C79.8681 61.6911 80.2611 61.7261 80.6534 61.7072C81.8499 61.7072 83.3382 61.7072 83.9422 63.6126C84.3508 64.8931 83.9218 65.6868 83.487 66.1287C83.161 66.4245 82.777 66.6546 82.3575 66.8054C81.9381 66.9561 81.4917 67.0246 81.0444 67.0068ZM77.1982 59.8807C76.4803 61.7016 76.4569 63.3199 77.1281 64.5611C77.4113 65.0687 77.8039 65.512 78.2796 65.8611C78.7553 66.2101 79.303 66.4568 79.8859 66.5846C81.2487 66.9139 82.5882 66.6578 83.3002 65.9345C83.843 65.3716 83.9773 64.6061 83.6883 63.6829C83.1456 61.9943 81.8353 61.9943 80.6767 61.9774C80.2499 61.9973 79.8223 61.9575 79.4073 61.8592C79.3265 61.8395 79.2516 61.8017 79.1887 61.7489C79.1259 61.6961 79.0768 61.6297 79.0454 61.5552C78.9316 61.2485 79.1942 60.8545 79.4977 60.3957C80.0289 59.5908 80.3732 58.9885 79.7662 58.5804C79.6465 58.4909 79.5079 58.4278 79.3601 58.3957C79.2124 58.3636 79.0591 58.3633 78.9112 58.3947C78.0357 58.5889 77.2711 59.7625 77.1982 59.8807Z" fill="#263238"/>
<path d="M82.816 66.5931C82.7871 66.5929 82.7589 66.5851 82.7343 66.5705C82.7023 66.5499 82.6801 66.5179 82.6724 66.4815C82.6647 66.4452 82.6723 66.4074 82.6934 66.3763C84.3656 63.9165 81.6662 62.0844 81.5495 62.0084C81.5178 61.9868 81.496 61.9541 81.489 61.9173C81.4819 61.8805 81.49 61.8425 81.5115 61.8114C81.5221 61.796 81.5357 61.7829 81.5516 61.7727C81.5676 61.7625 81.5854 61.7555 81.6042 61.7521C81.623 61.7487 81.6423 61.7489 81.6609 61.7528C81.6796 61.7567 81.6973 61.7642 81.7129 61.7748C81.7421 61.7945 84.7654 63.8406 82.9327 66.5283C82.9203 66.5475 82.9031 66.5635 82.8827 66.5748C82.8624 66.5861 82.8395 66.5923 82.816 66.5931Z" fill="#263238"/>
<path d="M78.1146 90.7858L49.0401 95.1622C47.1024 95.4437 45.1267 93.8901 44.6306 91.6667L29.5316 24.1037C28.6561 20.9178 31.6298 19.2207 33.5675 18.928L61.215 15.1735C63.1528 14.8921 65.1255 16.4457 65.6245 18.6691L82.6642 86.1223C83.1603 88.3485 81.9667 90.2314 78.1146 90.7858Z" fill="white"/>
<path d="M48.5734 95.3396C46.732 95.3396 44.9606 93.8029 44.4879 91.6977L29.3888 24.1319C29.2241 23.6044 29.1805 23.0487 29.2612 22.5033C29.3418 21.958 29.5447 21.4361 29.8558 20.9741C30.7662 19.6345 32.4121 18.959 33.5473 18.7901L61.1949 15.0329C63.2026 14.7317 65.2541 16.35 65.7648 18.641L82.8045 86.0914C82.9358 86.5662 82.9615 87.0623 82.88 87.5473C82.7985 88.0324 82.6117 88.4953 82.3318 88.9058C81.5847 89.9472 80.1752 90.6226 78.1353 90.9181L49.0637 95.2946C48.9018 95.3222 48.7378 95.3373 48.5734 95.3396ZM61.6822 15.2777C61.5327 15.2778 61.3834 15.2891 61.2357 15.3115L33.5882 19.0688C32.5172 19.2292 30.9618 19.8652 30.1009 21.1289C29.8116 21.5589 29.6233 22.0447 29.5492 22.5522C29.4751 23.0598 29.517 23.5769 29.6719 24.0672L44.7739 91.6358C45.2554 93.786 47.1581 95.2946 49.017 95.0131L78.0915 90.6254C80.0497 90.344 81.395 89.7051 82.0895 88.7313C82.3479 88.3519 82.5199 87.9239 82.5944 87.4757C82.6688 87.0275 82.6439 86.5691 82.5214 86.1308L65.4818 18.7029C65.0411 16.7243 63.3923 15.2777 61.6822 15.2777Z" fill="#263238"/>
<path d="M80.1016 90.0204L51.0329 94.3968C49.0952 94.6782 47.1224 93.1218 46.6263 90.8985L31.5185 23.3355C31.0224 21.1121 32.1897 19.0744 34.1275 18.7817L63.202 14.4053C65.1397 14.1238 67.1154 15.6802 67.6115 17.9036L82.7105 85.4666C83.2095 87.69 82.0393 89.7277 80.1016 90.0204Z" fill="#263238"/>
<path d="M50.5633 94.5656C48.719 94.5656 46.9476 93.029 46.4778 90.9238L31.3758 23.3608C31.2344 22.788 31.2144 22.1935 31.3172 21.6132C31.42 21.0328 31.6435 20.4784 31.9741 19.9834C32.2156 19.6331 32.5294 19.3346 32.8959 19.1065C33.2625 18.8784 33.6739 18.7257 34.1044 18.6579L63.1789 14.2814C65.1896 13.9775 67.2411 15.5958 67.7547 17.8867L82.8421 85.4328C82.9882 86.0077 83.0118 86.6051 82.9115 87.1891C82.8112 87.773 82.589 88.3312 82.2584 88.8298C82.0161 89.18 81.7017 89.4784 81.3347 89.7065C80.9677 89.9345 80.556 90.0873 80.1252 90.1554L51.0507 94.5319C50.8894 94.5558 50.7264 94.5671 50.5633 94.5656ZM63.6721 14.5066C63.5226 14.5066 63.3733 14.5179 63.2256 14.5404L34.1511 18.9168C33.7593 18.9785 33.385 19.1177 33.0515 19.3254C32.7181 19.5332 32.4327 19.8051 32.2133 20.1242C31.9039 20.5905 31.6955 21.1124 31.6007 21.6585C31.5059 22.2046 31.5267 22.7635 31.6618 23.3016L46.7608 90.8647C47.2423 93.0121 49.145 94.5234 51.0069 94.242L80.0814 89.8627C80.4728 89.8009 80.8467 89.6618 81.1796 89.454C81.5126 89.2462 81.7974 88.9743 82.0162 88.6553C82.327 88.1895 82.5363 87.6677 82.6316 87.1215C82.7269 86.5753 82.7062 86.0161 82.5707 85.4779L67.4687 17.9317C67.0281 15.9616 65.3793 14.5122 63.675 14.5122L63.6721 14.5066Z" fill="#263238"/>
<path d="M80.2449 81.9936L47.4233 86.9329L33.6813 25.4406L66.4999 20.4985L80.2449 81.9936Z" fill="#0082F4"/>
<path d="M47.4234 87.0736C47.3905 87.0736 47.3586 87.0627 47.3331 87.0427C47.3076 87.0227 47.29 86.9949 47.2833 86.9638L33.5384 25.4687C33.5305 25.431 33.5378 25.3917 33.5588 25.359C33.5703 25.3432 33.5851 25.3298 33.6021 25.3196C33.6192 25.3095 33.6382 25.3027 33.658 25.2998L66.4767 20.3605C66.5136 20.3554 66.5512 20.3638 66.582 20.3841C66.6128 20.4045 66.6346 20.4352 66.643 20.4703L80.388 81.9626C80.3923 81.9815 80.3924 82.001 80.3884 82.0199C80.3843 82.0388 80.3763 82.0567 80.3646 82.0724C80.3417 82.1034 80.3072 82.1246 80.2683 82.1315L47.4467 87.0736H47.4234ZM33.8564 25.556L47.5314 86.7753L80.064 81.8782L66.3862 20.6589L33.8564 25.556Z" fill="#263238"/>
<path d="M52.338 39.5606C52.6736 41.1113 52.4664 42.4538 51.8827 42.5579C51.2991 42.6621 50.5549 41.4884 50.2222 39.9377C49.8896 38.3869 50.0938 37.0445 50.6775 36.9403C51.2611 36.8362 52.0053 37.9957 52.338 39.5606Z" fill="#263238"/>
<path d="M59.5455 38.2603C59.8782 39.811 59.6739 41.1535 59.0873 41.2605C58.5008 41.3674 57.7595 40.191 57.4268 38.6402C57.0942 37.0895 57.2984 35.747 57.8821 35.6429C58.4657 35.5388 59.2041 36.7096 59.5455 38.2603Z" fill="#263238"/>
<path d="M55.86 52.0144C52.4107 52.0144 49.0109 49.9739 46.8952 46.5206C46.8357 46.3936 46.8271 46.2499 46.8712 46.1172C46.9152 45.9844 47.0088 45.8722 47.1337 45.8022C47.2586 45.7321 47.406 45.7093 47.5474 45.738C47.6888 45.7667 47.8141 45.845 47.8991 45.9577C50.0761 49.5095 53.7093 51.4036 57.1674 50.7845C60.5322 50.185 63.1002 47.2664 63.7043 43.3544C63.7156 43.2805 63.7419 43.2094 63.7817 43.1453C63.8214 43.0812 63.8739 43.0252 63.9361 42.9807C63.9983 42.9361 64.069 42.9038 64.1441 42.8856C64.2193 42.8674 64.2974 42.8636 64.374 42.8745C64.4507 42.8854 64.5244 42.9108 64.5908 42.9491C64.6573 42.9875 64.7153 43.0381 64.7615 43.0981C64.8077 43.1581 64.8412 43.2262 64.8601 43.2987C64.879 43.3712 64.8829 43.4465 64.8716 43.5204C64.1917 47.9166 61.2559 51.201 57.3921 51.8933C56.8863 51.9787 56.3735 52.0192 55.86 52.0144Z" fill="#263238"/>
<path d="M41.7366 48.2014L40.2418 51.1492L40.504 51.2729L41.9987 48.3251L41.7366 48.2014Z" fill="white"/>
<path d="M54.2726 23.4972L43.0831 45.5641L43.3453 45.6877L54.5348 23.6208L54.2726 23.4972Z" fill="white"/>
<path d="M50.7776 23.697L46.0948 32.3466L46.3535 32.4768L51.0363 23.8272L50.7776 23.697Z" fill="white"/>
<path d="M72.7481 72.6682L67.5538 82.5768L67.8143 82.7038L73.0086 72.7952L72.7481 72.6682Z" fill="white"/>
<path d="M75.1563 68.0897L73.5421 71.1688L73.8026 71.2958L75.4167 68.2167L75.1563 68.0897Z" fill="white"/>
<path d="M53.9951 19.4739L44.9281 20.8274C44.7353 20.8377 44.5455 20.7777 44.3963 20.6594C44.2471 20.5411 44.1495 20.3731 44.1227 20.1886C44.0937 20.1079 44.0815 20.0224 44.0868 19.9371C44.092 19.8518 44.1147 19.7684 44.1535 19.6915C44.1922 19.6147 44.2463 19.546 44.3127 19.4893C44.379 19.4326 44.4562 19.3891 44.54 19.3613L44.5984 19.3444L53.6596 18.0134C53.8524 18.0031 54.0422 18.0631 54.1914 18.1814C54.3406 18.2997 54.4382 18.4677 54.465 18.6522C54.5179 18.8167 54.5009 18.9948 54.4178 19.1473C54.3346 19.2998 54.192 19.4142 54.0214 19.4654L53.9951 19.4739Z" fill="white"/>
<path d="M44.8433 20.985C44.6761 20.9667 44.5165 20.9078 44.3792 20.814C44.2419 20.7202 44.1314 20.5945 44.058 20.4485C43.9847 20.3025 43.9508 20.1409 43.9595 19.9789C43.9682 19.8169 44.0192 19.6596 44.1079 19.5217C44.1612 19.4461 44.2303 19.382 44.3106 19.3336C44.391 19.2851 44.481 19.2534 44.5748 19.2403L53.6593 17.8642C53.8885 17.8502 54.1148 17.9192 54.294 18.0577C54.4731 18.1961 54.5923 18.394 54.6282 18.6127C54.6581 18.733 54.6624 18.8578 54.6408 18.9797C54.6192 19.1016 54.5723 19.218 54.5027 19.3219C54.4488 19.3975 54.3792 19.4616 54.2984 19.5101C54.2175 19.5585 54.1271 19.5902 54.0329 19.6033L44.9629 20.9681C44.9236 20.9767 44.8836 20.9823 44.8433 20.985ZM53.7556 18.14H53.6914L44.6128 19.5076C44.5014 19.5277 44.4028 19.5894 44.3384 19.6793C44.2908 19.7517 44.259 19.8327 44.2449 19.9174C44.2309 20.0021 44.2349 20.0886 44.2567 20.1717C44.2775 20.3201 44.354 20.456 44.4718 20.5536C44.5897 20.6511 44.7406 20.7035 44.8958 20.7008L53.9657 19.3359C54.021 19.3264 54.0736 19.306 54.1203 19.276C54.167 19.2459 54.2068 19.207 54.2371 19.1615C54.3335 19.0066 54.3621 18.8212 54.3167 18.646C54.2713 18.4708 54.1555 18.3201 53.9949 18.2272C53.9183 18.1841 53.8343 18.1545 53.7469 18.14H53.7556Z" fill="#263238"/>
<path d="M65.6246 87.0482C65.4583 86.3081 64.8017 85.7846 64.1655 85.8831C63.5293 85.9816 63.1325 86.6598 63.29 87.3999C63.4476 88.14 64.113 88.6635 64.7492 88.565C65.3854 88.4665 65.7881 87.7883 65.6246 87.0482Z" fill="white"/>
<path d="M64.5976 88.7169C63.938 88.7169 63.3048 88.1738 63.1384 87.4308C63.0881 87.2264 63.0813 87.0143 63.1184 86.8073C63.1555 86.6003 63.2358 86.4026 63.3544 86.2264C63.4419 86.0985 63.5561 85.9896 63.6898 85.9068C63.8235 85.8239 63.9736 85.7689 64.1306 85.7452C64.8514 85.6354 65.5898 86.2067 65.7649 87.02C65.8157 87.2237 65.8231 87.4353 65.7864 87.6419C65.7498 87.8485 65.67 88.0457 65.5518 88.2216C65.4631 88.3493 65.3482 88.4581 65.2142 88.5414C65.0802 88.6246 64.9299 88.6805 64.7727 88.7056C64.7147 88.7136 64.6561 88.7174 64.5976 88.7169ZM64.3057 86.0125H64.1657C64.0478 86.0314 63.9353 86.0734 63.8349 86.1358C63.7345 86.1983 63.6485 86.2798 63.582 86.3755C63.4866 86.5209 63.4224 86.6832 63.3934 86.8528C63.3643 87.0225 63.3709 87.1961 63.4128 87.3633C63.5616 88.0302 64.1482 88.5058 64.7172 88.4186C64.8354 88.4006 64.9483 88.3591 65.0488 88.2966C65.1493 88.2341 65.2352 88.152 65.3009 88.0556C65.3976 87.9114 65.4626 87.7495 65.4917 87.5801C65.5208 87.4106 65.5135 87.2372 65.4701 87.0706C65.4239 86.7948 65.2843 86.5414 65.0732 86.3501C64.862 86.1587 64.5912 86.04 64.3028 86.0125H64.3057Z" fill="#263238"/>
<path d="M61.7195 64.6568L48.3189 66.883C47.4434 67.0293 46.8598 67.7273 46.9999 68.4365L48.7275 76.4604L48.7742 76.6687L49.6759 80.8622L52.2002 77.4342L64.0541 75.4641C64.9296 75.3178 65.5133 74.6198 65.3703 73.9134L63.5814 65.6784C63.4384 64.9692 62.6008 64.5104 61.7195 64.6568Z" fill="white"/>
<path d="M49.6004 81.2083L46.8573 68.4646C46.8211 68.2925 46.8218 68.115 46.8595 67.9432C46.8971 67.7714 46.9709 67.6088 47.0761 67.4655C47.219 67.2733 47.4003 67.1106 47.6092 66.9869C47.8182 66.8631 48.0507 66.7809 48.2931 66.745L61.6966 64.5188C62.6509 64.3612 63.5672 64.8678 63.7394 65.6446L65.5107 73.8796C65.5466 74.0511 65.5459 74.2278 65.5088 74.3991C65.4717 74.5704 65.3989 74.7326 65.2948 74.8759C65.1514 75.0684 64.9697 75.2316 64.7602 75.3557C64.5508 75.4799 64.3179 75.5627 64.075 75.5992L52.2823 77.5552L49.6004 81.2083ZM62.0497 64.7721C61.9518 64.772 61.8541 64.7805 61.7579 64.7974L48.3543 67.0236C48.1502 67.053 47.9541 67.1214 47.7777 67.2248C47.6013 67.3282 47.4481 67.4646 47.3271 67.6259C47.2449 67.7377 47.1873 67.8646 47.1577 67.9986C47.1281 68.1326 47.1272 68.2711 47.1549 68.4055L49.7639 80.5075L52.1218 77.2963L64.0341 75.3262C64.4391 75.2617 64.801 75.0451 65.0409 74.7239C65.1233 74.6116 65.1814 74.4844 65.2115 74.35C65.2415 74.2155 65.2431 74.0765 65.216 73.9415L63.4417 65.7093C63.3308 65.1549 62.7326 64.7721 62.0497 64.7721Z" fill="#263238"/>
<path d="M60.7598 69.4778C60.7686 69.3665 60.7597 69.2545 60.7335 69.1457V69.0838C60.5059 68.0199 59.2511 67.3389 57.9349 67.5556C56.8989 67.7272 56.1344 68.3999 55.9651 69.2076C55.6755 68.8434 55.2854 68.5652 54.8395 68.4049C54.3936 68.2447 53.9098 68.2088 53.4437 68.3014C52.1276 68.5209 51.2463 69.5594 51.4739 70.6205C51.4739 70.6205 51.4389 71.5295 53.6743 72.8495C55.5099 73.9359 57.0595 74.8196 57.0886 74.783C57.1266 74.8027 58.2413 73.4884 59.5516 71.8757C60.0629 71.2979 60.4506 70.6284 60.6927 69.9056C60.7241 69.8084 60.7456 69.7085 60.7569 69.6073C60.7548 69.5641 60.7558 69.5209 60.7598 69.4778Z" fill="#0082F4"/>
<path d="M57.0653 74.9209C57.0457 74.9196 57.0266 74.9138 57.0098 74.904C56.7384 74.8168 55.9855 74.3974 53.5838 72.9761C51.4593 71.7181 51.3222 70.7949 51.3134 70.643C51.2646 70.3967 51.2676 70.1435 51.3223 69.8984C51.3769 69.6532 51.4821 69.4212 51.6315 69.216C51.8411 68.9374 52.1058 68.7014 52.4103 68.5217C52.7148 68.342 53.0531 68.2222 53.4058 68.1691C53.8512 68.0872 54.3106 68.1121 54.7437 68.2417C55.1767 68.3712 55.5701 68.6015 55.8892 68.9121C56.0612 68.5178 56.3364 68.1733 56.6878 67.9123C57.0392 67.6514 57.4549 67.4828 57.8941 67.4233C59.2861 67.1925 60.6168 67.927 60.8619 69.0613V69.1063C60.8915 69.2327 60.9024 69.3625 60.894 69.4919C60.896 69.5364 60.8911 69.581 60.8794 69.6241C60.8672 69.7338 60.8447 69.8421 60.8123 69.9478C60.5627 70.6863 60.1662 71.3707 59.645 71.9629C57.9437 74.0625 57.3892 74.7014 57.1703 74.8702C57.1606 74.8836 57.1474 74.8944 57.1321 74.9013C57.1167 74.9082 57.0997 74.9111 57.0828 74.9096L57.0653 74.9209ZM53.9252 68.3914C53.7696 68.3904 53.6143 68.4036 53.4612 68.4308C53.1465 68.4755 52.8443 68.5807 52.5726 68.7402C52.3008 68.8998 52.0652 69.1104 51.8795 69.3596C51.7515 69.5351 51.6614 69.7338 51.6148 69.9436C51.5681 70.1535 51.5659 70.3703 51.6081 70.581V70.6148C51.6081 70.6148 51.6344 71.4732 53.7385 72.72C55.4252 73.7163 56.7326 74.4565 57.0478 74.6113C57.2871 74.3636 58.2297 73.2491 59.4232 71.7772C59.9216 71.2124 60.3012 70.5595 60.5409 69.8549C60.569 69.763 60.5886 69.6688 60.5993 69.5735V69.4581C60.607 69.3638 60.6001 69.269 60.5788 69.1766C60.5759 69.1618 60.5759 69.1465 60.5788 69.1316C60.3629 68.1212 59.1839 67.4852 57.9524 67.6934C57.0069 67.8482 56.2628 68.4674 56.1023 69.2329C56.0985 69.251 56.091 69.2681 56.0802 69.2833C56.0694 69.2985 56.0556 69.3115 56.0395 69.3214C56.0235 69.3314 56.0055 69.3382 55.9867 69.3413C55.9679 69.3445 55.9487 69.344 55.9301 69.3399C55.9118 69.3369 55.8944 69.3303 55.8789 69.3207C55.8633 69.311 55.85 69.2984 55.8396 69.2836C55.6179 68.998 55.3282 68.7679 54.9951 68.6126C54.662 68.4574 54.2951 68.3815 53.9252 68.3914Z" fill="#263238"/>
<path d="M40.0872 70.0014C40.0872 70.0014 39.2467 67.4684 37.6738 68.1072C36.1008 68.7461 38.5755 71.2481 37.3265 71.372C36.0775 71.4958 33.9618 70.0605 32.6223 72.3261C31.2828 74.5917 33.3548 76.2156 35.8119 76.1565C38.2691 76.0974 40.7321 74.2652 40.0872 70.0014Z" fill="white"/>
<path d="M35.68 76.2971C34.2208 76.2971 32.9397 75.7343 32.3736 74.8083C32.0497 74.2876 31.8075 73.4208 32.4962 72.2584C33.5117 70.536 34.9679 70.8512 36.1352 71.0876C36.5154 71.1883 36.9083 71.2375 37.3025 71.234C37.4572 71.2171 37.4922 71.1608 37.5039 71.1439C37.6089 70.9835 37.4514 70.5811 37.2996 70.1617C37.0078 69.4103 36.6255 68.3802 37.606 67.9777C37.7806 67.9013 37.9702 67.8618 38.1619 67.8618C38.3537 67.8618 38.5432 67.9013 38.7179 67.9777C39.6955 68.4111 40.1945 69.8943 40.2179 69.9478V69.9703C40.5243 71.9854 40.1595 73.6516 39.1673 74.7886C38.7503 75.256 38.2341 75.6315 37.6536 75.8898C37.0731 76.1481 36.4418 76.2832 35.8025 76.2859L35.68 76.2971ZM34.7578 71.1777C34.0282 71.1777 33.3162 71.4366 32.75 72.3964C32.2598 73.2238 32.216 74.009 32.6216 74.6648C33.1528 75.5091 34.4018 76.0495 35.8084 76.0157C36.4067 76.0125 36.9974 75.8852 37.5402 75.6424C38.083 75.3996 38.5653 75.047 38.9542 74.6085C39.891 73.539 40.2324 71.9545 39.9435 70.0266C39.8968 69.8943 39.427 68.5913 38.6041 68.2282C38.4669 68.1669 38.3175 68.1352 38.1663 68.1352C38.0151 68.1352 37.8658 68.1669 37.7286 68.2282C37.0545 68.5096 37.2442 69.1598 37.5827 70.0576C37.7753 70.567 37.9416 71.0088 37.7607 71.2847C37.7131 71.3502 37.6504 71.4042 37.5775 71.4423C37.5045 71.4804 37.4234 71.5016 37.3405 71.5042C36.913 71.5152 36.4861 71.4649 36.0739 71.355C35.643 71.2512 35.2018 71.1917 34.7578 71.1777Z" fill="#263238"/>
<path d="M34.5798 72.4019C34.4952 72.7059 34.288 72.9141 34.1012 72.8663C33.9144 72.8184 33.8415 72.537 33.929 72.2331C34.0166 71.9292 34.2209 71.7181 34.4076 71.766C34.5944 71.8138 34.6644 72.098 34.5798 72.4019Z" fill="#263238"/>
<path d="M33.41 72.8945C33.3254 73.1984 33.1182 73.4066 32.9314 73.3616C32.7446 73.3166 32.6717 73.0295 32.7563 72.7256C32.8409 72.4217 33.0481 72.2135 33.2378 72.2613C33.4275 72.3091 33.4946 72.5821 33.41 72.8945Z" fill="#263238"/>
<path d="M34.1425 74.13C34.0579 74.434 33.8507 74.645 33.6639 74.5972C33.4771 74.5493 33.4071 74.2651 33.4917 73.9612C33.5764 73.6573 33.7836 73.449 33.9703 73.4969C34.1571 73.5447 34.2271 73.8261 34.1425 74.13Z" fill="#263238"/>
<path d="M34.265 75.8637C34.2361 75.8639 34.2078 75.8557 34.1839 75.8401C34.1599 75.8246 34.1414 75.8023 34.1308 75.7764C34.1232 75.7598 34.1191 75.742 34.1188 75.7238C34.1185 75.7057 34.122 75.6877 34.1291 75.6708C34.1362 75.654 34.1467 75.6388 34.16 75.626C34.1733 75.6132 34.1892 75.6031 34.2067 75.5963C34.4502 75.4982 34.6744 75.3601 34.8691 75.1883C34.8981 75.1658 34.9349 75.1549 34.972 75.1577C35.0091 75.1606 35.0437 75.177 35.0686 75.2036C35.0936 75.2301 35.1071 75.2649 35.1064 75.3008C35.1056 75.3367 35.0907 75.3709 35.0646 75.3965C34.8455 75.5913 34.5926 75.7475 34.3176 75.858C34.3004 75.8623 34.2827 75.8642 34.265 75.8637Z" fill="#263238"/>
<path d="M35.3301 75.0476C35.2984 75.0482 35.2675 75.0383 35.2426 75.0194C35.2272 75.0084 35.2143 74.9945 35.2046 74.9786C35.1948 74.9627 35.1884 74.9451 35.1857 74.9268C35.183 74.9085 35.184 74.8899 35.1888 74.872C35.1935 74.854 35.2019 74.8372 35.2134 74.8224C35.4366 74.5362 35.6056 74.2142 35.7124 73.8712C35.8378 73.5199 35.8869 73.1475 35.8568 72.7771C35.8267 72.4067 35.7179 72.0463 35.5373 71.7181C35.518 71.6856 35.5127 71.647 35.5225 71.6107C35.5324 71.5744 35.5565 71.5433 35.5898 71.5239C35.6239 71.5067 35.6634 71.5024 35.7007 71.5117C35.7379 71.5211 35.7702 71.5435 35.7912 71.5746C35.9905 71.937 36.1111 72.3348 36.1458 72.7437C36.1804 73.1526 36.1283 73.564 35.9926 73.9528C35.8761 74.3275 35.6913 74.6792 35.4468 74.9913C35.433 75.0085 35.4153 75.0224 35.3951 75.0322C35.3749 75.0419 35.3527 75.0472 35.3301 75.0476Z" fill="#263238"/>
</svg>
