<svg width="105" height="84" viewBox="0 0 105 84" fill="none" xmlns="http://www.w3.org/2000/svg">
<path d="M94.4791 77.5602H87.5239V77.6176H94.4791V77.5602Z" fill="#EBEBEB"/>
<path d="M69.5563 78.1743H67.7314V78.2317H69.5563V78.1743Z" fill="#EBEBEB"/>
<path d="M87.3141 75.4648H83.2842V75.5222H87.3141V75.4648Z" fill="#EBEBEB"/>
<path d="M20.0865 75.8441H11.0166V75.9015H20.0865V75.8441Z" fill="#EBEBEB"/>
<path d="M23.2868 75.8441H21.9575V75.9015H23.2868V75.8441Z" fill="#EBEBEB"/>
<path d="M47.2817 76.7969H27.6089V76.8543H47.2817V76.7969Z" fill="#EBEBEB"/>
<path d="M49.373 63.8563H8.81992C8.50227 63.8557 8.19781 63.7196 7.97339 63.4779C7.74897 63.2362 7.62292 62.9086 7.62292 62.567V1.27803C7.62569 0.938432 7.75296 0.613721 7.97708 0.374426C8.2012 0.135132 8.50408 0.000581749 8.81992 0H49.3709C49.6889 0 49.9939 0.135839 50.2188 0.377633C50.4437 0.619428 50.57 0.947371 50.57 1.28932V62.567C50.57 62.9086 50.444 63.2362 50.2196 63.4779C49.9951 63.7196 49.6907 63.8557 49.373 63.8563ZM8.81992 0.0451602C8.51619 0.0457584 8.22509 0.175913 8.01051 0.407056C7.79594 0.6382 7.67542 0.951443 7.67542 1.27803V62.567C7.67542 62.8936 7.79594 63.2069 8.01051 63.438C8.22509 63.6691 8.51619 63.7993 8.81992 63.7999H49.3709C49.6749 63.7993 49.9662 63.6692 50.1811 63.4381C50.396 63.2071 50.517 62.8938 50.5175 62.567V1.27803C50.517 0.951236 50.396 0.637997 50.1811 0.406919C49.9662 0.17584 49.6749 0.0457571 49.3709 0.0451602H8.81992Z" fill="#EBEBEB"/>
<path d="M94.796 63.8563H54.245C53.9271 63.8557 53.6225 63.7197 53.3977 63.4781C53.173 63.2364 53.0465 62.9088 53.0459 62.567V1.27803C53.0492 0.938226 53.1769 0.613517 53.4014 0.374285C53.6259 0.135053 53.929 0.000575405 54.245 0H94.796C95.114 0 95.419 0.135839 95.6439 0.377633C95.8688 0.619428 95.9951 0.947371 95.9951 1.28932V62.567C95.9951 62.909 95.8688 63.2369 95.6439 63.4787C95.419 63.7205 95.114 63.8563 94.796 63.8563ZM54.245 0.0451602C53.9411 0.0457571 53.6498 0.17584 53.4348 0.406919C53.2199 0.637997 53.099 0.951236 53.0984 1.27803V62.567C53.099 62.8938 53.2199 63.2071 53.4348 63.4381C53.6498 63.6692 53.9411 63.7993 54.245 63.7999H94.796C95.0999 63.7993 95.3912 63.6692 95.6062 63.4381C95.8211 63.2071 95.942 62.8938 95.9426 62.567V1.27803C95.942 0.951236 95.8211 0.637997 95.6062 0.406919C95.3912 0.17584 95.0999 0.0457571 94.796 0.0451602H54.245Z" fill="#EBEBEB"/>
<path d="M105 73.9271H0V73.9845H105V73.9271Z" fill="#EBEBEB"/>
<path d="M62.9011 70.5784H63.5311C64.2913 70.5784 64.81 70.0455 64.6903 69.3862L59.182 39.2689C59.0602 38.6096 58.342 38.0767 57.5881 38.0767H13.8052L19.7398 70.5784H62.9011Z" fill="#F0F0F0"/>
<path d="M20.0594 70.5784C19.127 70.5784 18.2513 69.9236 18.1022 69.1152L12.6989 39.5354C12.5498 38.727 13.1861 38.0722 14.1206 38.0722C15.053 38.0722 15.9287 38.727 16.0757 39.5354L21.4811 69.1152C21.6302 69.9236 21.0002 70.5784 20.0594 70.5784Z" fill="#E0E0E0"/>
<path d="M44.8223 70.5784H92.3243V73.1187C92.3243 73.3375 92.244 73.5475 92.1009 73.7031C91.9578 73.8587 91.7634 73.9472 91.5599 73.9496H44.8223V70.5784Z" fill="#EBEBEB"/>
<path d="M19.9502 70.5784H53.1302V73.1187C53.1302 73.3391 53.0488 73.5504 52.9038 73.7062C52.7589 73.8621 52.5624 73.9496 52.3574 73.9496H20.7146C20.5111 73.9472 20.3167 73.8587 20.1736 73.7031C20.0304 73.5475 19.9502 73.3375 19.9502 73.1187V70.5784Z" fill="#E0E0E0"/>
<path opacity="0.2" d="M74.1299 70.5784C74.1467 71.1609 74.6948 71.6305 75.371 71.6305H80.5076C81.1838 71.6305 81.7319 71.1609 81.7487 70.5784H74.1299Z" fill="#E0E0E0"/>
<path d="M61.3158 68.0224H24.0219L18.9819 40.4454H56.2758L61.3158 68.0224Z" fill="#E0E0E0"/>
<path d="M38.0312 39.0409C38.0559 39.1632 38.0448 39.2908 37.9993 39.406C37.9538 39.5212 37.8762 39.6184 37.7771 39.6843C37.6781 39.7501 37.5625 39.7812 37.4463 39.7735C37.3301 39.7657 37.2189 39.7193 37.1283 39.6408C37.0376 39.5623 36.9718 39.4554 36.9399 39.335C36.9081 39.2146 36.9117 39.0865 36.9504 38.9685C36.9891 38.8504 37.0609 38.7481 37.156 38.6758C37.251 38.6034 37.3645 38.5645 37.481 38.5645C37.6124 38.5511 37.7434 38.5934 37.8462 38.6824C37.949 38.7714 38.0153 38.9 38.0312 39.0409Z" fill="#E0E0E0"/>
<path d="M88.2002 54.6979C88.2255 54.4142 88.2113 54.1281 88.1582 53.8489L88.8974 53.2708L88.5362 52.4263L87.6458 52.6521C87.3188 52.1994 86.8746 51.8608 86.369 51.6789L86.2724 50.7012L85.4114 50.6177L85.1489 51.5593C84.6206 51.6378 84.1259 51.8829 83.7272 52.2638L82.8872 51.8641L82.3874 52.6228L83.0174 53.3363C82.8147 53.8675 82.7643 54.4517 82.8725 55.014L82.1333 55.5921L82.4945 56.4365L83.3849 56.2107C83.7123 56.664 84.1574 57.0027 84.6638 57.1839L84.7583 58.1617L85.6193 58.2475L85.8818 57.3036C86.4102 57.2257 86.9051 56.9804 87.3035 56.5991L88.1435 56.9988L88.6412 56.2401L88.0112 55.5266C88.1132 55.2623 88.1769 54.9829 88.2002 54.6979ZM85.3757 55.9985C85.0996 55.9712 84.8372 55.8564 84.6218 55.6685C84.4064 55.4807 84.2477 55.2284 84.1658 54.9435C84.0839 54.6587 84.0825 54.3541 84.1617 54.0683C84.241 53.7826 84.3973 53.5286 84.611 53.3385C84.8246 53.1484 85.0859 53.0307 85.3618 53.0004C85.6377 52.9702 85.9157 53.0286 86.1607 53.1684C86.4056 53.3082 86.6064 53.523 86.7377 53.7856C86.869 54.0483 86.9249 54.3469 86.8982 54.6437C86.8631 55.0403 86.683 55.4057 86.3976 55.6597C86.1121 55.9137 85.7446 56.0356 85.3757 55.9985Z" fill="#F0F0F0"/>
<path d="M91.56 58.6133C91.5606 58.3998 91.5316 58.1875 91.4739 57.9833L91.9863 57.5001L91.6545 56.9017L91.0077 57.1275C90.7354 56.8149 90.3832 56.5957 89.9955 56.4975L89.8611 55.7772H89.2143L89.082 56.4975C88.6941 56.5952 88.3418 56.8145 88.0698 57.1275L87.4209 56.9017L87.0996 57.5046L87.612 57.9878C87.4972 58.398 87.4972 58.8354 87.612 59.2455L87.0996 59.731L87.4209 60.3316L88.0698 60.1058C88.3414 60.419 88.6939 60.6376 89.082 60.7335L89.2143 61.4538H89.8611L89.9955 60.7335C90.3834 60.6371 90.7358 60.4186 91.0077 60.1058L91.6545 60.3316L91.9758 59.731L91.4634 59.2455C91.5251 59.0412 91.5576 58.8281 91.56 58.6133ZM89.5482 59.7807C89.3405 59.7807 89.1375 59.7145 88.9649 59.5904C88.7922 59.4663 88.6576 59.29 88.5781 59.0837C88.4987 58.8774 88.4779 58.6504 88.5184 58.4314C88.5589 58.2124 88.6589 58.0112 88.8057 57.8533C88.9526 57.6954 89.1397 57.5879 89.3434 57.5444C89.547 57.5008 89.7582 57.5232 89.95 57.6086C90.1419 57.6941 90.3059 57.8388 90.4213 58.0244C90.5366 58.2101 90.5982 58.4284 90.5982 58.6517C90.5982 58.8009 90.5707 58.9486 90.5173 59.0863C90.4639 59.2241 90.3856 59.349 90.287 59.454C90.1883 59.559 90.0714 59.6419 89.9427 59.698C89.8141 59.7541 89.6765 59.7822 89.5377 59.7807H89.5482Z" fill="#F0F0F0"/>
<path d="M86.7718 24.4474H79.6318V16.7702H86.7718V24.4474ZM79.8418 24.2216H86.5618V16.996H79.8418V24.2216Z" fill="#E0E0E0"/>
<path d="M88.2502 30.1915H78.4243V27.4438H88.2502V30.1915ZM78.6343 29.9657H88.0402V27.6696H78.6343V29.9657Z" fill="#E0E0E0"/>
<path d="M78.4666 38.569H74.5186V34.3217H78.4666V38.569ZM74.7286 38.3432H78.2566V34.5475H74.7286V38.3432Z" fill="#E0E0E0"/>
<path d="M83.0403 38.569H79.0923V34.3217H83.0403V38.569ZM79.3023 38.3432H82.8303V34.5475H79.3023V38.3432Z" fill="#E0E0E0"/>
<path d="M87.614 38.569H83.666V34.3217H87.614V38.569ZM83.876 38.3432H87.404V34.5475H83.876V38.3432Z" fill="#E0E0E0"/>
<path d="M92.1897 38.569H88.2417V34.3217H92.1897V38.569ZM88.4517 38.3432H91.9797V34.5475H88.4517V38.3432Z" fill="#E0E0E0"/>
<path d="M90.321 34.3802H90.111V32.8404H76.503V34.3802H76.293V32.6146H90.321V34.3802Z" fill="#E0E0E0"/>
<path d="M83.458 30.0789H83.248V32.7272H83.458V30.0789Z" fill="#E0E0E0"/>
<path d="M83.458 24.2577H83.248V27.5567H83.458V24.2577Z" fill="#E0E0E0"/>
<path d="M81.253 32.7275H81.043V34.4366H81.253V32.7275Z" fill="#E0E0E0"/>
<path d="M85.7076 32.7275H85.4976V34.4366H85.7076V32.7275Z" fill="#E0E0E0"/>
<path d="M22.9802 21.1482H15.7373V18.4027H22.9802V21.1482ZM15.9473 20.9224H22.7702V18.6285H15.9473V20.9224Z" fill="#E0E0E0"/>
<path d="M24.2717 15.8599H14.4458V13.1122H24.2717V15.8599ZM14.6558 15.6341H24.0617V13.338H14.6558V15.6341Z" fill="#E0E0E0"/>
<path d="M16.7581 28.2679H12.8101V24.0229H16.7581V28.2679ZM13.0201 28.0421H16.5481V24.2487H13.0201V28.0421Z" fill="#E0E0E0"/>
<path d="M21.3337 28.2679H17.3857V24.0229H21.3337V28.2679ZM17.5957 28.0421H21.1237V24.2487H17.5957V28.0421Z" fill="#E0E0E0"/>
<path d="M25.908 28.2679H21.96V24.0229H25.908V28.2679ZM22.17 28.0421H25.698V24.2487H22.17V28.0421Z" fill="#E0E0E0"/>
<path d="M23.8769 24.3729L19.3577 21.2365L14.8385 24.1494L14.7314 23.9552L19.3598 20.9724L23.9903 24.1832L23.8769 24.3729Z" fill="#E0E0E0"/>
<path d="M19.4649 21.1033H19.2549V24.0519H19.4649V21.1033Z" fill="#E0E0E0"/>
<path d="M19.4649 15.9709H19.2549V18.766H19.4649V15.9709Z" fill="#E0E0E0"/>
<path d="M52.5001 84C74.9874 84 93.217 82.8556 93.217 81.4439C93.217 80.0323 74.9874 78.8879 52.5001 78.8879C30.0128 78.8879 11.7832 80.0323 11.7832 81.4439C11.7832 82.8556 30.0128 84 52.5001 84Z" fill="#F5F5F5"/>
<path d="M82.2674 2.18799H20.96V52.2163H82.2674V2.18799Z" fill="#407BFF"/>
<path opacity="0.6" d="M82.2674 2.18799H20.96V52.2163H82.2674V2.18799Z" fill="white"/>
<path d="M82.2675 2.18799H20.9979V5.49371H82.2675V2.18799Z" fill="#407BFF"/>
<path d="M23.602 3.85888C23.602 3.98793 23.5664 4.11408 23.4997 4.22138C23.433 4.32868 23.3382 4.41231 23.2273 4.4617C23.1164 4.51108 22.9944 4.52401 22.8767 4.49883C22.759 4.47365 22.6508 4.41151 22.5659 4.32026C22.4811 4.229 22.4233 4.11274 22.3998 3.98617C22.3764 3.8596 22.3884 3.72841 22.4344 3.60918C22.4803 3.48996 22.5581 3.38805 22.6579 3.31635C22.7577 3.24466 22.8751 3.20639 22.9951 3.20639C23.156 3.20639 23.3104 3.27514 23.4242 3.3975C23.538 3.51987 23.602 3.68583 23.602 3.85888Z" fill="white"/>
<path d="M25.7211 3.85888C25.7211 3.98793 25.6855 4.11408 25.6188 4.22138C25.5522 4.32868 25.4574 4.41231 25.3465 4.4617C25.2356 4.51108 25.1136 4.52401 24.9958 4.49883C24.8781 4.47365 24.77 4.41151 24.6851 4.32026C24.6002 4.229 24.5424 4.11274 24.519 3.98617C24.4956 3.8596 24.5076 3.72841 24.5535 3.60918C24.5995 3.48996 24.6772 3.38805 24.777 3.31635C24.8769 3.24466 24.9942 3.20639 25.1142 3.20639C25.2752 3.20639 25.4296 3.27514 25.5434 3.3975C25.6572 3.51987 25.7211 3.68583 25.7211 3.85888Z" fill="white"/>
<path d="M27.8378 3.85888C27.8378 3.98793 27.8022 4.11408 27.7355 4.22138C27.6689 4.32868 27.5741 4.41231 27.4632 4.4617C27.3523 4.51108 27.2302 4.52401 27.1125 4.49883C26.9948 4.47365 26.8867 4.41151 26.8018 4.32026C26.7169 4.229 26.6591 4.11274 26.6357 3.98617C26.6123 3.8596 26.6243 3.72841 26.6702 3.60918C26.7162 3.48996 26.7939 3.38805 26.8937 3.31635C26.9936 3.24466 27.1109 3.20639 27.2309 3.20639C27.3919 3.20639 27.5462 3.27514 27.6601 3.3975C27.7739 3.51987 27.8378 3.68583 27.8378 3.85888Z" fill="white"/>
<g opacity="0.8">
<path d="M54.9254 11.1726H54.7154V10.8339H54.4004V10.6082H54.9254V11.1726Z" fill="white"/>
<path d="M54.9234 15.0335H54.7134V14.0695H54.9234V15.0335ZM54.9234 13.1032H54.7134V12.1391H54.9234V13.1032Z" fill="white"/>
<path d="M54.9234 26.6174H54.7134V25.651H54.9234V26.6174ZM54.9234 24.6868H54.7134V23.7204H54.9234V24.6868ZM54.9234 22.7562H54.7134V21.7921H54.9234V22.7562ZM54.9234 20.8256H54.7134V19.8705H54.9234V20.8256ZM54.9234 18.895H54.7134V17.9309H54.9234V18.895ZM54.9234 16.9644H54.7134V16.0003H54.9234V16.9644Z" fill="white"/>
<path d="M54.9254 28.146H54.4004V27.9203H54.7154V27.5816H54.9254V28.146Z" fill="white"/>
<path d="M53.5899 28.1477H52.7793V27.9203H53.5899V28.1477ZM51.9708 28.1477H51.1602V27.9203H51.9708V28.1477Z" fill="white"/>
<path d="M50.3518 28.1477H49.5412V27.9203H50.3518V28.1477ZM48.7327 28.1477H47.9221V27.9203H48.7327V28.1477ZM47.1115 28.1477H46.303V27.9203H47.1115V28.1477ZM45.4924 28.1477H44.6839V27.9203H45.4924V28.1477ZM43.8733 28.1477H43.0648V27.9203H43.8733V28.1477ZM42.2542 28.1477H41.4457V27.9203H42.2542V28.1477ZM40.6351 28.1477H39.8245V27.9203H40.6351V28.1477ZM39.016 28.1477H38.2054V27.9203H39.016V28.1477ZM37.3969 28.1477H36.5863V27.9203H37.3969V28.1477ZM35.7778 28.1477H34.9672V27.9203H35.7778V28.1477ZM34.1587 28.1477H33.3481V27.9203H34.1587V28.1477ZM32.5375 28.1477H31.729V27.9203H32.5375V28.1477Z" fill="white"/>
<path d="M30.9181 28.146H30.3931V27.5816H30.6031V27.9203H30.9181V28.146Z" fill="white"/>
<path d="M30.6031 26.6171H30.3931V25.6508H30.6031V26.6171ZM30.6031 24.6867H30.3931V23.7204H30.6031V24.6867Z" fill="white"/>
<path d="M30.6031 22.7562H30.3931V21.7898H30.6031V22.7562ZM30.6031 20.8256H30.3931V19.8705H30.6031V20.8256ZM30.6031 18.895H30.3931V17.9309H30.6031V18.895ZM30.6031 16.9645H30.3931V16.0003H30.6031V16.9645ZM30.6031 15.0339H30.3931V14.0697H30.6031V15.0339ZM30.6031 13.1033H30.3931V12.1391H30.6031V13.1033Z" fill="white"/>
<path d="M30.6031 11.1726H30.3931V10.6082H30.9181V10.8339H30.6031V11.1726Z" fill="white"/>
<path d="M34.1587 10.8405H33.3481V10.6131H34.1587V10.8405ZM32.5375 10.8405H31.729V10.6131H32.5375V10.8405Z" fill="white"/>
<path d="M53.5901 10.8405H52.7795V10.6131H53.5901V10.8405ZM51.971 10.8405H51.1604V10.6131H51.971V10.8405ZM50.3519 10.8405H49.5413V10.6131H50.3519V10.8405ZM48.7328 10.8405H47.9222V10.6131H48.7328V10.8405ZM47.1116 10.8405H46.3031V10.6131H47.1116V10.8405ZM45.4925 10.8405H44.684V10.6131H45.4925V10.8405ZM43.8734 10.8405H43.0649V10.6131H43.8734V10.8405ZM42.2543 10.8405H41.4458V10.6131H42.2543V10.8405ZM40.6352 10.8405H39.8246V10.6131H40.6352V10.8405ZM39.0161 10.8405H38.2055V10.6131H39.0161V10.8405ZM37.397 10.8405H36.5864V10.6131H37.397V10.8405ZM35.7779 10.8405H34.9673V10.6131H35.7779V10.8405Z" fill="white"/>
</g>
<g opacity="0.8">
<path d="M73.0505 30.7382H72.8405V30.3995H72.5255V30.1737H73.0505V30.7382Z" fill="white"/>
<path d="M73.0508 34.3982H72.8408V33.4838H73.0508V34.3982ZM73.0508 32.5694H72.8408V31.655H73.0508V32.5694Z" fill="white"/>
<path d="M73.0508 45.3859H72.8408V44.4692H73.0508V45.3859ZM73.0508 43.5547H72.8408V42.6402H73.0508V43.5547ZM73.0508 41.7257H72.8408V40.8089H73.0508V41.7257ZM73.0508 39.8944H72.8408V38.9912H73.0508V39.8944ZM73.0508 38.0632H72.8408V37.1442H73.0508V38.0632ZM73.0508 36.2342H72.8408V35.331H73.0508V36.2342Z" fill="white"/>
<path d="M73.0504 46.8603H72.5254V46.6346H72.8404V46.2959H73.0504V46.8603Z" fill="white"/>
<path d="M71.6269 46.862H70.726V46.6346H71.6269V46.862ZM69.8272 46.862H68.9263V46.6346H69.8272V46.862Z" fill="white"/>
<path d="M68.0274 46.862H67.1265V46.6346H68.0274V46.862ZM66.2277 46.862H65.3268V46.6346H66.2277V46.862ZM64.428 46.862H63.5271V46.6346H64.428V46.862ZM62.6283 46.862H61.74V46.6346H62.6388L62.6283 46.862ZM60.8286 46.862H59.9298V46.6346H60.8286V46.862ZM59.0289 46.862H58.1301V46.6346H59.0289V46.862ZM57.2292 46.862H56.3304V46.6346H57.2292V46.862ZM55.4295 46.862H54.5307V46.6346H55.44L55.4295 46.862ZM53.6298 46.862H52.731V46.6346H53.6298V46.862Z" fill="white"/>
<path d="M51.8302 46.8603H51.3052V46.2959H51.5152V46.6346H51.8302V46.8603Z" fill="white"/>
<path d="M51.5152 45.3856H51.3052V44.4689H51.5152V45.3856ZM51.5152 43.5546H51.3052V42.6402H51.5152V43.5546Z" fill="white"/>
<path d="M51.5152 41.7189H51.3052V40.8157H51.5152V41.7189ZM51.5152 39.8899H51.3052V38.9867H51.5152V39.8899ZM51.5152 38.0587H51.3052V37.1442H51.5152V38.0587ZM51.5152 36.2297H51.3052V35.3265H51.5152V36.2297ZM51.5152 34.3985H51.3052V33.484H51.5152V34.3985ZM51.5152 32.5695H51.3052V31.6527H51.5152V32.5695Z" fill="white"/>
<path d="M51.5152 30.7382H51.3052V30.1737H51.8302V30.3995H51.5152V30.7382Z" fill="white"/>
<path d="M55.4401 30.4011H54.5413V30.1737H55.4401V30.4011ZM53.6404 30.4011H52.7311V30.1737H53.6299L53.6404 30.4011Z" fill="white"/>
<path d="M71.6268 30.4011H70.7259V30.1737H71.6268V30.4011ZM69.8271 30.4011H68.9262V30.1737H69.8271V30.4011ZM68.0274 30.4011H67.1265V30.1737H68.0274V30.4011ZM66.2277 30.4011H65.3268V30.1737H66.2277V30.4011ZM64.428 30.4011H63.5292V30.1737H64.428V30.4011ZM62.6283 30.4011H61.74V30.1737H62.6388L62.6283 30.4011ZM60.8286 30.4011H59.9298V30.1737H60.8286V30.4011ZM59.0289 30.4011H58.1301V30.1737H59.0289V30.4011ZM57.2292 30.4011H56.3304V30.1737H57.2292V30.4011Z" fill="white"/>
</g>
<g opacity="0.8">
<path d="M49.9653 30.7111H49.7553V30.3724H49.4403V30.1466H49.9653V30.7111Z" fill="white"/>
<path d="M49.9654 34.3846H49.7554V33.4657H49.9654V34.3846ZM49.9654 32.5468H49.7554V31.6279H49.9654V32.5468Z" fill="white"/>
<path d="M49.9654 45.4062H49.7554V44.4827H49.9654V45.4062ZM49.9654 43.5682H49.7554V42.6492H49.9654V43.5682ZM49.9654 41.7325H49.7554V40.8135H49.9654V41.7325ZM49.9654 39.8944H49.7554V38.9754H49.9654V39.8944ZM49.9654 38.0587H49.7554V37.1397H49.9654V38.0587ZM49.9654 36.2207H49.7554V35.3017H49.9654V36.2207Z" fill="white"/>
<path d="M49.9654 46.8874H49.4404V46.6616H49.7554V46.3229H49.9654V46.8874Z" fill="white"/>
<path d="M48.636 46.889H47.8317V46.6617H48.636V46.889ZM47.0274 46.889H46.2231V46.6617H47.0274V46.889Z" fill="white"/>
<path d="M45.4185 46.889H44.6142V46.6617H45.4185V46.889ZM43.8099 46.889H43.0035V46.6617H43.8099V46.889ZM42.1992 46.889H41.3949V46.6617H42.2097L42.1992 46.889ZM40.5906 46.889H39.7863V46.6617H40.5906V46.889ZM38.982 46.889H38.1777V46.6617H38.982V46.889ZM37.3734 46.889H36.5691V46.6617H37.3797L37.3734 46.889ZM35.7648 46.889H34.9584V46.6617H35.7648V46.889ZM34.1541 46.889H33.3498V46.6617H34.1541V46.889ZM32.5455 46.889H31.7412V46.6617H32.5497L32.5455 46.889Z" fill="white"/>
<path d="M30.9371 46.8874H30.4121V46.3229H30.6221V46.6616H30.9371V46.8874Z" fill="white"/>
<path d="M30.6221 45.4059H30.4121V44.4825H30.6221V45.4059ZM30.6221 43.5681H30.4121V42.6492H30.6221V43.5681Z" fill="white"/>
<path d="M30.6221 41.7324H30.4121V40.8134H30.6221V41.7324ZM30.6221 39.8944H30.4121V38.9754H30.6221V39.8944ZM30.6221 38.0587H30.4121V37.1397H30.6221V38.0587ZM30.6221 36.2206H30.4121V35.3016H30.6221V36.2206ZM30.6221 34.3849H30.4121V33.4659H30.6221V34.3849ZM30.6221 32.5469H30.4121V31.6279H30.6221V32.5469Z" fill="white"/>
<path d="M30.6221 30.7111H30.4121V30.1466H30.9371V30.3724H30.6221V30.7111Z" fill="white"/>
<path d="M34.1544 30.374H33.3501V30.1466H34.1544V30.374ZM32.5458 30.374H31.7415V30.1466H32.55L32.5458 30.374Z" fill="white"/>
<path d="M48.636 30.374H47.8317V30.1466H48.636V30.374ZM47.0274 30.374H46.2231V30.1466H47.0274V30.374ZM45.4188 30.374H44.6145V30.1466H45.4188V30.374ZM43.8102 30.374H43.0038V30.1466H43.8102V30.374ZM42.1995 30.374H41.3952V30.1466H42.21L42.1995 30.374ZM40.5909 30.374H39.7866V30.1466H40.5909V30.374ZM38.9823 30.374H38.178V30.1466H38.9823V30.374ZM37.3737 30.374H36.5694V30.1466H37.38L37.3737 30.374ZM35.7651 30.374H34.9587V30.1466H35.7651V30.374Z" fill="white"/>
</g>
<path opacity="0.8" d="M65.7823 30.2798H65.5723V30.0315H65.7823V30.2798ZM65.7823 29.1328H65.5723V28.2296H65.7823V29.1328ZM65.7823 27.3264H65.5723V26.4232H65.7823V27.3264ZM65.7823 25.52H65.5723V24.6168H65.7823V25.52ZM65.7823 23.7136H65.5723V22.8104H65.7823V23.7136ZM65.7823 21.9072H65.5723V21.004H65.7823V21.9072ZM65.7823 20.1008H65.5723V19.1976H65.7823V20.1008ZM65.7823 18.2944H65.5723V17.3912H65.7823V18.2944ZM65.6773 16.5331H64.9003V16.3073H65.7823V16.488H65.6773V16.5331ZM64.0603 16.5331H63.2203V16.3073H64.0603V16.5331ZM62.3803 16.5331H61.5403V16.3073H62.3803V16.5331ZM60.7003 16.5331H59.8603V16.3073H60.7003V16.5331ZM59.0203 16.5331H58.1803V16.3073H59.0203V16.5331ZM57.3403 16.5331H56.5003V16.3073H57.3403V16.5331ZM55.6603 16.5331H54.8203V16.3073H55.6603V16.5331Z" fill="white"/>
<path opacity="0.2" d="M27.8545 8.10626V25.2626H52.0843V8.10626H27.8545Z" fill="black"/>
<path d="M26.7832 6.76501L26.7832 23.9213H51.013V6.76501H26.7832Z" fill="#407BFF"/>
<path opacity="0.8" d="M26.7832 6.76501L26.7832 23.9213H51.013V6.76501H26.7832Z" fill="white"/>
<path d="M39.169 8.05884H29.0302C28.622 8.05884 28.291 8.41469 28.291 8.85365V17.9263C28.291 18.3653 28.622 18.7211 29.0302 18.7211H39.169C39.5773 18.7211 39.9082 18.3653 39.9082 17.9263V8.85365C39.9082 8.41469 39.5773 8.05884 39.169 8.05884Z" fill="#407BFF"/>
<g opacity="0.4">
<path d="M39.169 8.05884H29.0302C28.622 8.05884 28.291 8.41469 28.291 8.85365V17.9263C28.291 18.3653 28.622 18.7211 29.0302 18.7211H39.169C39.5773 18.7211 39.9082 18.3653 39.9082 17.9263V8.85365C39.9082 8.41469 39.5773 8.05884 39.169 8.05884Z" fill="white"/>
</g>
<path d="M39.1861 8.53754H29.0116C28.8585 8.53754 28.7344 8.67098 28.7344 8.83559V17.9466C28.7344 18.1113 28.8585 18.2447 29.0116 18.2447H39.1861C39.3392 18.2447 39.4633 18.1113 39.4633 17.9466V8.83559C39.4633 8.67098 39.3392 8.53754 39.1861 8.53754Z" fill="#407BFF"/>
<path d="M39.1861 8.53754H29.0116C28.8585 8.53754 28.7344 8.67098 28.7344 8.83559V17.9466C28.7344 18.1113 28.8585 18.2447 29.0116 18.2447H39.1861C39.3392 18.2447 39.4633 18.1113 39.4633 17.9466V8.83559C39.4633 8.67098 39.3392 8.53754 39.1861 8.53754Z" fill="#407BFF"/>
<path opacity="0.1" d="M31.5358 13.0965L28.7344 17.7367V17.9512C28.7349 18.0298 28.7644 18.1051 28.8163 18.1605C28.8682 18.2159 28.9384 18.247 29.0116 18.247H34.6501L31.5358 13.0965Z" fill="white"/>
<path d="M39.4631 16.9938L36.5735 11.5926L33.0161 18.2424H39.1859C39.2591 18.2424 39.3293 18.2114 39.3812 18.1559C39.4331 18.1005 39.4626 18.0253 39.4631 17.9466V16.9938Z" fill="#407BFF"/>
<path opacity="0.2" d="M39.4631 16.9938L36.5735 11.5926L33.0161 18.2424H39.1859C39.2591 18.2424 39.3293 18.2114 39.3812 18.1559C39.4331 18.1005 39.4626 18.0253 39.4631 17.9466V16.9938Z" fill="white"/>
<path d="M34.822 10.8158C34.822 10.9699 34.7795 11.1206 34.6998 11.2487C34.6201 11.3769 34.5068 11.4767 34.3743 11.5356C34.2418 11.5945 34.096 11.6098 33.9554 11.5795C33.8148 11.5493 33.6857 11.4749 33.5845 11.3657C33.4833 11.2566 33.4144 11.1176 33.3867 10.9663C33.359 10.8151 33.3736 10.6584 33.4288 10.5161C33.484 10.3738 33.5771 10.2523 33.6966 10.167C33.816 10.0817 33.9563 10.0364 34.0996 10.0368C34.1947 10.0368 34.2888 10.057 34.3766 10.0962C34.4644 10.1353 34.5441 10.1928 34.6112 10.2651C34.6783 10.3375 34.7315 10.4234 34.7677 10.5179C34.8038 10.6123 34.8223 10.7136 34.822 10.8158Z" fill="white"/>
<path d="M43.6482 8.22592H42.2979V8.45329H43.6482V8.22592Z" fill="#407BFF"/>
<path d="M47.2394 8.22592H44.312V8.45329H47.2394V8.22592Z" fill="#407BFF"/>
<path d="M49.1736 8.22592H48.0249V8.45329H49.1736V8.22592Z" fill="#407BFF"/>
<path d="M45.4142 10.2469H40.895V10.4742H45.4142V10.2469Z" fill="#407BFF"/>
<path d="M48.8607 10.2469H46.4478V10.4742H48.8607V10.2469Z" fill="#407BFF"/>
<path d="M43.2347 12.2678H41.2607V12.4951H43.2347V12.2678Z" fill="#407BFF"/>
<path d="M47.6847 12.2678H43.8921V12.4951H47.6847V12.2678Z" fill="#407BFF"/>
<path d="M49.1758 12.2678H48.3799V12.4951H49.1758V12.2678Z" fill="#407BFF"/>
<path d="M45.4142 14.2864H40.895V14.5138H45.4142V14.2864Z" fill="#407BFF"/>
<path d="M48.8586 14.2864H46.2651V14.5138H48.8586V14.2864Z" fill="#407BFF"/>
<path d="M43.6482 16.3073H42.2979V16.5347H43.6482V16.3073Z" fill="#407BFF"/>
<path d="M47.2394 16.3073H44.312V16.5347H47.2394V16.3073Z" fill="#407BFF"/>
<path d="M49.1736 16.3073H48.0249V16.5347H49.1736V16.3073Z" fill="#407BFF"/>
<path d="M45.4142 18.3282H40.895V18.5556H45.4142V18.3282Z" fill="#407BFF"/>
<path d="M48.7767 18.3282H46.4478V18.5556H48.7767V18.3282Z" fill="#407BFF"/>
<path d="M35.4311 20.1595H28.625V20.3869H35.4311V20.1595Z" fill="#407BFF"/>
<path d="M44.314 20.1595H37.0732V20.3869H44.314V20.1595Z" fill="#407BFF"/>
<path d="M49.0937 20.1595H46.2524V20.3869H49.0937V20.1595Z" fill="#407BFF"/>
<path d="M30.5213 22.1781H28.625V22.4055H30.5213V22.1781Z" fill="#407BFF"/>
<path d="M36.9848 22.1781H31.9028V22.4055H36.9848V22.1781Z" fill="#407BFF"/>
<path d="M40.8954 22.1781H38.0898V22.4055H40.8954V22.1781Z" fill="#407BFF"/>
<path d="M45.4166 22.1781H42.3506V22.4055H45.4166V22.1781Z" fill="#407BFF"/>
<path d="M49.0937 22.1781H46.6997V22.4055H49.0937V22.1781Z" fill="#407BFF"/>
<path opacity="0.2" d="M71.4339 10.9875L71.457 24.68C71.457 24.7646 71.4259 24.8458 71.3704 24.9059C71.3149 24.966 71.2396 25 71.1609 25.0006L59.3862 25.0232C59.3077 25.0232 59.2323 24.9897 59.1768 24.93C59.1213 24.8702 59.0901 24.7893 59.0901 24.7048L59.0586 6.89369C59.0586 6.80925 59.0898 6.72827 59.1453 6.66857C59.2008 6.60886 59.2762 6.57532 59.3547 6.57532L67.2885 6.55951L71.4339 10.9875Z" fill="black"/>
<path d="M72.2884 10.0459L72.3115 23.7384C72.3115 23.8228 72.2803 23.9038 72.2248 23.9635C72.1692 24.0232 72.0939 24.0568 72.0154 24.0568L60.2407 24.0794C60.162 24.0794 60.0864 24.0459 60.0306 23.9862C59.9747 23.9266 59.943 23.8456 59.9425 23.761L59.9131 5.9521C59.9131 5.86746 59.9442 5.78624 59.9997 5.72617C60.0552 5.66611 60.1305 5.63206 60.2092 5.63147L68.143 5.61566L72.2884 10.0459Z" fill="#407BFF"/>
<g opacity="0.8">
<path d="M72.2884 10.0459L72.3115 23.7384C72.3115 23.8228 72.2803 23.9038 72.2248 23.9635C72.1692 24.0232 72.0939 24.0568 72.0154 24.0568L60.2407 24.0794C60.162 24.0794 60.0864 24.0459 60.0306 23.9862C59.9747 23.9266 59.943 23.8456 59.9425 23.761L59.9131 5.9521C59.9131 5.86746 59.9442 5.78624 59.9997 5.72617C60.0552 5.66611 60.1305 5.63206 60.2092 5.63147L68.143 5.61566L72.2884 10.0459Z" fill="white"/>
</g>
<path d="M68.1494 5.60663V9.73652C68.1494 9.77969 68.1575 9.82242 68.1733 9.86212C68.1891 9.90181 68.2122 9.93764 68.2413 9.96742C68.2703 9.9972 68.3047 10.0203 68.3424 10.0354C68.38 10.0504 68.4201 10.057 68.4602 10.0549H72.2906L68.1494 5.60663Z" fill="#407BFF"/>
<path opacity="0.8" d="M68.1494 5.60663V9.73652C68.1494 9.77969 68.1575 9.82242 68.1733 9.86212C68.1891 9.90181 68.2122 9.93764 68.2413 9.96742C68.2703 9.9972 68.3047 10.0203 68.3424 10.0354C68.38 10.0504 68.4201 10.057 68.4602 10.0549H72.2906L68.1494 5.60663Z" fill="white"/>
<path opacity="0.2" d="M72.7946 6.7221V22.3204L62.2295 22.3407C62.1509 22.3407 62.0756 22.3072 62.0201 22.2475C61.9646 22.1878 61.9334 22.1068 61.9334 22.0223L61.9019 4.2112C61.9016 4.16931 61.9091 4.12777 61.9238 4.08901C61.9386 4.05024 61.9604 4.01503 61.988 3.9854C62.0155 3.95578 62.0483 3.93234 62.0843 3.91644C62.1204 3.90055 62.159 3.89252 62.198 3.89282L70.1402 3.87701L72.7946 6.7221Z" fill="black"/>
<path d="M75.1234 7.36789L75.1464 21.0604C75.1465 21.1451 75.1153 21.2263 75.0599 21.2863C75.0044 21.3464 74.9291 21.3805 74.8503 21.3811L63.0756 21.4036C62.9969 21.4036 62.9214 21.3702 62.8655 21.3105C62.8097 21.2509 62.778 21.1699 62.7774 21.0853L62.748 3.27413C62.748 3.23232 62.7557 3.19092 62.7706 3.15229C62.7855 3.11366 62.8073 3.07856 62.8348 3.049C62.8623 3.01943 62.8949 2.99598 62.9308 2.97998C62.9668 2.96398 63.0053 2.95575 63.0441 2.95575L70.98 2.93542L75.1234 7.36789Z" fill="#407BFF"/>
<g opacity="0.8">
<path d="M75.1234 7.36789L75.1464 21.0604C75.1465 21.1451 75.1153 21.2263 75.0599 21.2863C75.0044 21.3464 74.9291 21.3805 74.8503 21.3811L63.0756 21.4036C62.9969 21.4036 62.9214 21.3702 62.8655 21.3105C62.8097 21.2509 62.778 21.1699 62.7774 21.0853L62.748 3.27413C62.748 3.23232 62.7557 3.19092 62.7706 3.15229C62.7855 3.11366 62.8073 3.07856 62.8348 3.049C62.8623 3.01943 62.8949 2.99598 62.9308 2.97998C62.9668 2.96398 63.0053 2.95575 63.0441 2.95575L70.98 2.93542L75.1234 7.36789Z" fill="white"/>
</g>
<path d="M70.98 2.93542V7.06531C70.98 7.10712 70.9876 7.14852 71.0025 7.18715C71.0174 7.22578 71.0392 7.26088 71.0667 7.29044C71.0942 7.32001 71.1268 7.34346 71.1628 7.35946C71.1987 7.37546 71.2372 7.38369 71.2761 7.38369H75.1065L70.98 2.93542Z" fill="#407BFF"/>
<path d="M70.98 2.93542V7.06531C70.98 7.10712 70.9876 7.14852 71.0025 7.18715C71.0174 7.22578 71.0392 7.26088 71.0667 7.29044C71.0942 7.32001 71.1268 7.34346 71.1628 7.35946C71.1987 7.37546 71.2372 7.38369 71.2761 7.38369H75.1065L70.98 2.93542Z" fill="white"/>
<path d="M66.4903 9.88101H64.6528V10.1084H66.4903V9.88101Z" fill="#407BFF"/>
<path d="M71.3706 9.88101H67.3911V10.1084H71.3706V9.88101Z" fill="#407BFF"/>
<path d="M73.5778 9.88101H72.4375V10.1084H73.5778V9.88101Z" fill="#407BFF"/>
<path d="M68.8903 11.5881H64.3018V11.8154H68.8903V11.5881Z" fill="#407BFF"/>
<path d="M73.5737 11.5881H70.2935V11.8154H73.5737V11.5881Z" fill="#407BFF"/>
<path d="M65.9293 13.2951H64.3018V13.5225H65.9293V13.2951Z" fill="#407BFF"/>
<path d="M71.9713 13.2951H66.8179V13.5225H71.9713V13.2951Z" fill="#407BFF"/>
<path d="M73.5779 13.2951H72.9185V13.5225H73.5779V13.2951Z" fill="#407BFF"/>
<path d="M68.8903 15.0022H64.3018V15.2295H68.8903V15.0022Z" fill="#407BFF"/>
<path d="M73.5733 15.0022H70.0474V15.2295H73.5733V15.0022Z" fill="#407BFF"/>
<path d="M66.4903 16.7092H64.6528V16.9366H66.4903V16.7092Z" fill="#407BFF"/>
<path d="M71.3706 16.7092H67.3911V16.9366H71.3706V16.7092Z" fill="#407BFF"/>
<path d="M73.5778 16.7092H72.4375V16.9366H73.5778V16.7092Z" fill="#407BFF"/>
<path d="M68.8903 18.4163H64.3018V18.6436H68.8903V18.4163Z" fill="#407BFF"/>
<path d="M73.4603 18.4185H70.2935V18.6459H73.4603V18.4185Z" fill="#407BFF"/>
<g opacity="0.2">
<path d="M27.09 47.3729H45.3264C45.6698 47.3826 46.0026 47.2454 46.2519 46.9914C46.5011 46.7373 46.6464 46.3873 46.6557 46.0181V30.5305C46.6464 30.1613 46.5011 29.8113 46.2519 29.5573C46.0026 29.3032 45.6698 29.166 45.3264 29.1757H27.09C26.7469 29.1666 26.4143 29.304 26.1652 29.5579C25.9161 29.8118 25.7706 30.1615 25.7607 30.5305V46.0159C25.7701 46.3852 25.9153 46.7355 26.1645 46.9899C26.4137 47.2443 26.7465 47.382 27.09 47.3729Z" fill="black"/>
<g opacity="0.4">
<path opacity="0.2" d="M27.09 47.3729H45.3264C45.6698 47.3826 46.0026 47.2454 46.2519 46.9914C46.5011 46.7373 46.6464 46.3873 46.6557 46.0181V30.5305C46.6464 30.1613 46.5011 29.8113 46.2519 29.5573C46.0026 29.3032 45.6698 29.166 45.3264 29.1757H27.09C26.7469 29.1666 26.4143 29.304 26.1652 29.5579C25.9161 29.8118 25.7706 30.1615 25.7607 30.5305V46.0159C25.7701 46.3852 25.9153 46.7355 26.1645 46.9899C26.4137 47.2443 26.7465 47.382 27.09 47.3729Z" fill="black"/>
</g>
</g>
<path d="M26.1955 46.3342H44.4319C44.7751 46.3434 45.1076 46.2059 45.3568 45.952C45.6059 45.6981 45.7513 45.3484 45.7612 44.9794V29.4918C45.7513 29.1229 45.6059 28.7731 45.3568 28.5192C45.1076 28.2653 44.7751 28.1279 44.4319 28.137H26.1955C25.8523 28.1279 25.5198 28.2653 25.2707 28.5192C25.0215 28.7731 24.8761 29.1229 24.8662 29.4918V44.9772C24.8756 45.3465 25.0207 45.6968 25.2699 45.9512C25.5191 46.2056 25.852 46.3433 26.1955 46.3342Z" fill="#407BFF"/>
<g opacity="0.4">
<path d="M26.1955 46.3342H44.4319C44.7751 46.3434 45.1076 46.2059 45.3568 45.952C45.6059 45.6981 45.7513 45.3484 45.7612 44.9794V29.4918C45.7513 29.1229 45.6059 28.7731 45.3568 28.5192C45.1076 28.2653 44.7751 28.1279 44.4319 28.137H26.1955C25.8523 28.1279 25.5198 28.2653 25.2707 28.5192C25.0215 28.7731 24.8761 29.1229 24.8662 29.4918V44.9772C24.8756 45.3465 25.0207 45.6968 25.2699 45.9512C25.5191 46.2056 25.852 46.3433 26.1955 46.3342Z" fill="white"/>
</g>
<path d="M26.1637 28.9499C26.1 28.9481 26.0366 28.9598 25.9771 28.9843C25.9176 29.0089 25.8632 29.0458 25.817 29.093C25.7707 29.1402 25.7336 29.1967 25.7077 29.2593C25.6818 29.3219 25.6676 29.3894 25.666 29.4579V45.011C25.6676 45.0795 25.6818 45.147 25.7077 45.2096C25.7336 45.2723 25.7707 45.3288 25.817 45.3759C25.8632 45.4231 25.9176 45.4601 25.9771 45.4846C26.0366 45.5092 26.1 45.5209 26.1637 45.5191H44.4631C44.5268 45.5209 44.5902 45.5092 44.6497 45.4846C44.7092 45.4601 44.7637 45.4231 44.8099 45.3759C44.8561 45.3288 44.8932 45.2723 44.9191 45.2096C44.945 45.147 44.9592 45.0795 44.9608 45.011V29.4579C44.9592 29.3894 44.945 29.3219 44.9191 29.2593C44.8932 29.1967 44.8561 29.1402 44.8099 29.093C44.7637 29.0458 44.7092 29.0089 44.6497 28.9843C44.5902 28.9598 44.5268 28.9481 44.4631 28.9499H26.1637Z" fill="#407BFF"/>
<path opacity="0.2" d="M26.1637 28.9499C26.1 28.9481 26.0366 28.9598 25.9771 28.9843C25.9176 29.0089 25.8632 29.0458 25.817 29.093C25.7707 29.1402 25.7336 29.1967 25.7077 29.2593C25.6818 29.3219 25.6676 29.3894 25.666 29.4579V45.011C25.6676 45.0795 25.6818 45.147 25.7077 45.2096C25.7336 45.2723 25.7707 45.3288 25.817 45.3759C25.8632 45.4231 25.9176 45.4601 25.9771 45.4846C26.0366 45.5092 26.1 45.5209 26.1637 45.5191H44.4631C44.5268 45.5209 44.5902 45.5092 44.6497 45.4846C44.7092 45.4601 44.7637 45.4231 44.8099 45.3759C44.8561 45.3288 44.8932 45.2723 44.9191 45.2096C44.945 45.147 44.9592 45.0795 44.9608 45.011V29.4579C44.9592 29.3894 44.945 29.3219 44.9191 29.2593C44.8932 29.1967 44.8561 29.1402 44.8099 29.093C44.7637 29.0458 44.7092 29.0089 44.6497 28.9843C44.5902 28.9598 44.5268 28.9481 44.4631 28.9499H26.1637Z" fill="black"/>
<path d="M30.7021 36.7242L25.6621 44.6452V45.011C25.6637 45.0795 25.6779 45.147 25.7038 45.2096C25.7297 45.2722 25.7668 45.3288 25.8131 45.3759C25.8593 45.4231 25.9137 45.46 25.9732 45.4846C26.0327 45.5092 26.0961 45.5209 26.1598 45.5191H36.2902L30.7021 36.7242Z" fill="#407BFF"/>
<path d="M44.9608 43.3853L39.7654 34.1681L33.3667 45.5191H44.4631C44.5268 45.5209 44.5902 45.5092 44.6497 45.4846C44.7092 45.46 44.7636 45.4231 44.8099 45.3759C44.8561 45.3288 44.8932 45.2722 44.9191 45.2096C44.945 45.147 44.9592 45.0795 44.9608 45.011V43.3853Z" fill="#407BFF"/>
<path opacity="0.2" d="M44.9608 43.3853L39.7654 34.1681L33.3667 45.5191H44.4631C44.5268 45.5209 44.5902 45.5092 44.6497 45.4846C44.7092 45.46 44.7636 45.4231 44.8099 45.3759C44.8561 45.3288 44.8932 45.2722 44.9191 45.2096C44.945 45.147 44.9592 45.0795 44.9608 45.011V43.3853Z" fill="white"/>
<path d="M36.6156 32.8402C36.6295 33.1203 36.5649 33.3985 36.4302 33.6387C36.2955 33.8789 36.0969 34.0701 35.86 34.1877C35.6231 34.3053 35.3589 34.3438 35.1015 34.2982C34.8441 34.2526 34.6053 34.1251 34.416 33.9321C34.2267 33.7391 34.0956 33.4894 34.0396 33.2155C33.9837 32.9415 34.0054 32.6558 34.1021 32.3953C34.1988 32.1348 34.3659 31.9114 34.5819 31.754C34.7978 31.5967 35.0527 31.5126 35.3136 31.5127C35.4805 31.5067 35.6468 31.5364 35.8029 31.6001C35.959 31.6637 36.1018 31.7601 36.2229 31.8837C36.3441 32.0072 36.4412 32.1554 36.5086 32.3196C36.576 32.4838 36.6124 32.6608 36.6156 32.8402Z" fill="white"/>
<path d="M32.3718 27.6922C32.4495 27.6764 32.5335 27.7644 32.5566 27.8931C32.5797 28.0218 32.5398 28.1392 32.46 28.155C32.3802 28.1708 32.3004 28.0805 32.2752 27.9518C32.25 27.8231 32.2941 27.7057 32.3718 27.6922Z" fill="#263238"/>
<path d="M32.5271 29.3833C32.6288 29.3887 32.7305 29.3701 32.8248 29.3287C32.9191 29.2874 33.0039 29.2243 33.0731 29.144C32.7749 28.8604 32.5148 28.5337 32.3003 28.1731L32.5271 29.3833Z" fill="#932A2A"/>
<path d="M31.7561 27.3218C31.8126 27.2455 31.8855 27.1851 31.9686 27.1458C32.0516 27.1065 32.1423 27.0894 32.2328 27.096H32.2559C32.2664 27.098 32.2772 27.0974 32.2876 27.0944C32.2979 27.0914 32.3075 27.0859 32.3156 27.0785C32.3238 27.0711 32.3304 27.0619 32.3349 27.0514C32.3394 27.041 32.3418 27.0296 32.3418 27.0181C32.3418 27.0066 32.3394 26.9953 32.3349 26.9848C32.3304 26.9744 32.3238 26.9652 32.3156 26.9577C32.3075 26.9503 32.2979 26.9449 32.2876 26.9419C32.2772 26.9389 32.2664 26.9383 32.2559 26.9402C32.1439 26.9277 32.0308 26.944 31.926 26.988C31.8211 27.032 31.7276 27.1023 31.6532 27.1931C31.6427 27.2074 31.6361 27.2246 31.6343 27.2428C31.6343 27.2633 31.6417 27.2831 31.6551 27.2979C31.6684 27.3126 31.6865 27.3212 31.7057 27.3218C31.7219 27.3284 31.7398 27.3284 31.7561 27.3218Z" fill="#263238"/>
<path d="M31.2628 31.6663C31.0528 32.5875 31.0402 33.7323 31.9747 34.0462C31.9747 34.0462 33.1444 35.0984 30.8932 35.0984C28.8478 35.0984 28.5454 33.8972 28.5454 33.8972C29.3161 33.1069 29.1754 31.4676 28.9654 30.2844L31.2628 31.6663Z" fill="#B55B52"/>
<path d="M27.7202 33.6938C27.7202 33.6938 28.0919 32.6394 28.5938 32.3278C29.0957 32.0163 31.2188 32.4791 31.5464 32.6394C31.874 32.7997 32.1764 33.6441 32.1764 33.6441L27.7202 33.6938Z" fill="#407BFF"/>
<path d="M27.7202 33.6938C27.7202 33.6938 28.0919 32.6394 28.5938 32.3278C29.0957 32.0163 31.2188 32.4791 31.5464 32.6394C31.874 32.7997 32.1764 33.6441 32.1764 33.6441L27.7202 33.6938Z" fill="#263238"/>
<path d="M30.9371 81.0262C30.9297 81.0247 30.923 81.0205 30.918 81.0144C30.913 81.0082 30.9102 81.0005 30.9098 80.9923C30.908 80.9851 30.9084 80.9774 30.9111 80.9704C30.9137 80.9635 30.9185 80.9577 30.9245 80.9539C30.9539 80.9404 31.481 80.6198 31.7288 80.692C31.7526 80.6975 31.7752 80.7081 31.795 80.7232C31.8149 80.7384 31.8317 80.7577 31.8443 80.7801C31.8607 80.8044 31.8695 80.8336 31.8695 80.8636C31.8695 80.8936 31.8607 80.9229 31.8443 80.9472C31.7813 81.042 31.6028 81.0714 31.4012 81.0714C31.2456 81.0699 31.0904 81.0548 30.9371 81.0262ZM31.6406 80.753C31.4331 80.7798 31.2326 80.8504 31.0505 80.9607C31.3298 81.0014 31.7099 80.9991 31.7792 80.8952C31.796 80.8794 31.8044 80.8591 31.7792 80.8117C31.7725 80.7975 31.7627 80.7851 31.7506 80.7757C31.7386 80.7663 31.7246 80.76 31.7099 80.7575C31.687 80.753 31.6635 80.753 31.6406 80.7575V80.753Z" fill="#407BFF"/>
<path d="M30.9224 81.0171C30.9138 81.0082 30.9085 80.9961 30.9077 80.9833C30.9077 80.9629 30.9413 80.5317 31.1429 80.3579C31.1713 80.3311 31.2049 80.3114 31.2412 80.3001C31.2774 80.2887 31.3156 80.2861 31.3529 80.2924C31.4495 80.3037 31.4852 80.3579 31.4852 80.4008C31.5125 80.5881 31.1534 80.9313 30.9707 81.0216H30.956C30.9505 81.0239 30.9446 81.0247 30.9387 81.0239C30.9328 81.0231 30.9272 81.0208 30.9224 81.0171ZM31.3193 80.3669C31.2724 80.3669 31.2273 80.3863 31.1933 80.4211C31.0775 80.5613 31.0042 80.7361 30.9833 80.9223C31.1702 80.8004 31.4033 80.5249 31.4033 80.4166C31.4033 80.4166 31.4033 80.3714 31.334 80.3714H31.313L31.3193 80.3669Z" fill="#407BFF"/>
<path d="M29.4421 77.235H30.9478L30.7966 80.981H29.293L29.4421 77.235Z" fill="#B55B52"/>
<path d="M31.1515 80.9223C32.1679 81.5997 32.4829 81.6268 33.661 81.9045C33.9172 81.9632 33.7471 82.636 33.1297 82.636C32.107 82.636 32.002 82.584 31.1305 82.584C30.385 82.584 29.5282 82.6224 28.9339 82.6315C28.9158 82.6337 28.8974 82.6337 28.8793 82.6315C28.8513 82.6251 28.8248 82.6127 28.8014 82.595C28.7781 82.5773 28.7583 82.5547 28.7434 82.5285C28.7284 82.5023 28.7186 82.473 28.7145 82.4426C28.7105 82.4122 28.7122 82.3812 28.7197 82.3515L29.0137 80.9133C29.0204 80.8817 29.037 80.8534 29.0607 80.8333C29.0843 80.8132 29.1137 80.8024 29.1439 80.8027H30.7882C30.9172 80.806 31.0429 80.8474 31.1515 80.9223Z" fill="#263238"/>
<path d="M32.9807 33.6691C31.4841 33.5497 29.9827 33.5128 28.4825 33.5585C28.0891 33.5871 27.6985 33.6285 27.3107 33.6826C27.1159 33.7079 26.9279 33.7753 26.7579 33.8808C26.588 33.9862 26.4396 34.1277 26.3219 34.2965C26.2041 34.4653 26.1194 34.658 26.0728 34.8629C26.0262 35.0679 26.0187 35.2809 26.0507 35.489C26.9432 41.2424 26.351 46.8852 26.2271 48.0187L34.2743 47.9713C35.1143 40.8518 35.0345 37.2277 34.7111 35.4845C34.6271 35.0294 34.4167 34.6123 34.1078 34.2882C33.799 33.9641 33.406 33.7483 32.9807 33.6691Z" fill="#263238"/>
<path opacity="0.2" d="M29.4399 77.2373L29.3643 79.1677H30.87L30.9477 77.2373H29.4399Z" fill="black"/>
<path d="M28.2155 27.5476C28.3177 26.9765 28.6266 26.4724 29.0743 26.1459C29.522 25.8195 30.0719 25.6975 30.6032 25.8067C32.153 26.1206 32.7914 28.4102 32.7452 29.8915C32.7011 31.5353 31.0232 32.6485 29.6834 31.6798C28.7951 31.0317 28.6334 30.0992 28.2554 28.5525C28.1698 28.2254 28.1561 27.8814 28.2155 27.5476Z" fill="#B55B52"/>
<path d="M26.2332 47.9713C26.2332 47.9713 24.9606 51.1889 23.7657 56.5969C22.2096 63.6463 18.459 78.0479 18.459 78.0479L21.1134 78.6734C21.1134 78.6734 26.5881 61.9077 28.0266 56.8543C28.9349 53.7976 30.0726 50.8253 31.4286 47.9668L26.2332 47.9713Z" fill="#407BFF"/>
<path opacity="0.3" d="M29.7067 51.7873C27.3379 58.7104 26.8381 60.7877 26.8003 60.9232C27.088 56.7098 28.2703 52.0064 29.7067 51.7873C29.8075 51.7693 29.6101 51.7535 29.7067 51.7873Z" fill="black"/>
<path d="M28.9802 47.9713C28.9802 47.9713 29.0747 51.767 28.9613 57.2652C28.8605 62.3073 28.9613 78.793 28.9613 78.793H31.5212C31.5212 78.793 33.4805 61.9754 33.9992 56.8475C34.3006 53.9006 34.3961 50.9335 34.2848 47.9713H28.9802Z" fill="#407BFF"/>
<path d="M28.5938 77.8244L28.6777 78.8381H31.7794C31.7794 78.8381 31.9348 77.7092 31.9222 77.7092L28.5938 77.8244Z" fill="#407BFF"/>
<path d="M18.3854 81.0058C18.3838 81.0133 18.3802 81.0201 18.3749 81.0253C18.3697 81.0305 18.3631 81.034 18.356 81.0351C18.349 81.0369 18.3417 81.0361 18.3352 81.0328C18.3287 81.0296 18.3235 81.024 18.3203 81.0171C18.3056 80.9877 18.0095 80.4188 18.0809 80.1523C18.0927 80.1019 18.122 80.0583 18.1628 80.0304C18.1859 80.0129 18.2134 80.0035 18.2416 80.0035C18.2698 80.0035 18.2973 80.0129 18.3203 80.0304C18.4064 80.1004 18.4316 80.2923 18.4316 80.5091C18.4288 80.6757 18.4134 80.8418 18.3854 81.0058ZM18.1397 80.2494C18.1623 80.4715 18.2243 80.6869 18.3224 80.8839C18.3644 80.5836 18.3644 80.1749 18.2678 80.1004C18.2552 80.0824 18.2342 80.0733 18.1901 80.1004C18.1769 80.1077 18.1654 80.1182 18.1566 80.1312C18.1479 80.1441 18.1421 80.1591 18.1397 80.1749C18.1355 80.1996 18.1355 80.2248 18.1397 80.2494Z" fill="#407BFF"/>
<path d="M18.3836 81.0216C18.3796 81.0269 18.3744 81.0309 18.3685 81.0333C18.3626 81.0357 18.3563 81.0363 18.35 81.0352C18.3353 81.0352 17.93 80.9968 17.7725 80.7801C17.7492 80.7508 17.7319 80.7166 17.7218 80.6796C17.7117 80.6426 17.7089 80.6038 17.7137 80.5656C17.7137 80.4617 17.7725 80.4233 17.8145 80.4233C17.9846 80.3963 18.3059 80.7846 18.3878 80.981V80.9946C18.3896 81.0038 18.3881 81.0135 18.3836 81.0216ZM17.7767 80.5972C17.7796 80.6463 17.7973 80.6931 17.8271 80.7304C17.9564 80.8555 18.1185 80.9344 18.2912 80.9562C18.1799 80.7552 17.9258 80.4911 17.8229 80.5046C17.8229 80.5046 17.783 80.5046 17.783 80.5769V80.6017L17.7767 80.5972Z" fill="#407BFF"/>
<path d="M19.0427 77.8989L20.5085 78.0185L19.8323 81.1188L18.3623 81.0059L19.0427 77.8989Z" fill="#B55B52"/>
<path opacity="0.2" d="M19.0598 77.813L18.7637 79.1767L20.2316 79.2896L20.5298 77.9214L19.0598 77.813Z" fill="black"/>
<path d="M18.0098 80.7981C17.6129 81.3016 17.4029 81.5612 16.2521 81.9518C16.0001 82.0353 16.2269 82.6878 16.8422 82.6291C17.8607 82.5321 17.2979 82.5343 18.1652 82.453C18.9086 82.3808 19.7654 82.3379 20.3555 82.2927C20.3755 82.2925 20.3954 82.2886 20.4143 82.2814C20.4424 82.2733 20.4687 82.259 20.4914 82.2394C20.5142 82.2197 20.5328 82.1952 20.5463 82.1674C20.5597 82.1396 20.5676 82.109 20.5695 82.0777C20.5713 82.0465 20.5671 82.0151 20.5571 81.9857L20.1371 80.5791C20.1281 80.5486 20.1096 80.5223 20.0848 80.5046C20.0599 80.487 20.0302 80.479 20.0006 80.482L18.3626 80.6378C18.2301 80.64 18.1035 80.6974 18.0098 80.7981Z" fill="#263238"/>
<path d="M18.1421 77.5218L18.1274 78.5423L21.3194 78.9103C21.3194 78.9103 21.5924 77.7972 21.5819 77.7972L18.1421 77.5218Z" fill="#407BFF"/>
<path d="M40.1938 45.869L41.0506 45.1239C41.1535 45.1239 41.8759 45.6477 42.1447 45.8667C42.6193 46.2483 42.9679 45.8667 43.3543 46.4583C43.5328 46.7292 42.3232 47.2327 42.0943 47.332C41.2501 47.6729 40.1938 45.869 40.1938 45.869Z" fill="#B55B52"/>
<path d="M41.053 45.1217L41.0278 45.1714C40.9421 45.3451 40.8228 45.4971 40.6779 45.6171C40.533 45.7371 40.3659 45.8222 40.1878 45.8668L37.6678 44.2862C37.0966 43.8866 35.9227 43.0533 35.7589 42.683C35.1919 42.096 32.569 39.2576 31.9789 36.3606C31.8836 35.9215 31.9248 35.4609 32.0963 35.0494C32.2677 34.6379 32.5599 34.2982 32.9281 34.0823C33.4993 33.7752 34.0285 33.9265 34.4338 34.5813C35.0785 36.4622 37.1365 41.1295 37.1365 41.1295L41.053 45.1217Z" fill="#263238"/>
<path d="M24.0174 33.5424C23.9586 33.5062 24.0489 31.3704 24.0489 31.3704L25.206 32.5422L24.8952 33.644C24.8952 33.644 24.8112 34.0188 24.0174 33.5424Z" fill="#B55B52"/>
<path d="M24.0493 31.3704L24.5491 30.8014C24.5935 30.7493 24.6487 30.7091 24.7102 30.6841C24.7717 30.6591 24.8378 30.65 24.9031 30.6575C24.9685 30.6649 25.0313 30.6888 25.0866 30.7271C25.1418 30.7655 25.1879 30.8172 25.2211 30.8782L25.5529 31.4674C25.5946 31.5392 25.6168 31.6221 25.6168 31.7068C25.6168 31.7914 25.5946 31.8743 25.5529 31.9461L25.2001 32.5421C25.2001 32.5421 24.1837 32.2531 24.0493 31.3704Z" fill="#B55B52"/>
<path d="M25.4709 40.2083C25.3696 40.4415 25.2342 40.6557 25.0698 40.8428C24.9415 40.9688 24.7946 41.0711 24.6351 41.1453C24.5528 41.1798 24.4677 41.2063 24.381 41.2244C24.2406 41.2426 24.0985 41.2118 23.9757 41.1363C23.7811 41.0235 23.6227 40.8503 23.5212 40.6392C23.4196 40.4281 23.3797 40.189 23.4066 39.9531C23.4885 39.1267 23.6355 37.3338 23.7468 33.9491C23.7457 33.8935 23.755 33.8382 23.7742 33.7866C23.7934 33.7349 23.8221 33.688 23.8585 33.6486C23.895 33.6092 23.9385 33.578 23.9864 33.5571C24.0343 33.5362 24.0857 33.5259 24.1374 33.5268L24.8871 33.5584C24.9985 33.5584 25.1053 33.606 25.1841 33.6907C25.2628 33.7754 25.3071 33.8903 25.3071 34.01L25.3365 35.0148L25.4709 40.2083Z" fill="#263238"/>
<path d="M23.5453 39.6506L25.3156 35.0126L25.4416 34.6852C25.5514 34.4052 25.7354 34.1662 25.9706 33.9979C26.2059 33.8297 26.4821 33.7397 26.7646 33.7391L27.7054 33.7662C27.7054 33.7662 26.3803 38.3929 25.471 40.2083C25.3698 40.4415 25.2343 40.6557 25.0699 40.8428C24.9416 40.9688 24.7947 41.0711 24.6352 41.1454C24.5529 41.1799 24.4679 41.2063 24.3811 41.2244C24.2428 41.2439 24.1023 41.2154 23.98 41.1431C23.8043 41.0393 23.6633 40.879 23.5766 40.6846C23.49 40.4902 23.4622 40.2715 23.497 40.0593L23.5453 39.6506Z" fill="#263238"/>
<path d="M28.2995 28.5231C27.8979 28.4649 27.5324 28.2432 27.2784 27.9037C27.0244 27.5642 26.9013 27.1329 26.9345 26.6986C27.416 26.0265 28.0564 25.5056 28.7888 25.1903C29.5907 24.8871 30.4551 24.8292 31.2857 25.0232C31.4834 25.3648 31.6287 25.7384 31.7162 26.1296C31.772 26.3178 31.7874 26.5172 31.7612 26.7128C31.735 26.9083 31.6679 27.0949 31.565 27.2586C30.851 28.2702 29.4692 28.6924 28.2995 28.5231Z" fill="#263238"/>
<path d="M27.5917 28.5592L29.0617 31.095L30.6913 31.1153L31.4305 29.1396L31.6279 27.2293C31.6279 27.2293 27.7324 28.557 27.283 27.9067C26.8336 27.2564 27.5917 28.5592 27.5917 28.5592Z" fill="#263238"/>
<g opacity="0.5">
<path d="M27.5917 28.5592L29.0617 31.095L30.6913 31.1153L31.4305 29.1396L31.6279 27.2293C31.6279 27.2293 27.7324 28.557 27.283 27.9067C26.8336 27.2564 27.5917 28.5592 27.5917 28.5592Z" fill="white"/>
</g>
<path d="M31.4999 27.866C31.9199 28.006 32.1467 28.6901 32.1614 29.1236C32.1761 29.6 31.8758 29.898 31.4936 29.5751C31.2041 29.3254 30.9989 28.9804 30.9098 28.593C30.809 28.1234 31.0799 27.726 31.4999 27.866Z" fill="#B55B52"/>
<path opacity="0.2" d="M75.3711 28.7715H52.542C52.1176 28.7715 51.7734 29.1415 51.7734 29.5979V46.5532C51.7734 47.0097 52.1176 47.3797 52.542 47.3797H75.3711C75.7956 47.3797 76.1397 47.0097 76.1397 46.5532V29.5979C76.1397 29.1415 75.7956 28.7715 75.3711 28.7715Z" fill="black"/>
<path d="M76.2466 27.4664H53.4175C52.993 27.4664 52.6489 27.8364 52.6489 28.2928V45.2481C52.6489 45.7046 52.993 46.0746 53.4175 46.0746H76.2466C76.6711 46.0746 77.0152 45.7046 77.0152 45.2481V28.2928C77.0152 27.8364 76.6711 27.4664 76.2466 27.4664Z" fill="#407BFF"/>
<path opacity="0.4" d="M76.2466 27.4664H53.4175C52.993 27.4664 52.6489 27.8364 52.6489 28.2928V45.2481C52.6489 45.7046 52.993 46.0746 53.4175 46.0746H76.2466C76.6711 46.0746 77.0152 45.7046 77.0152 45.2481V28.2928C77.0152 27.8364 76.6711 27.4664 76.2466 27.4664Z" fill="white"/>
<path d="M76.2445 28.0895H53.4196C53.3141 28.0895 53.2285 28.1815 53.2285 28.295V45.2481C53.2285 45.3616 53.3141 45.4536 53.4196 45.4536H76.2445C76.3501 45.4536 76.4356 45.3616 76.4356 45.2481V28.295C76.4356 28.1815 76.3501 28.0895 76.2445 28.0895Z" fill="#407BFF"/>
<path opacity="0.2" d="M76.2445 28.0895H53.4196C53.3141 28.0895 53.2285 28.1815 53.2285 28.295V45.2481C53.2285 45.3616 53.3141 45.4536 53.4196 45.4536H76.2445C76.3501 45.4536 76.4356 45.3616 76.4356 45.2481V28.295C76.4356 28.1815 76.3501 28.0895 76.2445 28.0895Z" fill="black"/>
<path d="M67.8301 36.7693C67.8305 37.4049 67.6556 38.0264 67.3275 38.5551C66.9994 39.0838 66.5328 39.4959 65.9868 39.7395C65.4408 39.983 64.8399 40.047 64.2601 39.9233C63.6803 39.7995 63.1476 39.4937 62.7295 39.0444C62.3114 38.5951 62.0266 38.0226 61.9111 37.3993C61.7956 36.7759 61.8547 36.1297 62.0808 35.5425C62.3069 34.9552 62.6899 34.4533 63.1814 34.1001C63.6729 33.7469 64.2507 33.5584 64.8418 33.5584C65.634 33.5584 66.3938 33.8967 66.9541 34.4988C67.5145 35.1008 67.8296 35.9175 67.8301 36.7693Z" fill="#407BFF"/>
<path opacity="0.9" d="M66.3956 36.7693L64.0415 38.4086V35.1323L66.3956 36.7693Z" fill="white"/>
<path opacity="0.8" d="M73.4914 42.7711H54.3604V42.9462H73.4914V42.7711Z" fill="white"/>
<path d="M61.6978 42.8569C61.6978 42.9168 61.6757 42.9742 61.6363 43.0165C61.5969 43.0589 61.5435 43.0827 61.4878 43.0827H54.1924C54.1367 43.0827 54.0833 43.0589 54.0439 43.0165C54.0045 42.9742 53.9824 42.9168 53.9824 42.8569C53.9824 42.797 54.0045 42.7396 54.0439 42.6972C54.0833 42.6549 54.1367 42.6311 54.1924 42.6311H61.4815C61.5372 42.6311 61.5906 42.6549 61.63 42.6972C61.6694 42.7396 61.6915 42.797 61.6915 42.8569H61.6978Z" fill="#407BFF"/>
<g opacity="0.8">
<path d="M75.2345 42.3488H75.4802V42.5769H75.6881V42.2089H75.2345V42.3488Z" fill="white"/>
<path d="M73.9662 42.5769V42.3488H74.2119V42.2089H73.7583V42.5769H73.9662Z" fill="white"/>
<path d="M74.2119 43.3672H73.9662V43.1392H73.7583V43.5049H74.2119V43.3672Z" fill="white"/>
<path d="M75.4801 43.1392V43.3672H75.2344V43.5049H75.688V43.1392H75.4801Z" fill="white"/>
</g>
<g opacity="0.8">
<path opacity="0.9" d="M64.3755 44.7016L65.079 44.2139L64.3755 43.724V44.7016Z" fill="white"/>
<path opacity="0.9" d="M65.0791 43.7762V44.2142V44.65H65.2681V43.7762H65.0791Z" fill="white"/>
</g>
<g opacity="0.8">
<path opacity="0.9" d="M66.2403 43.7759H65.9946V44.6497H66.2403V43.7759Z" fill="white"/>
<path opacity="0.9" d="M66.6771 43.7759H66.4314V44.6497H66.6771V43.7759Z" fill="white"/>
</g>
<path opacity="0.8" d="M63.6889 44.2139L62.9854 44.7016V43.724L63.6889 44.2139Z" fill="white"/>
<path d="M79.9091 36.6451L81.335 40.4837C81.3632 40.5381 81.3799 40.5986 81.3838 40.6607C81.3876 40.7229 81.3786 40.7852 81.3572 40.8431C81.3359 40.901 81.3029 40.9531 81.2606 40.9956C81.2182 41.0382 81.1676 41.07 81.1124 41.0889L77.0342 43.2272L77.6915 44.1304C77.6915 44.1304 81.8243 42.9021 82.6769 41.7956C83.2943 40.994 81.5576 36.0264 81.5576 36.0264L79.9091 36.6451Z" fill="#B55B52"/>
<path d="M77.0345 43.2317L76.7699 43.2498C76.5224 43.2665 76.2807 43.3372 76.0594 43.4575C75.8381 43.5779 75.6418 43.7453 75.4826 43.9497L75.2117 44.2974C75.1835 44.3226 75.1608 44.3542 75.1452 44.3899C75.1297 44.4256 75.1216 44.4645 75.1216 44.504C75.1216 44.5434 75.1297 44.5823 75.1452 44.618C75.1608 44.6537 75.1835 44.6853 75.2117 44.7105C75.3755 44.8595 75.3272 44.9047 75.449 45.0131C75.5162 45.074 75.5393 45.0289 75.6233 44.9973L76.5851 44.855C76.9866 44.6793 77.36 44.437 77.6918 44.1371L77.0345 43.2317Z" fill="#B55B52"/>
<path d="M78.7918 36.128C79.4228 36.8716 80.0012 37.6649 80.5222 38.5012L82.2904 37.7809L81.9292 35.7487C81.8452 35.1255 81.2698 34.2358 80.7973 34.0552C79.4596 33.5471 78.7498 35.1255 78.7918 36.128Z" fill="#407BFF"/>
<path d="M72.1875 29.354C72.2658 29.3107 72.3525 29.288 72.4406 29.288C72.5286 29.288 72.6154 29.3107 72.6936 29.354L72.7125 29.3676C72.7301 29.3752 72.7497 29.3752 72.7674 29.3677C72.785 29.3601 72.7992 29.3455 72.807 29.3269C72.814 29.3083 72.814 29.2875 72.8069 29.269C72.7999 29.2504 72.7863 29.2355 72.7692 29.2276C72.6735 29.17 72.5664 29.1379 72.4568 29.134C72.3472 29.1301 72.2383 29.1544 72.1392 29.205C72.1236 29.212 72.1109 29.2248 72.1035 29.2411C72.0996 29.2503 72.0975 29.2602 72.0972 29.2703C72.0969 29.2804 72.0985 29.2904 72.1018 29.2999C72.1051 29.3093 72.1101 29.318 72.1165 29.3253C72.1229 29.3327 72.1307 29.3386 72.1392 29.3427C72.1535 29.3527 72.1707 29.3568 72.1875 29.354Z" fill="#263238"/>
<path d="M72.3703 29.8711C72.3091 30.2105 72.2148 30.542 72.0889 30.86C72.136 30.91 72.1951 30.9449 72.2597 30.9609C72.3242 30.9768 72.3916 30.9732 72.4543 30.9503L72.3703 29.8711Z" fill="#932A2A"/>
<path d="M76.6205 31.122C76.6037 32.251 76.7444 34.3194 77.5865 34.9155C77.5865 34.9155 77.4921 36.0896 75.5874 36.46C73.4874 36.8664 74.4009 35.5364 74.4009 35.5364C75.495 35.0194 75.3123 34.1139 74.9658 33.2965L76.6205 31.122Z" fill="#B55B52"/>
<path d="M72.2632 29.5031C72.1708 29.5031 72.1057 29.6408 72.1183 29.7921C72.1309 29.9433 72.2149 30.0607 72.3073 30.054C72.3997 30.0472 72.4648 29.9162 72.4522 29.7627C72.4396 29.6092 72.3556 29.494 72.2632 29.5031Z" fill="#263238"/>
<path d="M72.1623 29.6557C72.1298 29.6496 72.0994 29.634 72.0743 29.6107C72.0492 29.5875 72.0303 29.5573 72.0195 29.5234C72.0819 29.5484 72.1488 29.5571 72.2148 29.5485C72.1871 29.5771 72.1687 29.6148 72.1623 29.6557Z" fill="#263238"/>
<path d="M77.2256 28.6427C77.2655 30.5168 77.318 31.3094 76.5179 32.3436C75.3125 33.9016 73.1579 33.5448 72.6077 31.7317C72.1058 30.0901 71.9336 27.6785 73.5779 26.7844C74.7455 26.1408 76.3646 26.2628 76.9631 27.516C77.13 27.8648 77.2198 28.2504 77.2256 28.6427Z" fill="#B55B52"/>
<path d="M79.273 33.1113C79.0945 32.4904 79.4095 31.8965 79.3885 31.2711C79.3791 30.9473 79.3098 30.6288 79.1847 30.3342C79.0596 30.0396 78.8811 29.7747 78.6598 29.555C78.3364 29.2321 77.9521 29.0266 77.7337 28.5931C77.5594 28.2476 77.4229 27.8818 77.2528 27.5318C77.0939 27.1588 76.8421 26.8404 76.5251 26.612C76.2082 26.3836 75.8385 26.2542 75.4573 26.238C73.1326 26.1567 72.5782 27.096 72.532 28.0986C72.5449 28.6529 72.7012 29.1925 72.9835 29.6566C73.4392 30.3521 73.2922 31.6572 72.931 32.4068C72.8806 32.6122 72.8818 32.8284 72.9345 33.0331C72.9873 33.2378 73.0897 33.4238 73.2313 33.572C73.7185 34.0484 75.5791 32.7343 77.2444 32.7726C78.9097 32.811 79.273 33.1113 79.273 33.1113Z" fill="#263238"/>
<path d="M73.6514 30.0314C73.6788 30.3854 73.6111 30.7404 73.4561 31.0541C73.2461 31.4583 72.9605 31.3409 72.8597 30.9345C72.7673 30.5777 72.7673 29.9343 73.0487 29.6566C73.3301 29.3789 73.6136 29.5911 73.6514 30.0314Z" fill="#B55B52"/>
<path d="M71.4608 27.7123C71.4197 27.8801 71.4385 28.0585 71.5135 28.2122C71.5884 28.366 71.7142 28.484 71.8661 28.5431C71.8916 28.7009 71.9476 28.8511 72.0307 28.9841C72.1137 29.117 72.2217 29.2297 72.3479 29.3149C72.474 29.4 72.6154 29.4557 72.7628 29.4784C72.9103 29.501 73.0605 29.49 73.2038 29.4462C72.9182 29.3604 72.8405 28.9427 72.9434 28.6425C73.1324 28.0916 73.88 27.421 73.1681 26.9582C72.6242 26.6105 71.6099 27.0665 71.4608 27.7123Z" fill="#263238"/>
<path d="M72.2757 37.4829C72.6831 39.1515 73.2354 42.0869 73.7457 47.0139L79.6488 46.2642C79.3191 43.4372 79.8294 41.3102 80.5833 36.1032C80.6147 35.889 80.606 35.6701 80.5577 35.4595C80.5094 35.2489 80.4225 35.0508 80.302 34.8768C80.1814 34.7029 80.0298 34.5565 79.856 34.4465C79.6821 34.3364 79.4896 34.2648 79.2897 34.2359C78.879 34.1773 78.4648 34.1531 78.0507 34.1636C76.9702 34.1748 75.8921 34.2721 74.8251 34.4549C74.4479 34.5294 74.0749 34.6267 73.7079 34.7462C73.1855 34.9134 72.7441 35.2923 72.4769 35.803C72.2096 36.3137 72.1375 36.916 72.2757 37.4829Z" fill="#407BFF"/>
<path opacity="0.2" d="M74.0921 37.1577L73.0799 41.7505L72.1958 37.1577C72.4499 37.1442 74.0921 37.1577 74.0921 37.1577Z" fill="black"/>
<path d="M71.7759 36.0491L73.6848 36.4104C73.6848 36.4104 72.8217 40.6057 72.0216 42.1773C71.2614 43.6744 66.7548 45.8375 66.7548 45.8375L66.5259 44.9727L70.0434 41.8725C70.3876 41.5678 70.6301 41.1509 70.7343 40.6848L71.7759 36.0491Z" fill="#B55B52"/>
<path d="M66.5258 44.9727L67.1558 45.4513L65.9735 46.5802C65.585 46.9889 64.6967 46.9301 64.1108 46.9708C64.0735 46.9752 64.0357 46.9717 63.9997 46.9605C63.9637 46.9493 63.9301 46.9305 63.9008 46.9053L63.6719 46.7157C63.4745 46.5486 63.4241 46.1174 63.6719 46.0654L65.0663 45.8984C65.3225 45.6365 66.5258 44.9727 66.5258 44.9727Z" fill="#B55B52"/>
<path d="M71.1902 36.4532C71.0117 37.7742 70.9277 39.0499 70.9277 39.0499L73.0277 39.5512C73.0277 39.5512 74.5859 37.011 74.0777 36.0152C73.6871 35.1481 72.7652 34.6152 71.921 35.1842C71.7212 35.3265 71.5524 35.5135 71.4263 35.7326C71.3001 35.9517 71.2196 36.1975 71.1902 36.4532Z" fill="#407BFF"/>
<path d="M90.9322 56.1317L91.4488 57.6943L88.2715 59.5232L87.4609 57.9652L90.9322 56.1317Z" fill="#B55B52"/>
<path d="M90.764 57.9674L89.9618 56.7504C89.9444 56.7243 89.9363 56.6924 89.939 56.6605C89.9417 56.6286 89.955 56.5987 89.9765 56.5765L91.2974 55.0298C91.3478 54.9836 91.413 54.9605 91.479 54.9656C91.545 54.9707 91.6065 55.0034 91.6502 55.0569C91.6565 55.0646 91.6621 55.0729 91.667 55.0817C92.0114 55.6146 92.1521 55.8901 92.5994 56.5562C92.8724 56.9626 93.8846 58.0758 94.1555 58.7081C94.4264 59.3403 93.8573 59.6609 93.6914 59.4239C93.1643 58.6561 92.0807 58.1661 91.2323 58.1752C91.0653 58.1389 90.9063 58.0683 90.764 57.9674Z" fill="#263238"/>
<path opacity="0.2" d="M86.478 58.4528L87.318 60.0964L89.3592 58.8953L88.6893 57.3149L86.478 58.4528Z" fill="black"/>
<path d="M70.6396 58.6878C71.9206 59.2206 73.3696 58.8887 74.68 58.462C76.7653 57.7687 78.8968 57.0168 80.6545 55.6394C81.8578 54.6956 82.2148 53.6072 81.9649 53.1556C80.4223 52.8851 78.8587 52.7785 77.2966 52.8373C75.7552 52.9253 74.1928 53.3679 72.9706 54.3659C71.7484 55.364 70.8034 58.4303 70.8601 58.3332L70.6396 58.6878Z" fill="#407BFF"/>
<g opacity="0.2">
<path d="M70.6396 58.6878C71.9206 59.2206 73.3696 58.8887 74.68 58.462C76.7653 57.7687 78.8968 57.0168 80.6545 55.6394C81.8578 54.6956 82.2148 53.6072 81.9649 53.1556C80.4223 52.8851 78.8587 52.7785 77.2966 52.8373C75.7552 52.9253 74.1928 53.3679 72.9706 54.3659C71.7484 55.364 70.8034 58.4303 70.8601 58.3332L70.6396 58.6878Z" fill="black"/>
</g>
<path d="M74.9887 46.4065C74.9887 46.4065 73.8169 64.2718 79.3042 65.7711C82.7398 66.6495 88.9075 59.8371 88.9075 59.8371L87.9499 57.6287C87.9499 57.6287 82.5802 59.9319 81.5596 59.3945C79.09 54.1537 82.2631 49.5474 79.5793 45.9887L74.9887 46.4065Z" fill="#263238"/>
<path d="M91.203 58.0894C91.1984 58.0838 91.1924 58.0797 91.1857 58.0777C91.179 58.0757 91.1718 58.0758 91.1652 58.0781C91.1582 58.0801 91.1519 58.0844 91.1473 58.0905C91.1428 58.0967 91.1402 58.1042 91.14 58.112C91.14 58.173 91.0896 58.778 91.2471 58.9045C91.2645 58.9188 91.2851 58.928 91.3068 58.9312C91.3285 58.9344 91.3507 58.9314 91.371 58.9225C91.4051 58.9117 91.4361 58.8917 91.4611 58.8645C91.4861 58.8372 91.5042 58.8036 91.5138 58.7667V58.7464C91.5432 58.5545 91.3332 58.2565 91.203 58.0894ZM91.203 58.2204C91.3815 58.4461 91.4634 58.6448 91.4403 58.7464C91.4334 58.7707 91.421 58.7927 91.4041 58.8105C91.3872 58.8283 91.3664 58.8412 91.3437 58.848C91.3352 58.8536 91.3253 58.8566 91.3153 58.8566C91.3053 58.8566 91.2955 58.8536 91.287 58.848C91.2009 58.7803 91.1904 58.4597 91.203 58.2181V58.2204Z" fill="#407BFF"/>
<path d="M91.2157 58.1188C91.2158 58.1121 91.2142 58.1055 91.2113 58.0995C91.2084 58.0936 91.2041 58.0886 91.1989 58.0849C91.1937 58.081 91.1875 58.0789 91.1811 58.0789C91.1747 58.0789 91.1685 58.081 91.1632 58.0849C91.1464 58.0849 90.7558 58.3107 90.7033 58.5545C90.695 58.5835 90.6927 58.6141 90.6967 58.6442C90.7007 58.6743 90.7109 58.703 90.7264 58.7283C90.7409 58.7557 90.7634 58.777 90.7904 58.7888C90.8175 58.8007 90.8475 58.8025 90.8755 58.7938C91.0267 58.7396 91.1737 58.3829 91.2031 58.1797C91.2093 58.1599 91.2135 58.1395 91.2157 58.1188ZM90.7663 58.5884C90.7671 58.5846 90.7671 58.5808 90.7663 58.5771C90.7978 58.4326 91.0015 58.2768 91.1275 58.1933C91.0918 58.3919 90.9532 58.6854 90.8503 58.7193C90.8335 58.7193 90.8104 58.7193 90.7852 58.6832C90.7757 58.6698 90.769 58.6545 90.7654 58.6382C90.7617 58.6218 90.7614 58.6049 90.7642 58.5884H90.7663Z" fill="#407BFF"/>
<path d="M79.3674 80.4008L77.8554 80.7011L77.0742 76.9438L78.5862 76.6434L79.3674 80.4008Z" fill="#B55B52"/>
<path d="M77.2673 81.0103C77.2745 81.0075 77.2808 81.0027 77.2856 80.9963C77.2904 80.99 77.2935 80.9823 77.2946 80.9742C77.2938 80.966 77.2911 80.9581 77.2867 80.9514C77.2823 80.9447 77.2763 80.9393 77.2694 80.9358C77.198 80.9065 76.5491 80.6468 76.3748 80.7823C76.3583 80.7946 76.345 80.8112 76.3362 80.8306C76.3274 80.8499 76.3233 80.8714 76.3244 80.8929C76.3241 80.9284 76.3315 80.9634 76.3461 80.9951C76.3607 81.0269 76.382 81.0545 76.4084 81.0758C76.5272 81.1397 76.6626 81.1588 76.7927 81.13C76.9537 81.1046 77.1125 81.0646 77.2673 81.0103ZM76.484 80.8229C76.7108 80.8317 76.9345 80.8821 77.1455 80.9719C76.8116 81.0735 76.5575 81.0893 76.4567 81.0126C76.4391 80.9985 76.425 80.98 76.4155 80.9588C76.406 80.9376 76.4014 80.9142 76.4021 80.8907C76.4013 80.882 76.4026 80.8733 76.4059 80.8654C76.4092 80.8575 76.4144 80.8506 76.421 80.8455C76.4415 80.8326 76.4645 80.8249 76.4882 80.8229H76.484Z" fill="#407BFF"/>
<path d="M77.2798 80.999C77.2829 80.9928 77.2845 80.9858 77.2845 80.9787C77.2845 80.9716 77.2829 80.9646 77.2798 80.9584C77.2798 80.9426 77.1916 80.5068 76.9816 80.3533C76.951 80.3316 76.9164 80.3171 76.8802 80.3109C76.844 80.3047 76.8069 80.3068 76.7716 80.3172C76.6708 80.342 76.654 80.4007 76.6477 80.4436C76.6372 80.6355 77.0362 80.9448 77.2294 81.0103H77.242C77.2486 81.0126 77.2557 81.0127 77.2624 81.0107C77.2692 81.0087 77.2752 81.0047 77.2798 80.999ZM76.8178 80.3894C76.8639 80.3794 76.9118 80.3883 76.9522 80.4143C77.0808 80.5426 77.1676 80.712 77.2 80.8974C76.99 80.8048 76.7254 80.5565 76.7317 80.4459C76.7317 80.4459 76.7317 80.4075 76.7989 80.3917H76.8199L76.8178 80.3894Z" fill="#407BFF"/>
<path d="M77.8806 80.0327L79.2645 79.9695C79.2944 79.9667 79.3241 79.9761 79.3478 79.9957C79.3715 80.0154 79.3875 80.0439 79.3926 80.0756L79.8861 82.1075C79.8952 82.1778 79.8783 82.2491 79.839 82.306C79.7998 82.363 79.7413 82.4012 79.6761 82.4123H79.6467C79.044 82.4327 78.7521 82.4123 77.9898 82.453C77.5236 82.4778 76.0998 82.7916 75.4698 82.6923C74.8398 82.593 74.886 81.9066 75.1611 81.8863C76.0452 81.8231 77.0154 81.1119 77.4711 80.342C77.5341 80.2743 77.784 80.0349 77.8806 80.0327Z" fill="#263238"/>
<path opacity="0.2" d="M77.0742 76.9437L77.4774 78.8808L78.9894 78.5828L78.5883 76.6456L77.0742 76.9437Z" fill="black"/>
<path opacity="0.2" d="M78.733 49.9041L76.1143 52.9479L77.2756 61.2212L78.733 49.9041Z" fill="black"/>
<path d="M73.5503 46.621C73.5503 46.621 71.9753 51.0263 71.8367 55.1675C71.6015 62.2373 73.3844 68.5778 74.0144 70.829C75.3038 75.4241 76.6373 77.743 76.6373 77.743L79.1426 77.4224C79.1426 77.4224 75.9023 57.3555 77.4626 54.9891C80.7344 50.0373 77.9057 46.1378 77.9057 46.1378L73.5503 46.621Z" fill="#263238"/>
<path d="M79.3906 42.1501C81.7006 45.5665 81.7006 50.3105 82.0408 53.325C81.6208 53.973 78.9643 54.7385 78.2272 54.7137C76.7651 54.6778 75.3162 55.0181 74.0011 55.7062C72.6861 56.3944 71.5431 57.4104 70.6672 58.6697C70.0057 56.2333 73.1872 43.2994 73.1872 43.2994C73.9075 43.0669 78.9412 41.4908 79.3906 42.1501Z" fill="#407BFF"/>
<path d="M78.0068 35.8388L75.6002 36.1278C75.4601 36.1418 75.3196 36.1049 75.2013 36.0231C75.0829 35.9412 74.9934 35.8191 74.9471 35.6763C74.8769 35.517 74.7857 35.3695 74.6762 35.2383C74.482 34.9639 74.2179 34.7561 73.916 34.64C74.6304 34.3653 75.3683 34.1672 76.1189 34.0484C77.2424 33.9243 77.6582 34.1658 77.6582 34.1658C78.2231 34.3352 78.4247 34.5745 78.5381 35.0147C78.5607 35.1069 78.5645 35.2032 78.5491 35.2971C78.5338 35.391 78.4997 35.4801 78.4492 35.5585C78.3987 35.6368 78.333 35.7024 78.2566 35.7508C78.1802 35.7992 78.095 35.8292 78.0068 35.8388Z" fill="#B55B52"/>
<path d="M52.6554 75.5144C52.6554 75.5144 54.6861 73.4551 54.6525 72.1026C54.6189 70.75 53.3925 73.9203 53.3547 73.2541C53.3169 72.588 54.7575 70.6732 54.8247 69.3659C54.8919 68.0585 53.3547 71.7119 53.2854 71.0977C53.2161 70.4836 54.6777 67.7672 54.6651 66.8075C54.6525 65.8479 53.3778 69.2168 53.1951 68.6139C53.0124 68.0111 54.2577 65.8005 53.9385 64.1408C53.6193 62.4812 52.941 66.8369 52.8381 66.2837C52.7352 65.7305 53.5962 62.8967 52.9872 61.7677C52.3782 60.6387 52.5483 64.8363 52.3404 64.3486C52.1325 63.8608 52.0065 61.4493 51.2295 60.6274C50.4525 59.8055 51.4395 63.057 51.1959 63.2196C50.9523 63.3821 49.8498 60.9616 49.5516 61.4245C49.2534 61.8873 51.1245 64.4818 51.1434 65.1027C51.1623 65.7237 49.6314 64.0663 49.4949 64.7392C49.3584 65.4121 51.6243 66.4711 51.7398 67.1146C51.8553 67.7582 49.8498 66.6066 49.8624 67.2704C49.875 67.9343 51.7671 68.2888 51.8805 69.043C51.9939 69.7971 50.0241 68.4988 50.1312 69.3817C50.2383 70.2645 51.5655 70.0929 51.7167 70.9623C51.8679 71.8316 50.3475 70.8403 50.4063 71.669C50.4651 72.4977 51.9813 72.5903 52.1409 73.2225C52.3005 73.8548 50.6898 72.9267 50.736 73.5974C50.7822 74.268 52.3383 74.3651 52.6554 75.5144Z" fill="#407BFF"/>
<path d="M52.4873 78.443C52.7552 76.9189 52.8958 75.372 52.9073 73.8209C52.9829 70.4497 52.5902 67.0469 51.5444 63.8631C51.4688 63.6373 51.1244 63.7141 51.1937 63.9489C52.1962 67.1199 52.6552 70.4601 52.5482 73.8073C52.5333 75.3231 52.3927 76.8344 52.1282 78.3233C52.082 78.5649 52.4243 78.6824 52.4726 78.4385L52.4873 78.443Z" fill="#407BFF"/>
<path d="M53.25 76.2098C53.25 76.2098 51.8367 73.3038 52.2882 71.3348C52.7397 69.3658 53.0694 73.9496 53.2794 72.8522C53.4894 71.7548 52.6179 69.6232 53.4285 68.0404C54.2391 66.4575 53.4894 71.0119 54.0291 70.0116C54.5688 69.0113 53.9409 66.4598 54.6906 65.4956C55.4403 64.5314 54.93 67.5933 55.2912 67.1101C55.6524 66.6269 55.5621 64.3644 56.1312 63.8473C56.7003 63.3302 56.1921 66.0104 56.4924 65.4956C56.7927 64.9808 57.4836 62.6212 58.4454 62.3344C59.4072 62.0476 57.8154 63.7886 58.4454 63.626C59.0754 63.4634 60.516 63.1089 60.6378 63.8202C60.7596 64.5314 57.6033 65.2969 57.2442 66.1595C56.8851 67.022 58.6848 65.4821 59.0145 66.1278C59.3442 66.7736 56.253 67.6768 56.0115 68.6455C55.77 69.6142 58.5651 67.8394 58.5042 68.8397C58.4433 69.84 55.2912 70.0342 55.1442 70.9058C54.9972 71.7774 57.7251 69.9371 57.6348 70.8087C57.5445 71.6803 54.8124 72.3599 54.6318 73.2925C54.4512 74.2251 56.6457 72.4209 56.7045 73.1638C56.7633 73.9067 53.25 76.2098 53.25 76.2098Z" fill="#407BFF"/>
<path opacity="0.2" d="M53.25 76.2098C53.25 76.2098 51.8367 73.3038 52.2882 71.3348C52.7397 69.3658 53.0694 73.9496 53.2794 72.8522C53.4894 71.7548 52.6179 69.6232 53.4285 68.0404C54.2391 66.4575 53.4894 71.0119 54.0291 70.0116C54.5688 69.0113 53.9409 66.4598 54.6906 65.4956C55.4403 64.5314 54.93 67.5933 55.2912 67.1101C55.6524 66.6269 55.5621 64.3644 56.1312 63.8473C56.7003 63.3302 56.1921 66.0104 56.4924 65.4956C56.7927 64.9808 57.4836 62.6212 58.4454 62.3344C59.4072 62.0476 57.8154 63.7886 58.4454 63.626C59.0754 63.4634 60.516 63.1089 60.6378 63.8202C60.7596 64.5314 57.6033 65.2969 57.2442 66.1595C56.8851 67.022 58.6848 65.4821 59.0145 66.1278C59.3442 66.7736 56.253 67.6768 56.0115 68.6455C55.77 69.6142 58.5651 67.8394 58.5042 68.8397C58.4433 69.84 55.2912 70.0342 55.1442 70.9058C54.9972 71.7774 57.7251 69.9371 57.6348 70.8087C57.5445 71.6803 54.8124 72.3599 54.6318 73.2925C54.4512 74.2251 56.6457 72.4209 56.7045 73.1638C56.7633 73.9067 53.25 76.2098 53.25 76.2098Z" fill="white"/>
<path d="M51.2528 76.124C51.2528 76.124 52.6199 73.5047 52.2125 72.2267C51.8051 70.9487 51.5069 74.3696 51.2927 73.7418C51.0785 73.1141 51.9227 70.829 51.6098 69.5623C51.2969 68.2955 50.8685 72.2719 50.6207 71.7096C50.3729 71.1474 51.0239 68.0833 50.7488 67.1801C50.4737 66.2769 50.1902 69.8897 49.8458 69.3839C49.5014 68.8781 50.0768 66.3582 49.3103 64.8679C48.5438 63.3776 49.1003 67.7604 48.8567 67.2659C48.6131 66.7714 48.6467 63.7863 47.7395 62.8989C46.8323 62.0115 48.1763 65.9698 47.8403 65.5701C47.5043 65.1705 46.7168 62.9125 45.7403 62.3773C44.7638 61.8422 46.6118 64.6353 46.4291 64.8611C46.2464 65.0869 44.5181 63.1428 44.3606 63.6779C44.2031 64.2131 46.7126 66.0872 46.9016 66.6743C47.0906 67.2614 45.1712 66.1708 45.2216 66.8572C45.272 67.5436 47.7416 67.8259 48.023 68.4039C48.3044 68.982 46.0847 68.5258 46.2779 69.1558C46.4711 69.7858 48.3779 69.5149 48.695 70.199C49.0121 70.8832 46.7714 70.2758 47.12 71.0842C47.4686 71.8925 48.6866 71.31 49.073 72.0845C49.4594 72.859 47.7332 72.4096 48.023 73.1819C48.3128 73.9541 49.7828 73.5522 50.1104 74.1054C50.438 74.6586 48.6404 74.2883 48.8735 74.9137C49.1066 75.5392 50.6312 75.1283 51.2528 76.124Z" fill="#407BFF"/>
<path opacity="0.1" d="M51.2528 76.124C51.2528 76.124 52.6199 73.5047 52.2125 72.2267C51.8051 70.9487 51.5069 74.3696 51.2927 73.7418C51.0785 73.1141 51.9227 70.829 51.6098 69.5623C51.2969 68.2955 50.8685 72.2719 50.6207 71.7096C50.3729 71.1474 51.0239 68.0833 50.7488 67.1801C50.4737 66.2769 50.1902 69.8897 49.8458 69.3839C49.5014 68.8781 50.0768 66.3582 49.3103 64.8679C48.5438 63.3776 49.1003 67.7604 48.8567 67.2659C48.6131 66.7714 48.6467 63.7863 47.7395 62.8989C46.8323 62.0115 48.1763 65.9698 47.8403 65.5701C47.5043 65.1705 46.7168 62.9125 45.7403 62.3773C44.7638 61.8422 46.6118 64.6353 46.4291 64.8611C46.2464 65.0869 44.5181 63.1428 44.3606 63.6779C44.2031 64.2131 46.7126 66.0872 46.9016 66.6743C47.0906 67.2614 45.1712 66.1708 45.2216 66.8572C45.272 67.5436 47.7416 67.8259 48.023 68.4039C48.3044 68.982 46.0847 68.5258 46.2779 69.1558C46.4711 69.7858 48.3779 69.5149 48.695 70.199C49.0121 70.8832 46.7714 70.2758 47.12 71.0842C47.4686 71.8925 48.6866 71.31 49.073 72.0845C49.4594 72.859 47.7332 72.4096 48.023 73.1819C48.3128 73.9541 49.7828 73.5522 50.1104 74.1054C50.438 74.6586 48.6404 74.2883 48.8735 74.9137C49.1066 75.5392 50.6312 75.1283 51.2528 76.124Z" fill="white"/>
<path d="M51.9078 78.9737C51.7418 77.4327 51.448 75.9108 51.03 74.4261C50.1949 71.1646 48.8167 68.0929 46.9623 65.3602C46.8237 65.1637 46.5108 65.3602 46.6494 65.5566C48.4882 68.2597 49.8551 71.2993 50.6835 74.5277C51.0935 75.9791 51.3824 77.467 51.5466 78.9737C51.5697 79.2198 51.9309 79.2221 51.9078 78.9737Z" fill="#407BFF"/>
<path d="M53.1888 78.6011C53.2445 77.2524 53.3912 75.9099 53.6277 74.5841C54.0603 72.0235 54.7512 69.4087 56.0826 67.2095C56.8119 65.934 57.8597 64.9044 59.1066 64.2379C59.3166 64.1318 59.1339 63.7976 58.9239 63.9015C56.6517 65.0508 55.2888 67.4962 54.4257 69.9326C53.6486 72.2171 53.1502 74.6004 52.9431 77.0227C52.8906 77.5466 52.8444 78.0727 52.8276 78.6033C52.8276 78.8517 53.1804 78.8517 53.1888 78.6033V78.6011Z" fill="#407BFF"/>
<path d="M56.1312 76.5012H48.6846L49.5246 80.5656V81.4846C49.5246 81.7894 49.6372 82.0817 49.8376 82.2973C50.0381 82.5128 50.31 82.6339 50.5935 82.6339H54.2223C54.5058 82.6339 54.7776 82.5128 54.9781 82.2973C55.1786 82.0817 55.2912 81.7894 55.2912 81.4846V80.5656L56.1312 76.5012Z" fill="#263238"/>
</svg>
