<svg width="105" height="87" viewBox="0 0 105 87" fill="none" xmlns="http://www.w3.org/2000/svg">
<path d="M16.3791 79.166C36.6513 89.6116 69.5204 89.6116 89.7951 79.166C110.07 68.7203 110.067 51.7857 89.7951 41.3401C69.5229 30.8944 36.6513 30.892 16.3766 41.3401C-3.89799 51.7881 -3.89557 68.7203 16.3791 79.166Z" fill="#FAFAFA"/>
<path d="M70.0501 81.0845C74.1487 81.0845 77.4713 79.5224 77.4713 77.5955C77.4713 75.6685 74.1487 74.1064 70.0501 74.1064C65.9515 74.1064 62.6289 75.6685 62.6289 77.5955C62.6289 79.5224 65.9515 81.0845 70.0501 81.0845Z" fill="#F0F0F0"/>
<path d="M12.0186 17.2601V29.2642C12.0186 29.658 12.2992 29.8203 12.6477 29.6222L40.9049 13.5301C41.0877 13.4122 41.24 13.2536 41.3492 13.067C41.4585 12.8805 41.5218 12.6712 41.534 12.4561V0.442527C41.534 0.0487554 41.2509 -0.113526 40.9049 0.0845527L12.6477 16.1767C12.4631 16.295 12.3098 16.455 12.2004 16.6435C12.091 16.8319 12.0287 17.0433 12.0186 17.2601Z" fill="#F0F0F0"/>
<path d="M13.9858 17.0715L22.4547 12.2508C22.8443 12.0289 23.1564 12.2078 23.1564 12.6493V21.0426C23.1431 21.282 23.0726 21.5149 22.9507 21.7223C22.8287 21.9297 22.6588 22.1056 22.4547 22.2359L13.9858 27.059C13.5986 27.2785 13.2841 27.0996 13.2841 26.6581V18.2695C13.2972 18.0295 13.3676 17.7958 13.4895 17.5877C13.6114 17.3795 13.7815 17.2026 13.9858 17.0715Z" fill="#FAFAFA"/>
<path d="M20.8432 16.4394L18.3243 21.5895L17.0418 20.8592C16.9187 20.7928 16.7742 20.7761 16.6388 20.8126C16.5035 20.8491 16.3877 20.9359 16.3159 21.0549L13.2841 26.2121V26.6632C13.2841 27.1047 13.5986 27.2837 13.9858 27.0641L22.4547 22.241C22.6584 22.1103 22.828 21.9342 22.9499 21.727C23.0718 21.5197 23.1426 21.287 23.1564 21.0478V18.0957L21.4626 16.344C21.4248 16.2918 21.373 16.251 21.3131 16.2262C21.2531 16.2014 21.1873 16.1935 21.1231 16.2034C21.0588 16.2133 20.9986 16.2406 20.9492 16.2823C20.8998 16.324 20.8631 16.3784 20.8432 16.4394Z" fill="#0082F4"/>
<path d="M14.5568 20.143C15.0801 19.8064 15.5156 19.3528 15.8279 18.8192C16.1403 18.2856 16.3208 17.6868 16.3547 17.0716C16.3547 16.5537 16.1853 16.179 15.907 15.9785L13.9858 17.0716C13.7821 17.2022 13.6125 17.3783 13.4906 17.5856C13.3687 17.7929 13.2979 18.0256 13.2841 18.2648V20.2623C13.6156 20.4532 14.0608 20.4246 14.5568 20.143Z" fill="#0082F4"/>
<path d="M26.3165 10.8359L39.0416 3.58814C39.332 3.42347 39.5667 3.54041 39.5667 3.85065C39.5539 4.02451 39.4997 4.19294 39.4085 4.34223C39.3172 4.49152 39.1915 4.61746 39.0416 4.70979L26.3165 11.9552C26.0261 12.1199 25.7914 12.0029 25.7914 11.6927C25.8045 11.5192 25.8589 11.3513 25.9501 11.2024C26.0414 11.0536 26.1669 10.928 26.3165 10.8359Z" fill="#FAFAFA"/>
<path d="M26.3165 13.3155L39.0416 6.06775C39.332 5.90309 39.5667 6.02002 39.5667 6.33027C39.5539 6.50413 39.4997 6.67255 39.4085 6.82184C39.3172 6.97113 39.1915 7.09707 39.0416 7.18941L26.3165 14.4348C26.0261 14.5995 25.7914 14.4825 25.7914 14.1747C25.8042 14.0008 25.8584 13.8324 25.9496 13.6831C26.0409 13.5338 26.1665 13.4079 26.3165 13.3155Z" fill="#FAFAFA"/>
<path d="M26.3165 15.7949L39.0416 8.54948C39.332 8.38482 39.5667 8.50175 39.5667 8.80961C39.5539 8.98347 39.4997 9.15189 39.4085 9.30119C39.3172 9.45048 39.1915 9.57641 39.0416 9.66875L26.3165 16.9141C26.0261 17.0812 25.7914 16.9643 25.7914 16.654C25.8042 16.4802 25.8584 16.3117 25.9496 16.1624C26.0409 16.0131 26.1665 15.8872 26.3165 15.7949Z" fill="#FAFAFA"/>
<path d="M26.3165 18.2745L39.0416 11.0291C39.332 10.8644 39.5667 10.9814 39.5667 11.2916C39.5536 11.465 39.4992 11.633 39.4079 11.7818C39.3167 11.9307 39.1912 12.0563 39.0416 12.1484L26.3165 19.4081C26.0261 19.5727 25.7914 19.4558 25.7914 19.1455C25.8023 18.9696 25.8556 18.7988 25.947 18.6473C26.0383 18.4958 26.165 18.368 26.3165 18.2745Z" fill="#FAFAFA"/>
<path d="M6.11462 55.0291V37.4144C6.12625 37.1991 6.1893 36.9896 6.29864 36.803C6.40797 36.6164 6.56049 36.4579 6.74374 36.3404L28.1145 24.1693C28.4605 23.9713 28.7436 24.1311 28.7436 24.5273V42.142C28.7314 42.3571 28.6681 42.5664 28.5589 42.7529C28.4496 42.9395 28.2974 43.0981 28.1145 43.2159L6.74374 55.387C6.39531 55.5851 6.11462 55.4252 6.11462 55.0291Z" fill="#F0F0F0"/>
<path d="M6.11462 54.1482V55.0288C6.11462 55.425 6.39531 55.5848 6.74374 55.3868L28.1145 43.2157C28.2974 43.0978 28.4496 42.9392 28.5589 42.7526C28.6681 42.5661 28.7314 42.3568 28.7436 42.1417V41.2587L6.11462 54.1482Z" fill="#0082F4"/>
<path d="M16.4541 38.1733L18.6318 38.0611C18.8979 38.0468 18.9705 38.1948 18.7939 38.3952L16.2919 41.2018C16.1153 41.3998 15.9725 41.345 15.9725 41.0824V38.6769C15.9735 38.5485 16.0236 38.4252 16.113 38.3318C16.2023 38.2383 16.3242 38.1817 16.4541 38.1733Z" fill="#0082F4"/>
<path d="M15.8925 42.7409C15.6315 42.7442 15.3743 42.6792 15.1472 42.5523C14.61 42.2445 14.3148 41.5977 14.3148 40.7529C14.3148 39.0299 15.5464 36.9345 17.0612 36.0635C17.8089 35.6363 18.513 35.5719 19.055 35.8773C19.597 36.1828 19.8898 36.8319 19.8898 37.6744C19.8898 39.3998 18.6558 41.4927 17.1434 42.3638C16.767 42.5951 16.3357 42.7251 15.8925 42.7409ZM18.3122 35.8511C17.8986 35.8672 17.4965 35.9898 17.1459 36.2067C15.6771 37.0419 14.4842 39.0824 14.4842 40.7529C14.4842 41.5452 14.7504 42.1347 15.2343 42.4092C15.7182 42.6836 16.3667 42.6192 17.0612 42.223C18.5299 41.3854 19.7228 39.3592 19.7228 37.6744C19.7228 36.882 19.4567 36.295 18.9727 36.0181C18.7703 35.9064 18.5417 35.8488 18.3097 35.8511H18.3122Z" fill="#0082F4"/>
<path d="M7.29297 21.0449L5.96939 20.2955C5.33785 19.8779 4.4595 19.8946 3.4892 20.4483C1.55345 21.5461 0 24.3311 0 26.6699V27.202C0 29.5408 3.18916 32.08 3.18916 32.08L4.49096 32.8079C4.49096 32.8079 3.70939 31.9273 3.79892 31.7459C4.66276 30.0181 6.97357 25.1353 6.97357 23.2261V22.694C6.97847 22.3088 6.92879 21.9248 6.82596 21.5532L6.97357 21.6367L7.29297 21.0449ZM3.48678 26.4073C2.5189 26.9562 1.74218 26.51 1.74218 25.4146C2.26 25.3334 3.56421 23.1378 3.48678 22.4338C4.45466 21.8849 5.22896 22.3312 5.23138 23.4266C5.19859 24.0237 5.02354 24.6048 4.72042 25.1227C4.4173 25.6406 3.99465 26.0807 3.48678 26.4073Z" fill="#0082F4"/>
<g opacity="0.2">
<path d="M7.29297 21.0449L5.96939 20.2955C5.33785 19.8779 4.4595 19.8946 3.4892 20.4483C1.55345 21.5461 0 24.3311 0 26.6699V27.202C0 29.5408 3.18916 32.08 3.18916 32.08L4.49096 32.8079C4.49096 32.8079 3.70939 31.9273 3.79892 31.7459C4.66276 30.0181 6.97357 25.1353 6.97357 23.2261V22.694C6.97847 22.3088 6.92879 21.9248 6.82596 21.5532L6.97357 21.6367L7.29297 21.0449ZM3.48678 26.4073C2.5189 26.9562 1.74218 26.51 1.74218 25.4146C2.26 25.3334 3.56421 23.1378 3.48678 22.4338C4.45466 21.8849 5.22896 22.3312 5.23138 23.4266C5.19859 24.0237 5.02354 24.6048 4.72042 25.1227C4.4173 25.6406 3.99465 26.0807 3.48678 26.4073Z" fill="black"/>
</g>
<path d="M7.29271 21.0452C7.27825 21.0351 7.26285 21.0263 7.24674 21.019C6.62487 20.6753 5.79492 20.7231 4.88027 21.2433C3.50105 22.0308 2.30814 23.6799 1.73467 25.4149C1.5129 26.075 1.39538 26.7648 1.38623 27.4601V27.9995C1.38623 29.8013 3.45507 31.8918 4.40601 32.7581C4.42659 32.7763 4.44842 32.793 4.47134 32.8082C4.52726 32.842 4.58973 32.8639 4.65473 32.8724C4.71973 32.8809 4.78582 32.8759 4.84874 32.8577C4.91165 32.8395 4.97 32.8085 5.02003 32.7667C5.07005 32.7248 5.11064 32.6732 5.13918 32.6149C5.96188 30.9444 8.35496 25.9614 8.35496 24.0236V23.4914C8.36948 22.2886 7.95571 21.439 7.29271 21.0452ZM3.16713 26.5533C3.14704 26.4398 3.13732 26.3248 3.13809 26.2096C3.17005 25.6122 3.34448 25.0307 3.6472 24.5124C3.94992 23.9941 4.3724 23.5535 4.88027 23.2265C4.98173 23.1688 5.08773 23.1194 5.19725 23.0785C6.01027 22.7874 6.62487 23.248 6.62487 24.2193C6.59228 24.8161 6.41729 25.3969 6.11414 25.9144C5.81098 26.432 5.38823 26.8716 4.88027 27.1976C4.02612 27.6892 3.31473 27.3933 3.16713 26.5533Z" fill="#0082F4"/>
<path d="M6.62523 24.2214C6.59264 24.8182 6.41765 25.399 6.11449 25.9165C5.81134 26.4341 5.38858 26.8737 4.88063 27.1997C4.02647 27.677 3.31508 27.393 3.16748 26.553C3.27836 26.5145 3.3853 26.4657 3.48688 26.4074C3.99444 26.0806 4.41671 25.6404 4.71942 25.1225C5.02213 24.6046 5.19673 24.0236 5.22906 23.4267C5.23017 23.3106 5.21963 23.1947 5.19761 23.0806C6.01062 22.7895 6.62523 23.2501 6.62523 24.2214Z" fill="#0082F4"/>
<g opacity="0.2">
<path d="M6.62523 24.2214C6.59264 24.8182 6.41765 25.399 6.11449 25.9165C5.81134 26.4341 5.38858 26.8737 4.88063 27.1997C4.02647 27.677 3.31508 27.393 3.16748 26.553C3.27836 26.5145 3.3853 26.4657 3.48688 26.4074C3.99444 26.0806 4.41671 25.6404 4.71942 25.1225C5.02213 24.6046 5.19673 24.0236 5.22906 23.4267C5.23017 23.3106 5.21963 23.1947 5.19761 23.0806C6.01062 22.7895 6.62523 23.2501 6.62523 24.2214Z" fill="black"/>
</g>
<path d="M32.0489 53.8524C32.0489 53.8524 32.9224 48.3635 30.9818 43.643C29.0412 38.9225 26.4255 38.6314 25.0705 39.302C23.7155 39.9726 24.5866 42.5906 25.7964 44.3494C27.4079 46.6572 30.0696 51.6258 29.9825 56.0886L32.0489 53.8524Z" fill="#0082F4"/>
<path opacity="0.2" d="M32.0489 53.8524C32.0489 53.8524 32.9224 48.3635 30.9818 43.643C29.0412 38.9225 26.4255 38.6314 25.0705 39.302C23.7155 39.9726 24.5866 42.5906 25.7964 44.3494C27.4079 46.6572 30.0696 51.6258 29.9825 56.0886L32.0489 53.8524Z" fill="black"/>
<path d="M31.1777 54.2009C31.156 54.2003 31.1346 54.1954 31.1149 54.1865C31.0951 54.1776 31.0774 54.1648 31.0627 54.149C31.048 54.1332 31.0367 54.1147 31.0295 54.0945C31.0222 54.0743 31.0191 54.0528 31.0204 54.0315C31.3398 46.5164 27.5337 40.9058 25.8907 39.8127C25.8727 39.8008 25.8573 39.7856 25.8454 39.7678C25.8334 39.75 25.8251 39.7301 25.8209 39.7091C25.8168 39.6882 25.8168 39.6666 25.8211 39.6457C25.8254 39.6248 25.8338 39.6049 25.8459 39.5872C25.858 39.5695 25.8735 39.5543 25.8915 39.5425C25.9095 39.5307 25.9297 39.5225 25.951 39.5184C25.9722 39.5143 25.9941 39.5144 26.0153 39.5186C26.0365 39.5229 26.0566 39.5312 26.0746 39.5431C28.0103 40.8175 31.6689 46.5546 31.3471 54.0458C31.3465 54.067 31.3416 54.0879 31.3327 54.1072C31.3238 54.1265 31.3111 54.1439 31.2954 54.1583C31.2796 54.1728 31.2611 54.184 31.2409 54.1913C31.2207 54.1986 31.1992 54.2019 31.1777 54.2009Z" fill="white"/>
<path d="M31.7053 60.3696C31.3738 59.5486 30.5172 58.6322 28.3177 57.6538C26.1182 56.6753 24.4631 55.3699 24.1582 54.4248C24.0665 54.1638 24.0545 53.8819 24.1238 53.6142C24.193 53.3465 24.3405 53.1047 24.5478 52.919C24.5478 52.919 22.4741 52.6803 22.2128 51.4274C21.8861 49.8475 23.6985 49.7449 23.6985 49.7449C23.6985 49.7449 21.3199 46.442 20.6884 44.9719C20.0569 43.5018 20.7852 43.4135 22.3193 43.9744C23.8534 44.5352 26.7763 47.3584 27.2288 48.2199C27.2288 48.2199 28.0201 47.2653 28.8718 47.893C29.7235 48.5206 29.7647 50.3988 29.2614 51.0766C29.6008 51.0142 29.9512 51.0502 30.2703 51.1803C30.5894 51.3103 30.8634 51.5288 31.0592 51.8092C31.9255 52.9285 32.211 55.7279 32.211 55.7279L31.7053 60.3696Z" fill="#0082F4"/>
<path d="M31.8599 59.6063C31.8231 59.6059 31.7875 59.5935 31.7587 59.571C31.7298 59.5486 31.7092 59.5174 31.7002 59.4822C30.5242 54.6496 24.942 46.9364 21.4745 44.4831C21.4569 44.4708 21.4419 44.4551 21.4304 44.437C21.4189 44.4189 21.4112 44.3987 21.4076 44.3777C21.404 44.3566 21.4046 44.3351 21.4095 44.3143C21.4143 44.2935 21.4233 44.2738 21.4358 44.2564C21.4484 44.239 21.4643 44.2242 21.4826 44.2129C21.501 44.2016 21.5214 44.1939 21.5427 44.1904C21.5641 44.1868 21.5859 44.1875 21.607 44.1922C21.6281 44.197 21.648 44.2058 21.6657 44.2182C25.1767 46.7026 30.8291 54.5136 32.022 59.4059C32.0315 59.4479 32.0238 59.492 32.0008 59.5286C31.9777 59.5651 31.941 59.5914 31.8986 59.6016L31.8599 59.6063Z" fill="white"/>
<path d="M75.6592 10.9432C75.6304 10.9429 75.6021 10.9355 75.5769 10.9218L74.897 10.5328C74.8782 10.5221 74.8618 10.508 74.8486 10.491C74.8354 10.4741 74.8257 10.4548 74.8201 10.4342C74.8145 10.4136 74.813 10.3921 74.8158 10.3709C74.8187 10.3498 74.8257 10.3294 74.8365 10.3109C74.8473 10.2924 74.8617 10.2762 74.8788 10.2632C74.896 10.2502 74.9156 10.2406 74.9364 10.2351C74.9573 10.2296 74.9791 10.2281 75.0006 10.2309C75.022 10.2337 75.0427 10.2406 75.0615 10.2512L75.7414 10.6402C75.7602 10.6508 75.7767 10.665 75.7899 10.6819C75.8031 10.6988 75.8128 10.7181 75.8184 10.7388C75.824 10.7594 75.8254 10.7809 75.8226 10.802C75.8198 10.8232 75.8128 10.8436 75.8019 10.8621C75.7875 10.8868 75.7666 10.9073 75.7416 10.9216C75.7165 10.9358 75.6881 10.9433 75.6592 10.9432Z" fill="white"/>
<path d="M31.7051 25.0928V60.599C31.7051 60.9952 31.9858 61.1551 32.3318 60.957L74.3232 37.0467C74.5061 36.9289 74.6583 36.7703 74.7675 36.5837C74.8768 36.3972 74.9401 36.1879 74.9523 35.9728V0.466576C74.9523 0.0704181 74.6692 -0.0894769 74.3232 0.108602L32.3318 24.0189C32.1491 24.1367 31.9972 24.2954 31.8883 24.4819C31.7794 24.6685 31.7166 24.8778 31.7051 25.0928Z" fill="#455A64"/>
<path d="M36.6196 31.6509C36.6196 32.8895 37.556 33.3573 38.7151 32.6986L72.0028 13.7427V9.26562L38.7151 28.2192C37.556 28.8802 36.6196 30.4147 36.6196 31.6509Z" fill="#F5F5F5"/>
<path d="M74.8341 7.65959C75.9907 7.00091 76.9295 7.46867 76.9295 8.70487C76.9295 9.94107 75.9907 11.478 74.8341 12.1366L72.0151 13.7428V9.2657L74.8341 7.65959Z" fill="#0082F4"/>
<path d="M73.8176 11.4324C73.697 11.4341 73.5783 11.4036 73.474 11.3441C73.3454 11.2593 73.2425 11.1417 73.176 11.004C73.1096 10.8662 73.0821 10.7133 73.0965 10.5614C73.1139 10.1879 73.2218 9.82402 73.4113 9.50017C73.6008 9.17632 73.8662 8.90199 74.1854 8.70019C74.3072 8.60218 74.4564 8.54307 74.6132 8.53074C74.7699 8.51841 74.9267 8.55342 75.0628 8.63114C75.1989 8.70885 75.3077 8.82558 75.3749 8.96579C75.442 9.106 75.4643 9.26305 75.4388 9.41605C75.4208 9.7894 75.3126 10.1531 75.1231 10.4769C74.9337 10.8006 74.6686 11.0751 74.3499 11.2773C74.1893 11.3741 74.0057 11.4276 73.8176 11.4324ZM74.7153 8.86722C74.5855 8.87354 74.4596 8.91301 74.3499 8.98176C74.0826 9.15685 73.8601 9.39057 73.6998 9.66463C73.5394 9.93869 73.4455 10.2456 73.4256 10.5614C73.4006 10.6565 73.4079 10.7569 73.4465 10.8475C73.485 10.938 73.5525 11.0136 73.6388 11.0626C73.725 11.1116 73.8252 11.1314 73.9239 11.1189C74.0226 11.1064 74.1145 11.0623 74.1854 10.9933C74.4529 10.8185 74.6756 10.5849 74.836 10.3107C74.9964 10.0366 75.0901 9.72955 75.1097 9.41366C75.1221 9.31905 75.1089 9.22287 75.0715 9.13488C75.0341 9.04689 74.9738 8.97019 74.8967 8.91256C74.8416 8.8814 74.7788 8.86572 74.7153 8.86722Z" fill="white"/>
<path d="M75.3179 17.4585L43.136 35.7725C42.9524 35.8896 42.7997 36.048 42.6903 36.2347C42.581 36.4214 42.5181 36.6311 42.5068 36.8464V46.6143C42.5068 47.0105 42.7875 47.1703 43.136 46.9723L75.3179 28.6512C75.5012 28.5337 75.6537 28.3752 75.763 28.1886C75.8724 28.002 75.9354 27.7925 75.947 27.5772V17.8165C75.9349 17.4203 75.6543 17.2604 75.3179 17.4585Z" fill="#0082F4"/>
<path opacity="0.2" d="M75.3179 17.4585L43.136 35.7725C42.9524 35.8896 42.7997 36.048 42.6903 36.2347C42.581 36.4214 42.5181 36.6311 42.5068 36.8464V46.6143C42.5068 47.0105 42.7875 47.1703 43.136 46.9723L75.3179 28.6512C75.5012 28.5337 75.6537 28.3752 75.763 28.1886C75.8724 28.002 75.9354 27.7925 75.947 27.5772V17.8165C75.9349 17.4203 75.6543 17.2604 75.3179 17.4585Z" fill="white"/>
<path d="M54.8351 30.7394L60.6666 27.4174C60.957 27.2527 61.1917 27.3696 61.1917 27.6799C61.1785 27.8533 61.1241 28.0213 61.0329 28.1701C60.9417 28.319 60.8162 28.4445 60.6666 28.5366L54.8351 31.8586C54.5448 32.0233 54.3101 31.9064 54.3101 31.5961C54.3232 31.4227 54.3776 31.2547 54.4688 31.1059C54.5601 30.957 54.6855 30.8315 54.8351 30.7394Z" fill="white"/>
<path d="M54.3101 33.8347C54.3101 34.145 54.552 34.2619 54.8351 34.0972L72.4626 24.0596C72.612 23.9669 72.7371 23.8408 72.8279 23.6916C72.9186 23.5423 72.9726 23.3741 72.9853 23.2005C72.9853 22.8927 72.7433 22.7757 72.4626 22.9404L54.8351 32.978C54.6855 33.0701 54.5601 33.1956 54.4688 33.3445C54.3776 33.4933 54.3232 33.6613 54.3101 33.8347Z" fill="white"/>
<path d="M54.3101 36.0733C54.3101 36.3835 54.552 36.5005 54.8351 36.3358L72.4626 26.2982C72.612 26.2055 72.7371 26.0794 72.8279 25.9301C72.9186 25.7809 72.9726 25.6127 72.9853 25.4391C72.9853 25.1312 72.7433 25.0143 72.4626 25.1789L54.8351 35.2165C54.6855 35.3086 54.5601 35.4342 54.4688 35.583C54.3776 35.7319 54.3232 35.8998 54.3101 36.0733Z" fill="white"/>
<path d="M54.3101 38.3117C54.3101 38.622 54.552 38.7389 54.8351 38.5742L72.4626 28.5366C72.612 28.4439 72.7371 28.3178 72.8279 28.1686C72.9186 28.0193 72.9726 27.8511 72.9853 27.6775C72.9853 27.3696 72.7433 27.2527 72.4626 27.4174L54.8351 37.455C54.6855 37.5471 54.5601 37.6726 54.4688 37.8215C54.3776 37.9703 54.3232 38.1383 54.3101 38.3117Z" fill="white"/>
<path d="M44.1281 36.3309L51.7163 32.009C52.0648 31.8133 52.3454 31.9732 52.3454 32.367V39.8916C52.3336 40.1068 52.2705 40.3162 52.1612 40.5028C52.0518 40.6894 51.8994 40.8479 51.7163 40.9655L44.1281 45.2851C43.7821 45.4831 43.499 45.3232 43.499 44.9295V37.4049C43.5107 37.1896 43.5737 36.9802 43.683 36.7935C43.7924 36.6069 43.9449 36.4484 44.1281 36.3309Z" fill="white"/>
<path d="M50.2742 35.7654L48.0166 40.3809L46.8672 39.727C46.7562 39.6638 46.6243 39.6466 46.5004 39.6793C46.3766 39.712 46.2709 39.7918 46.2067 39.9012L43.499 44.5238V44.9271C43.499 45.3233 43.7821 45.4832 44.1281 45.2851L51.7163 40.9656C51.8996 40.8481 52.0521 40.6896 52.1614 40.503C52.2708 40.3164 52.3338 40.1069 52.3454 39.8916V37.2498L50.8186 35.6795C50.784 35.6356 50.7381 35.6017 50.6857 35.5813C50.6333 35.561 50.5763 35.5548 50.5206 35.5636C50.465 35.5724 50.4128 35.5958 50.3694 35.6312C50.3261 35.6667 50.2932 35.7131 50.2742 35.7654Z" fill="#0082F4"/>
<path d="M44.6387 39.085C45.1078 38.7831 45.4982 38.3764 45.7782 37.8979C46.0582 37.4194 46.2199 36.8826 46.2502 36.3309C46.2663 36.1478 46.2383 35.9635 46.1685 35.7931C46.0987 35.6226 45.9891 35.4708 45.8486 35.3501L44.1281 36.3309C43.9449 36.4484 43.7924 36.6069 43.683 36.7935C43.5737 36.9801 43.5107 37.1896 43.499 37.4049V39.1947C43.7918 39.3618 44.1935 39.3379 44.6387 39.085Z" fill="#0082F4"/>
<path d="M75.3179 32.0091L43.136 50.323C42.9527 50.4404 42.8002 50.5989 42.6908 50.7856C42.5815 50.9722 42.5185 51.1817 42.5068 51.3969V61.172C42.5068 61.5658 42.7875 61.7257 43.136 61.53L75.3179 43.2041C75.5012 43.0867 75.6537 42.9282 75.763 42.7415C75.8724 42.5549 75.9354 42.3454 75.947 42.1302V32.367C75.9349 31.9733 75.6543 31.8181 75.3179 32.0091Z" fill="#0082F4"/>
<path opacity="0.2" d="M75.3179 32.0091L43.136 50.323C42.9527 50.4404 42.8002 50.5989 42.6908 50.7856C42.5815 50.9722 42.5185 51.1817 42.5068 51.3969V61.172C42.5068 61.5658 42.7875 61.7257 43.136 61.53L75.3179 43.2041C75.5012 43.0867 75.6537 42.9282 75.763 42.7415C75.8724 42.5549 75.9354 42.3454 75.947 42.1302V32.367C75.9349 31.9733 75.6543 31.8181 75.3179 32.0091Z" fill="white"/>
<path d="M54.8351 45.2898L60.6666 41.9702C60.957 41.8055 61.1917 41.9224 61.1917 42.2303C61.1789 42.4042 61.1247 42.5726 61.0334 42.7219C60.9422 42.8712 60.8165 42.9971 60.6666 43.0894L54.8351 46.409C54.5448 46.5737 54.3101 46.4568 54.3101 46.1489C54.3228 45.9751 54.3771 45.8066 54.4683 45.6573C54.5595 45.508 54.6852 45.3821 54.8351 45.2898Z" fill="white"/>
<path d="M54.3101 48.3875C54.3101 48.6953 54.552 48.8122 54.8351 48.6476L72.4626 38.61C72.6116 38.5175 72.7366 38.3918 72.8273 38.243C72.9181 38.0942 72.9722 37.9264 72.9853 37.7532C72.9853 37.443 72.7433 37.3261 72.4626 37.4907L54.8351 47.5283C54.6852 47.6206 54.5595 47.7466 54.4683 47.8959C54.3771 48.0452 54.3228 48.2136 54.3101 48.3875Z" fill="white"/>
<path d="M54.3101 50.626C54.3101 50.9338 54.552 51.0508 54.8351 50.8861L72.4626 40.8485C72.6116 40.756 72.7366 40.6303 72.8273 40.4815C72.9181 40.3327 72.9722 40.165 72.9853 39.9918C72.9853 39.6815 72.7433 39.5646 72.4626 39.7293L54.8351 49.7668C54.6852 49.8592 54.5595 49.9851 54.4683 50.1344C54.3771 50.2837 54.3228 50.4521 54.3101 50.626Z" fill="white"/>
<path d="M54.3101 52.8645C54.3101 53.1723 54.552 53.2893 54.8351 53.1246L72.4626 43.087C72.6116 42.9945 72.7366 42.8688 72.8273 42.72C72.9181 42.5712 72.9722 42.4034 72.9853 42.2303C72.9853 41.92 72.7433 41.8031 72.4626 41.9677L54.8351 52.0053C54.6852 52.0977 54.5595 52.2236 54.4683 52.3729C54.3771 52.5222 54.3228 52.6906 54.3101 52.8645Z" fill="white"/>
<path d="M44.1281 50.8839L51.7163 46.562C52.0648 46.3639 52.3454 46.5238 52.3454 46.9199V54.4422C52.3342 54.6575 52.2713 54.8671 52.1619 55.0538C52.0526 55.2405 51.8998 55.3989 51.7163 55.5161L44.1281 59.838C43.7821 60.0361 43.499 59.8762 43.499 59.4801V51.9578C43.5107 51.7426 43.5737 51.5331 43.683 51.3465C43.7924 51.1598 43.9449 51.0013 44.1281 50.8839Z" fill="white"/>
<path d="M50.2742 50.3182L48.0166 54.9336L46.8672 54.2773C46.8121 54.2462 46.7513 54.226 46.6883 54.218C46.6252 54.21 46.5612 54.2143 46.4999 54.2307C46.4385 54.2471 46.3811 54.2753 46.3308 54.3136C46.2804 54.3519 46.2383 54.3996 46.2067 54.454L43.499 59.0766V59.4799C43.499 59.8761 43.7821 60.036 44.1281 59.8379L51.7163 55.5159C51.8995 55.399 52.052 55.241 52.1614 55.0547C52.2707 54.8685 52.3338 54.6593 52.3454 54.4444V51.8002L50.8186 50.2322C50.7845 50.1876 50.7386 50.1531 50.6861 50.1322C50.6335 50.1113 50.5762 50.105 50.5202 50.1138C50.4642 50.1226 50.4118 50.1463 50.3684 50.1823C50.3251 50.2183 50.2925 50.2653 50.2742 50.3182Z" fill="#0082F4"/>
<path d="M44.6387 53.6354C45.1078 53.334 45.4982 52.9278 45.7782 52.4497C46.0582 51.9716 46.2199 51.4351 46.2502 50.8837C46.2663 50.7006 46.2383 50.5163 46.1685 50.3459C46.0987 50.1754 45.9891 50.0236 45.8486 49.9029L44.1281 50.8837C43.9449 51.0012 43.7924 51.1597 43.683 51.3463C43.5737 51.5329 43.5107 51.7424 43.499 51.9577V53.7475C43.7918 53.9122 44.1935 53.8883 44.6387 53.6354Z" fill="#0082F4"/>
<path d="M74.9523 1.98677V0.466576C74.9523 0.0704181 74.6692 -0.0894769 74.3232 0.108602L32.3342 24.0189C32.1509 24.1363 31.9984 24.2948 31.8891 24.4814C31.7798 24.6681 31.7167 24.8776 31.7051 25.0928V26.6154L74.9523 1.98677Z" fill="#0082F4"/>
<path d="M69.801 3.26597C69.6657 3.35362 69.5531 3.47142 69.4724 3.60986C69.3917 3.7483 69.3451 3.90351 69.3364 4.06297C69.3364 4.35647 69.5445 4.47578 69.801 4.32784C69.9372 4.24139 70.0505 4.12426 70.1317 3.98609C70.2129 3.84793 70.2596 3.6927 70.268 3.53323C70.268 3.23972 70.0599 3.12041 69.801 3.26597Z" fill="#F5F5F5"/>
<path d="M71.6521 2.22549C71.5163 2.31288 71.4032 2.43056 71.3221 2.56902C71.241 2.70747 71.194 2.86282 71.1851 3.02248C71.1851 3.31599 71.3956 3.43291 71.6521 3.28735C71.7883 3.20039 71.9016 3.08281 71.9828 2.94426C72.064 2.80572 72.1107 2.65016 72.1191 2.49036C72.1191 2.18492 71.911 2.068 71.6521 2.22549Z" fill="#F5F5F5"/>
<path d="M73.5031 1.16124C73.367 1.24769 73.2536 1.36482 73.1724 1.50298C73.0912 1.64115 73.0445 1.79638 73.0361 1.95585C73.0361 2.24936 73.2442 2.36867 73.5031 2.22311C73.6385 2.13545 73.7511 2.01766 73.8317 1.87922C73.9124 1.74078 73.959 1.58557 73.9677 1.42611C73.9677 1.13261 73.7596 1.0133 73.5031 1.16124Z" fill="#F5F5F5"/>
<path d="M75.6227 76.0202C75.6959 76.2036 75.7462 76.3951 75.7727 76.5905C75.8409 76.7926 75.8567 77.0083 75.8187 77.218C75.6556 77.4858 75.3966 77.6834 75.0928 77.7716C74.8766 77.8207 74.6524 77.8249 74.4345 77.7838C74.2166 77.7427 74.0098 77.6573 73.8273 77.533C73.3845 77.2729 73.053 76.9556 72.4238 76.7814C71.9751 76.686 71.5526 76.4964 71.185 76.2254C70.8365 75.951 70.3719 75.1874 71.0373 75.0108C71.7028 74.8342 73.1522 75.457 74.4709 75.5143L75.6227 76.0202Z" fill="#263238"/>
<path d="M75.56 75.1609C75.56 75.1609 75.6375 76.0725 75.6375 76.1846C75.6375 76.4925 74.4857 76.9005 74.2728 76.1846L74.0889 75.2158L75.56 75.1609Z" fill="#F28F8F"/>
<path d="M74.147 55.1601C74.543 55.7344 74.9057 56.3304 75.2334 56.9452C75.2334 56.9452 75.3471 58.2721 75.3471 59.1551C75.3471 60.7779 75.0931 62.0308 74.8632 65.2287C75.2375 65.8578 75.4517 66.5669 75.4875 67.2954C75.5843 68.744 75.5867 68.7273 75.5964 75.4095C75.3759 75.5268 75.1339 75.5994 74.8846 75.6232C74.6353 75.647 74.3837 75.6214 74.1445 75.5479L71.9668 66.1905L71.7248 62.5177L71.0425 57.9523L74.147 55.1601Z" fill="#37474F"/>
<path d="M68.9927 77.6932C69.0702 77.7719 69.0436 77.9318 69.0799 78.1943C69.1201 78.3962 69.1307 78.6027 69.1113 78.8075C68.9843 79.0913 68.7549 79.3184 68.4677 79.4447C68.2588 79.5189 68.0367 79.5498 67.8152 79.5355C67.5937 79.5211 67.3776 79.4618 67.1804 79.3611C66.711 79.1559 66.3408 78.8839 65.6947 78.7861C65.2375 78.7473 64.7942 78.6113 64.3953 78.3876C64.0154 78.1489 63.4565 77.4569 64.0953 77.1945C64.7341 76.932 66.3359 77.4021 67.6498 77.2971L68.9927 77.6932Z" fill="#263238"/>
<path d="M69.2953 76.5479C69.2953 76.5479 69.0533 77.5883 68.988 77.8197C68.8428 78.3757 67.5918 78.4044 67.5918 77.7625L67.6765 76.283L69.2953 76.5479Z" fill="#F28F8F"/>
<path d="M71.3229 55.4439C71.9496 56.6586 72.5545 57.7302 72.5739 59.0236C72.6198 61.761 71.4681 64.7751 71.0446 66.7535C71.1708 67.4695 71.2065 68.1981 71.1511 68.9228C71.0664 69.7509 69.1524 77.2755 69.1524 77.2755C69.1524 77.2755 68.0877 77.4951 67.6353 77.0202L68.1724 62.5318L68.3176 58.3244L71.3229 55.4439Z" fill="#37474F"/>
<path d="M70.4614 48.0242L70.8558 50.179L72.8303 50.0358L72.4165 47.5947L70.4614 48.0242Z" fill="#FFA8A7"/>
<path d="M74.9141 49.8789C74.7181 49.2942 73.9655 48.6571 73.2203 48.7955C72.1009 48.9831 70.9975 49.2544 69.9198 49.6069C69.2302 49.8455 68.6011 50.4398 68.543 52.6783L68.3276 58.3104C68.6258 58.5719 68.9836 58.7585 69.3705 58.8545C70.4183 59.1385 71.1103 59.308 72.7025 58.9643C74.7761 58.518 75.2697 57.2794 75.2697 57.2794C75.2697 57.2794 75.1899 54.2987 75.127 52.6783C75.0762 51.3013 75.0471 50.2822 74.9141 49.8789Z" fill="#455A64"/>
<path d="M69.6196 45.2729L59.5658 42.5833C58.656 42.4282 58.2761 44.619 59.1859 44.7717L69.5107 45.8003L69.6196 45.2729Z" fill="#263238"/>
<path d="M66.7279 49.8167L64.6736 49.8787C64.6736 49.8787 64.9833 46.8646 65.1744 46.4685C65.3656 46.0723 65.8229 45.9911 66.2778 45.8647C66.7327 45.7382 66.7303 45.5234 66.7303 45.5234L66.3214 45.4828C65.9633 45.447 65.8205 45.0055 65.9754 44.7072C66.0504 44.5688 66.1714 44.3492 66.3891 44.4089L66.9311 44.5545C66.9395 44.3186 66.88 44.0853 66.7593 43.8815C66.5779 43.6834 66.4569 43.7455 66.0939 43.6214C65.8253 43.5283 65.2761 43.3636 64.8333 43.5426C64.3905 43.7216 64.0541 44.5426 63.9404 45.1225C63.8253 45.7931 63.6388 46.4498 63.3839 47.0818C62.9895 48.1557 62.416 50.3608 62.3555 51.2438C62.3289 51.6519 62.3676 51.8953 62.8273 52.0027C63.2871 52.1101 66.6698 52.1173 66.6698 52.1173L66.7279 49.8167Z" fill="#FFA8A7"/>
<path d="M69.0003 45.4735C69.0003 45.4735 68.5164 46.1703 68.5841 46.2466C68.6934 46.3185 68.8146 46.371 68.9423 46.4017L69.0003 45.4735Z" fill="#FFA8A7"/>
<path d="M70.4593 43.273C69.9996 43.5117 69.2059 43.9245 68.9857 45.5855C68.7607 47.2895 69.0583 47.8384 69.2906 48.0651C69.4503 48.2178 70.3069 48.2274 70.7424 48.0985C71.2796 47.941 72.4919 47.4852 73.046 46.6093C73.6969 45.5784 73.8421 44.199 73.1089 43.6501C72.7358 43.371 72.297 43.1899 71.8335 43.124C71.37 43.058 70.8972 43.1093 70.4593 43.273Z" fill="#FFA8A7"/>
<path d="M71.812 63.8371L72.8597 60.916C73.6719 60.6321 74.3995 60.1531 74.977 59.5223C74.977 59.5223 74.735 60.3552 73.0799 61.2096L71.9306 63.9731V65.51L71.812 63.8371Z" fill="#263238"/>
<path d="M68.8912 43.8336C69.0412 44.2417 69.2953 45.244 70.3551 45.6617C70.3551 45.6617 70.5075 45.0245 71.0496 45.0913C71.5916 45.1581 71.6859 45.843 71.352 46.2678C71.0181 46.6926 70.6939 46.5399 70.6939 46.5399C70.6939 46.5399 70.6213 47.4539 71.2407 47.8692C71.4713 48.0033 71.7303 48.0828 71.9974 48.1014C72.2644 48.12 72.5322 48.0773 72.7796 47.9765C73.1353 47.8166 73.6411 46.9742 73.9363 46.2821C74.5605 44.8216 74.6501 43.657 73.6943 43.2799C73.5757 42.6165 73.2733 42.3659 72.6635 42.2418C71.352 41.9769 70.3599 42.8265 69.259 42.6761C68.6952 42.5974 68.717 43.3658 68.8912 43.8336Z" fill="#263238"/>
<path d="M73.7257 43.5111L74.3452 43.1317C74.2912 43.0573 74.2105 43.0059 74.1195 42.988C74.0285 42.9701 73.934 42.987 73.8552 43.0353C73.7764 43.0835 73.7192 43.1596 73.6951 43.2479C73.6711 43.3363 73.682 43.4304 73.7257 43.5111Z" fill="#263238"/>
<path d="M66.2681 49.7761C66.2681 49.7761 69.1596 49.6114 69.8976 49.6066C70.6356 49.6019 71.4196 50.8451 70.9599 51.6922C70.655 52.2482 69.7041 52.4391 68.5063 52.4963C67.3086 52.5536 66.1011 52.5536 66.1011 52.5536C66.1011 52.5536 65.0244 51.3438 66.2681 49.7761Z" fill="#455A64"/>
<path d="M68.5429 52.4967C68.5429 52.4967 70.3746 52.4729 70.9746 51.6926C70.9746 51.6926 70.8343 52.1698 70.1229 52.4633C69.6131 52.6565 69.076 52.7708 68.5308 52.8022L68.5429 52.4967Z" fill="#37474F"/>
<path d="M59.5658 42.5833C58.656 42.4282 58.2761 44.6187 59.1859 44.7715L60.6377 44.9146C60.0473 44.855 60.4562 42.8195 60.9063 42.9388L59.5658 42.5833Z" fill="#455A64"/>
<path d="M96.1804 41.9984C96.1806 42.4426 96.045 42.8766 95.7913 43.2437C95.5377 43.6109 95.1777 43.894 94.7584 44.0564C94.3391 44.2187 93.88 44.2526 93.4409 44.1537C93.0017 44.0548 92.603 43.8276 92.2968 43.5019L92.1492 43.3253C91.8048 42.8723 91.6498 42.3062 91.7162 41.7438C91.7827 41.1814 92.0654 40.6656 92.5062 40.3028C92.947 39.9401 93.5121 39.758 94.085 39.7942C94.6579 39.8303 95.1949 40.082 95.5851 40.4973L95.7376 40.6787C96.025 41.0603 96.1802 41.523 96.1804 41.9984Z" fill="#455A64"/>
<path d="M96.1804 41.9988C96.1806 42.443 96.045 42.877 95.7914 43.2441C95.5377 43.6113 95.1778 43.8944 94.7585 44.0568C94.3392 44.2191 93.88 44.253 93.4409 44.1541C93.0018 44.0552 92.6031 43.828 92.2968 43.5023L92.1492 43.3257L82.8188 32.2118L86.7509 29.9733L95.5852 40.4929L95.7376 40.6743C96.026 41.0572 96.1813 41.5218 96.1804 41.9988Z" fill="#455A64"/>
<path d="M88.4618 38.9321C88.8537 39.3375 89.3869 39.581 89.9538 39.6134C90.5207 39.6458 91.0789 39.4647 91.5156 39.1067C91.9524 38.7488 92.235 38.2406 92.3064 37.685C92.3777 37.1294 92.2326 36.5678 91.9002 36.1137L90.746 34.7415C91.091 35.1947 91.2462 35.7613 91.1797 36.3242C91.1131 36.8871 90.8299 37.4032 90.3884 37.766C89.947 38.1288 89.3811 38.3104 88.8077 38.2734C88.2344 38.2364 87.6973 37.9835 87.3076 37.5671L88.4618 38.9321Z" fill="#0082F4"/>
<path d="M86.601 12.5016C87.3054 12.5789 87.9864 12.7973 88.6021 13.1435L85.7638 11.5159C83.8595 10.2248 81.118 10.3012 78.0716 12.0338C72.32 15.3105 67.6548 23.279 67.6548 29.8323C67.6548 33.0516 68.7654 35.3522 70.5971 36.4452L70.6359 36.4691L73.6653 38.1898C73.1281 37.845 72.6598 37.4057 72.2837 36.8939C73.0301 36.9745 73.7849 36.9317 74.517 36.7674C74.7832 36.7101 75.0518 36.6409 75.3252 36.555C75.2895 36.5444 75.2546 36.5308 75.2212 36.5144C75.0756 36.4472 74.9363 36.3673 74.805 36.2758C74.5668 36.1121 74.3548 35.9142 74.1759 35.6887C73.9313 35.38 73.7325 35.0384 73.5855 34.6745C73.3883 34.7026 73.1894 34.7169 72.9902 34.7174C72.5193 34.7267 72.0519 34.6347 71.6207 34.4477C71.5198 34.4022 71.4221 34.3504 71.3279 34.2926C71.2432 34.2401 71.1585 34.1781 71.0859 34.116C70.9109 33.3082 70.8257 32.484 70.8318 31.6579C70.8318 25.107 75.497 17.1361 81.2535 13.8595C81.9884 13.4366 82.7672 13.0926 83.5764 12.8333C83.7945 12.9211 83.9995 13.0375 84.1862 13.1793C84.3838 13.3288 84.5618 13.502 84.7161 13.6948C84.9614 14.0043 85.161 14.3466 85.3089 14.7115C85.5069 14.6841 85.7066 14.6705 85.9066 14.6709C86.4537 14.6564 86.9948 14.7857 87.4745 15.0456C87.5959 15.1108 87.7117 15.1858 87.8205 15.2699C87.777 15.079 87.731 14.8904 87.6754 14.7115C87.4568 13.9164 87.0927 13.1675 86.601 12.5016Z" fill="#263238"/>
<path d="M88.602 13.1436L88.4375 13.0553C87.8655 12.7598 87.2427 12.5721 86.601 12.5016C85.9123 12.4259 85.2158 12.4573 84.537 12.5947C84.2099 12.6558 83.8868 12.7355 83.5691 12.8334C82.7599 13.0927 81.9811 13.4367 81.2462 13.8595C75.4897 17.1362 70.8245 25.1071 70.8245 31.658C70.8184 32.484 70.9036 33.3083 71.0786 34.1161C71.1101 34.2617 71.1464 34.4001 71.1826 34.5385C71.3982 35.3832 71.7725 36.1805 72.286 36.8892C72.5153 37.2011 72.7791 37.4868 73.0724 37.7412C73.2595 37.9034 73.4584 38.0518 73.6677 38.1851C75.5671 39.395 78.2651 39.29 81.2413 37.5908C86.9978 34.3142 91.663 26.3457 91.663 19.7924C91.6605 16.5157 90.4918 14.2128 88.602 13.1436ZM87.4648 15.0528C87.5862 15.118 87.7019 15.1931 87.8108 15.2771C87.9933 15.4233 88.1595 15.5881 88.3068 15.7687C89.0327 16.6661 89.4175 18.0622 89.4175 19.7995C89.4175 25.5271 85.1588 32.8107 80.1186 35.6816C78.8482 36.3976 77.6263 36.789 76.5882 36.789C76.1552 36.794 75.7256 36.7128 75.3252 36.5503C75.2894 36.5397 75.2546 36.5261 75.2211 36.5097C75.0755 36.4425 74.9362 36.3626 74.8049 36.2711C74.6416 36.1581 74.4908 36.0285 74.3549 35.8845C74.2944 35.8224 74.2363 35.7532 74.1782 35.684C73.9337 35.3753 73.7349 35.0337 73.5878 34.6698C73.2192 33.7067 73.0434 32.6823 73.07 31.6532C73.07 31.5769 73.07 31.5029 73.07 31.4146C73.1765 25.7109 77.3892 18.592 82.3641 15.7616C82.4778 15.6971 82.5939 15.6327 82.7101 15.573C83.5123 15.1311 84.3884 14.8344 85.2967 14.6972C85.4947 14.6699 85.6945 14.6563 85.8944 14.6566C86.3249 14.653 86.7519 14.7341 87.1502 14.8953C87.2594 14.9381 87.3646 14.9899 87.4648 15.0504V15.0528Z" fill="#455A64"/>
<path opacity="0.6" d="M88.4448 19.1362C88.4448 24.8638 84.1861 32.1473 79.1459 35.0183C77.8755 35.7342 76.656 36.1256 75.6155 36.1256C75.1833 36.1306 74.7545 36.0495 74.3549 35.887C74.2944 35.8249 74.2363 35.7557 74.1782 35.6865C73.9337 35.3777 73.7349 35.0362 73.5878 34.6722C73.2192 33.7092 73.0434 32.6848 73.07 31.6557C73.07 31.5793 73.07 31.5054 73.07 31.4171C73.1765 25.7134 77.3892 18.5944 82.3641 15.7641C82.4778 15.6996 82.5939 15.6352 82.7101 15.5755C83.5123 15.1335 84.3884 14.8369 85.2967 14.6997C85.4947 14.6723 85.6945 14.6588 85.8944 14.6591C86.3249 14.6555 86.7519 14.7366 87.1502 14.8978C87.2156 14.9622 87.2761 15.0314 87.3341 15.1006C88.06 16.0027 88.4448 17.3988 88.4448 19.1362Z" fill="white"/>
</svg>
