<svg width="68" height="70" viewBox="0 0 68 70" fill="none" xmlns="http://www.w3.org/2000/svg">
<path d="M48.4071 35.2527C53.5996 31.2908 57.8084 26.1848 60.7062 20.3314C63.6039 14.4781 65.1126 8.03526 65.1148 1.50391C65.1148 1.28635 65.0284 1.0777 64.8745 0.923859C64.7207 0.77002 64.512 0.683595 64.2945 0.683595C54.8521 0.681624 45.68 3.83565 38.2359 9.64441C35.3621 11.8826 32.7848 14.4773 30.5659 17.366C29.7856 17.8448 28.8671 18.0476 27.9577 17.9418C27.0483 17.836 26.2009 17.4279 25.5512 16.7828C24.481 15.7125 23.0296 15.1109 21.516 15.1102C20.0024 15.1094 18.5505 15.7095 17.4791 16.7787L9.35403 24.7848C9.27669 24.8611 9.21528 24.952 9.17336 25.0522C9.13145 25.1525 9.10986 25.2601 9.10986 25.3687C9.10986 25.4774 9.13145 25.5849 9.17336 25.6852C9.21528 25.7854 9.27669 25.8763 9.35403 25.9526L14.055 30.5956C15.2415 31.761 16.7588 32.5319 18.3997 32.8031C20.0406 33.0742 21.7252 32.8324 23.2236 32.1106C23.2209 32.1207 23.2179 32.1305 23.2151 32.1405C23.1775 32.2798 23.1773 32.4265 23.2145 32.5659C23.2517 32.7053 23.325 32.8324 23.427 32.9345L25.793 35.3008L20.0046 36.5276C19.8601 36.5582 19.7265 36.6272 19.618 36.7274C19.5095 36.8276 19.4301 36.9552 19.3881 37.0968C19.3461 37.2383 19.3431 37.3886 19.3794 37.5318C19.4157 37.6749 19.49 37.8056 19.5944 37.9101L22.5065 40.8222C21.8493 40.4289 21.1341 40.1419 20.3874 39.9716C20.1498 39.9179 19.9116 39.8759 19.6815 39.8472C19.3936 39.8106 19.1037 39.7912 18.8135 39.7891C17.8534 39.7809 16.9013 39.9648 16.0133 40.3299C15.1253 40.695 14.3193 41.234 13.6426 41.9151C12.9439 42.6023 12.3892 43.422 12.0109 44.3261C11.6327 45.2303 11.4385 46.2008 11.4398 47.1808C11.4397 47.3948 11.5233 47.6004 11.6727 47.7536C11.8221 47.9069 12.0254 47.9957 12.2393 48.0011L12.858 48.0169C11.6607 49.6742 11.1579 51.7335 11.4565 53.7562C11.4936 53.9422 11.5943 54.1095 11.7412 54.2295C11.8881 54.3495 12.0721 54.4148 12.2618 54.4141H14.5029C14.7204 54.4141 14.9291 54.3276 15.0829 54.1738C15.2367 54.02 15.3232 53.8113 15.3232 53.5938C15.3232 53.3762 15.2367 53.1675 15.0829 53.0137C14.9291 52.8599 14.7204 52.7734 14.5029 52.7734H13.0085C12.9853 51.6797 13.2254 49.6073 15.2117 47.8544C15.3353 47.7455 15.4231 47.6019 15.4638 47.4423C15.5044 47.2827 15.496 47.1146 15.4397 46.9598C15.3834 46.8051 15.2817 46.6709 15.1479 46.5748C15.0141 46.4787 14.8545 46.4252 14.6899 46.4212L13.1368 46.3821C13.3123 45.1285 13.8965 43.9679 14.7989 43.0801C15.3178 42.5579 15.9347 42.1433 16.6143 41.8601C17.2938 41.5768 18.0226 41.4306 18.7588 41.4297H18.8016C18.9321 41.4306 19.0631 41.4375 19.194 41.4475C18.693 41.7428 18.2668 42.1496 17.9486 42.6363C17.6303 43.123 17.4285 43.6765 17.3589 44.2538L16.8885 48.0546C16.8742 48.1699 16.8846 48.287 16.919 48.398C16.9533 48.509 17.0109 48.6115 17.0879 48.6986C17.1649 48.7857 17.2595 48.8554 17.3654 48.9032C17.4714 48.9509 17.5863 48.9757 17.7025 48.9757C17.7362 48.9756 17.7698 48.9736 17.8033 48.9695L21.604 48.4989C22.1817 48.4278 22.7354 48.2247 23.2221 47.9055C23.7088 47.5863 24.1157 47.1594 24.4111 46.6579C24.4229 46.8057 24.431 46.9547 24.4312 47.1048C24.4332 47.8503 24.2873 48.5889 24.002 49.2776C23.7167 49.9664 23.2977 50.5918 22.7691 51.1176C22.6913 51.1934 22.6292 51.2839 22.5866 51.3839C22.544 51.4838 22.5217 51.5913 22.5209 51.6999C22.5202 51.8086 22.5411 51.9163 22.5823 52.0168C22.6235 52.1174 22.6843 52.2087 22.7612 52.2855C22.838 52.3624 22.9293 52.4232 23.0298 52.4644C23.1304 52.5057 23.2381 52.5266 23.3468 52.5258C23.4554 52.5251 23.5628 52.5028 23.6628 52.4602C23.7628 52.4176 23.8533 52.3556 23.9291 52.2777C24.7172 51.4902 25.3149 50.533 25.6763 49.4791C26.0378 48.4253 26.1535 47.3027 26.0146 46.1973C25.9872 45.9685 25.9473 45.736 25.8962 45.5057C25.7269 44.7473 25.4374 44.0209 25.0385 43.3539L27.8887 46.2038C27.9915 46.3066 28.1197 46.3802 28.2602 46.4171C28.4007 46.454 28.5485 46.453 28.6885 46.414C28.8285 46.3751 28.9557 46.2997 29.0569 46.1955C29.1582 46.0913 29.23 45.9621 29.2649 45.821L30.6625 40.1703L32.7901 42.298C32.8916 42.3995 33.018 42.4726 33.1566 42.5099C33.2953 42.5473 33.4412 42.5477 33.58 42.5111C33.6291 42.4974 33.6777 42.4837 33.7267 42.47C32.9767 43.975 32.715 45.6765 32.9781 47.3373C33.2412 48.9981 34.016 50.5354 35.1944 51.7349L39.837 56.4648C39.9881 56.629 40.1978 56.7272 40.4206 56.7383C40.6436 56.7273 40.8533 56.6291 41.0044 56.4648L49.0066 48.3301C50.076 47.2568 50.6765 45.8034 50.6765 44.2883C50.6765 42.7731 50.076 41.3197 49.0066 40.2464C48.3655 39.5993 47.9584 38.7569 47.8498 37.8524C47.7413 36.948 47.9373 36.0332 48.4071 35.2527ZM63.4658 2.33256C63.4159 4.82745 63.137 7.31249 62.6326 9.75639C59.859 8.21925 57.5691 5.93898 56.0202 3.17188C58.471 2.66352 60.9634 2.38255 63.4658 2.33256ZM15.2074 29.4283L11.0979 25.3697L18.6342 17.943C19.3975 17.1798 20.4327 16.751 21.5122 16.751C22.5916 16.751 23.6268 17.1798 24.3901 17.943C24.9859 18.5354 25.7048 18.9896 26.4957 19.2732C27.2867 19.5569 28.1303 19.6631 28.9669 19.5844C26.8618 22.7076 25.181 26.0965 23.9684 29.6624C22.7492 30.7385 21.1675 31.3127 19.5419 31.2692C17.9162 31.2258 16.3674 30.568 15.2074 29.4283ZM23.2191 45.3119C23.1035 45.7218 22.8693 46.0885 22.546 46.3658C22.2226 46.6431 21.8246 46.8186 21.4018 46.8705L18.6458 47.2123L18.9876 44.457C19.043 44.0259 19.2259 43.6211 19.5128 43.2947C19.7998 42.9683 20.1777 42.7351 20.5982 42.6249C20.967 42.5308 21.354 42.5355 21.7204 42.6385C22.0868 42.7414 22.4196 42.9391 22.6854 43.2115C22.9511 43.484 23.1404 43.8216 23.2342 44.1905C23.328 44.5593 23.3231 44.9464 23.2198 45.3127L23.2191 45.3119ZM28.0211 44.0162L21.8237 37.819L27.1767 36.6842L29.3073 38.8145L28.0211 44.0162ZM33.6141 40.8018L24.9247 32.1124C25.0705 31.5965 25.2269 31.0839 25.394 30.5746C25.3989 30.5696 25.404 30.5653 25.4089 30.5609L25.4011 30.5531C27.3765 24.5722 30.6965 19.1238 35.1062 14.6264C39.516 10.1289 44.898 6.70221 50.8387 4.60947C51.9986 4.20269 53.1723 3.8505 54.3599 3.55291C56.1305 6.91512 58.8839 9.65772 62.253 11.4151C58.744 25.4175 47.9547 36.83 33.6141 40.8018ZM47.8425 47.1592L40.42 54.6916L36.3613 50.5822C35.2048 49.4052 34.5452 47.8286 34.5189 46.1787C34.4927 44.5288 35.1018 42.932 36.2202 41.7188C39.7501 40.535 43.1075 38.8889 46.2051 36.8234C46.1266 37.6598 46.233 38.5033 46.5167 39.294C46.8004 40.0847 47.2544 40.8035 47.8467 41.3993C48.6093 42.164 49.0372 43.2002 49.0364 44.2802C49.0356 45.3602 48.6062 46.3955 47.8425 47.1592Z" fill="white"/>
<path d="M20.0832 52.6201C19.6482 52.7231 19.2026 52.7746 18.7556 52.7735H17.4634C17.2458 52.7735 17.0372 52.8599 16.8833 53.0138C16.7295 53.1676 16.6431 53.3762 16.6431 53.5938C16.6431 53.8114 16.7295 54.02 16.8833 54.1739C17.0372 54.3277 17.2458 54.4141 17.4634 54.4141H18.7556C19.3311 54.4152 19.9047 54.3486 20.4646 54.2156C20.6762 54.1649 20.859 54.0323 20.9728 53.8468C21.0865 53.6614 21.122 53.4384 21.0713 53.2268C21.0206 53.0152 20.888 52.8324 20.7026 52.7187C20.5171 52.6049 20.2941 52.5694 20.0825 52.6201H20.0832Z" fill="white"/>
<path d="M53.0942 35.6719C53.2852 35.6721 53.4702 35.6054 53.617 35.4834C54.2016 34.9994 54.7813 34.4924 55.3397 33.9767C55.4201 33.904 55.4853 33.8161 55.5315 33.718C55.5777 33.6199 55.6041 33.5137 55.609 33.4054C55.6139 33.2971 55.5972 33.1889 55.5601 33.087C55.5229 32.9852 55.4659 32.8917 55.3924 32.812C55.3189 32.7323 55.2303 32.668 55.1317 32.6228C55.0332 32.5775 54.9267 32.5523 54.8183 32.5485C54.71 32.5447 54.602 32.5624 54.5005 32.6006C54.399 32.6388 54.3061 32.6967 54.2272 32.771C53.6898 33.2669 53.1321 33.7543 52.57 34.2202C52.44 34.3279 52.3464 34.4731 52.3019 34.636C52.2574 34.7988 52.2643 34.9715 52.3216 35.1303C52.3789 35.2891 52.4837 35.4264 52.6219 35.5234C52.7601 35.6204 52.9248 35.6724 53.0937 35.6723L53.0942 35.6719Z" fill="white"/>
<path d="M66.6423 14.0656C66.5392 14.0344 66.4309 14.0239 66.3237 14.0345C66.2165 14.0452 66.1125 14.0769 66.0175 14.1277C65.9225 14.1786 65.8385 14.2477 65.7703 14.331C65.702 14.4144 65.6508 14.5103 65.6196 14.6135C64.929 16.896 64.0386 19.1133 62.9588 21.2397C62.5656 22.0139 62.1414 22.7864 61.6981 23.5355C61.1533 24.4557 60.5647 25.3664 59.9481 26.2425C58.9701 27.6311 57.9068 28.9578 56.7645 30.2148C56.6182 30.3759 56.5418 30.5884 56.5522 30.8057C56.5626 31.0231 56.6589 31.2273 56.8199 31.3737C56.9809 31.52 57.1935 31.5964 57.4108 31.586C57.6281 31.5756 57.8324 31.4793 57.9787 31.3183C59.1665 30.0107 60.2721 28.6308 61.2892 27.1864C61.9304 26.2756 62.5428 25.3284 63.1095 24.3709C63.5706 23.5916 64.0118 22.7881 64.4212 21.9826C65.5446 19.7702 66.471 17.4631 67.1896 15.0882C67.2525 14.88 67.2303 14.6553 67.1276 14.4636C67.025 14.2718 66.8504 14.1287 66.6423 14.0656Z" fill="white"/>
<path d="M1.86965 34.2494C1.97738 34.2496 2.08407 34.2284 2.18359 34.1872C2.28312 34.146 2.37352 34.0855 2.44961 34.0092L3.07783 33.381C3.22823 33.2265 3.31174 33.019 3.31029 32.8033C3.30884 32.5877 3.22255 32.3813 3.07008 32.2288C2.91762 32.0763 2.71124 31.99 2.49561 31.9885C2.27999 31.9871 2.07245 32.0706 1.91791 32.2209L1.289 32.8492C1.17432 32.9639 1.09622 33.11 1.06458 33.2691C1.03294 33.4282 1.04919 33.5932 1.11126 33.743C1.17333 33.8929 1.27845 34.021 1.41332 34.1111C1.54818 34.2013 1.70675 34.2494 1.86897 34.2494H1.86965Z" fill="white"/>
<path d="M4.86007 31.599L7.66705 28.7922C7.74323 28.716 7.80366 28.6256 7.84489 28.526C7.88612 28.4265 7.90735 28.3198 7.90735 28.2121C7.90736 28.1044 7.88615 27.9977 7.84493 27.8982C7.80371 27.7986 7.74329 27.7082 7.66712 27.632C7.59095 27.5558 7.50052 27.4954 7.40099 27.4542C7.30147 27.413 7.19479 27.3917 7.08707 27.3917C6.97934 27.3917 6.87266 27.4129 6.77313 27.4541C6.6736 27.4954 6.58317 27.5558 6.50699 27.632L3.70015 30.4388C3.62295 30.5147 3.56155 30.6052 3.51949 30.705C3.47743 30.8048 3.45554 30.9119 3.45509 31.0202C3.45463 31.1285 3.47562 31.2358 3.51685 31.3359C3.55807 31.436 3.61871 31.527 3.69527 31.6036C3.77183 31.6802 3.8628 31.7408 3.96292 31.7821C4.06305 31.8233 4.17035 31.8444 4.27863 31.8439C4.38692 31.8435 4.49405 31.8216 4.59384 31.7796C4.69364 31.7376 4.78412 31.6762 4.86007 31.599Z" fill="white"/>
<path d="M2.52554 37.0754C2.67937 37.2292 2.88802 37.3157 3.10557 37.3157C3.32312 37.3157 3.53176 37.2292 3.6856 37.0754L6.98503 33.7759C7.0612 33.6997 7.12162 33.6092 7.16284 33.5097C7.20406 33.4102 7.22527 33.3035 7.22527 33.1958C7.22526 33.088 7.20404 32.9814 7.1628 32.8818C7.12157 32.7823 7.06114 32.6919 6.98496 32.6157C6.90878 32.5396 6.81835 32.4791 6.71882 32.4379C6.61929 32.3967 6.51261 32.3755 6.40488 32.3755C6.29716 32.3755 6.19049 32.3967 6.09096 32.438C5.99144 32.4792 5.90101 32.5396 5.82484 32.6158L2.5254 35.9152C2.44922 35.9914 2.3888 36.0819 2.34758 36.1814C2.30635 36.2809 2.28514 36.3876 2.28516 36.4953C2.28517 36.6031 2.3064 36.7098 2.34765 36.8093C2.38889 36.9088 2.44934 36.9993 2.52554 37.0754Z" fill="white"/>
<path d="M8.01789 32.4024C8.12562 32.4025 8.23231 32.3813 8.33184 32.3401C8.43136 32.2989 8.52177 32.2384 8.59785 32.1622L9.81766 30.9425C9.89486 30.8666 9.95626 30.7761 9.99832 30.6763C10.0404 30.5765 10.0623 30.4694 10.0627 30.3611C10.0632 30.2528 10.0422 30.1455 10.001 30.0454C9.95974 29.9452 9.8991 29.8543 9.82254 29.7777C9.74598 29.7011 9.65501 29.6404 9.55489 29.5992C9.45476 29.5579 9.34746 29.5369 9.23918 29.5374C9.13089 29.5378 9.02376 29.5597 8.92397 29.6017C8.82417 29.6437 8.73369 29.7051 8.65774 29.7823L7.43793 31.0021C7.32324 31.1168 7.24514 31.263 7.21351 31.4221C7.18187 31.5812 7.19811 31.7461 7.26019 31.896C7.32226 32.0458 7.42737 32.1739 7.56224 32.2641C7.69711 32.3542 7.85567 32.4023 8.01789 32.4024Z" fill="white"/>
<path d="M4.66027 38.0827L1.01534 41.7273C0.863576 41.8816 0.778911 42.0895 0.779792 42.3059C0.780673 42.5223 0.867029 42.7296 1.02005 42.8827C1.17307 43.0357 1.38036 43.122 1.59676 43.1229C1.81316 43.1238 2.02114 43.0391 2.1754 42.8874L5.82005 39.2427C5.89724 39.1668 5.95863 39.0763 6.00069 38.9765C6.04274 38.8767 6.06461 38.7696 6.06505 38.6613C6.06549 38.553 6.04449 38.4457 6.00325 38.3456C5.96202 38.2455 5.90137 38.1545 5.82479 38.0779C5.74822 38.0013 5.65725 37.9407 5.55712 37.8994C5.45699 37.8582 5.34969 37.8372 5.24141 37.8377C5.13312 37.8381 5.02599 37.86 4.9262 37.902C4.82641 37.9441 4.73594 38.0055 4.65999 38.0827H4.66027Z" fill="white"/>
<path d="M11.9688 31.9338C11.815 31.78 11.6064 31.6936 11.3888 31.6936C11.1713 31.6936 10.9627 31.78 10.8089 31.9338L6.53902 36.2031C6.46182 36.279 6.40042 36.3695 6.35836 36.4693C6.31629 36.5691 6.29441 36.6762 6.29395 36.7845C6.2935 36.8928 6.31449 37.0001 6.35571 37.1002C6.39694 37.2003 6.45758 37.2913 6.53414 37.3679C6.6107 37.4445 6.70167 37.5051 6.80179 37.5464C6.90192 37.5876 7.00921 37.6087 7.1175 37.6082C7.22579 37.6078 7.33292 37.5859 7.43271 37.5439C7.5325 37.5019 7.62299 37.4405 7.69894 37.3633L11.9688 33.0933C12.1225 32.9395 12.2088 32.731 12.2088 32.5135C12.2088 32.2961 12.1225 32.0876 11.9688 31.9338Z" fill="white"/>
<path d="M28.1074 58.4098L27.4785 59.0379C27.3247 59.1917 27.2383 59.4004 27.2383 59.6179C27.2383 59.8355 27.3247 60.0441 27.4786 60.198C27.6324 60.3518 27.8411 60.4382 28.0587 60.4382C28.2762 60.4382 28.4849 60.3518 28.6387 60.1979L29.2668 59.569C29.4186 59.4147 29.5032 59.2067 29.5023 58.9903C29.5014 58.7739 29.415 58.5667 29.262 58.4137C29.1089 58.2607 28.9016 58.1743 28.6852 58.1735C28.4688 58.1726 28.2608 58.2573 28.1066 58.4091L28.1074 58.4098Z" fill="white"/>
<path d="M32.6957 53.8208L29.8888 56.6276C29.811 56.7034 29.7489 56.7939 29.7063 56.8939C29.6637 56.9938 29.6414 57.1013 29.6406 57.2099C29.6399 57.3186 29.6608 57.4263 29.702 57.5268C29.7432 57.6274 29.804 57.7187 29.8809 57.7955C29.9577 57.8724 30.049 57.9332 30.1495 57.9744C30.2501 58.0157 30.3578 58.0365 30.4665 58.0358C30.5751 58.0351 30.6825 58.0128 30.7825 57.9702C30.8825 57.9276 30.973 57.8655 31.0488 57.7877L33.8556 54.9808C34.006 54.8263 34.0895 54.6188 34.0881 54.4032C34.0866 54.1875 34.0003 53.9812 33.8478 53.8287C33.6954 53.6762 33.489 53.5899 33.2734 53.5884C33.0578 53.5869 32.8502 53.6704 32.6957 53.8208Z" fill="white"/>
<path d="M28.7142 63.2642C28.8681 63.418 29.0767 63.5044 29.2943 63.5044C29.5118 63.5044 29.7205 63.418 29.8743 63.2642L33.1739 59.9649C33.2517 59.8891 33.3138 59.7986 33.3564 59.6986C33.399 59.5987 33.4213 59.4912 33.4221 59.3826C33.4228 59.2739 33.402 59.1662 33.3607 59.0657C33.3195 58.9651 33.2587 58.8738 33.1819 58.7969C33.105 58.7201 33.0137 58.6593 32.9132 58.618C32.8126 58.5768 32.7049 58.5559 32.5963 58.5567C32.4876 58.5574 32.3802 58.5797 32.2802 58.6223C32.1802 58.6649 32.0897 58.7269 32.0139 58.8048L28.7144 62.1042C28.5606 62.258 28.4741 62.4667 28.4741 62.6842C28.4741 62.9017 28.5605 63.1103 28.7142 63.2642Z" fill="white"/>
<path d="M33.627 58.3515C33.7032 58.4277 33.7936 58.4882 33.8932 58.5294C33.9927 58.5706 34.0994 58.5919 34.2071 58.5919C34.3149 58.5919 34.4215 58.5706 34.5211 58.5294C34.6206 58.4882 34.7111 58.4277 34.7872 58.3515L36.0069 57.1317C36.1607 56.9779 36.2471 56.7692 36.2471 56.5516C36.2471 56.334 36.1606 56.1254 36.0068 55.9715C35.8529 55.8177 35.6442 55.7313 35.4266 55.7313C35.2091 55.7313 35.0004 55.8178 34.8466 55.9717L33.627 57.1913C33.5508 57.2675 33.4904 57.358 33.4492 57.4575C33.4079 57.557 33.3867 57.6637 33.3867 57.7714C33.3867 57.8792 33.4079 57.9859 33.4492 58.0854C33.4904 58.1849 33.5508 58.2754 33.627 58.3515Z" fill="white"/>
<path d="M30.8487 64.2715L27.2041 67.916C27.1269 67.9919 27.0655 68.0824 27.0234 68.1822C26.9813 68.282 26.9594 68.3891 26.959 68.4974C26.9585 68.6057 26.9795 68.713 27.0208 68.8131C27.062 68.9132 27.1226 69.0042 27.1992 69.0808C27.2757 69.1574 27.3667 69.218 27.4668 69.2593C27.567 69.3005 27.6743 69.3216 27.7825 69.3211C27.8908 69.3207 27.998 69.2988 28.0977 69.2568C28.1975 69.2148 28.288 69.1534 28.364 69.0762L32.0088 65.4316C32.086 65.3556 32.1473 65.2651 32.1894 65.1653C32.2314 65.0656 32.2533 64.9584 32.2538 64.8501C32.2542 64.7419 32.2332 64.6346 32.192 64.5344C32.1507 64.4343 32.0901 64.3433 32.0135 64.2668C31.9369 64.1902 31.846 64.1295 31.7458 64.0883C31.6457 64.0471 31.5384 64.0261 31.4301 64.0265C31.3218 64.0269 31.2147 64.0488 31.1149 64.0909C31.0151 64.1329 30.9246 64.1943 30.8487 64.2715Z" fill="white"/>
<path d="M36.9974 58.1225L32.7274 62.3925C32.6502 62.4684 32.5888 62.5589 32.5468 62.6587C32.5047 62.7585 32.4829 62.8656 32.4824 62.9739C32.482 63.0822 32.503 63.1895 32.5442 63.2896C32.5855 63.3898 32.6461 63.4807 32.7227 63.5573C32.7993 63.6339 32.8902 63.6945 32.9904 63.7358C33.0905 63.777 33.1978 63.798 33.3061 63.7976C33.4144 63.7971 33.5215 63.7752 33.6213 63.7332C33.7211 63.6911 33.8115 63.6298 33.8875 63.5526L38.1574 59.2827C38.2346 59.2068 38.296 59.1163 38.338 59.0165C38.3801 58.9167 38.402 58.8096 38.4024 58.7013C38.4029 58.593 38.3819 58.4857 38.3407 58.3856C38.2994 58.2855 38.2388 58.1945 38.1622 58.1179C38.0857 58.0413 37.9947 57.9807 37.8946 57.9394C37.7945 57.8982 37.6872 57.8771 37.5789 57.8776C37.4706 57.878 37.3635 57.8999 37.2637 57.9419C37.1639 57.9839 37.0734 58.0453 36.9974 58.1225Z" fill="white"/>
<path d="M60.2264 48.1674C59.5537 47.9401 58.9427 47.5602 58.4414 47.0574C57.94 46.5545 57.562 45.9423 57.3368 45.2689C57.2825 45.1055 57.178 44.9633 57.0383 44.8626C56.8986 44.7619 56.7307 44.7076 56.5585 44.7076C56.3863 44.7076 56.2184 44.7619 56.0787 44.8626C55.939 44.9633 55.8346 45.1055 55.7802 45.2689C55.555 45.9423 55.177 46.5545 54.6756 47.0574C54.1743 47.5602 53.5633 47.9401 52.8906 48.1674C52.7275 48.2219 52.5856 48.3264 52.4851 48.466C52.3846 48.6056 52.3306 48.7733 52.3306 48.9453C52.3306 49.1173 52.3846 49.285 52.4851 49.4246C52.5856 49.5642 52.7275 49.6686 52.8906 49.7232C53.5633 49.9504 54.1743 50.3303 54.6756 50.8332C55.177 51.3361 55.555 51.9482 55.7802 52.6217C55.8346 52.7851 55.939 52.9272 56.0787 53.028C56.2184 53.1287 56.3863 53.1829 56.5585 53.1829C56.7307 53.1829 56.8986 53.1287 57.0383 53.028C57.178 52.9272 57.2825 52.7851 57.3368 52.6217C57.562 51.9482 57.94 51.3361 58.4414 50.8332C58.9427 50.3303 59.5537 49.9504 60.2264 49.7232C60.3895 49.6686 60.5314 49.5642 60.6319 49.4246C60.7324 49.285 60.7864 49.1173 60.7864 48.9453C60.7864 48.7733 60.7324 48.6056 60.6319 48.466C60.5314 48.3264 60.3895 48.2219 60.2264 48.1674ZM56.5585 50.5437C56.1277 49.9189 55.5872 49.3773 54.9633 48.9453C55.5872 48.5133 56.1277 47.9717 56.5585 47.3469C56.9893 47.9717 57.5298 48.5133 58.1537 48.9453C57.5298 49.3773 56.9893 49.9189 56.5585 50.5437Z" fill="white"/>
<path d="M2.03124 16.774C2.70398 17.0012 3.31495 17.3811 3.81627 17.884C4.3176 18.3869 4.69565 18.999 4.92079 19.6724C4.97518 19.8359 5.07963 19.978 5.21933 20.0788C5.35903 20.1795 5.52689 20.2337 5.69913 20.2337C5.87137 20.2337 6.03923 20.1795 6.17893 20.0788C6.31863 19.978 6.42308 19.8359 6.47747 19.6724C6.70261 18.999 7.08066 18.3869 7.58199 17.884C8.08331 17.3811 8.69428 17.0012 9.36702 16.774C9.53015 16.7194 9.67199 16.6149 9.77249 16.4753C9.87299 16.3357 9.92707 16.1681 9.92707 15.9961C9.92707 15.8241 9.87299 15.6564 9.77249 15.5168C9.67199 15.3772 9.53015 15.2727 9.36702 15.2181C8.69428 14.9909 8.08331 14.611 7.58199 14.1081C7.08066 13.6053 6.70261 12.9931 6.47747 12.3197C6.42308 12.1563 6.31863 12.0141 6.17893 11.9134C6.03923 11.8126 5.87137 11.7584 5.69913 11.7584C5.52689 11.7584 5.35903 11.8126 5.21933 11.9134C5.07963 12.0141 4.97518 12.1563 4.92079 12.3197C4.69565 12.9931 4.3176 13.6053 3.81627 14.1081C3.31495 14.611 2.70398 14.9909 2.03124 15.2181C1.86811 15.2727 1.72627 15.3772 1.62577 15.5168C1.52527 15.6564 1.47119 15.8241 1.47119 15.9961C1.47119 16.1681 1.52527 16.3357 1.62577 16.4753C1.72627 16.6149 1.86811 16.7194 2.03124 16.774ZM5.69913 14.3977C6.12992 15.0225 6.6704 15.564 7.29436 15.9961C6.6704 16.4281 6.12992 16.9696 5.69913 17.5944C5.26834 16.9696 4.72786 16.4281 4.1039 15.9961C4.72786 15.564 5.26834 15.0225 5.69913 14.3977Z" fill="white"/>
<path d="M16.3686 8.88672C17.198 8.88672 17.8704 8.2134 17.8704 7.38281C17.8704 6.55223 17.198 5.87891 16.3686 5.87891C15.5391 5.87891 14.8667 6.55223 14.8667 7.38281C14.8667 8.2134 15.5391 8.88672 16.3686 8.88672Z" fill="white"/>
<path d="M53.9662 62.3438C54.7957 62.3438 55.4681 61.6704 55.4681 60.8398C55.4681 60.0093 54.7957 59.3359 53.9662 59.3359C53.1368 59.3359 52.4644 60.0093 52.4644 60.8398C52.4644 61.6704 53.1368 62.3438 53.9662 62.3438Z" fill="white"/>
<path d="M45.039 14.7612C44.0532 14.7618 43.0827 15.0054 42.2134 15.4705C41.3442 15.9356 40.603 16.6078 40.0556 17.4276C39.5081 18.2475 39.1712 19.1897 39.0747 20.1708C38.9782 21.1519 39.1251 22.1417 39.5024 23.0525C39.8796 23.9633 40.4756 24.767 41.2376 25.3925C41.9996 26.018 42.904 26.446 43.8709 26.6386C44.8377 26.8312 45.8372 26.7825 46.7807 26.4967C47.7242 26.2109 48.5827 25.6969 49.2802 25.0002C50.119 24.1614 50.6903 23.0927 50.9217 21.9292C51.1531 20.7657 51.0343 19.5597 50.5803 18.4637C50.1264 17.3678 49.3576 16.431 48.3712 15.772C47.3848 15.1129 46.2253 14.7612 45.039 14.7612ZM48.1201 23.8402C47.5107 24.4496 46.7343 24.8646 45.8891 25.0328C45.0438 25.2009 44.1677 25.1146 43.3715 24.7849C42.5752 24.4551 41.8947 23.8966 41.4159 23.18C40.9371 22.4634 40.6815 21.621 40.6815 20.7591C40.6815 19.8973 40.9371 19.0549 41.4159 18.3383C41.8947 17.6217 42.5752 17.0632 43.3715 16.7334C44.1677 16.4037 45.0438 16.3174 45.8891 16.4855C46.7343 16.6537 47.5107 17.0687 48.1201 17.6781C48.936 18.4959 49.3943 19.6039 49.3943 20.7591C49.3943 21.9144 48.936 23.0224 48.1201 23.8402Z" fill="white"/>
</svg>
