<svg width="70" height="70" viewBox="0 0 70 70" fill="none" xmlns="http://www.w3.org/2000/svg">
<path d="M67.7624 21.7459L62.8596 13.254C62.5679 12.7489 61.9486 12.5356 61.4078 12.7539L54.1908 15.6673C53.5913 15.9092 53.3015 16.5912 53.5435 17.1907C53.7855 17.7904 54.4674 18.0802 55.067 17.8379L61.3408 15.3053L65.2264 22.0356L59.9029 26.1972C59.5207 26.496 59.3626 26.9993 59.5049 27.4629C60.9794 32.263 61.0357 37.5534 59.5049 42.5368C59.3626 43.0004 59.5207 43.5037 59.9029 43.8025L65.2264 47.9641L61.3408 54.6944L55.067 52.1618C54.6171 51.9799 54.1021 52.0948 53.7717 52.45C50.2482 56.2386 45.7373 58.8454 40.7268 59.9886C40.2535 60.0966 39.896 60.4856 39.8282 60.9665L38.8857 67.6591H31.1143L30.1718 60.9668C30.104 60.4861 29.7465 60.097 29.2732 59.9889C24.2626 58.8457 19.7518 56.2388 16.2283 52.4503C15.8979 52.0951 15.3829 51.9802 14.933 52.1621L8.65921 54.6946L4.77343 47.9644L10.097 43.8028C10.4791 43.504 10.6373 43.0007 10.4949 42.5371C9.02044 37.737 8.96411 32.4466 10.4949 27.4632C10.6373 26.9995 10.4791 26.4963 10.097 26.1975L4.77343 22.0359L8.65921 15.3056L14.933 17.8382C15.3829 18.0201 15.8981 17.9052 16.2283 17.55C19.7518 13.7614 24.2627 11.1546 29.2732 10.0114C29.7465 9.90339 30.104 9.51436 30.1718 9.03345L31.1143 2.3412H38.8857L39.8282 9.03345C39.896 9.51421 40.2535 9.90324 40.7268 10.0114C43.4704 10.6373 46.0783 11.7088 48.4778 13.1956C49.0277 13.5358 49.7489 13.3663 50.0892 12.8171C50.4296 12.2676 50.2602 11.546 49.7108 11.2055C47.3219 9.72534 44.7434 8.62232 42.0357 7.92093L41.062 1.00747C40.9807 0.429993 40.4863 0.000289917 39.903 0.000289917H30.0973C29.514 0.000289917 29.0196 0.429993 28.9383 1.00747L27.9646 7.92093C23.0694 9.18766 18.6412 11.7467 15.074 15.3708L8.59249 12.7543C8.05159 12.5358 7.43242 12.7492 7.14068 13.2544L2.23778 21.7464C1.94604 22.2516 2.07099 22.8945 2.53054 23.2538L8.03096 27.5538C6.69284 32.4094 6.69254 37.5903 8.03096 42.4471L2.53054 46.7471C2.07099 47.1064 1.94604 47.7493 2.23778 48.2545L7.14068 56.7465C7.43242 57.2517 8.05145 57.465 8.59249 57.2465L15.074 54.6301C18.6412 58.2542 23.0694 60.8132 27.9646 62.0799L28.9383 68.9934C29.0195 69.5703 29.5138 70 30.0972 70H39.9028C40.4862 70 40.9805 69.5703 41.0619 68.9928L42.0355 62.0794C46.9307 60.8126 51.359 58.2536 54.9261 54.6295L61.4078 57.246C61.9487 57.4641 62.568 57.2512 62.8596 56.7459L67.7624 48.2539C68.0541 47.7487 67.9292 47.1058 67.4696 46.7465L61.9692 42.4465C63.3073 37.5909 63.3076 32.41 61.9692 27.5532L67.4696 23.2532C67.9292 22.894 68.0541 22.2513 67.7624 21.7459ZM33.0827 29.4321L38.935 39.3809C39.2627 39.9382 39.0768 40.6556 38.5196 40.9833C37.9626 41.3109 37.2452 41.1251 36.9173 40.5679L31.065 30.619C30.7373 30.0618 30.9232 29.3444 31.4804 29.0167C32.0378 28.689 32.7551 28.8751 33.0827 29.4321ZM28.5122 39.487C28.0553 39.9438 27.3143 39.9439 26.857 39.487L23.1976 35.8276C22.7408 35.3707 22.7405 34.6295 23.1976 34.1723L26.857 30.5128C27.3143 30.0558 28.0552 30.0559 28.5122 30.5128C28.9694 30.97 28.9694 31.7111 28.5122 32.1681L25.6804 34.9998L28.5122 37.8314C28.9694 38.2888 28.9694 39.0298 28.5122 39.487ZM42.1691 30.17C42.4686 30.17 42.7683 30.2843 42.9968 30.5128L46.6562 34.1724C47.113 34.6293 47.1133 35.3705 46.6562 35.8277L42.9968 39.4872C42.5397 39.9441 41.7987 39.9441 41.3416 39.4872C40.8844 39.03 40.8844 38.2889 41.3416 37.8318L44.1734 35.0002L41.3416 32.1684C40.6017 31.4283 41.1358 30.17 42.1691 30.17ZM28.1503 16.3184C30.3844 15.4992 32.7007 15.0914 35.0113 15.0916C49.4702 15.0923 59.1605 30.1896 53.0531 43.3671C48.4396 53.3213 36.5877 57.6666 26.6329 53.0532C13.9775 47.1878 11.1081 30.3238 21.2298 20.6298C21.6966 20.1825 22.4377 20.1986 22.8847 20.6655C23.3318 21.1322 23.3158 21.8732 22.849 22.3203C13.9241 30.8685 16.4448 45.7513 27.6171 50.9293C36.401 55 46.8583 51.1662 50.929 42.3827C54.9998 33.5995 51.1659 23.1417 42.3824 19.0709C38.1274 17.0988 33.3591 16.9019 28.9557 18.5162C28.3489 18.7384 27.6764 18.427 27.4538 17.8202C27.2316 17.2132 27.5432 16.5408 28.1503 16.3184Z" fill="white"/>
</svg>
