<svg width="128" height="66" viewBox="0 0 128 66" fill="none" xmlns="http://www.w3.org/2000/svg">
<path d="M1.11214 29.1074C0.916885 29.3026 0.916885 29.6192 1.11214 29.8145L4.29413 32.9965C4.48939 33.1917 4.80597 33.1917 5.00124 32.9965C5.1965 32.8012 5.1965 32.4846 5.00124 32.2894L2.17281 29.4609L5.00124 26.6325C5.1965 26.4372 5.1965 26.1207 5.00124 25.9254C4.80597 25.7301 4.48939 25.7301 4.29413 25.9254L1.11214 29.1074ZM70.4657 28.9609H68.0014V29.9609H70.4657V28.9609ZM63.0728 28.9609H58.1443V29.9609H63.0728V28.9609ZM53.2157 28.9609H48.2871V29.9609H53.2157V28.9609ZM43.3586 28.9609H38.43V29.9609H43.3586V28.9609ZM33.5014 28.9609L28.5728 28.9609V29.9609H33.5014V28.9609ZM23.6443 28.9609H18.7157V29.9609H23.6443V28.9609ZM13.7871 28.9609H8.85857V29.9609H13.7871V28.9609ZM3.92999 28.9609H1.4657V29.9609H3.92999V28.9609ZM0.758591 28.7538C0.368065 29.1444 0.368065 29.7775 0.758591 30.168L7.12255 36.532C7.51308 36.9225 8.14624 36.9225 8.53677 36.532C8.92729 36.1415 8.92729 35.5083 8.53677 35.1178L2.87991 29.4609L8.53677 23.8041C8.92729 23.4136 8.92729 22.7804 8.53677 22.3899C8.14624 21.9993 7.51308 21.9993 7.12255 22.3899L0.758591 28.7538ZM70.4657 28.4609H68.0014V30.4609H70.4657V28.4609ZM63.0728 28.4609H58.1443V30.4609H63.0728V28.4609ZM53.2157 28.4609H48.2871V30.4609H53.2157V28.4609ZM43.3586 28.4609H38.43V30.4609H43.3586V28.4609ZM33.5014 28.4609H28.5728V30.4609H33.5014V28.4609ZM23.6443 28.4609H18.7157V30.4609H23.6443V28.4609ZM13.7871 28.4609H8.85857V30.4609H13.7871V28.4609ZM3.92999 28.4609H1.4657V30.4609H3.92999V28.4609Z" fill="#0082F4"/>
<path d="M78.4656 0.460938L78.4657 21.3736" stroke="#0082F4" stroke-dasharray="6 6"/>
<g clip-path="url(#clip0_10352_3643)">
<path d="M76.4647 24.2485C74.4167 25.05 72.9657 27.0425 72.9657 29.3735C72.9657 32.411 75.4282 34.8735 78.4657 34.8735M80.4667 34.4985C82.5152 33.698 83.9657 31.705 83.9657 29.3735C83.9657 26.336 81.5032 23.8735 78.4657 23.8735M76.4657 27.8735V23.8735H72.4657M84.4657 34.8735H80.4657V30.8735" stroke="white"/>
</g>
<path d="M77.8558 65.2206C78.0475 65.4194 78.364 65.4251 78.5628 65.2335L81.8021 62.1098C82.0008 61.9182 82.0066 61.6016 81.8149 61.4029C81.6232 61.2041 81.3067 61.1983 81.1079 61.39L78.2286 64.1665L75.452 61.2872C75.2603 61.0884 74.9438 61.0826 74.745 61.2743C74.5462 61.466 74.5405 61.7825 74.7322 61.9813L77.8558 65.2206ZM78.2158 37.3644L78.1741 39.6561L79.1739 39.6743L79.2156 37.3826L78.2158 37.3644ZM78.0908 44.2394L78.0074 48.8228L79.0073 48.841L79.0906 44.2576L78.0908 44.2394ZM77.9241 53.4061L77.8408 57.9894L78.8406 58.0076L78.9239 53.4243L77.9241 53.4061ZM77.7574 62.5728L77.7158 64.8644L78.7156 64.8826L78.7573 62.591L77.7574 62.5728ZM77.4959 65.5677C77.8792 65.9652 78.5123 65.9767 78.9098 65.5934L85.3884 59.3462C85.786 58.9628 85.7975 58.3297 85.4141 57.9322C85.0308 57.5346 84.3977 57.5231 84.0002 57.9065L78.2414 63.4596L72.6883 57.7008C72.305 57.3032 71.6719 57.2917 71.2743 57.6751C70.8768 58.0585 70.8653 58.6915 71.2486 59.0891L77.4959 65.5677ZM77.7159 37.3554L77.6742 39.647L79.6739 39.6834L79.7155 37.3917L77.7159 37.3554ZM77.5909 44.2304L77.5075 48.8137L79.5072 48.85L79.5905 44.2667L77.5909 44.2304ZM77.4242 53.397L77.3409 57.9804L79.3405 58.0167L79.4239 53.4334L77.4242 53.397ZM77.2575 62.5637L77.2159 64.8554L79.2155 64.8917L79.2572 62.6L77.2575 62.5637Z" fill="#0082F4"/>
<path d="M126.819 29.8145C127.015 29.6192 127.015 29.3026 126.819 29.1074L123.637 25.9254C123.442 25.7301 123.125 25.7301 122.93 25.9254C122.735 26.1207 122.735 26.4372 122.93 26.6325L125.759 29.4609L122.93 32.2894C122.735 32.4846 122.735 32.8012 122.93 32.9965C123.125 33.1917 123.442 33.1917 123.637 32.9965L126.819 29.8145ZM91.4657 29.9609H93.6532V28.9609H91.4657V29.9609ZM98.0282 29.9609H102.403V28.9609H98.0282V29.9609ZM106.778 29.9609H111.153V28.9609H106.778V29.9609ZM115.528 29.9609H119.903V28.9609H115.528V29.9609ZM124.278 29.9609H126.466V28.9609H124.278V29.9609ZM127.173 30.168C127.563 29.7775 127.563 29.1444 127.173 28.7538L120.809 22.3899C120.418 21.9993 119.785 21.9993 119.395 22.3899C119.004 22.7804 119.004 23.4136 119.395 23.8041L125.051 29.4609L119.395 35.1178C119.004 35.5083 119.004 36.1415 119.395 36.532C119.785 36.9225 120.418 36.9225 120.809 36.532L127.173 30.168ZM91.4657 30.4609H93.6532V28.4609H91.4657V30.4609ZM98.0282 30.4609H102.403V28.4609H98.0282V30.4609ZM106.778 30.4609H111.153V28.4609H106.778V30.4609ZM115.528 30.4609H119.903V28.4609H115.528V30.4609ZM124.278 30.4609H126.466V28.4609H124.278V30.4609Z" fill="#0082F4"/>
<defs>
<clipPath id="clip0_10352_3643">
<rect width="12" height="12" fill="white" transform="translate(84.4657 23.3735) rotate(90)"/>
</clipPath>
</defs>
</svg>
